%TF.GenerationSoftware,KiCad,Pcbnew,7.0.10*%
%TF.CreationDate,2024-11-13T10:28:54-08:00*%
%TF.ProjectId,ballBearingFPC241113,62616c6c-4265-4617-9269-6e6746504332,rev?*%
%TF.SameCoordinates,Original*%
%TF.FileFunction,Copper,L1,Top*%
%TF.FilePolarity,Positive*%
%FSLAX46Y46*%
G04 Gerber Fmt 4.6, Leading zero omitted, Abs format (unit mm)*
G04 Created by KiCad (PCBNEW 7.0.10) date 2024-11-13 10:28:54*
%MOMM*%
%LPD*%
G01*
G04 APERTURE LIST*
G04 Aperture macros list*
%AMRoundRect*
0 Rectangle with rounded corners*
0 $1 Rounding radius*
0 $2 $3 $4 $5 $6 $7 $8 $9 X,Y pos of 4 corners*
0 Add a 4 corners polygon primitive as box body*
4,1,4,$2,$3,$4,$5,$6,$7,$8,$9,$2,$3,0*
0 Add four circle primitives for the rounded corners*
1,1,$1+$1,$2,$3*
1,1,$1+$1,$4,$5*
1,1,$1+$1,$6,$7*
1,1,$1+$1,$8,$9*
0 Add four rect primitives between the rounded corners*
20,1,$1+$1,$2,$3,$4,$5,0*
20,1,$1+$1,$4,$5,$6,$7,0*
20,1,$1+$1,$6,$7,$8,$9,0*
20,1,$1+$1,$8,$9,$2,$3,0*%
G04 Aperture macros list end*
%TA.AperFunction,EtchedComponent*%
%ADD10C,0.400000*%
%TD*%
%TA.AperFunction,SMDPad,CuDef*%
%ADD11RoundRect,0.075000X-0.239618X0.635479X-0.373269X0.567380X0.239618X-0.635479X0.373269X-0.567380X0*%
%TD*%
%TA.AperFunction,SMDPad,CuDef*%
%ADD12RoundRect,0.075000X-0.075000X-0.675000X0.075000X-0.675000X0.075000X0.675000X-0.075000X0.675000X0*%
%TD*%
%TA.AperFunction,SMDPad,CuDef*%
%ADD13RoundRect,0.075000X0.075000X0.675000X-0.075000X0.675000X-0.075000X-0.675000X0.075000X-0.675000X0*%
%TD*%
%TA.AperFunction,ComponentPad*%
%ADD14C,0.700000*%
%TD*%
%TA.AperFunction,SMDPad,CuDef*%
%ADD15RoundRect,0.100000X-0.100000X0.500000X-0.100000X-0.500000X0.100000X-0.500000X0.100000X0.500000X0*%
%TD*%
%TA.AperFunction,ViaPad*%
%ADD16C,0.800000*%
%TD*%
%TA.AperFunction,Conductor*%
%ADD17C,0.250000*%
%TD*%
G04 APERTURE END LIST*
D10*
%TO.C,L2*%
X0Y-5980000D02*
X500000Y-6480000D01*
X500000Y-6480000D02*
X500000Y-6980000D01*
X500000Y-6980000D02*
X500000Y-7480000D01*
X-500000Y-6980000D02*
X-500000Y-7420000D01*
X0Y-5430000D02*
G75*
G03*
X0Y6470000I0J5950000D01*
G01*
X0Y-4880000D02*
G75*
G03*
X0Y5920000I0J5400000D01*
G01*
X0Y-4330000D02*
G75*
G03*
X0Y5370000I0J4850000D01*
G01*
X0Y-3780000D02*
G75*
G03*
X0Y4820000I0J4300000D01*
G01*
X0Y-3230000D02*
G75*
G03*
X0Y4270000I0J3750000D01*
G01*
X0Y3720000D02*
G75*
G03*
X0Y-3230000I0J-3475000D01*
G01*
X0Y4270000D02*
G75*
G03*
X0Y-3780000I0J-4025000D01*
G01*
X0Y4820000D02*
G75*
G03*
X0Y-4330000I0J-4575000D01*
G01*
X0Y5370000D02*
G75*
G03*
X0Y-4880000I0J-5125000D01*
G01*
X0Y5920000D02*
G75*
G03*
X0Y-5430000I0J-5675000D01*
G01*
X0Y6470000D02*
G75*
G03*
X0Y-5980000I0J-6225000D01*
G01*
%TD*%
D11*
%TO.P,J5,1,Pin_1*%
%TO.N,Net-(J1-Pin_1)*%
X11850617Y9293035D03*
%TO.P,J5,2,Pin_2*%
%TO.N,Net-(J1-Pin_2)*%
X11405114Y9066040D03*
%TO.P,J5,3,Pin_3*%
%TO.N,Net-(J1-Pin_3)*%
X10963175Y8840861D03*
%TO.P,J5,4,Pin_4*%
%TO.N,unconnected-(J5-Pin_4-Pad4)*%
X10514108Y8612049D03*
%TO.P,J5,5,Pin_5*%
%TO.N,unconnected-(J5-Pin_5-Pad5)*%
X10068604Y8385054D03*
%TO.P,J5,6,Pin_6*%
%TO.N,unconnected-(J5-Pin_6-Pad6)*%
X9623101Y8158059D03*
%TD*%
D12*
%TO.P,J1,1,Pin_1*%
%TO.N,Net-(J1-Pin_1)*%
X14507000Y-16390400D03*
%TO.P,J1,2,Pin_2*%
%TO.N,Net-(J1-Pin_2)*%
X14007000Y-16390400D03*
%TO.P,J1,3,Pin_3*%
%TO.N,Net-(J1-Pin_3)*%
X13511000Y-16390400D03*
D13*
%TO.P,J1,4,Pin_4*%
%TO.N,unconnected-(J1-Pin_4-Pad4)*%
X13007000Y-16390400D03*
D12*
%TO.P,J1,5,Pin_5*%
%TO.N,Net-(J1-Pin_5)*%
X12507000Y-16390400D03*
%TO.P,J1,6,Pin_6*%
%TO.N,Net-(J1-Pin_6)*%
X12007000Y-16390400D03*
%TD*%
D14*
%TO.P,L2,*%
%TO.N,*%
X0Y3568000D03*
X500000Y-6980000D03*
X-500000Y-6980000D03*
D15*
%TO.P,L2,1,1*%
%TO.N,Net-(J1-Pin_6)*%
X-500000Y-7801000D03*
X-500000Y-7801000D03*
%TO.P,L2,2,2*%
%TO.N,Net-(J1-Pin_5)*%
X500000Y-7801000D03*
X500000Y-7801000D03*
%TD*%
D16*
%TO.N,Net-(J1-Pin_2)*%
X12149600Y5938400D03*
%TO.N,Net-(J1-Pin_3)*%
X11024111Y6140089D03*
%TO.N,Net-(J1-Pin_1)*%
X13257964Y6421000D03*
%TO.N,Net-(J1-Pin_6)*%
X-500000Y-8280000D03*
%TD*%
D17*
%TO.N,Net-(J1-Pin_1)*%
X12733800Y5040000D02*
X13318000Y6116200D01*
X12759200Y4125600D02*
X12733800Y5040000D01*
X13648200Y2423800D02*
X12759200Y4125600D01*
X14130800Y1407800D02*
X13648200Y2423800D01*
X14613400Y-497200D02*
X14562600Y417200D01*
X14562600Y417200D02*
X14130800Y1407800D01*
X14611000Y-15028400D02*
X14611000Y-4307000D01*
X14561000Y-15078400D02*
X14611000Y-15028400D01*
X14615000Y-4303000D02*
X14613400Y-497200D01*
X14561000Y-16336400D02*
X14561000Y-15078400D01*
X14507000Y-16390400D02*
X14561000Y-16336400D01*
X14611000Y-4307000D02*
X14615000Y-4303000D01*
%TO.N,Net-(J1-Pin_3)*%
X11024111Y5555889D02*
X12251200Y2915800D01*
X11024111Y6140089D02*
X11024111Y5555889D01*
X13318000Y680600D02*
X12251200Y2915800D01*
X13611000Y97000D02*
X13318000Y680600D01*
X13611000Y-14803000D02*
X13611000Y97000D01*
%TO.N,Net-(J1-Pin_2)*%
X12200400Y4236600D02*
X12149600Y5963800D01*
X14105400Y325000D02*
X13775200Y985400D01*
X12149600Y5963800D02*
X12124200Y7665600D01*
X12124200Y7665600D02*
X11405114Y9091440D01*
X14105400Y-675000D02*
X14105400Y325000D01*
X14111000Y-15003000D02*
X14105400Y-675000D01*
X13775200Y985400D02*
X12200400Y4236600D01*
%TO.N,Net-(J1-Pin_3)*%
X11590800Y7691000D02*
X10963175Y8866261D01*
X10879600Y5913000D02*
X11590800Y7030600D01*
X11590800Y7030600D02*
X11590800Y7691000D01*
%TO.N,Net-(J1-Pin_1)*%
X12556000Y7970400D02*
X11850617Y9318435D01*
X13216400Y6675000D02*
X12556000Y7970400D01*
%TO.N,Net-(J1-Pin_2)*%
X14011000Y-15128400D02*
X14111000Y-15028400D01*
X14007000Y-15572636D02*
X14011000Y-15568636D01*
X14011000Y-15568636D02*
X14011000Y-15128400D01*
X14007000Y-16390400D02*
X14007000Y-15572636D01*
%TO.N,Net-(J1-Pin_3)*%
X13511000Y-16390400D02*
X13511000Y-14928400D01*
X13511000Y-14928400D02*
X13611000Y-14828400D01*
%TO.N,Net-(J1-Pin_5)*%
X12507000Y-9232400D02*
X12507000Y-16190400D01*
X500000Y-8005000D02*
X500000Y-8417400D01*
X500000Y-8417400D02*
X811000Y-8728400D01*
X12511000Y-9228400D02*
X12507000Y-9232400D01*
X811000Y-8728400D02*
X12011000Y-8728400D01*
X12011000Y-8728400D02*
X12511000Y-9228400D01*
%TO.N,Net-(J1-Pin_6)*%
X11000Y-9528400D02*
X11511000Y-9528400D01*
X12007000Y-10024400D02*
X12007000Y-16190400D01*
X11511000Y-9528400D02*
X12007000Y-10024400D01*
X-500000Y-8280000D02*
X-500000Y-9017400D01*
X-500000Y-9017400D02*
X11000Y-9528400D01*
%TD*%
M02*
