%TF.GenerationSoftware,KiCad,Pcbnew,7.0.10*%
%TF.CreationDate,2024-11-13T10:28:54-08:00*%
%TF.ProjectId,ballBearingFPC241113,62616c6c-4265-4617-9269-6e6746504332,rev?*%
%TF.SameCoordinates,Original*%
%TF.FileFunction,Legend,Bot*%
%TF.FilePolarity,Positive*%
%FSLAX46Y46*%
G04 Gerber Fmt 4.6, Leading zero omitted, Abs format (unit mm)*
G04 Created by KiCad (PCBNEW 7.0.10) date 2024-11-13 10:28:54*
%MOMM*%
%LPD*%
G01*
G04 APERTURE LIST*
G04 Aperture macros list*
%AMRoundRect*
0 Rectangle with rounded corners*
0 $1 Rounding radius*
0 $2 $3 $4 $5 $6 $7 $8 $9 X,Y pos of 4 corners*
0 Add a 4 corners polygon primitive as box body*
4,1,4,$2,$3,$4,$5,$6,$7,$8,$9,$2,$3,0*
0 Add four circle primitives for the rounded corners*
1,1,$1+$1,$2,$3*
1,1,$1+$1,$4,$5*
1,1,$1+$1,$6,$7*
1,1,$1+$1,$8,$9*
0 Add four rect primitives between the rounded corners*
20,1,$1+$1,$2,$3,$4,$5,0*
20,1,$1+$1,$4,$5,$6,$7,0*
20,1,$1+$1,$6,$7,$8,$9,0*
20,1,$1+$1,$8,$9,$2,$3,0*%
G04 Aperture macros list end*
%ADD10C,0.100000*%
%ADD11RoundRect,0.075000X0.239618X-0.635479X0.373269X-0.567380X-0.239618X0.635479X-0.373269X0.567380X0*%
%ADD12RoundRect,0.075000X-0.239618X0.635479X-0.373269X0.567380X0.239618X-0.635479X0.373269X-0.567380X0*%
%ADD13RoundRect,0.075000X0.075000X0.675000X-0.075000X0.675000X-0.075000X-0.675000X0.075000X-0.675000X0*%
%ADD14C,0.700000*%
G04 APERTURE END LIST*
D10*
X-1239000Y-6410400D02*
X1261000Y-6410400D01*
X13158881Y-14345446D02*
X14997881Y-14345446D01*
X13158881Y-13542973D02*
X14997881Y-13542973D01*
X14053914Y-6601753D02*
X14025342Y-6516039D01*
X14025342Y-6516039D02*
X13996771Y-6487468D01*
X13996771Y-6487468D02*
X13939628Y-6458896D01*
X13939628Y-6458896D02*
X13853914Y-6458896D01*
X13853914Y-6458896D02*
X13796771Y-6487468D01*
X13796771Y-6487468D02*
X13768200Y-6516039D01*
X13768200Y-6516039D02*
X13739628Y-6573182D01*
X13739628Y-6573182D02*
X13739628Y-6801753D01*
X13739628Y-6801753D02*
X14339628Y-6801753D01*
X14339628Y-6801753D02*
X14339628Y-6601753D01*
X14339628Y-6601753D02*
X14311057Y-6544611D01*
X14311057Y-6544611D02*
X14282485Y-6516039D01*
X14282485Y-6516039D02*
X14225342Y-6487468D01*
X14225342Y-6487468D02*
X14168200Y-6487468D01*
X14168200Y-6487468D02*
X14111057Y-6516039D01*
X14111057Y-6516039D02*
X14082485Y-6544611D01*
X14082485Y-6544611D02*
X14053914Y-6601753D01*
X14053914Y-6601753D02*
X14053914Y-6801753D01*
X14339628Y-6087468D02*
X14339628Y-6030325D01*
X14339628Y-6030325D02*
X14311057Y-5973182D01*
X14311057Y-5973182D02*
X14282485Y-5944611D01*
X14282485Y-5944611D02*
X14225342Y-5916039D01*
X14225342Y-5916039D02*
X14111057Y-5887468D01*
X14111057Y-5887468D02*
X13968200Y-5887468D01*
X13968200Y-5887468D02*
X13853914Y-5916039D01*
X13853914Y-5916039D02*
X13796771Y-5944611D01*
X13796771Y-5944611D02*
X13768200Y-5973182D01*
X13768200Y-5973182D02*
X13739628Y-6030325D01*
X13739628Y-6030325D02*
X13739628Y-6087468D01*
X13739628Y-6087468D02*
X13768200Y-6144611D01*
X13768200Y-6144611D02*
X13796771Y-6173182D01*
X13796771Y-6173182D02*
X13853914Y-6201753D01*
X13853914Y-6201753D02*
X13968200Y-6230325D01*
X13968200Y-6230325D02*
X14111057Y-6230325D01*
X14111057Y-6230325D02*
X14225342Y-6201753D01*
X14225342Y-6201753D02*
X14282485Y-6173182D01*
X14282485Y-6173182D02*
X14311057Y-6144611D01*
X14311057Y-6144611D02*
X14339628Y-6087468D01*
X14282485Y-5658896D02*
X14311057Y-5630324D01*
X14311057Y-5630324D02*
X14339628Y-5573182D01*
X14339628Y-5573182D02*
X14339628Y-5430324D01*
X14339628Y-5430324D02*
X14311057Y-5373182D01*
X14311057Y-5373182D02*
X14282485Y-5344610D01*
X14282485Y-5344610D02*
X14225342Y-5316039D01*
X14225342Y-5316039D02*
X14168200Y-5316039D01*
X14168200Y-5316039D02*
X14082485Y-5344610D01*
X14082485Y-5344610D02*
X13739628Y-5687467D01*
X13739628Y-5687467D02*
X13739628Y-5316039D01*
X13682485Y-5201753D02*
X13682485Y-4744610D01*
X14339628Y-4687467D02*
X13739628Y-4487467D01*
X13739628Y-4487467D02*
X14339628Y-4287467D01*
X14339628Y-3973181D02*
X14339628Y-3916038D01*
X14339628Y-3916038D02*
X14311057Y-3858895D01*
X14311057Y-3858895D02*
X14282485Y-3830324D01*
X14282485Y-3830324D02*
X14225342Y-3801752D01*
X14225342Y-3801752D02*
X14111057Y-3773181D01*
X14111057Y-3773181D02*
X13968200Y-3773181D01*
X13968200Y-3773181D02*
X13853914Y-3801752D01*
X13853914Y-3801752D02*
X13796771Y-3830324D01*
X13796771Y-3830324D02*
X13768200Y-3858895D01*
X13768200Y-3858895D02*
X13739628Y-3916038D01*
X13739628Y-3916038D02*
X13739628Y-3973181D01*
X13739628Y-3973181D02*
X13768200Y-4030324D01*
X13768200Y-4030324D02*
X13796771Y-4058895D01*
X13796771Y-4058895D02*
X13853914Y-4087466D01*
X13853914Y-4087466D02*
X13968200Y-4116038D01*
X13968200Y-4116038D02*
X14111057Y-4116038D01*
X14111057Y-4116038D02*
X14225342Y-4087466D01*
X14225342Y-4087466D02*
X14282485Y-4058895D01*
X14282485Y-4058895D02*
X14311057Y-4030324D01*
X14311057Y-4030324D02*
X14339628Y-3973181D01*
X13796771Y-3516037D02*
X13768200Y-3487466D01*
X13768200Y-3487466D02*
X13739628Y-3516037D01*
X13739628Y-3516037D02*
X13768200Y-3544609D01*
X13768200Y-3544609D02*
X13796771Y-3516037D01*
X13796771Y-3516037D02*
X13739628Y-3516037D01*
X14339628Y-2944609D02*
X14339628Y-3230323D01*
X14339628Y-3230323D02*
X14053914Y-3258895D01*
X14053914Y-3258895D02*
X14082485Y-3230323D01*
X14082485Y-3230323D02*
X14111057Y-3173181D01*
X14111057Y-3173181D02*
X14111057Y-3030323D01*
X14111057Y-3030323D02*
X14082485Y-2973181D01*
X14082485Y-2973181D02*
X14053914Y-2944609D01*
X14053914Y-2944609D02*
X13996771Y-2916038D01*
X13996771Y-2916038D02*
X13853914Y-2916038D01*
X13853914Y-2916038D02*
X13796771Y-2944609D01*
X13796771Y-2944609D02*
X13768200Y-2973181D01*
X13768200Y-2973181D02*
X13739628Y-3030323D01*
X13739628Y-3030323D02*
X13739628Y-3173181D01*
X13739628Y-3173181D02*
X13768200Y-3230323D01*
X13768200Y-3230323D02*
X13796771Y-3258895D01*
%LPC*%
D11*
%TO.C,J5*%
X11850617Y9293035D03*
X11405114Y9066040D03*
X10963175Y8840861D03*
D12*
X10514108Y8612049D03*
D11*
X10068604Y8385054D03*
X9623101Y8158059D03*
%TD*%
D13*
%TO.C,J1*%
X14507000Y-16390400D03*
X14007000Y-16390400D03*
X13511000Y-16390400D03*
X13007000Y-16390400D03*
X12507000Y-16390400D03*
X12007000Y-16390400D03*
%TD*%
D14*
%TO.C,L2*%
X0Y3568000D03*
X500000Y-6980000D03*
X-500000Y-6980000D03*
%TD*%
%LPD*%
M02*
