%TF.GenerationSoftware,KiCad,Pcbnew,7.0.10*%
%TF.CreationDate,2024-11-13T10:28:54-08:00*%
%TF.ProjectId,ballBearingFPC241113,62616c6c-4265-4617-9269-6e6746504332,rev?*%
%TF.SameCoordinates,Original*%
%TF.FileFunction,Legend,Top*%
%TF.FilePolarity,Positive*%
%FSLAX46Y46*%
G04 Gerber Fmt 4.6, Leading zero omitted, Abs format (unit mm)*
G04 Created by KiCad (PCBNEW 7.0.10) date 2024-11-13 10:28:54*
%MOMM*%
%LPD*%
G01*
G04 APERTURE LIST*
G04 Aperture macros list*
%AMRoundRect*
0 Rectangle with rounded corners*
0 $1 Rounding radius*
0 $2 $3 $4 $5 $6 $7 $8 $9 X,Y pos of 4 corners*
0 Add a 4 corners polygon primitive as box body*
4,1,4,$2,$3,$4,$5,$6,$7,$8,$9,$2,$3,0*
0 Add four circle primitives for the rounded corners*
1,1,$1+$1,$2,$3*
1,1,$1+$1,$4,$5*
1,1,$1+$1,$6,$7*
1,1,$1+$1,$8,$9*
0 Add four rect primitives between the rounded corners*
20,1,$1+$1,$2,$3,$4,$5,0*
20,1,$1+$1,$4,$5,$6,$7,0*
20,1,$1+$1,$6,$7,$8,$9,0*
20,1,$1+$1,$8,$9,$2,$3,0*%
G04 Aperture macros list end*
%ADD10C,0.070000*%
%ADD11C,0.050000*%
%ADD12C,0.137415*%
%ADD13C,0.100000*%
%ADD14C,0.000000*%
%ADD15RoundRect,0.075000X-0.239618X0.635479X-0.373269X0.567380X0.239618X-0.635479X0.373269X-0.567380X0*%
%ADD16RoundRect,0.075000X-0.075000X-0.675000X0.075000X-0.675000X0.075000X0.675000X-0.075000X0.675000X0*%
%ADD17RoundRect,0.075000X0.075000X0.675000X-0.075000X0.675000X-0.075000X-0.675000X0.075000X-0.675000X0*%
%ADD18C,0.700000*%
G04 APERTURE END LIST*
D10*
X1129034Y-3220324D02*
X1129157Y-3231711D01*
X264202Y-4890685D02*
X344688Y-4887880D01*
X-1283286Y-3323125D02*
X-1287890Y-3343059D01*
X805596Y-3285192D02*
X807070Y-3286892D01*
X667318Y-3058133D02*
X319316Y-4315546D01*
X-1075384Y-4829058D02*
X-1045499Y-4812800D01*
X-1251493Y-4967714D02*
X-1263830Y-4985105D01*
X-975839Y-4615146D02*
X-969870Y-4605287D01*
X-1405530Y-5060656D02*
X-1398225Y-5031497D01*
X-346458Y-3368371D02*
X-713829Y-4351629D01*
X-953532Y-4511138D02*
X-953944Y-4486109D01*
X-1622988Y-3500975D02*
X-1650250Y-3487003D01*
X-1584656Y-3138317D02*
X-1564895Y-3134431D01*
X-1735177Y-3327169D02*
X-1733842Y-3291296D01*
X-1556119Y-3518603D02*
X-1575337Y-3515486D01*
X319316Y-4315546D02*
X249563Y-4317985D01*
X-1604201Y-3508473D02*
X-1622988Y-3500975D01*
X141539Y-4774366D02*
X151249Y-4746580D01*
X-783573Y-4354064D02*
X-1218438Y-3123986D01*
X953051Y-3049514D02*
X948600Y-3052000D01*
X-1528086Y-3519831D02*
X-1556119Y-3518603D01*
X-1173604Y-5289352D02*
X-1157960Y-5289242D01*
X842056Y-3320136D02*
X834869Y-3314417D01*
X-1409857Y-5107258D02*
X-1408752Y-5079717D01*
D11*
X1314460Y-3772389D02*
X1318658Y-3774449D01*
X1321332Y-3778291D01*
X1321802Y-3782947D01*
X1319959Y-3787243D01*
X1318193Y-3788785D01*
X1295769Y-3797594D01*
X1284642Y-3802346D01*
X1273588Y-3807324D01*
X1262586Y-3812541D01*
X1251654Y-3817985D01*
X1240776Y-3823666D01*
X1229960Y-3829579D01*
X1196971Y-3849315D01*
X1180676Y-3860040D01*
X1164542Y-3871330D01*
X1148577Y-3883194D01*
X1132804Y-3895609D01*
X1117241Y-3908586D01*
X1101909Y-3922127D01*
X1086812Y-3936209D01*
X1071980Y-3950837D01*
X1057434Y-3966022D01*
X1043175Y-3981740D01*
X1029233Y-3997997D01*
X1022385Y-4006321D01*
X1015621Y-4014791D01*
X1008946Y-4023389D01*
X1002358Y-4032117D01*
X995864Y-4040979D01*
X989461Y-4049967D01*
X966605Y-4084519D01*
X955800Y-4102423D01*
X945488Y-4120693D01*
X935704Y-4139300D01*
X926503Y-4158198D01*
X917938Y-4177359D01*
X910057Y-4196735D01*
X902909Y-4216290D01*
X896537Y-4236002D01*
X891000Y-4255824D01*
X886343Y-4275711D01*
X882613Y-4295641D01*
X879869Y-4315564D01*
X878154Y-4335447D01*
X877509Y-4355256D01*
X879230Y-4390185D01*
X881478Y-4407405D01*
X884634Y-4424421D01*
X888700Y-4441198D01*
X893656Y-4457705D01*
X899510Y-4473925D01*
X906239Y-4489813D01*
X913840Y-4505349D01*
X922305Y-4520497D01*
X931626Y-4535232D01*
X941790Y-4549520D01*
X952796Y-4563325D01*
X964631Y-4576626D01*
X977289Y-4589396D01*
X990762Y-4601589D01*
X1009354Y-4616479D01*
X1019117Y-4623514D01*
X1029182Y-4630281D01*
X1039540Y-4636761D01*
X1050183Y-4642944D01*
X1061119Y-4648838D01*
X1072331Y-4654424D01*
X1083821Y-4659696D01*
X1095573Y-4664647D01*
X1107591Y-4669271D01*
X1119876Y-4673562D01*
X1132404Y-4677521D01*
X1145183Y-4681131D01*
X1158207Y-4684389D01*
X1171464Y-4687280D01*
X1156702Y-4681306D01*
X1142481Y-4675074D01*
X1128793Y-4668606D01*
X1115630Y-4661883D01*
X1102984Y-4654933D01*
X1090866Y-4647748D01*
X1079258Y-4640346D01*
X1068160Y-4632724D01*
X1057559Y-4624895D01*
X1047460Y-4616857D01*
X1037854Y-4608626D01*
X1028738Y-4600202D01*
X1020105Y-4591594D01*
X1011952Y-4582802D01*
X997064Y-4564711D01*
X986004Y-4549060D01*
X976218Y-4533059D01*
X967684Y-4516754D01*
X960345Y-4500176D01*
X954172Y-4483361D01*
X949129Y-4466353D01*
X945182Y-4449178D01*
X942291Y-4431876D01*
X940424Y-4414491D01*
X939531Y-4397053D01*
X939588Y-4379602D01*
X940558Y-4362177D01*
X942400Y-4344799D01*
X945078Y-4327535D01*
X952796Y-4293432D01*
X958315Y-4274909D01*
X964684Y-4256620D01*
X971895Y-4238569D01*
X979932Y-4220755D01*
X988783Y-4203187D01*
X998432Y-4185859D01*
X1008869Y-4168785D01*
X1020083Y-4151964D01*
X1032062Y-4135390D01*
X1044789Y-4119079D01*
X1058249Y-4103030D01*
X1072438Y-4087243D01*
X1087342Y-4071725D01*
X1095054Y-4064064D01*
X1102944Y-4056482D01*
X1111001Y-4048958D01*
X1119232Y-4041501D01*
X1136200Y-4026802D01*
X1147521Y-4017439D01*
X1159142Y-4008179D01*
X1171058Y-3999019D01*
X1183278Y-3989958D01*
X1195782Y-3980993D01*
X1208595Y-3972127D01*
X1221703Y-3963347D01*
X1235104Y-3954668D01*
X1248815Y-3946074D01*
X1262821Y-3937576D01*
X1277135Y-3929158D01*
X1291753Y-3920836D01*
X1306670Y-3912598D01*
X1321897Y-3904431D01*
X1353264Y-3888364D01*
X1355386Y-3887506D01*
X1359941Y-3887835D01*
X1363734Y-3890380D01*
X1365766Y-3894468D01*
X1365506Y-3899026D01*
X1363025Y-3902861D01*
X1361063Y-3904033D01*
X1309089Y-3930700D01*
X1293268Y-3939758D01*
X1282158Y-3946281D01*
X1271205Y-3952841D01*
X1260416Y-3959445D01*
X1249778Y-3966091D01*
X1239297Y-3972787D01*
X1195994Y-4001709D01*
X1182992Y-4011549D01*
X1173878Y-4018631D01*
X1164926Y-4025761D01*
X1156120Y-4032942D01*
X1147474Y-4040169D01*
X1138978Y-4047444D01*
X1104098Y-4078927D01*
X1092376Y-4091188D01*
X1083841Y-4100468D01*
X1075530Y-4109825D01*
X1067441Y-4119262D01*
X1059575Y-4128772D01*
X1033038Y-4163089D01*
X1024491Y-4176421D01*
X1018356Y-4186517D01*
X1012447Y-4196678D01*
X1006784Y-4206908D01*
X1001361Y-4217209D01*
X983634Y-4254292D01*
X978537Y-4268595D01*
X975029Y-4279383D01*
X971790Y-4290220D01*
X968822Y-4301094D01*
X966140Y-4312024D01*
X958424Y-4351123D01*
X957376Y-4365955D01*
X956976Y-4377080D01*
X956912Y-4388193D01*
X957176Y-4399294D01*
X957782Y-4410382D01*
X962198Y-4449686D01*
X966149Y-4464174D01*
X969583Y-4474948D01*
X973428Y-4485640D01*
X977687Y-4496249D01*
X982376Y-4506762D01*
X1001817Y-4543516D01*
X1014586Y-4559761D01*
X1022910Y-4569288D01*
X1031732Y-4578656D01*
X1039470Y-4586328D01*
X1047559Y-4593878D01*
X1085269Y-4625012D01*
X1098284Y-4632875D01*
X1109568Y-4639250D01*
X1121239Y-4645462D01*
X1130869Y-4650312D01*
X1140758Y-4655067D01*
X1150900Y-4659717D01*
X1161305Y-4664253D01*
X1220242Y-4687027D01*
X1246075Y-4693973D01*
X1259399Y-4697273D01*
X1273003Y-4700450D01*
X1286872Y-4703502D01*
X1297456Y-4705714D01*
X1308195Y-4707866D01*
X1319085Y-4709945D01*
X1330133Y-4711956D01*
X1319400Y-4712859D01*
X1305205Y-4713835D01*
X1291139Y-4714539D01*
X1277211Y-4714978D01*
X1263404Y-4715141D01*
X1249735Y-4715041D01*
X1236196Y-4714671D01*
X1219451Y-4713836D01*
X1153104Y-4701169D01*
X1141049Y-4698173D01*
X1129149Y-4694935D01*
X1117408Y-4691460D01*
X1105821Y-4687725D01*
X1094404Y-4683759D01*
X1083148Y-4679556D01*
X1061125Y-4670431D01*
X1009485Y-4638137D01*
X1000306Y-4631595D01*
X991347Y-4624865D01*
X982590Y-4617931D01*
X974051Y-4610816D01*
X965721Y-4603520D01*
X957613Y-4596033D01*
X942045Y-4580534D01*
X909524Y-4533681D01*
X902732Y-4522286D01*
X896333Y-4510698D01*
X890342Y-4498922D01*
X884751Y-4486975D01*
X879567Y-4474852D01*
X872996Y-4457595D01*
X862914Y-4402363D01*
X861429Y-4389256D01*
X860354Y-4376071D01*
X859699Y-4362824D01*
X859451Y-4349515D01*
X859618Y-4336159D01*
X860530Y-4317369D01*
X871763Y-4260324D01*
X874384Y-4249692D01*
X877210Y-4239086D01*
X880242Y-4228513D01*
X883463Y-4217965D01*
X886876Y-4207464D01*
X890481Y-4196995D01*
X898243Y-4176189D01*
X924288Y-4123176D01*
X929476Y-4113434D01*
X934780Y-4103770D01*
X940200Y-4094188D01*
X945728Y-4084675D01*
X951369Y-4075262D01*
X957108Y-4065926D01*
X968907Y-4047526D01*
X1003400Y-4002076D01*
X1011713Y-3991761D01*
X1020137Y-3981608D01*
X1028661Y-3971614D01*
X1037283Y-3961781D01*
X1046012Y-3952113D01*
X1058377Y-3938848D01*
X1097833Y-3902408D01*
X1107223Y-3894231D01*
X1116669Y-3886218D01*
X1126183Y-3878372D01*
X1135757Y-3870705D01*
X1145386Y-3863205D01*
X1158972Y-3852991D01*
X1201567Y-3825863D01*
X1211650Y-3819859D01*
X1221788Y-3814022D01*
X1231971Y-3808357D01*
X1242201Y-3802857D01*
X1252481Y-3797520D01*
X1266948Y-3790344D01*
X1312116Y-3772367D01*
X1314460Y-3772389D01*
G36*
X1314460Y-3772389D02*
G01*
X1318658Y-3774449D01*
X1321332Y-3778291D01*
X1321802Y-3782947D01*
X1319959Y-3787243D01*
X1318193Y-3788785D01*
X1295769Y-3797594D01*
X1284642Y-3802346D01*
X1273588Y-3807324D01*
X1262586Y-3812541D01*
X1251654Y-3817985D01*
X1240776Y-3823666D01*
X1229960Y-3829579D01*
X1196971Y-3849315D01*
X1180676Y-3860040D01*
X1164542Y-3871330D01*
X1148577Y-3883194D01*
X1132804Y-3895609D01*
X1117241Y-3908586D01*
X1101909Y-3922127D01*
X1086812Y-3936209D01*
X1071980Y-3950837D01*
X1057434Y-3966022D01*
X1043175Y-3981740D01*
X1029233Y-3997997D01*
X1022385Y-4006321D01*
X1015621Y-4014791D01*
X1008946Y-4023389D01*
X1002358Y-4032117D01*
X995864Y-4040979D01*
X989461Y-4049967D01*
X966605Y-4084519D01*
X955800Y-4102423D01*
X945488Y-4120693D01*
X935704Y-4139300D01*
X926503Y-4158198D01*
X917938Y-4177359D01*
X910057Y-4196735D01*
X902909Y-4216290D01*
X896537Y-4236002D01*
X891000Y-4255824D01*
X886343Y-4275711D01*
X882613Y-4295641D01*
X879869Y-4315564D01*
X878154Y-4335447D01*
X877509Y-4355256D01*
X879230Y-4390185D01*
X881478Y-4407405D01*
X884634Y-4424421D01*
X888700Y-4441198D01*
X893656Y-4457705D01*
X899510Y-4473925D01*
X906239Y-4489813D01*
X913840Y-4505349D01*
X922305Y-4520497D01*
X931626Y-4535232D01*
X941790Y-4549520D01*
X952796Y-4563325D01*
X964631Y-4576626D01*
X977289Y-4589396D01*
X990762Y-4601589D01*
X1009354Y-4616479D01*
X1019117Y-4623514D01*
X1029182Y-4630281D01*
X1039540Y-4636761D01*
X1050183Y-4642944D01*
X1061119Y-4648838D01*
X1072331Y-4654424D01*
X1083821Y-4659696D01*
X1095573Y-4664647D01*
X1107591Y-4669271D01*
X1119876Y-4673562D01*
X1132404Y-4677521D01*
X1145183Y-4681131D01*
X1158207Y-4684389D01*
X1171464Y-4687280D01*
X1156702Y-4681306D01*
X1142481Y-4675074D01*
X1128793Y-4668606D01*
X1115630Y-4661883D01*
X1102984Y-4654933D01*
X1090866Y-4647748D01*
X1079258Y-4640346D01*
X1068160Y-4632724D01*
X1057559Y-4624895D01*
X1047460Y-4616857D01*
X1037854Y-4608626D01*
X1028738Y-4600202D01*
X1020105Y-4591594D01*
X1011952Y-4582802D01*
X997064Y-4564711D01*
X986004Y-4549060D01*
X976218Y-4533059D01*
X967684Y-4516754D01*
X960345Y-4500176D01*
X954172Y-4483361D01*
X949129Y-4466353D01*
X945182Y-4449178D01*
X942291Y-4431876D01*
X940424Y-4414491D01*
X939531Y-4397053D01*
X939588Y-4379602D01*
X940558Y-4362177D01*
X942400Y-4344799D01*
X945078Y-4327535D01*
X952796Y-4293432D01*
X958315Y-4274909D01*
X964684Y-4256620D01*
X971895Y-4238569D01*
X979932Y-4220755D01*
X988783Y-4203187D01*
X998432Y-4185859D01*
X1008869Y-4168785D01*
X1020083Y-4151964D01*
X1032062Y-4135390D01*
X1044789Y-4119079D01*
X1058249Y-4103030D01*
X1072438Y-4087243D01*
X1087342Y-4071725D01*
X1095054Y-4064064D01*
X1102944Y-4056482D01*
X1111001Y-4048958D01*
X1119232Y-4041501D01*
X1136200Y-4026802D01*
X1147521Y-4017439D01*
X1159142Y-4008179D01*
X1171058Y-3999019D01*
X1183278Y-3989958D01*
X1195782Y-3980993D01*
X1208595Y-3972127D01*
X1221703Y-3963347D01*
X1235104Y-3954668D01*
X1248815Y-3946074D01*
X1262821Y-3937576D01*
X1277135Y-3929158D01*
X1291753Y-3920836D01*
X1306670Y-3912598D01*
X1321897Y-3904431D01*
X1353264Y-3888364D01*
X1355386Y-3887506D01*
X1359941Y-3887835D01*
X1363734Y-3890380D01*
X1365766Y-3894468D01*
X1365506Y-3899026D01*
X1363025Y-3902861D01*
X1361063Y-3904033D01*
X1309089Y-3930700D01*
X1293268Y-3939758D01*
X1282158Y-3946281D01*
X1271205Y-3952841D01*
X1260416Y-3959445D01*
X1249778Y-3966091D01*
X1239297Y-3972787D01*
X1195994Y-4001709D01*
X1182992Y-4011549D01*
X1173878Y-4018631D01*
X1164926Y-4025761D01*
X1156120Y-4032942D01*
X1147474Y-4040169D01*
X1138978Y-4047444D01*
X1104098Y-4078927D01*
X1092376Y-4091188D01*
X1083841Y-4100468D01*
X1075530Y-4109825D01*
X1067441Y-4119262D01*
X1059575Y-4128772D01*
X1033038Y-4163089D01*
X1024491Y-4176421D01*
X1018356Y-4186517D01*
X1012447Y-4196678D01*
X1006784Y-4206908D01*
X1001361Y-4217209D01*
X983634Y-4254292D01*
X978537Y-4268595D01*
X975029Y-4279383D01*
X971790Y-4290220D01*
X968822Y-4301094D01*
X966140Y-4312024D01*
X958424Y-4351123D01*
X957376Y-4365955D01*
X956976Y-4377080D01*
X956912Y-4388193D01*
X957176Y-4399294D01*
X957782Y-4410382D01*
X962198Y-4449686D01*
X966149Y-4464174D01*
X969583Y-4474948D01*
X973428Y-4485640D01*
X977687Y-4496249D01*
X982376Y-4506762D01*
X1001817Y-4543516D01*
X1014586Y-4559761D01*
X1022910Y-4569288D01*
X1031732Y-4578656D01*
X1039470Y-4586328D01*
X1047559Y-4593878D01*
X1085269Y-4625012D01*
X1098284Y-4632875D01*
X1109568Y-4639250D01*
X1121239Y-4645462D01*
X1130869Y-4650312D01*
X1140758Y-4655067D01*
X1150900Y-4659717D01*
X1161305Y-4664253D01*
X1220242Y-4687027D01*
X1246075Y-4693973D01*
X1259399Y-4697273D01*
X1273003Y-4700450D01*
X1286872Y-4703502D01*
X1297456Y-4705714D01*
X1308195Y-4707866D01*
X1319085Y-4709945D01*
X1330133Y-4711956D01*
X1319400Y-4712859D01*
X1305205Y-4713835D01*
X1291139Y-4714539D01*
X1277211Y-4714978D01*
X1263404Y-4715141D01*
X1249735Y-4715041D01*
X1236196Y-4714671D01*
X1219451Y-4713836D01*
X1153104Y-4701169D01*
X1141049Y-4698173D01*
X1129149Y-4694935D01*
X1117408Y-4691460D01*
X1105821Y-4687725D01*
X1094404Y-4683759D01*
X1083148Y-4679556D01*
X1061125Y-4670431D01*
X1009485Y-4638137D01*
X1000306Y-4631595D01*
X991347Y-4624865D01*
X982590Y-4617931D01*
X974051Y-4610816D01*
X965721Y-4603520D01*
X957613Y-4596033D01*
X942045Y-4580534D01*
X909524Y-4533681D01*
X902732Y-4522286D01*
X896333Y-4510698D01*
X890342Y-4498922D01*
X884751Y-4486975D01*
X879567Y-4474852D01*
X872996Y-4457595D01*
X862914Y-4402363D01*
X861429Y-4389256D01*
X860354Y-4376071D01*
X859699Y-4362824D01*
X859451Y-4349515D01*
X859618Y-4336159D01*
X860530Y-4317369D01*
X871763Y-4260324D01*
X874384Y-4249692D01*
X877210Y-4239086D01*
X880242Y-4228513D01*
X883463Y-4217965D01*
X886876Y-4207464D01*
X890481Y-4196995D01*
X898243Y-4176189D01*
X924288Y-4123176D01*
X929476Y-4113434D01*
X934780Y-4103770D01*
X940200Y-4094188D01*
X945728Y-4084675D01*
X951369Y-4075262D01*
X957108Y-4065926D01*
X968907Y-4047526D01*
X1003400Y-4002076D01*
X1011713Y-3991761D01*
X1020137Y-3981608D01*
X1028661Y-3971614D01*
X1037283Y-3961781D01*
X1046012Y-3952113D01*
X1058377Y-3938848D01*
X1097833Y-3902408D01*
X1107223Y-3894231D01*
X1116669Y-3886218D01*
X1126183Y-3878372D01*
X1135757Y-3870705D01*
X1145386Y-3863205D01*
X1158972Y-3852991D01*
X1201567Y-3825863D01*
X1211650Y-3819859D01*
X1221788Y-3814022D01*
X1231971Y-3808357D01*
X1242201Y-3802857D01*
X1252481Y-3797520D01*
X1266948Y-3790344D01*
X1312116Y-3772367D01*
X1314460Y-3772389D01*
G37*
D10*
X-1729489Y-3268652D02*
X-1720205Y-3237003D01*
X998886Y-5585915D02*
X930847Y-5550473D01*
X861917Y-5522642D01*
X792151Y-5502969D01*
X721605Y-5492002D01*
X650334Y-5490289D01*
X626426Y-5491870D01*
X-1575337Y-3515486D02*
X-1604201Y-3508473D01*
X-1431860Y-3501439D02*
X-1445887Y-3506487D01*
X942529Y-3056044D02*
X939003Y-3058832D01*
X805663Y-3285134D02*
G75*
G03*
X787098Y-3289310I-8163J-7066D01*
G01*
X217122Y-5375807D02*
X199621Y-5360630D01*
X364483Y-5532547D02*
X354949Y-5510335D01*
X-1389585Y-5207638D02*
X-1394903Y-5191906D01*
X-1374268Y-3467885D02*
X-1384533Y-3475343D01*
X-1075771Y-4699490D02*
X-1057225Y-4686147D01*
X-1652560Y-3161439D02*
X-1632210Y-3152218D01*
X347623Y-5496925D02*
X354949Y-5510335D01*
X121626Y-4819436D02*
X112956Y-4837524D01*
X-1702496Y-3435551D02*
X-1718716Y-3406796D01*
X249563Y-4317985D02*
X-185496Y-3362753D01*
X80932Y-4914863D02*
X74580Y-4935440D01*
X-1376085Y-4981091D02*
X-1363474Y-4960488D01*
X-1263355Y-5242281D02*
X-1254096Y-5254510D01*
X113816Y-5232395D02*
X101499Y-5203259D01*
X-1172276Y-4890656D02*
X-1190320Y-4904569D01*
X1101435Y-3134306D02*
X1107808Y-3145215D01*
X-1394903Y-5191906D02*
X-1402010Y-5167765D01*
X-1405480Y-5150994D02*
X-1409252Y-5125190D01*
X66389Y-5076692D02*
X69926Y-5098454D01*
X-1172276Y-4890656D02*
X-1144276Y-4870662D01*
X-1278625Y-5012759D02*
X-1263830Y-4985105D01*
X-959639Y-4579040D02*
X-956170Y-4561405D01*
X-1726093Y-3385165D02*
X-1733826Y-3351050D01*
X-1445887Y-3506487D02*
X-1468172Y-3513064D01*
X711658Y-3551936D02*
G75*
G03*
X545981Y-3496319I-157858J-195664D01*
G01*
X-688485Y-4923997D02*
X-306618Y-3544194D01*
X-1325352Y-5505859D02*
G75*
G03*
X-1090975Y-5278802I308574J-84027D01*
G01*
X208481Y-5237972D02*
X217410Y-5248994D01*
X161165Y-5316551D02*
X145876Y-5294011D01*
X1020437Y-3355253D02*
X1010441Y-3358029D01*
X100034Y-4865565D02*
X112956Y-4837524D01*
X923462Y-3358929D02*
X914484Y-3356817D01*
X1115709Y-3162246D02*
X1107808Y-3145215D01*
X-1316360Y-3405510D02*
X-1320560Y-3411631D01*
X246664Y-5398298D02*
X228914Y-5385270D01*
X155906Y-4727137D02*
X161000Y-4696932D01*
X1045051Y-3346101D02*
X1059304Y-3338990D01*
X246664Y-5398298D02*
X258419Y-5406717D01*
X-1344234Y-5318217D02*
X-1349836Y-5303663D01*
X-1398225Y-5031497D02*
X-1390458Y-5011498D01*
X-1520664Y-3135226D02*
X-1502555Y-3139488D01*
X-1349836Y-5303663D02*
X-1358712Y-5281909D01*
X350083Y-5304988D02*
X331413Y-5305583D01*
X1039506Y-3068329D02*
X1025783Y-3059695D01*
X880515Y-3344050D02*
X872430Y-3340021D01*
X860728Y-3333160D02*
X853089Y-3328264D01*
X77671Y-5130626D02*
X69926Y-5098454D01*
X347623Y-5496925D02*
X335765Y-5478037D01*
X-1278625Y-5012759D02*
X-1286906Y-5031751D01*
X-1128361Y-4737137D02*
X-1106726Y-4721581D01*
X842056Y-3320136D02*
X853089Y-3328264D01*
X908024Y-3064810D02*
X903636Y-3061636D01*
X-1031615Y-4667317D02*
X-1017241Y-4655982D01*
X-1124852Y-4858225D02*
X-1095304Y-4840293D01*
X824501Y-3305076D02*
X817761Y-3298551D01*
X-983700Y-4320082D02*
X-1310444Y-3395830D01*
X319000Y-5304312D02*
X300503Y-5300908D01*
X275617Y-5419228D02*
X258419Y-5406717D01*
X-1325289Y-5505423D02*
X-1322047Y-5478147D01*
X-1296186Y-5160934D02*
X-1300372Y-5131802D01*
X-1208741Y-5284116D02*
X-1195590Y-5287618D01*
X-1077879Y-5601585D02*
X-1149910Y-5610631D01*
X-1218118Y-5626976D01*
X-1292384Y-5651801D01*
X-1328057Y-5665737D01*
X1083191Y-3108651D02*
X1090991Y-3118481D01*
X1020437Y-3355253D02*
X1035339Y-3350291D01*
X-1696313Y-3195881D02*
X-1684569Y-3183900D01*
X983645Y-3045086D02*
X976540Y-3044768D01*
X922895Y-3068427D02*
X917755Y-3068643D01*
X-1408752Y-5079717D02*
X-1405530Y-5060656D01*
X903636Y-3061636D02*
X896662Y-3055659D01*
X144695Y-4553895D02*
X151850Y-4580504D01*
X-964434Y-4390829D02*
X-968892Y-4370674D01*
X824501Y-3305076D02*
X834869Y-3314417D01*
X-1666848Y-3474548D02*
X-1689817Y-3453002D01*
X-1065998Y-3558066D02*
G75*
G03*
X-1228897Y-3621060I-5116J-228891D01*
G01*
X344688Y-4887880D02*
X787097Y-3289310D01*
X-1380631Y-5230436D02*
X-1389585Y-5207638D01*
X-954872Y-4548187D02*
X-953652Y-4526921D01*
X-1238422Y-5268730D02*
X-1227279Y-5276527D01*
X-977149Y-4778258D02*
X-996353Y-4787669D01*
X901431Y-3352700D02*
X914484Y-3356817D01*
X113816Y-5232395D02*
X122425Y-5251174D01*
X966633Y-3045324D02*
X960894Y-3046697D01*
X326935Y-5466739D02*
X312897Y-5450860D01*
X-1297137Y-3369040D02*
X-1310444Y-3395830D01*
D12*
X1621105Y-4925657D02*
G75*
G03*
X1483691Y-4925657I-68707J0D01*
G01*
X1483691Y-4925657D02*
G75*
G03*
X1621105Y-4925657I68707J0D01*
G01*
D10*
X208481Y-5237972D02*
X195984Y-5220268D01*
D13*
X11497881Y-14345446D02*
X12858881Y-14345446D01*
D10*
X-1185687Y-4780063D02*
X-1162533Y-4762454D01*
X970652Y-3363272D02*
X960891Y-3363421D01*
D11*
X1402556Y-5072719D02*
X1405342Y-5075508D01*
X1406371Y-5079299D01*
X1405370Y-5083120D01*
X1404073Y-5084608D01*
X1234575Y-5256767D01*
X1232732Y-5258449D01*
X1227920Y-5259767D01*
X1223092Y-5258490D01*
X1221239Y-5256821D01*
X1219565Y-5254964D01*
X1218288Y-5250138D01*
X1219608Y-5245323D01*
X1221288Y-5243480D01*
X1393448Y-5073976D01*
X1394940Y-5072689D01*
X1398752Y-5071683D01*
X1402556Y-5072719D01*
G36*
X1402556Y-5072719D02*
G01*
X1405342Y-5075508D01*
X1406371Y-5079299D01*
X1405370Y-5083120D01*
X1404073Y-5084608D01*
X1234575Y-5256767D01*
X1232732Y-5258449D01*
X1227920Y-5259767D01*
X1223092Y-5258490D01*
X1221239Y-5256821D01*
X1219565Y-5254964D01*
X1218288Y-5250138D01*
X1219608Y-5245323D01*
X1221288Y-5243480D01*
X1393448Y-5073976D01*
X1394940Y-5072689D01*
X1398752Y-5071683D01*
X1402556Y-5072719D01*
G37*
D10*
X1016812Y-3055238D02*
X1003678Y-3049751D01*
X970652Y-3363272D02*
X985429Y-3362342D01*
X-1081742Y-5276742D02*
X-1112991Y-5283357D01*
X-988320Y-4629856D02*
X-975839Y-4615146D01*
X1125121Y-3191305D02*
X1127539Y-3202988D01*
X302721Y-5441302D02*
X312897Y-5450860D01*
X-885709Y-4735296D02*
X-859934Y-4723700D01*
X153038Y-5044845D02*
X153395Y-5062997D01*
X998886Y-5585915D02*
X1015002Y-5596196D01*
X153038Y-5044845D02*
X153456Y-5017483D01*
X-1491039Y-3143475D02*
X-1474382Y-3149916D01*
X-1296186Y-5160934D02*
X-1292096Y-5179703D01*
X-1351273Y-3447761D02*
X-1360191Y-3455973D01*
X747929Y-3418317D02*
G75*
G03*
X583521Y-3359929I-160849J-192253D01*
G01*
X-1057225Y-4686147D02*
X-1031615Y-4667317D01*
X67729Y-4967378D02*
X64383Y-4988987D01*
X-1320835Y-5434861D02*
X-1321851Y-5418314D01*
X364483Y-5532547D02*
X368962Y-5544584D01*
X-1409252Y-5125190D02*
X-1409857Y-5107258D01*
X288402Y-5297008D02*
X270564Y-5289721D01*
X1106616Y-3297132D02*
X1100269Y-3305587D01*
X-1404180Y-3140608D02*
X-1401947Y-3130393D01*
X66389Y-5076692D02*
X62851Y-5043853D01*
X-1718716Y-3406796D02*
X-1726093Y-3385165D01*
X-1124852Y-4858225D02*
X-1144276Y-4870662D01*
X-1113000Y-3423258D02*
G75*
G03*
X-1277125Y-3490389I467J-235338D01*
G01*
X1062110Y-3086353D02*
X1070863Y-3094689D01*
X1125121Y-3191305D02*
X1120254Y-3173776D01*
X-1449590Y-3159536D02*
X-1441016Y-3161718D01*
X-1295201Y-5061361D02*
X-1286906Y-5031751D01*
X-1360191Y-3455973D02*
X-1374268Y-3467885D01*
X-1412795Y-3492466D02*
X-1431860Y-3501439D01*
X-1711410Y-3219225D02*
X-1696313Y-3195881D01*
X173256Y-5171817D02*
X178770Y-5186638D01*
X-306618Y-3544194D02*
X-212969Y-3540918D01*
X154818Y-4999285D02*
X153456Y-5017483D01*
X-1733826Y-3351050D02*
X-1735177Y-3327169D01*
X-843564Y-4716494D02*
X-859934Y-4723700D01*
X-1238422Y-5268730D02*
X-1254096Y-5254510D01*
X-969870Y-4605287D02*
X-962732Y-4590065D01*
X411419Y-5286240D02*
X393274Y-5294870D01*
X995417Y-3360917D02*
X985429Y-3362342D01*
X470020Y-5241007D02*
X452789Y-5257523D01*
X154818Y-4999285D02*
X157868Y-4972263D01*
X-1324698Y-4908648D02*
X-1296693Y-4877658D01*
X350083Y-5304988D02*
X362509Y-5303585D01*
D11*
X1343071Y-4937617D02*
X1345700Y-4940552D01*
X1346519Y-4944406D01*
X1345313Y-4948154D01*
X1342394Y-4950804D01*
X1340501Y-4951352D01*
X1104574Y-5003420D01*
X1102089Y-5003827D01*
X1097291Y-5002266D01*
X1093956Y-4998490D01*
X1093335Y-4996046D01*
X1093007Y-4993599D01*
X1094595Y-4988938D01*
X1098292Y-4985685D01*
X1100671Y-4985042D01*
X1337371Y-4936652D01*
X1339327Y-4936381D01*
X1343071Y-4937617D01*
G36*
X1343071Y-4937617D02*
G01*
X1345700Y-4940552D01*
X1346519Y-4944406D01*
X1345313Y-4948154D01*
X1342394Y-4950804D01*
X1340501Y-4951352D01*
X1104574Y-5003420D01*
X1102089Y-5003827D01*
X1097291Y-5002266D01*
X1093956Y-4998490D01*
X1093335Y-4996046D01*
X1093007Y-4993599D01*
X1094595Y-4988938D01*
X1098292Y-4985685D01*
X1100671Y-4985042D01*
X1337371Y-4936652D01*
X1339327Y-4936381D01*
X1343071Y-4937617D01*
G37*
D10*
X-1208741Y-5284116D02*
X-1227279Y-5276527D01*
X948600Y-3052000D02*
X942529Y-3056044D01*
X162219Y-5132358D02*
X165976Y-5148688D01*
X-1384533Y-3475343D02*
X-1400823Y-3486011D01*
X1127149Y-3248207D02*
X1124942Y-3258907D01*
X-769206Y-4926819D02*
X-843564Y-4716494D01*
X-1322047Y-5478147D02*
X-1321120Y-5460603D01*
X172380Y-4913602D02*
X167058Y-4929400D01*
X626426Y-5491870D02*
X554213Y-5502678D01*
X481792Y-5521848D01*
X409141Y-5548740D01*
X394582Y-5554990D01*
X1003678Y-3049751D02*
X995427Y-3047419D01*
X-1017241Y-4655982D02*
X-998214Y-4639874D01*
X188285Y-5349168D02*
X199621Y-5360630D01*
X172380Y-4913602D02*
X181663Y-4891190D01*
X-1218438Y-3123986D02*
X-1401947Y-3130393D01*
X-1484404Y-3516158D02*
X-1509926Y-3519418D01*
X381012Y-5298952D02*
X393274Y-5294870D01*
X155506Y-5089675D02*
X153395Y-5062997D01*
X-1295201Y-5061361D02*
X-1299056Y-5081411D01*
X-1341878Y-4929401D02*
X-1324698Y-4908648D01*
X162219Y-5132358D02*
X157552Y-5107153D01*
X-930353Y-4755892D02*
X-903232Y-4743279D01*
X-1263355Y-5242281D02*
X-1276078Y-5221625D01*
X-1374435Y-5245384D02*
X-1380631Y-5230436D01*
X1089216Y-3316993D02*
X1081316Y-3324068D01*
X-1292012Y-3355640D02*
X-1294969Y-3363746D01*
X-968892Y-4370674D02*
X-976853Y-4340343D01*
X212751Y-4849856D02*
X202396Y-4859806D01*
X-1363474Y-4960488D02*
X-1341878Y-4929401D01*
X-998214Y-4639874D02*
X-988320Y-4629856D01*
X-976853Y-4340343D02*
X-983700Y-4320082D01*
X-953652Y-4526921D02*
X-953532Y-4511138D01*
X880515Y-3344050D02*
X892896Y-3349592D01*
X136274Y-5277402D02*
X145876Y-5294011D01*
X374837Y-5563903D02*
G75*
G03*
X461417Y-5249475I326349J79271D01*
G01*
X891577Y-3050303D02*
X667318Y-3058133D01*
X-1327263Y-5378360D02*
X-1332450Y-5355311D01*
X-1310444Y-3395830D02*
X-1316360Y-3405510D01*
X161165Y-5316551D02*
X171699Y-5330581D01*
X94032Y-5182941D02*
X101499Y-5203259D01*
X275617Y-5419228D02*
X286819Y-5427715D01*
X-1564895Y-3134431D02*
X-1552028Y-3133314D01*
X-1320560Y-3411631D02*
X-1331200Y-3425836D01*
X121626Y-4819436D02*
X134176Y-4792511D01*
X-1509926Y-3519418D02*
X-1528086Y-3519831D01*
X-953944Y-4486109D02*
X-954956Y-4468091D01*
X1119522Y-3274048D02*
X1124942Y-3258907D01*
X939003Y-3058832D02*
X934025Y-3062817D01*
X-1720205Y-3237003D02*
X-1711410Y-3219225D01*
X-956170Y-4561405D02*
X-954872Y-4548187D01*
X-1441016Y-3161718D02*
X-1429240Y-3163180D01*
D11*
X1767676Y-4921624D02*
X2007172Y-4953388D01*
X2009594Y-4953861D01*
X2013503Y-4956854D01*
X2015408Y-4961388D01*
X2015267Y-4963849D01*
X2014818Y-4966337D01*
X2011746Y-4970335D01*
X2007074Y-4972232D01*
X2004561Y-4971993D01*
X1765585Y-4936512D01*
X1763655Y-4936097D01*
X1760561Y-4933655D01*
X1759093Y-4929999D01*
X1759643Y-4926094D01*
X1762065Y-4922984D01*
X1765706Y-4921486D01*
X1767676Y-4921624D01*
G36*
X1767676Y-4921624D02*
G01*
X2007172Y-4953388D01*
X2009594Y-4953861D01*
X2013503Y-4956854D01*
X2015408Y-4961388D01*
X2015267Y-4963849D01*
X2014818Y-4966337D01*
X2011746Y-4970335D01*
X2007074Y-4972232D01*
X2004561Y-4971993D01*
X1765585Y-4936512D01*
X1763655Y-4936097D01*
X1760561Y-4933655D01*
X1759093Y-4929999D01*
X1759643Y-4926094D01*
X1762065Y-4922984D01*
X1765706Y-4921486D01*
X1767676Y-4921624D01*
G37*
D10*
X319000Y-5304312D02*
X331413Y-5305583D01*
X-885709Y-4735296D02*
X-903232Y-4743279D01*
X-1283092Y-5205545D02*
X-1292096Y-5179703D01*
X-1025736Y-4802554D02*
X-1045499Y-4812800D01*
X77671Y-5130626D02*
X83605Y-5151857D01*
X62657Y-5021867D02*
X64383Y-4988987D01*
X-957211Y-4440086D02*
X-959691Y-4420580D01*
X188702Y-5207241D02*
X178770Y-5186638D01*
X-1215310Y-4927003D02*
X-1230971Y-4942613D01*
X-1331200Y-3425836D02*
X-1338983Y-3434773D01*
X-1075384Y-4829058D02*
X-1095304Y-4840293D01*
X188702Y-5207241D02*
X195984Y-5220268D01*
X-1358712Y-5281909D02*
X-1364964Y-5267361D01*
X926169Y-3067621D02*
X922895Y-3068427D01*
X-1220447Y-4808108D02*
X-1185687Y-4780063D01*
X-1321851Y-5418314D02*
X-1324425Y-5394014D01*
D14*
G36*
X731791Y-5152603D02*
G01*
X758736Y-5156440D01*
X785288Y-5162432D01*
X811266Y-5170546D01*
X836507Y-5180727D01*
X860846Y-5192908D01*
X884127Y-5207013D01*
X906193Y-5222948D01*
X926906Y-5240609D01*
X946126Y-5259872D01*
X963732Y-5280638D01*
X979607Y-5302744D01*
X993652Y-5326063D01*
X1005767Y-5350428D01*
X1010945Y-5363014D01*
X1000542Y-5367965D01*
X989413Y-5373047D01*
X978304Y-5377821D01*
X967661Y-5382021D01*
X954832Y-5386563D01*
X929536Y-5394479D01*
X919014Y-5397616D01*
X908621Y-5400595D01*
X896912Y-5403802D01*
X882531Y-5407525D01*
X853633Y-5413399D01*
X841767Y-5415494D01*
X830152Y-5417311D01*
X812567Y-5419586D01*
X787844Y-5420698D01*
X776670Y-5420740D01*
X765832Y-5420421D01*
X753257Y-5419547D01*
X733113Y-5415567D01*
X722382Y-5412693D01*
X705637Y-5406656D01*
X690470Y-5397419D01*
X681311Y-5390553D01*
X670636Y-5380635D01*
X660665Y-5366334D01*
X655305Y-5356983D01*
X648608Y-5342308D01*
X643742Y-5323702D01*
X641614Y-5312786D01*
X639212Y-5293776D01*
X639183Y-5271909D01*
X639671Y-5260354D01*
X641751Y-5237699D01*
X646282Y-5213587D01*
X648748Y-5202454D01*
X651912Y-5189708D01*
X663856Y-5152726D01*
X677410Y-5151491D01*
X704623Y-5150951D01*
X731791Y-5152603D01*
G37*
D10*
X1106616Y-3297132D02*
X1115107Y-3283729D01*
X-1275917Y-4857335D02*
X-1243303Y-4827352D01*
X-185496Y-3362753D02*
X-346458Y-3368371D01*
X62657Y-5021867D02*
X62851Y-5043853D01*
X-1402010Y-5167765D02*
X-1405480Y-5150994D01*
X141539Y-4774366D02*
X134176Y-4792511D01*
X1115709Y-3162246D02*
X1120254Y-3173776D01*
X-1665855Y-3168819D02*
X-1652560Y-3161439D01*
X1129034Y-3220324D02*
X1127539Y-3202988D01*
X-713829Y-4351629D02*
X-783573Y-4354064D01*
X-1632210Y-3152218D02*
X-1618503Y-3147560D01*
X80932Y-4914863D02*
X91762Y-4884746D01*
X860728Y-3333160D02*
X872430Y-3340021D01*
X243046Y-4830829D02*
X229864Y-4837003D01*
X67729Y-4967378D02*
X74580Y-4935440D01*
X-769206Y-4926819D02*
X-688485Y-4923997D01*
X155906Y-4727137D02*
X151249Y-4746580D01*
X-1025736Y-4802554D02*
X-996353Y-4787669D01*
X189376Y-4877933D02*
X181663Y-4891190D01*
X-1400823Y-3486011D02*
X-1412795Y-3492466D01*
D11*
X1564631Y-5121585D02*
X1566744Y-5124910D01*
X1566948Y-5126876D01*
X1577261Y-5368252D01*
X1577235Y-5370753D01*
X1574915Y-5375164D01*
X1570690Y-5377821D01*
X1568199Y-5378044D01*
X1565700Y-5377999D01*
X1561299Y-5375644D01*
X1558677Y-5371394D01*
X1558477Y-5368909D01*
X1551927Y-5127396D01*
X1552002Y-5125433D01*
X1553861Y-5121959D01*
X1557213Y-5119879D01*
X1561151Y-5119738D01*
X1564631Y-5121585D01*
G36*
X1564631Y-5121585D02*
G01*
X1566744Y-5124910D01*
X1566948Y-5126876D01*
X1577261Y-5368252D01*
X1577235Y-5370753D01*
X1574915Y-5375164D01*
X1570690Y-5377821D01*
X1568199Y-5378044D01*
X1565700Y-5377999D01*
X1561299Y-5375644D01*
X1558677Y-5371394D01*
X1558477Y-5368909D01*
X1551927Y-5127396D01*
X1552002Y-5125433D01*
X1553861Y-5121959D01*
X1557213Y-5119879D01*
X1561151Y-5119738D01*
X1564631Y-5121585D01*
G37*
D10*
X100034Y-4865565D02*
X91762Y-4884746D01*
D14*
G36*
X1510174Y-3060338D02*
G01*
X1522843Y-3061017D01*
X1537471Y-3062696D01*
X1548480Y-3065101D01*
X1557764Y-3071553D01*
X1574053Y-3538185D01*
X1555408Y-3547959D01*
X1543985Y-3550258D01*
X1547635Y-3647081D01*
X1552109Y-3647452D01*
X1554264Y-3647665D01*
X1556355Y-3647884D01*
X1558392Y-3648128D01*
X1560370Y-3648377D01*
X1562286Y-3648639D01*
X1564139Y-3648915D01*
X1565930Y-3649214D01*
X1567655Y-3649511D01*
X1569321Y-3649821D01*
X1570914Y-3650152D01*
X1572441Y-3650491D01*
X1573910Y-3650840D01*
X1575299Y-3651204D01*
X1576623Y-3651566D01*
X1577877Y-3651954D01*
X1579053Y-3652343D01*
X1580161Y-3652748D01*
X1581190Y-3653152D01*
X1582151Y-3653569D01*
X1583034Y-3654003D01*
X1583833Y-3654436D01*
X1584563Y-3654883D01*
X1585213Y-3655332D01*
X1585772Y-3655795D01*
X1586257Y-3656260D01*
X1586658Y-3656732D01*
X1586978Y-3657216D01*
X1587210Y-3657701D01*
X1587416Y-3658695D01*
X1608593Y-4264935D01*
X1608284Y-4266381D01*
X1608016Y-4266861D01*
X1607677Y-4267345D01*
X1607261Y-4267825D01*
X1606770Y-4268302D01*
X1606204Y-4268777D01*
X1605563Y-4269259D01*
X1604854Y-4269732D01*
X1604062Y-4270200D01*
X1603204Y-4270667D01*
X1602275Y-4271131D01*
X1601278Y-4271588D01*
X1600213Y-4272050D01*
X1599081Y-4272501D01*
X1597879Y-4272952D01*
X1596612Y-4273394D01*
X1595276Y-4273829D01*
X1593877Y-4274262D01*
X1592415Y-4274689D01*
X1590892Y-4275111D01*
X1589304Y-4275519D01*
X1587661Y-4275933D01*
X1585951Y-4276326D01*
X1584187Y-4276724D01*
X1582359Y-4277104D01*
X1580478Y-4277477D01*
X1578537Y-4277847D01*
X1576544Y-4278204D01*
X1574490Y-4278550D01*
X1572394Y-4278891D01*
X1577898Y-4435942D01*
X1582364Y-4436365D01*
X1584494Y-4436591D01*
X1586571Y-4436841D01*
X1588582Y-4437105D01*
X1590529Y-4437371D01*
X1592412Y-4437663D01*
X1594222Y-4437960D01*
X1595972Y-4438273D01*
X1597650Y-4438597D01*
X1599260Y-4438932D01*
X1600797Y-4439281D01*
X1602259Y-4439640D01*
X1603654Y-4440016D01*
X1604968Y-4440396D01*
X1606216Y-4440784D01*
X1607390Y-4441193D01*
X1608476Y-4441603D01*
X1609490Y-4442026D01*
X1610426Y-4442448D01*
X1611277Y-4442892D01*
X1612055Y-4443341D01*
X1612750Y-4443791D01*
X1613355Y-4444259D01*
X1613881Y-4444731D01*
X1614322Y-4445203D01*
X1614676Y-4445689D01*
X1614945Y-4446181D01*
X1615214Y-4447183D01*
X1615127Y-4448199D01*
X1616662Y-4463060D01*
X1621807Y-4492497D01*
X1629286Y-4521421D01*
X1639037Y-4549665D01*
X1651009Y-4577040D01*
X1665119Y-4603383D01*
X1681286Y-4628512D01*
X1690227Y-4640476D01*
X1690667Y-4653107D01*
X1687202Y-4661846D01*
X1678519Y-4678516D01*
X1667940Y-4694059D01*
X1655619Y-4708243D01*
X1641722Y-4720898D01*
X1626437Y-4731842D01*
X1609977Y-4740920D01*
X1592570Y-4748009D01*
X1574453Y-4753009D01*
X1555879Y-4755863D01*
X1537089Y-4756522D01*
X1518359Y-4754974D01*
X1499935Y-4751247D01*
X1482077Y-4745390D01*
X1465025Y-4737486D01*
X1449013Y-4727627D01*
X1434270Y-4715980D01*
X1420987Y-4702683D01*
X1409351Y-4687917D01*
X1399524Y-4671893D01*
X1395459Y-4663417D01*
X1395014Y-4650790D01*
X1403102Y-4638226D01*
X1417473Y-4612028D01*
X1429719Y-4584773D01*
X1439751Y-4556623D01*
X1447507Y-4527769D01*
X1452946Y-4498389D01*
X1456023Y-4468669D01*
X1456522Y-4453739D01*
X1456564Y-4451712D01*
X1456794Y-4451205D01*
X1457113Y-4450698D01*
X1457521Y-4450195D01*
X1458008Y-4449688D01*
X1458582Y-4449183D01*
X1459239Y-4448682D01*
X1459977Y-4448182D01*
X1460805Y-4447688D01*
X1461698Y-4447192D01*
X1462678Y-4446699D01*
X1463738Y-4446214D01*
X1464867Y-4445734D01*
X1466079Y-4445256D01*
X1467363Y-4444778D01*
X1468728Y-4444313D01*
X1470155Y-4443855D01*
X1471666Y-4443399D01*
X1473243Y-4442952D01*
X1474885Y-4442511D01*
X1476601Y-4442080D01*
X1478390Y-4441653D01*
X1480239Y-4441236D01*
X1482158Y-4440825D01*
X1484143Y-4440427D01*
X1486194Y-4440041D01*
X1488303Y-4439661D01*
X1490475Y-4439287D01*
X1492713Y-4438930D01*
X1487338Y-4281857D01*
X1470197Y-4279674D01*
X1459068Y-4276964D01*
X1450263Y-4270423D01*
X1429092Y-3664221D01*
X1429449Y-3662673D01*
X1429750Y-3662166D01*
X1430136Y-3661645D01*
X1430614Y-3661132D01*
X1431173Y-3660622D01*
X1431815Y-3660110D01*
X1432544Y-3659607D01*
X1433357Y-3659102D01*
X1434249Y-3658603D01*
X1435226Y-3658107D01*
X1436279Y-3657613D01*
X1437411Y-3657126D01*
X1438615Y-3656641D01*
X1439905Y-3656167D01*
X1441264Y-3655695D01*
X1442695Y-3655227D01*
X1444202Y-3654771D01*
X1445778Y-3654326D01*
X1447421Y-3653872D01*
X1449136Y-3653440D01*
X1450922Y-3653013D01*
X1452769Y-3652590D01*
X1454687Y-3652184D01*
X1456669Y-3651778D01*
X1458712Y-3651388D01*
X1460817Y-3651006D01*
X1462987Y-3650632D01*
X1465218Y-3650281D01*
X1467505Y-3649931D01*
X1469848Y-3649594D01*
X1466225Y-3552861D01*
X1443618Y-3549409D01*
X1434238Y-3543080D01*
X1417946Y-3076303D01*
X1430796Y-3067992D01*
X1441441Y-3065344D01*
X1452708Y-3063398D01*
X1476446Y-3060955D01*
X1487767Y-3060388D01*
X1499082Y-3060177D01*
X1510174Y-3060338D01*
G37*
D10*
X1083191Y-3108651D02*
X1070863Y-3094689D01*
X302721Y-5441302D02*
X286819Y-5427715D01*
X189376Y-4877933D02*
X202396Y-4859806D01*
X243046Y-4830829D02*
X264202Y-4890685D01*
X-1243303Y-4827352D02*
X-1220447Y-4808108D01*
X-1294969Y-3363746D02*
X-1297137Y-3369040D01*
X-1300775Y-5111721D02*
X-1299056Y-5081411D01*
X-1390458Y-5011498D02*
X-1376085Y-4981091D01*
X-1429240Y-3163180D02*
X-1422669Y-3161796D01*
X94032Y-5182941D02*
X83605Y-5151857D01*
X807070Y-3286892D02*
X817761Y-3298551D01*
X1016812Y-3055238D02*
X1025783Y-3059695D01*
X161089Y-4954812D02*
X167058Y-4929400D01*
X326935Y-5466739D02*
X335765Y-5478037D01*
X934025Y-3062817D02*
X930883Y-3065003D01*
X232197Y-5263483D02*
X217410Y-5248994D01*
X259142Y-5283292D02*
X270564Y-5289721D01*
X-1251493Y-4967714D02*
X-1230971Y-4942613D01*
X-1131703Y-5286301D02*
X-1112991Y-5283357D01*
X-1321120Y-5460603D02*
X-1320835Y-5434861D01*
X-962732Y-4590065D02*
X-959639Y-4579040D01*
X1068331Y-3333353D02*
X1059304Y-3338990D01*
X162096Y-4675441D02*
X161000Y-4696932D01*
X-715816Y-5693474D02*
X-787069Y-5659290D01*
X-856005Y-5632758D01*
X-934416Y-5611685D01*
X-1011702Y-5601485D01*
X-1077879Y-5601585D01*
X374808Y-5563916D02*
X368962Y-5544584D01*
X995427Y-3047419D02*
X983645Y-3045086D01*
X-1162533Y-4762454D02*
X-1128361Y-4737137D01*
X288402Y-5297008D02*
X300503Y-5300908D01*
X381012Y-5298952D02*
X362509Y-5303585D01*
X-1364964Y-5267361D02*
X-1374435Y-5245384D01*
X-1287890Y-3343059D02*
X-1292012Y-3355640D01*
D11*
X1719736Y-5061343D02*
X1721313Y-5062530D01*
X1904871Y-5219610D01*
X1906684Y-5221331D01*
X1908337Y-5226041D01*
X1907395Y-5230939D01*
X1905856Y-5232910D01*
X1904125Y-5234704D01*
X1899403Y-5236318D01*
X1894506Y-5235340D01*
X1892553Y-5233788D01*
X1711453Y-5073875D01*
X1710061Y-5072476D01*
X1708796Y-5068746D01*
X1709553Y-5064874D01*
X1712139Y-5061901D01*
X1715863Y-5060610D01*
X1719736Y-5061343D01*
G36*
X1719736Y-5061343D02*
G01*
X1721313Y-5062530D01*
X1904871Y-5219610D01*
X1906684Y-5221331D01*
X1908337Y-5226041D01*
X1907395Y-5230939D01*
X1905856Y-5232910D01*
X1904125Y-5234704D01*
X1899403Y-5236318D01*
X1894506Y-5235340D01*
X1892553Y-5233788D01*
X1711453Y-5073875D01*
X1710061Y-5072476D01*
X1708796Y-5068746D01*
X1709553Y-5064874D01*
X1712139Y-5061901D01*
X1715863Y-5060610D01*
X1719736Y-5061343D01*
G37*
D10*
X136274Y-5277402D02*
X122425Y-5251174D01*
X-1552028Y-3133314D02*
X-1533001Y-3133334D01*
X-1300775Y-5111721D02*
X-1300372Y-5131802D01*
X-1283092Y-5205545D02*
X-1276078Y-5221625D01*
X-1296693Y-4877658D02*
X-1275917Y-4857335D01*
X976540Y-3044768D02*
X966633Y-3045324D01*
X-1468172Y-3513064D02*
X-1484404Y-3516158D01*
X411419Y-5286240D02*
X423406Y-5279492D01*
X-1338983Y-3434773D02*
X-1351273Y-3447761D01*
X144695Y-4553895D02*
X142555Y-4546585D01*
X960894Y-3046697D02*
X953051Y-3049514D01*
X1119522Y-3274048D02*
X1115107Y-3283729D01*
X173256Y-5171817D02*
X165976Y-5148688D01*
X158604Y-4617914D02*
X161538Y-4641876D01*
X914000Y-3067575D02*
X908024Y-3064810D01*
X394582Y-5554990D02*
X374836Y-5563903D01*
X1089216Y-3316993D02*
X1100269Y-3305587D01*
X946577Y-3362528D02*
X960891Y-3363421D01*
X-1474382Y-3149916D02*
X-1464106Y-3154074D01*
X-1533001Y-3133334D02*
X-1520664Y-3135226D01*
X212751Y-4849856D02*
X229864Y-4837003D01*
X-1336865Y-5340361D02*
X-1344234Y-5318217D01*
D14*
G36*
X-990903Y-5271716D02*
G01*
X-965329Y-5274971D01*
X-940098Y-5280284D01*
X-915376Y-5287604D01*
X-891334Y-5296903D01*
X-868114Y-5308112D01*
X-845873Y-5321152D01*
X-824760Y-5335949D01*
X-804911Y-5352401D01*
X-786446Y-5370401D01*
X-769503Y-5389829D01*
X-754178Y-5410566D01*
X-740572Y-5432468D01*
X-728783Y-5455394D01*
X-723717Y-5467251D01*
X-732759Y-5474015D01*
X-742351Y-5480772D01*
X-751802Y-5486832D01*
X-771319Y-5496722D01*
X-792400Y-5505181D01*
X-802914Y-5509188D01*
X-813321Y-5512988D01*
X-833804Y-5519954D01*
X-859872Y-5526883D01*
X-870651Y-5529407D01*
X-881269Y-5531632D01*
X-897459Y-5534506D01*
X-920681Y-5536347D01*
X-932304Y-5536704D01*
X-953677Y-5536029D01*
X-973453Y-5532289D01*
X-984097Y-5529474D01*
X-1000918Y-5523415D01*
X-1016604Y-5513864D01*
X-1025550Y-5507266D01*
X-1037612Y-5496377D01*
X-1048683Y-5481428D01*
X-1054762Y-5471671D01*
X-1062557Y-5456394D01*
X-1068686Y-5437244D01*
X-1071510Y-5426078D01*
X-1075019Y-5406775D01*
X-1076007Y-5385039D01*
X-1075944Y-5373667D01*
X-1074539Y-5351619D01*
X-1070230Y-5328857D01*
X-1065048Y-5308383D01*
X-1055240Y-5272802D01*
X-1042425Y-5271438D01*
X-1016658Y-5270533D01*
X-990903Y-5271716D01*
G37*
D13*
X13158881Y-8429268D02*
X14997881Y-8429268D01*
D10*
X1062110Y-3086353D02*
X1048658Y-3074835D01*
X896662Y-3055659D02*
X891577Y-3050303D01*
X1101435Y-3134306D02*
X1090991Y-3118481D01*
X1045051Y-3346101D02*
X1035339Y-3350291D01*
X441110Y-5266898D02*
X423406Y-5279492D01*
X-1464106Y-3154074D02*
X-1449590Y-3159536D01*
X-1618503Y-3147560D02*
X-1598039Y-3141499D01*
X188285Y-5349168D02*
X171699Y-5330581D01*
X946577Y-3362528D02*
X937177Y-3361505D01*
X1127149Y-3248207D02*
X1129157Y-3231711D01*
X158604Y-4617914D02*
X151850Y-4580504D01*
X-1173604Y-5289352D02*
X-1195590Y-5287618D01*
X-1684569Y-3183900D02*
X-1665855Y-3168819D01*
X-1131703Y-5286301D02*
X-1157960Y-5289242D01*
X-977149Y-4778258D02*
X-948768Y-4764569D01*
X1068331Y-3333353D02*
X1081316Y-3324068D01*
X917755Y-3068643D02*
X914000Y-3067575D01*
X-212969Y-3540918D02*
X142555Y-4546585D01*
X-954956Y-4468091D02*
X-957211Y-4440086D01*
X923462Y-3358929D02*
X937177Y-3361505D01*
X-1598039Y-3141499D02*
X-1584656Y-3138317D01*
X232197Y-5263483D02*
X242549Y-5272290D01*
X-1106726Y-4721581D02*
X-1075771Y-4699490D01*
X-930353Y-4755892D02*
X-948768Y-4764569D01*
X-1414007Y-3157371D02*
X-1409583Y-3151675D01*
X-1689817Y-3453002D02*
X-1702496Y-3435551D01*
X901431Y-3352700D02*
X892896Y-3349592D01*
X441110Y-5266898D02*
X452789Y-5257523D01*
X259142Y-5283292D02*
X242549Y-5272290D01*
X930883Y-3065003D02*
X926169Y-3067621D01*
X-1733842Y-3291296D02*
X-1729489Y-3268652D01*
X-1502555Y-3139488D02*
X-1491039Y-3143475D01*
X-1215310Y-4927003D02*
X-1190320Y-4904569D01*
X-1422669Y-3161796D02*
X-1414007Y-3157371D01*
X995417Y-3360917D02*
X1010441Y-3358029D01*
X217122Y-5375807D02*
X228914Y-5385270D01*
X1039506Y-3068329D02*
X1048658Y-3074835D01*
X-1409583Y-3151675D02*
X-1404180Y-3140608D01*
X-1332450Y-5355311D02*
X-1336865Y-5340361D01*
X-1650250Y-3487003D02*
X-1666848Y-3474548D01*
X155506Y-5089675D02*
X157552Y-5107153D01*
X-1324425Y-5394014D02*
X-1327263Y-5378360D01*
X162096Y-4675441D02*
X161538Y-4641876D01*
X161089Y-4954812D02*
X157868Y-4972263D01*
X-959691Y-4420580D02*
X-964434Y-4390829D01*
D13*
X10252353Y-8889028D02*
X10252353Y-9489028D01*
X10252353Y-9203314D02*
X9909496Y-9203314D01*
X9909496Y-8889028D02*
X9909496Y-9489028D01*
X9395211Y-8917600D02*
X9452354Y-8889028D01*
X9452354Y-8889028D02*
X9566640Y-8889028D01*
X9566640Y-8889028D02*
X9623782Y-8917600D01*
X9623782Y-8917600D02*
X9652354Y-8974742D01*
X9652354Y-8974742D02*
X9652354Y-9203314D01*
X9652354Y-9203314D02*
X9623782Y-9260457D01*
X9623782Y-9260457D02*
X9566640Y-9289028D01*
X9566640Y-9289028D02*
X9452354Y-9289028D01*
X9452354Y-9289028D02*
X9395211Y-9260457D01*
X9395211Y-9260457D02*
X9366640Y-9203314D01*
X9366640Y-9203314D02*
X9366640Y-9146171D01*
X9366640Y-9146171D02*
X9652354Y-9089028D01*
X8852354Y-8917600D02*
X8909496Y-8889028D01*
X8909496Y-8889028D02*
X9023782Y-8889028D01*
X9023782Y-8889028D02*
X9080925Y-8917600D01*
X9080925Y-8917600D02*
X9109496Y-8946171D01*
X9109496Y-8946171D02*
X9138068Y-9003314D01*
X9138068Y-9003314D02*
X9138068Y-9174742D01*
X9138068Y-9174742D02*
X9109496Y-9231885D01*
X9109496Y-9231885D02*
X9080925Y-9260457D01*
X9080925Y-9260457D02*
X9023782Y-9289028D01*
X9023782Y-9289028D02*
X8909496Y-9289028D01*
X8909496Y-9289028D02*
X8852354Y-9260457D01*
X8338068Y-8889028D02*
X8338068Y-9203314D01*
X8338068Y-9203314D02*
X8366639Y-9260457D01*
X8366639Y-9260457D02*
X8423782Y-9289028D01*
X8423782Y-9289028D02*
X8538068Y-9289028D01*
X8538068Y-9289028D02*
X8595210Y-9260457D01*
X8338068Y-8917600D02*
X8395210Y-8889028D01*
X8395210Y-8889028D02*
X8538068Y-8889028D01*
X8538068Y-8889028D02*
X8595210Y-8917600D01*
X8595210Y-8917600D02*
X8623782Y-8974742D01*
X8623782Y-8974742D02*
X8623782Y-9031885D01*
X8623782Y-9031885D02*
X8595210Y-9089028D01*
X8595210Y-9089028D02*
X8538068Y-9117600D01*
X8538068Y-9117600D02*
X8395210Y-9117600D01*
X8395210Y-9117600D02*
X8338068Y-9146171D01*
X8138068Y-9289028D02*
X7909496Y-9289028D01*
X8052353Y-9489028D02*
X8052353Y-8974742D01*
X8052353Y-8974742D02*
X8023782Y-8917600D01*
X8023782Y-8917600D02*
X7966639Y-8889028D01*
X7966639Y-8889028D02*
X7909496Y-8889028D01*
X7480925Y-8917600D02*
X7538068Y-8889028D01*
X7538068Y-8889028D02*
X7652354Y-8889028D01*
X7652354Y-8889028D02*
X7709496Y-8917600D01*
X7709496Y-8917600D02*
X7738068Y-8974742D01*
X7738068Y-8974742D02*
X7738068Y-9203314D01*
X7738068Y-9203314D02*
X7709496Y-9260457D01*
X7709496Y-9260457D02*
X7652354Y-9289028D01*
X7652354Y-9289028D02*
X7538068Y-9289028D01*
X7538068Y-9289028D02*
X7480925Y-9260457D01*
X7480925Y-9260457D02*
X7452354Y-9203314D01*
X7452354Y-9203314D02*
X7452354Y-9146171D01*
X7452354Y-9146171D02*
X7738068Y-9089028D01*
X6395210Y-8946171D02*
X6423782Y-8917600D01*
X6423782Y-8917600D02*
X6509496Y-8889028D01*
X6509496Y-8889028D02*
X6566639Y-8889028D01*
X6566639Y-8889028D02*
X6652353Y-8917600D01*
X6652353Y-8917600D02*
X6709496Y-8974742D01*
X6709496Y-8974742D02*
X6738067Y-9031885D01*
X6738067Y-9031885D02*
X6766639Y-9146171D01*
X6766639Y-9146171D02*
X6766639Y-9231885D01*
X6766639Y-9231885D02*
X6738067Y-9346171D01*
X6738067Y-9346171D02*
X6709496Y-9403314D01*
X6709496Y-9403314D02*
X6652353Y-9460457D01*
X6652353Y-9460457D02*
X6566639Y-9489028D01*
X6566639Y-9489028D02*
X6509496Y-9489028D01*
X6509496Y-9489028D02*
X6423782Y-9460457D01*
X6423782Y-9460457D02*
X6395210Y-9431885D01*
X6138067Y-8889028D02*
X6138067Y-9489028D01*
X6138067Y-9489028D02*
X5795210Y-8889028D01*
X5795210Y-8889028D02*
X5795210Y-9489028D01*
X5166639Y-8946171D02*
X5195211Y-8917600D01*
X5195211Y-8917600D02*
X5280925Y-8889028D01*
X5280925Y-8889028D02*
X5338068Y-8889028D01*
X5338068Y-8889028D02*
X5423782Y-8917600D01*
X5423782Y-8917600D02*
X5480925Y-8974742D01*
X5480925Y-8974742D02*
X5509496Y-9031885D01*
X5509496Y-9031885D02*
X5538068Y-9146171D01*
X5538068Y-9146171D02*
X5538068Y-9231885D01*
X5538068Y-9231885D02*
X5509496Y-9346171D01*
X5509496Y-9346171D02*
X5480925Y-9403314D01*
X5480925Y-9403314D02*
X5423782Y-9460457D01*
X5423782Y-9460457D02*
X5338068Y-9489028D01*
X5338068Y-9489028D02*
X5280925Y-9489028D01*
X5280925Y-9489028D02*
X5195211Y-9460457D01*
X5195211Y-9460457D02*
X5166639Y-9431885D01*
X4452353Y-8889028D02*
X4452353Y-9489028D01*
X4452353Y-9489028D02*
X4223782Y-9489028D01*
X4223782Y-9489028D02*
X4166639Y-9460457D01*
X4166639Y-9460457D02*
X4138068Y-9431885D01*
X4138068Y-9431885D02*
X4109496Y-9374742D01*
X4109496Y-9374742D02*
X4109496Y-9289028D01*
X4109496Y-9289028D02*
X4138068Y-9231885D01*
X4138068Y-9231885D02*
X4166639Y-9203314D01*
X4166639Y-9203314D02*
X4223782Y-9174742D01*
X4223782Y-9174742D02*
X4452353Y-9174742D01*
X3852353Y-8889028D02*
X3852353Y-9289028D01*
X3852353Y-9174742D02*
X3823782Y-9231885D01*
X3823782Y-9231885D02*
X3795211Y-9260457D01*
X3795211Y-9260457D02*
X3738068Y-9289028D01*
X3738068Y-9289028D02*
X3680925Y-9289028D01*
X3395210Y-8889028D02*
X3452353Y-8917600D01*
X3452353Y-8917600D02*
X3480924Y-8946171D01*
X3480924Y-8946171D02*
X3509496Y-9003314D01*
X3509496Y-9003314D02*
X3509496Y-9174742D01*
X3509496Y-9174742D02*
X3480924Y-9231885D01*
X3480924Y-9231885D02*
X3452353Y-9260457D01*
X3452353Y-9260457D02*
X3395210Y-9289028D01*
X3395210Y-9289028D02*
X3309496Y-9289028D01*
X3309496Y-9289028D02*
X3252353Y-9260457D01*
X3252353Y-9260457D02*
X3223782Y-9231885D01*
X3223782Y-9231885D02*
X3195210Y-9174742D01*
X3195210Y-9174742D02*
X3195210Y-9003314D01*
X3195210Y-9003314D02*
X3223782Y-8946171D01*
X3223782Y-8946171D02*
X3252353Y-8917600D01*
X3252353Y-8917600D02*
X3309496Y-8889028D01*
X3309496Y-8889028D02*
X3395210Y-8889028D01*
X2938067Y-8889028D02*
X2938067Y-9489028D01*
X2938067Y-9260457D02*
X2880925Y-9289028D01*
X2880925Y-9289028D02*
X2766639Y-9289028D01*
X2766639Y-9289028D02*
X2709496Y-9260457D01*
X2709496Y-9260457D02*
X2680925Y-9231885D01*
X2680925Y-9231885D02*
X2652353Y-9174742D01*
X2652353Y-9174742D02*
X2652353Y-9003314D01*
X2652353Y-9003314D02*
X2680925Y-8946171D01*
X2680925Y-8946171D02*
X2709496Y-8917600D01*
X2709496Y-8917600D02*
X2766639Y-8889028D01*
X2766639Y-8889028D02*
X2880925Y-8889028D01*
X2880925Y-8889028D02*
X2938067Y-8917600D01*
X2166639Y-8917600D02*
X2223782Y-8889028D01*
X2223782Y-8889028D02*
X2338068Y-8889028D01*
X2338068Y-8889028D02*
X2395210Y-8917600D01*
X2395210Y-8917600D02*
X2423782Y-8974742D01*
X2423782Y-8974742D02*
X2423782Y-9203314D01*
X2423782Y-9203314D02*
X2395210Y-9260457D01*
X2395210Y-9260457D02*
X2338068Y-9289028D01*
X2338068Y-9289028D02*
X2223782Y-9289028D01*
X2223782Y-9289028D02*
X2166639Y-9260457D01*
X2166639Y-9260457D02*
X2138068Y-9203314D01*
X2138068Y-9203314D02*
X2138068Y-9146171D01*
X2138068Y-9146171D02*
X2423782Y-9089028D01*
%LPC*%
D15*
%TO.C,J5*%
X11850617Y9293035D03*
X11405114Y9066040D03*
X10963175Y8840861D03*
X10514108Y8612049D03*
X10068604Y8385054D03*
X9623101Y8158059D03*
%TD*%
D16*
%TO.C,J1*%
X14507000Y-16390400D03*
X14007000Y-16390400D03*
X13511000Y-16390400D03*
D17*
X13007000Y-16390400D03*
D16*
X12507000Y-16390400D03*
X12007000Y-16390400D03*
%TD*%
D18*
%TO.C,L2*%
X0Y3568000D03*
X500000Y-6980000D03*
X-500000Y-6980000D03*
%TD*%
%LPD*%
M02*
