%TF.GenerationSoftware,KiCad,Pcbnew,7.0.10*%
%TF.CreationDate,2024-08-10T06:33:11-07:00*%
%TF.ProjectId,carvera wireless charger circuit,63617276-6572-4612-9077-6972656c6573,rev?*%
%TF.SameCoordinates,Original*%
%TF.FileFunction,Legend,Top*%
%TF.FilePolarity,Positive*%
%FSLAX46Y46*%
G04 Gerber Fmt 4.6, Leading zero omitted, Abs format (unit mm)*
G04 Created by KiCad (PCBNEW 7.0.10) date 2024-08-10 06:33:11*
%MOMM*%
%LPD*%
G01*
G04 APERTURE LIST*
G04 Aperture macros list*
%AMRoundRect*
0 Rectangle with rounded corners*
0 $1 Rounding radius*
0 $2 $3 $4 $5 $6 $7 $8 $9 X,Y pos of 4 corners*
0 Add a 4 corners polygon primitive as box body*
4,1,4,$2,$3,$4,$5,$6,$7,$8,$9,$2,$3,0*
0 Add four circle primitives for the rounded corners*
1,1,$1+$1,$2,$3*
1,1,$1+$1,$4,$5*
1,1,$1+$1,$6,$7*
1,1,$1+$1,$8,$9*
0 Add four rect primitives between the rounded corners*
20,1,$1+$1,$2,$3,$4,$5,0*
20,1,$1+$1,$4,$5,$6,$7,0*
20,1,$1+$1,$6,$7,$8,$9,0*
20,1,$1+$1,$8,$9,$2,$3,0*%
G04 Aperture macros list end*
%ADD10C,0.100000*%
%ADD11C,0.070000*%
%ADD12C,0.050000*%
%ADD13C,0.000000*%
%ADD14C,0.137415*%
%ADD15C,0.150000*%
%ADD16C,1.700000*%
%ADD17C,0.700000*%
%ADD18RoundRect,0.075000X-0.075000X-0.675000X0.075000X-0.675000X0.075000X0.675000X-0.075000X0.675000X0*%
%ADD19RoundRect,0.075000X0.075000X0.675000X-0.075000X0.675000X-0.075000X-0.675000X0.075000X-0.675000X0*%
G04 APERTURE END LIST*
D10*
X10252353Y-9089028D02*
X10252353Y-9689028D01*
X10252353Y-9403314D02*
X9909496Y-9403314D01*
X9909496Y-9089028D02*
X9909496Y-9689028D01*
X9395211Y-9117600D02*
X9452354Y-9089028D01*
X9452354Y-9089028D02*
X9566640Y-9089028D01*
X9566640Y-9089028D02*
X9623782Y-9117600D01*
X9623782Y-9117600D02*
X9652354Y-9174742D01*
X9652354Y-9174742D02*
X9652354Y-9403314D01*
X9652354Y-9403314D02*
X9623782Y-9460457D01*
X9623782Y-9460457D02*
X9566640Y-9489028D01*
X9566640Y-9489028D02*
X9452354Y-9489028D01*
X9452354Y-9489028D02*
X9395211Y-9460457D01*
X9395211Y-9460457D02*
X9366640Y-9403314D01*
X9366640Y-9403314D02*
X9366640Y-9346171D01*
X9366640Y-9346171D02*
X9652354Y-9289028D01*
X8852354Y-9117600D02*
X8909496Y-9089028D01*
X8909496Y-9089028D02*
X9023782Y-9089028D01*
X9023782Y-9089028D02*
X9080925Y-9117600D01*
X9080925Y-9117600D02*
X9109496Y-9146171D01*
X9109496Y-9146171D02*
X9138068Y-9203314D01*
X9138068Y-9203314D02*
X9138068Y-9374742D01*
X9138068Y-9374742D02*
X9109496Y-9431885D01*
X9109496Y-9431885D02*
X9080925Y-9460457D01*
X9080925Y-9460457D02*
X9023782Y-9489028D01*
X9023782Y-9489028D02*
X8909496Y-9489028D01*
X8909496Y-9489028D02*
X8852354Y-9460457D01*
X8338068Y-9089028D02*
X8338068Y-9403314D01*
X8338068Y-9403314D02*
X8366639Y-9460457D01*
X8366639Y-9460457D02*
X8423782Y-9489028D01*
X8423782Y-9489028D02*
X8538068Y-9489028D01*
X8538068Y-9489028D02*
X8595210Y-9460457D01*
X8338068Y-9117600D02*
X8395210Y-9089028D01*
X8395210Y-9089028D02*
X8538068Y-9089028D01*
X8538068Y-9089028D02*
X8595210Y-9117600D01*
X8595210Y-9117600D02*
X8623782Y-9174742D01*
X8623782Y-9174742D02*
X8623782Y-9231885D01*
X8623782Y-9231885D02*
X8595210Y-9289028D01*
X8595210Y-9289028D02*
X8538068Y-9317600D01*
X8538068Y-9317600D02*
X8395210Y-9317600D01*
X8395210Y-9317600D02*
X8338068Y-9346171D01*
X8138068Y-9489028D02*
X7909496Y-9489028D01*
X8052353Y-9689028D02*
X8052353Y-9174742D01*
X8052353Y-9174742D02*
X8023782Y-9117600D01*
X8023782Y-9117600D02*
X7966639Y-9089028D01*
X7966639Y-9089028D02*
X7909496Y-9089028D01*
X7480925Y-9117600D02*
X7538068Y-9089028D01*
X7538068Y-9089028D02*
X7652354Y-9089028D01*
X7652354Y-9089028D02*
X7709496Y-9117600D01*
X7709496Y-9117600D02*
X7738068Y-9174742D01*
X7738068Y-9174742D02*
X7738068Y-9403314D01*
X7738068Y-9403314D02*
X7709496Y-9460457D01*
X7709496Y-9460457D02*
X7652354Y-9489028D01*
X7652354Y-9489028D02*
X7538068Y-9489028D01*
X7538068Y-9489028D02*
X7480925Y-9460457D01*
X7480925Y-9460457D02*
X7452354Y-9403314D01*
X7452354Y-9403314D02*
X7452354Y-9346171D01*
X7452354Y-9346171D02*
X7738068Y-9289028D01*
X6395210Y-9146171D02*
X6423782Y-9117600D01*
X6423782Y-9117600D02*
X6509496Y-9089028D01*
X6509496Y-9089028D02*
X6566639Y-9089028D01*
X6566639Y-9089028D02*
X6652353Y-9117600D01*
X6652353Y-9117600D02*
X6709496Y-9174742D01*
X6709496Y-9174742D02*
X6738067Y-9231885D01*
X6738067Y-9231885D02*
X6766639Y-9346171D01*
X6766639Y-9346171D02*
X6766639Y-9431885D01*
X6766639Y-9431885D02*
X6738067Y-9546171D01*
X6738067Y-9546171D02*
X6709496Y-9603314D01*
X6709496Y-9603314D02*
X6652353Y-9660457D01*
X6652353Y-9660457D02*
X6566639Y-9689028D01*
X6566639Y-9689028D02*
X6509496Y-9689028D01*
X6509496Y-9689028D02*
X6423782Y-9660457D01*
X6423782Y-9660457D02*
X6395210Y-9631885D01*
X6138067Y-9089028D02*
X6138067Y-9689028D01*
X6138067Y-9689028D02*
X5795210Y-9089028D01*
X5795210Y-9089028D02*
X5795210Y-9689028D01*
X5166639Y-9146171D02*
X5195211Y-9117600D01*
X5195211Y-9117600D02*
X5280925Y-9089028D01*
X5280925Y-9089028D02*
X5338068Y-9089028D01*
X5338068Y-9089028D02*
X5423782Y-9117600D01*
X5423782Y-9117600D02*
X5480925Y-9174742D01*
X5480925Y-9174742D02*
X5509496Y-9231885D01*
X5509496Y-9231885D02*
X5538068Y-9346171D01*
X5538068Y-9346171D02*
X5538068Y-9431885D01*
X5538068Y-9431885D02*
X5509496Y-9546171D01*
X5509496Y-9546171D02*
X5480925Y-9603314D01*
X5480925Y-9603314D02*
X5423782Y-9660457D01*
X5423782Y-9660457D02*
X5338068Y-9689028D01*
X5338068Y-9689028D02*
X5280925Y-9689028D01*
X5280925Y-9689028D02*
X5195211Y-9660457D01*
X5195211Y-9660457D02*
X5166639Y-9631885D01*
X4452353Y-9089028D02*
X4452353Y-9689028D01*
X4452353Y-9689028D02*
X4223782Y-9689028D01*
X4223782Y-9689028D02*
X4166639Y-9660457D01*
X4166639Y-9660457D02*
X4138068Y-9631885D01*
X4138068Y-9631885D02*
X4109496Y-9574742D01*
X4109496Y-9574742D02*
X4109496Y-9489028D01*
X4109496Y-9489028D02*
X4138068Y-9431885D01*
X4138068Y-9431885D02*
X4166639Y-9403314D01*
X4166639Y-9403314D02*
X4223782Y-9374742D01*
X4223782Y-9374742D02*
X4452353Y-9374742D01*
X3852353Y-9089028D02*
X3852353Y-9489028D01*
X3852353Y-9374742D02*
X3823782Y-9431885D01*
X3823782Y-9431885D02*
X3795211Y-9460457D01*
X3795211Y-9460457D02*
X3738068Y-9489028D01*
X3738068Y-9489028D02*
X3680925Y-9489028D01*
X3395210Y-9089028D02*
X3452353Y-9117600D01*
X3452353Y-9117600D02*
X3480924Y-9146171D01*
X3480924Y-9146171D02*
X3509496Y-9203314D01*
X3509496Y-9203314D02*
X3509496Y-9374742D01*
X3509496Y-9374742D02*
X3480924Y-9431885D01*
X3480924Y-9431885D02*
X3452353Y-9460457D01*
X3452353Y-9460457D02*
X3395210Y-9489028D01*
X3395210Y-9489028D02*
X3309496Y-9489028D01*
X3309496Y-9489028D02*
X3252353Y-9460457D01*
X3252353Y-9460457D02*
X3223782Y-9431885D01*
X3223782Y-9431885D02*
X3195210Y-9374742D01*
X3195210Y-9374742D02*
X3195210Y-9203314D01*
X3195210Y-9203314D02*
X3223782Y-9146171D01*
X3223782Y-9146171D02*
X3252353Y-9117600D01*
X3252353Y-9117600D02*
X3309496Y-9089028D01*
X3309496Y-9089028D02*
X3395210Y-9089028D01*
X2938067Y-9089028D02*
X2938067Y-9689028D01*
X2938067Y-9460457D02*
X2880925Y-9489028D01*
X2880925Y-9489028D02*
X2766639Y-9489028D01*
X2766639Y-9489028D02*
X2709496Y-9460457D01*
X2709496Y-9460457D02*
X2680925Y-9431885D01*
X2680925Y-9431885D02*
X2652353Y-9374742D01*
X2652353Y-9374742D02*
X2652353Y-9203314D01*
X2652353Y-9203314D02*
X2680925Y-9146171D01*
X2680925Y-9146171D02*
X2709496Y-9117600D01*
X2709496Y-9117600D02*
X2766639Y-9089028D01*
X2766639Y-9089028D02*
X2880925Y-9089028D01*
X2880925Y-9089028D02*
X2938067Y-9117600D01*
X2166639Y-9117600D02*
X2223782Y-9089028D01*
X2223782Y-9089028D02*
X2338068Y-9089028D01*
X2338068Y-9089028D02*
X2395210Y-9117600D01*
X2395210Y-9117600D02*
X2423782Y-9174742D01*
X2423782Y-9174742D02*
X2423782Y-9403314D01*
X2423782Y-9403314D02*
X2395210Y-9460457D01*
X2395210Y-9460457D02*
X2338068Y-9489028D01*
X2338068Y-9489028D02*
X2223782Y-9489028D01*
X2223782Y-9489028D02*
X2166639Y-9460457D01*
X2166639Y-9460457D02*
X2138068Y-9403314D01*
X2138068Y-9403314D02*
X2138068Y-9346171D01*
X2138068Y-9346171D02*
X2423782Y-9289028D01*
D11*
X-1718716Y-3606796D02*
X-1726093Y-3585165D01*
X-1321851Y-5618314D02*
X-1324425Y-5594014D01*
X-1283092Y-5405545D02*
X-1276078Y-5421625D01*
X188285Y-5549168D02*
X199621Y-5560630D01*
X805595Y-3485193D02*
G75*
G03*
X787098Y-3489310I-8138J-7049D01*
G01*
X-977149Y-4978258D02*
X-996353Y-4987669D01*
X-1502555Y-3339488D02*
X-1491039Y-3343475D01*
X-1162533Y-4962454D02*
X-1128361Y-4937137D01*
X158604Y-4817914D02*
X151850Y-4780504D01*
X-1292012Y-3555640D02*
X-1294969Y-3563746D01*
X66389Y-5276692D02*
X62851Y-5243853D01*
X-1338983Y-3634773D02*
X-1351273Y-3647761D01*
X930883Y-3265003D02*
X926169Y-3267621D01*
X-1208741Y-5484116D02*
X-1227279Y-5476527D01*
X-1449590Y-3359536D02*
X-1441016Y-3361718D01*
X-1251493Y-5167714D02*
X-1230971Y-5142613D01*
X-1287890Y-3543059D02*
X-1292012Y-3555640D01*
X-1296693Y-5077658D02*
X-1275917Y-5057335D01*
X94032Y-5382941D02*
X101499Y-5403259D01*
X-885709Y-4935296D02*
X-903232Y-4943279D01*
X136274Y-5477402D02*
X145876Y-5494011D01*
X77671Y-5330626D02*
X83605Y-5351857D01*
X-1374435Y-5445384D02*
X-1380631Y-5430436D01*
X217122Y-5575807D02*
X228914Y-5585270D01*
X154818Y-5199285D02*
X157868Y-5172263D01*
X1083191Y-3308651D02*
X1070863Y-3294689D01*
X162219Y-5332358D02*
X157552Y-5307153D01*
X970652Y-3563272D02*
X960891Y-3563421D01*
X208481Y-5437972D02*
X217410Y-5448994D01*
X-1263355Y-5442281D02*
X-1254096Y-5454510D01*
X66389Y-5276692D02*
X69926Y-5298454D01*
X948600Y-3252000D02*
X942529Y-3256044D01*
X344688Y-5087880D02*
X787097Y-3489310D01*
X-1075771Y-4899490D02*
X-1057225Y-4886147D01*
X-953652Y-4726921D02*
X-953532Y-4711138D01*
X441110Y-5466898D02*
X423406Y-5479492D01*
X62657Y-5221867D02*
X62851Y-5243853D01*
D12*
X1767676Y-5121624D02*
X2007172Y-5153388D01*
X2009594Y-5153861D01*
X2013503Y-5156854D01*
X2015408Y-5161388D01*
X2015267Y-5163849D01*
X2014818Y-5166337D01*
X2011746Y-5170335D01*
X2007074Y-5172232D01*
X2004561Y-5171993D01*
X1765585Y-5136512D01*
X1763655Y-5136097D01*
X1760561Y-5133655D01*
X1759093Y-5129999D01*
X1759643Y-5126094D01*
X1762065Y-5122984D01*
X1765706Y-5121486D01*
X1767676Y-5121624D01*
G36*
X1767676Y-5121624D02*
G01*
X2007172Y-5153388D01*
X2009594Y-5153861D01*
X2013503Y-5156854D01*
X2015408Y-5161388D01*
X2015267Y-5163849D01*
X2014818Y-5166337D01*
X2011746Y-5170335D01*
X2007074Y-5172232D01*
X2004561Y-5171993D01*
X1765585Y-5136512D01*
X1763655Y-5136097D01*
X1760561Y-5133655D01*
X1759093Y-5129999D01*
X1759643Y-5126094D01*
X1762065Y-5122984D01*
X1765706Y-5121486D01*
X1767676Y-5121624D01*
G37*
D11*
X212751Y-5049856D02*
X202396Y-5059806D01*
X-1263355Y-5442281D02*
X-1276078Y-5421625D01*
X-1533001Y-3333334D02*
X-1520664Y-3335226D01*
X188285Y-5549168D02*
X171699Y-5530581D01*
X62657Y-5221867D02*
X64383Y-5188987D01*
X-1106726Y-4921581D02*
X-1075771Y-4899490D01*
X-1733842Y-3491296D02*
X-1729489Y-3468652D01*
X995427Y-3247419D02*
X983645Y-3245086D01*
X908024Y-3264810D02*
X903636Y-3261636D01*
X161089Y-5154812D02*
X167058Y-5129400D01*
X-1283286Y-3523125D02*
X-1287890Y-3543059D01*
X-976853Y-4540343D02*
X-983700Y-4520082D01*
X-1398225Y-5231497D02*
X-1390458Y-5211498D01*
X-1405480Y-5350994D02*
X-1409252Y-5325190D01*
X-1351273Y-3647761D02*
X-1360191Y-3655973D01*
X-1128361Y-4937137D02*
X-1106726Y-4921581D01*
X-1491039Y-3343475D02*
X-1474382Y-3349916D01*
X259142Y-5483292D02*
X270564Y-5489721D01*
X976540Y-3244768D02*
X966633Y-3245324D01*
X136274Y-5477402D02*
X122425Y-5451174D01*
X1089216Y-3516993D02*
X1100269Y-3505587D01*
X926169Y-3267621D02*
X922895Y-3268427D01*
X-1295201Y-5261361D02*
X-1286906Y-5231751D01*
X-1468172Y-3713064D02*
X-1484404Y-3716158D01*
X155906Y-4927137D02*
X161000Y-4896932D01*
X-1278625Y-5212759D02*
X-1263830Y-5185105D01*
X1119522Y-3474048D02*
X1115107Y-3483729D01*
X-1363474Y-5160488D02*
X-1341878Y-5129401D01*
X141539Y-4974366D02*
X151249Y-4946580D01*
X-346458Y-3568371D02*
X-713829Y-4551629D01*
X-1349836Y-5503663D02*
X-1358712Y-5481909D01*
X319000Y-5504312D02*
X300503Y-5500908D01*
X1125121Y-3391305D02*
X1120254Y-3373776D01*
X381012Y-5498952D02*
X362509Y-5503585D01*
X347623Y-5696925D02*
X335765Y-5678037D01*
X-1358712Y-5481909D02*
X-1364964Y-5467361D01*
D12*
X1314460Y-3972389D02*
X1318658Y-3974449D01*
X1321332Y-3978291D01*
X1321802Y-3982947D01*
X1319959Y-3987243D01*
X1318193Y-3988785D01*
X1295769Y-3997594D01*
X1284642Y-4002346D01*
X1273588Y-4007324D01*
X1262586Y-4012541D01*
X1251654Y-4017985D01*
X1240776Y-4023666D01*
X1229960Y-4029579D01*
X1196971Y-4049315D01*
X1180676Y-4060040D01*
X1164542Y-4071330D01*
X1148577Y-4083194D01*
X1132804Y-4095609D01*
X1117241Y-4108586D01*
X1101909Y-4122127D01*
X1086812Y-4136209D01*
X1071980Y-4150837D01*
X1057434Y-4166022D01*
X1043175Y-4181740D01*
X1029233Y-4197997D01*
X1022385Y-4206321D01*
X1015621Y-4214791D01*
X1008946Y-4223389D01*
X1002358Y-4232117D01*
X995864Y-4240979D01*
X989461Y-4249967D01*
X966605Y-4284519D01*
X955800Y-4302423D01*
X945488Y-4320693D01*
X935704Y-4339300D01*
X926503Y-4358198D01*
X917938Y-4377359D01*
X910057Y-4396735D01*
X902909Y-4416290D01*
X896537Y-4436002D01*
X891000Y-4455824D01*
X886343Y-4475711D01*
X882613Y-4495641D01*
X879869Y-4515564D01*
X878154Y-4535447D01*
X877509Y-4555256D01*
X879230Y-4590185D01*
X881478Y-4607405D01*
X884634Y-4624421D01*
X888700Y-4641198D01*
X893656Y-4657705D01*
X899510Y-4673925D01*
X906239Y-4689813D01*
X913840Y-4705349D01*
X922305Y-4720497D01*
X931626Y-4735232D01*
X941790Y-4749520D01*
X952796Y-4763325D01*
X964631Y-4776626D01*
X977289Y-4789396D01*
X990762Y-4801589D01*
X1009354Y-4816479D01*
X1019117Y-4823514D01*
X1029182Y-4830281D01*
X1039540Y-4836761D01*
X1050183Y-4842944D01*
X1061119Y-4848838D01*
X1072331Y-4854424D01*
X1083821Y-4859696D01*
X1095573Y-4864647D01*
X1107591Y-4869271D01*
X1119876Y-4873562D01*
X1132404Y-4877521D01*
X1145183Y-4881131D01*
X1158207Y-4884389D01*
X1171464Y-4887280D01*
X1156702Y-4881306D01*
X1142481Y-4875074D01*
X1128793Y-4868606D01*
X1115630Y-4861883D01*
X1102984Y-4854933D01*
X1090866Y-4847748D01*
X1079258Y-4840346D01*
X1068160Y-4832724D01*
X1057559Y-4824895D01*
X1047460Y-4816857D01*
X1037854Y-4808626D01*
X1028738Y-4800202D01*
X1020105Y-4791594D01*
X1011952Y-4782802D01*
X997064Y-4764711D01*
X986004Y-4749060D01*
X976218Y-4733059D01*
X967684Y-4716754D01*
X960345Y-4700176D01*
X954172Y-4683361D01*
X949129Y-4666353D01*
X945182Y-4649178D01*
X942291Y-4631876D01*
X940424Y-4614491D01*
X939531Y-4597053D01*
X939588Y-4579602D01*
X940558Y-4562177D01*
X942400Y-4544799D01*
X945078Y-4527535D01*
X952796Y-4493432D01*
X958315Y-4474909D01*
X964684Y-4456620D01*
X971895Y-4438569D01*
X979932Y-4420755D01*
X988783Y-4403187D01*
X998432Y-4385859D01*
X1008869Y-4368785D01*
X1020083Y-4351964D01*
X1032062Y-4335390D01*
X1044789Y-4319079D01*
X1058249Y-4303030D01*
X1072438Y-4287243D01*
X1087342Y-4271725D01*
X1095054Y-4264064D01*
X1102944Y-4256482D01*
X1111001Y-4248958D01*
X1119232Y-4241501D01*
X1136200Y-4226802D01*
X1147521Y-4217439D01*
X1159142Y-4208179D01*
X1171058Y-4199019D01*
X1183278Y-4189958D01*
X1195782Y-4180993D01*
X1208595Y-4172127D01*
X1221703Y-4163347D01*
X1235104Y-4154668D01*
X1248815Y-4146074D01*
X1262821Y-4137576D01*
X1277135Y-4129158D01*
X1291753Y-4120836D01*
X1306670Y-4112598D01*
X1321897Y-4104431D01*
X1353264Y-4088364D01*
X1355386Y-4087506D01*
X1359941Y-4087835D01*
X1363734Y-4090380D01*
X1365766Y-4094468D01*
X1365506Y-4099026D01*
X1363025Y-4102861D01*
X1361063Y-4104033D01*
X1309089Y-4130700D01*
X1293268Y-4139758D01*
X1282158Y-4146281D01*
X1271205Y-4152841D01*
X1260416Y-4159445D01*
X1249778Y-4166091D01*
X1239297Y-4172787D01*
X1195994Y-4201709D01*
X1182992Y-4211549D01*
X1173878Y-4218631D01*
X1164926Y-4225761D01*
X1156120Y-4232942D01*
X1147474Y-4240169D01*
X1138978Y-4247444D01*
X1104098Y-4278927D01*
X1092376Y-4291188D01*
X1083841Y-4300468D01*
X1075530Y-4309825D01*
X1067441Y-4319262D01*
X1059575Y-4328772D01*
X1033038Y-4363089D01*
X1024491Y-4376421D01*
X1018356Y-4386517D01*
X1012447Y-4396678D01*
X1006784Y-4406908D01*
X1001361Y-4417209D01*
X983634Y-4454292D01*
X978537Y-4468595D01*
X975029Y-4479383D01*
X971790Y-4490220D01*
X968822Y-4501094D01*
X966140Y-4512024D01*
X958424Y-4551123D01*
X957376Y-4565955D01*
X956976Y-4577080D01*
X956912Y-4588193D01*
X957176Y-4599294D01*
X957782Y-4610382D01*
X962198Y-4649686D01*
X966149Y-4664174D01*
X969583Y-4674948D01*
X973428Y-4685640D01*
X977687Y-4696249D01*
X982376Y-4706762D01*
X1001817Y-4743516D01*
X1014586Y-4759761D01*
X1022910Y-4769288D01*
X1031732Y-4778656D01*
X1039470Y-4786328D01*
X1047559Y-4793878D01*
X1085269Y-4825012D01*
X1098284Y-4832875D01*
X1109568Y-4839250D01*
X1121239Y-4845462D01*
X1130869Y-4850312D01*
X1140758Y-4855067D01*
X1150900Y-4859717D01*
X1161305Y-4864253D01*
X1220242Y-4887027D01*
X1246075Y-4893973D01*
X1259399Y-4897273D01*
X1273003Y-4900450D01*
X1286872Y-4903502D01*
X1297456Y-4905714D01*
X1308195Y-4907866D01*
X1319085Y-4909945D01*
X1330133Y-4911956D01*
X1319400Y-4912859D01*
X1305205Y-4913835D01*
X1291139Y-4914539D01*
X1277211Y-4914978D01*
X1263404Y-4915141D01*
X1249735Y-4915041D01*
X1236196Y-4914671D01*
X1219451Y-4913836D01*
X1153104Y-4901169D01*
X1141049Y-4898173D01*
X1129149Y-4894935D01*
X1117408Y-4891460D01*
X1105821Y-4887725D01*
X1094404Y-4883759D01*
X1083148Y-4879556D01*
X1061125Y-4870431D01*
X1009485Y-4838137D01*
X1000306Y-4831595D01*
X991347Y-4824865D01*
X982590Y-4817931D01*
X974051Y-4810816D01*
X965721Y-4803520D01*
X957613Y-4796033D01*
X942045Y-4780534D01*
X909524Y-4733681D01*
X902732Y-4722286D01*
X896333Y-4710698D01*
X890342Y-4698922D01*
X884751Y-4686975D01*
X879567Y-4674852D01*
X872996Y-4657595D01*
X862914Y-4602363D01*
X861429Y-4589256D01*
X860354Y-4576071D01*
X859699Y-4562824D01*
X859451Y-4549515D01*
X859618Y-4536159D01*
X860530Y-4517369D01*
X871763Y-4460324D01*
X874384Y-4449692D01*
X877210Y-4439086D01*
X880242Y-4428513D01*
X883463Y-4417965D01*
X886876Y-4407464D01*
X890481Y-4396995D01*
X898243Y-4376189D01*
X924288Y-4323176D01*
X929476Y-4313434D01*
X934780Y-4303770D01*
X940200Y-4294188D01*
X945728Y-4284675D01*
X951369Y-4275262D01*
X957108Y-4265926D01*
X968907Y-4247526D01*
X1003400Y-4202076D01*
X1011713Y-4191761D01*
X1020137Y-4181608D01*
X1028661Y-4171614D01*
X1037283Y-4161781D01*
X1046012Y-4152113D01*
X1058377Y-4138848D01*
X1097833Y-4102408D01*
X1107223Y-4094231D01*
X1116669Y-4086218D01*
X1126183Y-4078372D01*
X1135757Y-4070705D01*
X1145386Y-4063205D01*
X1158972Y-4052991D01*
X1201567Y-4025863D01*
X1211650Y-4019859D01*
X1221788Y-4014022D01*
X1231971Y-4008357D01*
X1242201Y-4002857D01*
X1252481Y-3997520D01*
X1266948Y-3990344D01*
X1312116Y-3972367D01*
X1314460Y-3972389D01*
G36*
X1314460Y-3972389D02*
G01*
X1318658Y-3974449D01*
X1321332Y-3978291D01*
X1321802Y-3982947D01*
X1319959Y-3987243D01*
X1318193Y-3988785D01*
X1295769Y-3997594D01*
X1284642Y-4002346D01*
X1273588Y-4007324D01*
X1262586Y-4012541D01*
X1251654Y-4017985D01*
X1240776Y-4023666D01*
X1229960Y-4029579D01*
X1196971Y-4049315D01*
X1180676Y-4060040D01*
X1164542Y-4071330D01*
X1148577Y-4083194D01*
X1132804Y-4095609D01*
X1117241Y-4108586D01*
X1101909Y-4122127D01*
X1086812Y-4136209D01*
X1071980Y-4150837D01*
X1057434Y-4166022D01*
X1043175Y-4181740D01*
X1029233Y-4197997D01*
X1022385Y-4206321D01*
X1015621Y-4214791D01*
X1008946Y-4223389D01*
X1002358Y-4232117D01*
X995864Y-4240979D01*
X989461Y-4249967D01*
X966605Y-4284519D01*
X955800Y-4302423D01*
X945488Y-4320693D01*
X935704Y-4339300D01*
X926503Y-4358198D01*
X917938Y-4377359D01*
X910057Y-4396735D01*
X902909Y-4416290D01*
X896537Y-4436002D01*
X891000Y-4455824D01*
X886343Y-4475711D01*
X882613Y-4495641D01*
X879869Y-4515564D01*
X878154Y-4535447D01*
X877509Y-4555256D01*
X879230Y-4590185D01*
X881478Y-4607405D01*
X884634Y-4624421D01*
X888700Y-4641198D01*
X893656Y-4657705D01*
X899510Y-4673925D01*
X906239Y-4689813D01*
X913840Y-4705349D01*
X922305Y-4720497D01*
X931626Y-4735232D01*
X941790Y-4749520D01*
X952796Y-4763325D01*
X964631Y-4776626D01*
X977289Y-4789396D01*
X990762Y-4801589D01*
X1009354Y-4816479D01*
X1019117Y-4823514D01*
X1029182Y-4830281D01*
X1039540Y-4836761D01*
X1050183Y-4842944D01*
X1061119Y-4848838D01*
X1072331Y-4854424D01*
X1083821Y-4859696D01*
X1095573Y-4864647D01*
X1107591Y-4869271D01*
X1119876Y-4873562D01*
X1132404Y-4877521D01*
X1145183Y-4881131D01*
X1158207Y-4884389D01*
X1171464Y-4887280D01*
X1156702Y-4881306D01*
X1142481Y-4875074D01*
X1128793Y-4868606D01*
X1115630Y-4861883D01*
X1102984Y-4854933D01*
X1090866Y-4847748D01*
X1079258Y-4840346D01*
X1068160Y-4832724D01*
X1057559Y-4824895D01*
X1047460Y-4816857D01*
X1037854Y-4808626D01*
X1028738Y-4800202D01*
X1020105Y-4791594D01*
X1011952Y-4782802D01*
X997064Y-4764711D01*
X986004Y-4749060D01*
X976218Y-4733059D01*
X967684Y-4716754D01*
X960345Y-4700176D01*
X954172Y-4683361D01*
X949129Y-4666353D01*
X945182Y-4649178D01*
X942291Y-4631876D01*
X940424Y-4614491D01*
X939531Y-4597053D01*
X939588Y-4579602D01*
X940558Y-4562177D01*
X942400Y-4544799D01*
X945078Y-4527535D01*
X952796Y-4493432D01*
X958315Y-4474909D01*
X964684Y-4456620D01*
X971895Y-4438569D01*
X979932Y-4420755D01*
X988783Y-4403187D01*
X998432Y-4385859D01*
X1008869Y-4368785D01*
X1020083Y-4351964D01*
X1032062Y-4335390D01*
X1044789Y-4319079D01*
X1058249Y-4303030D01*
X1072438Y-4287243D01*
X1087342Y-4271725D01*
X1095054Y-4264064D01*
X1102944Y-4256482D01*
X1111001Y-4248958D01*
X1119232Y-4241501D01*
X1136200Y-4226802D01*
X1147521Y-4217439D01*
X1159142Y-4208179D01*
X1171058Y-4199019D01*
X1183278Y-4189958D01*
X1195782Y-4180993D01*
X1208595Y-4172127D01*
X1221703Y-4163347D01*
X1235104Y-4154668D01*
X1248815Y-4146074D01*
X1262821Y-4137576D01*
X1277135Y-4129158D01*
X1291753Y-4120836D01*
X1306670Y-4112598D01*
X1321897Y-4104431D01*
X1353264Y-4088364D01*
X1355386Y-4087506D01*
X1359941Y-4087835D01*
X1363734Y-4090380D01*
X1365766Y-4094468D01*
X1365506Y-4099026D01*
X1363025Y-4102861D01*
X1361063Y-4104033D01*
X1309089Y-4130700D01*
X1293268Y-4139758D01*
X1282158Y-4146281D01*
X1271205Y-4152841D01*
X1260416Y-4159445D01*
X1249778Y-4166091D01*
X1239297Y-4172787D01*
X1195994Y-4201709D01*
X1182992Y-4211549D01*
X1173878Y-4218631D01*
X1164926Y-4225761D01*
X1156120Y-4232942D01*
X1147474Y-4240169D01*
X1138978Y-4247444D01*
X1104098Y-4278927D01*
X1092376Y-4291188D01*
X1083841Y-4300468D01*
X1075530Y-4309825D01*
X1067441Y-4319262D01*
X1059575Y-4328772D01*
X1033038Y-4363089D01*
X1024491Y-4376421D01*
X1018356Y-4386517D01*
X1012447Y-4396678D01*
X1006784Y-4406908D01*
X1001361Y-4417209D01*
X983634Y-4454292D01*
X978537Y-4468595D01*
X975029Y-4479383D01*
X971790Y-4490220D01*
X968822Y-4501094D01*
X966140Y-4512024D01*
X958424Y-4551123D01*
X957376Y-4565955D01*
X956976Y-4577080D01*
X956912Y-4588193D01*
X957176Y-4599294D01*
X957782Y-4610382D01*
X962198Y-4649686D01*
X966149Y-4664174D01*
X969583Y-4674948D01*
X973428Y-4685640D01*
X977687Y-4696249D01*
X982376Y-4706762D01*
X1001817Y-4743516D01*
X1014586Y-4759761D01*
X1022910Y-4769288D01*
X1031732Y-4778656D01*
X1039470Y-4786328D01*
X1047559Y-4793878D01*
X1085269Y-4825012D01*
X1098284Y-4832875D01*
X1109568Y-4839250D01*
X1121239Y-4845462D01*
X1130869Y-4850312D01*
X1140758Y-4855067D01*
X1150900Y-4859717D01*
X1161305Y-4864253D01*
X1220242Y-4887027D01*
X1246075Y-4893973D01*
X1259399Y-4897273D01*
X1273003Y-4900450D01*
X1286872Y-4903502D01*
X1297456Y-4905714D01*
X1308195Y-4907866D01*
X1319085Y-4909945D01*
X1330133Y-4911956D01*
X1319400Y-4912859D01*
X1305205Y-4913835D01*
X1291139Y-4914539D01*
X1277211Y-4914978D01*
X1263404Y-4915141D01*
X1249735Y-4915041D01*
X1236196Y-4914671D01*
X1219451Y-4913836D01*
X1153104Y-4901169D01*
X1141049Y-4898173D01*
X1129149Y-4894935D01*
X1117408Y-4891460D01*
X1105821Y-4887725D01*
X1094404Y-4883759D01*
X1083148Y-4879556D01*
X1061125Y-4870431D01*
X1009485Y-4838137D01*
X1000306Y-4831595D01*
X991347Y-4824865D01*
X982590Y-4817931D01*
X974051Y-4810816D01*
X965721Y-4803520D01*
X957613Y-4796033D01*
X942045Y-4780534D01*
X909524Y-4733681D01*
X902732Y-4722286D01*
X896333Y-4710698D01*
X890342Y-4698922D01*
X884751Y-4686975D01*
X879567Y-4674852D01*
X872996Y-4657595D01*
X862914Y-4602363D01*
X861429Y-4589256D01*
X860354Y-4576071D01*
X859699Y-4562824D01*
X859451Y-4549515D01*
X859618Y-4536159D01*
X860530Y-4517369D01*
X871763Y-4460324D01*
X874384Y-4449692D01*
X877210Y-4439086D01*
X880242Y-4428513D01*
X883463Y-4417965D01*
X886876Y-4407464D01*
X890481Y-4396995D01*
X898243Y-4376189D01*
X924288Y-4323176D01*
X929476Y-4313434D01*
X934780Y-4303770D01*
X940200Y-4294188D01*
X945728Y-4284675D01*
X951369Y-4275262D01*
X957108Y-4265926D01*
X968907Y-4247526D01*
X1003400Y-4202076D01*
X1011713Y-4191761D01*
X1020137Y-4181608D01*
X1028661Y-4171614D01*
X1037283Y-4161781D01*
X1046012Y-4152113D01*
X1058377Y-4138848D01*
X1097833Y-4102408D01*
X1107223Y-4094231D01*
X1116669Y-4086218D01*
X1126183Y-4078372D01*
X1135757Y-4070705D01*
X1145386Y-4063205D01*
X1158972Y-4052991D01*
X1201567Y-4025863D01*
X1211650Y-4019859D01*
X1221788Y-4014022D01*
X1231971Y-4008357D01*
X1242201Y-4002857D01*
X1252481Y-3997520D01*
X1266948Y-3990344D01*
X1312116Y-3972367D01*
X1314460Y-3972389D01*
G37*
D11*
X-185496Y-3562753D02*
X-346458Y-3568371D01*
X-1185687Y-4980063D02*
X-1162533Y-4962454D01*
X1101435Y-3334306D02*
X1107808Y-3345215D01*
X275617Y-5619228D02*
X286819Y-5627715D01*
X302721Y-5641302D02*
X312897Y-5650860D01*
X-1556119Y-3718603D02*
X-1575337Y-3715486D01*
X-1689817Y-3653002D02*
X-1702496Y-3635551D01*
X914000Y-3267575D02*
X908024Y-3264810D01*
X381012Y-5498952D02*
X393274Y-5494870D01*
X-930353Y-4955892D02*
X-903232Y-4943279D01*
X-1409857Y-5307258D02*
X-1408752Y-5279717D01*
X326935Y-5666739D02*
X335765Y-5678037D01*
X998886Y-5785915D02*
X930847Y-5750473D01*
X861917Y-5722642D01*
X792151Y-5702969D01*
X721605Y-5692002D01*
X650334Y-5690289D01*
X626426Y-5691870D01*
X-1604201Y-3708473D02*
X-1622988Y-3700975D01*
X246664Y-5598298D02*
X228914Y-5585270D01*
X188702Y-5407241D02*
X195984Y-5420268D01*
X-959691Y-4620580D02*
X-964434Y-4590829D01*
X1020437Y-3555253D02*
X1010441Y-3558029D01*
X-988320Y-4829856D02*
X-975839Y-4815146D01*
D12*
X1343071Y-5137617D02*
X1345700Y-5140552D01*
X1346519Y-5144406D01*
X1345313Y-5148154D01*
X1342394Y-5150804D01*
X1340501Y-5151352D01*
X1104574Y-5203420D01*
X1102089Y-5203827D01*
X1097291Y-5202266D01*
X1093956Y-5198490D01*
X1093335Y-5196046D01*
X1093007Y-5193599D01*
X1094595Y-5188938D01*
X1098292Y-5185685D01*
X1100671Y-5185042D01*
X1337371Y-5136652D01*
X1339327Y-5136381D01*
X1343071Y-5137617D01*
G36*
X1343071Y-5137617D02*
G01*
X1345700Y-5140552D01*
X1346519Y-5144406D01*
X1345313Y-5148154D01*
X1342394Y-5150804D01*
X1340501Y-5151352D01*
X1104574Y-5203420D01*
X1102089Y-5203827D01*
X1097291Y-5202266D01*
X1093956Y-5198490D01*
X1093335Y-5196046D01*
X1093007Y-5193599D01*
X1094595Y-5188938D01*
X1098292Y-5185685D01*
X1100671Y-5185042D01*
X1337371Y-5136652D01*
X1339327Y-5136381D01*
X1343071Y-5137617D01*
G37*
D11*
X-1733826Y-3551050D02*
X-1735177Y-3527169D01*
X-1702496Y-3635551D02*
X-1718716Y-3606796D01*
X1020437Y-3555253D02*
X1035339Y-3550291D01*
X970652Y-3563272D02*
X985429Y-3562342D01*
X-1402010Y-5367765D02*
X-1405480Y-5350994D01*
X-957211Y-4640086D02*
X-959691Y-4620580D01*
X470020Y-5441007D02*
X452789Y-5457523D01*
X275617Y-5619228D02*
X258419Y-5606717D01*
X-1131703Y-5486301D02*
X-1157960Y-5489242D01*
X364483Y-5732547D02*
X368962Y-5744584D01*
X302721Y-5641302D02*
X286819Y-5627715D01*
X1115709Y-3362246D02*
X1107808Y-3345215D01*
X-1215310Y-5127003D02*
X-1230971Y-5142613D01*
X860728Y-3533160D02*
X853089Y-3528264D01*
X154818Y-5199285D02*
X153456Y-5217483D01*
X1115709Y-3362246D02*
X1120254Y-3373776D01*
X243046Y-5030829D02*
X264202Y-5090685D01*
X-930353Y-4955892D02*
X-948768Y-4964569D01*
X-1390458Y-5211498D02*
X-1376085Y-5181091D01*
X411419Y-5486240D02*
X423406Y-5479492D01*
X-1238422Y-5468730D02*
X-1227279Y-5476527D01*
X-1666848Y-3674548D02*
X-1689817Y-3653002D01*
X-715816Y-5893474D02*
X-787069Y-5859290D01*
X-856005Y-5832758D01*
X-934416Y-5811685D01*
X-1011702Y-5801485D01*
X-1077879Y-5801585D01*
X-1575337Y-3715486D02*
X-1604201Y-3708473D01*
X1003678Y-3249751D02*
X995427Y-3247419D01*
X243046Y-5030829D02*
X229864Y-5037003D01*
X960894Y-3246697D02*
X953051Y-3249514D01*
X-1294969Y-3563746D02*
X-1297137Y-3569040D01*
X-998214Y-4839874D02*
X-988320Y-4829856D01*
X966633Y-3245324D02*
X960894Y-3246697D01*
X-953944Y-4686109D02*
X-954956Y-4668091D01*
X995417Y-3560917D02*
X1010441Y-3558029D01*
X-1324698Y-5108648D02*
X-1296693Y-5077658D01*
X1068331Y-3533353D02*
X1081316Y-3524068D01*
X100034Y-5065565D02*
X112956Y-5037524D01*
X-1295201Y-5261361D02*
X-1299056Y-5281411D01*
X-1564895Y-3334431D02*
X-1552028Y-3333314D01*
X923462Y-3558929D02*
X914484Y-3556817D01*
X-1520664Y-3335226D02*
X-1502555Y-3339488D01*
X842056Y-3520136D02*
X834869Y-3514417D01*
X-1665855Y-3368819D02*
X-1652560Y-3361439D01*
X288402Y-5497008D02*
X270564Y-5489721D01*
X901431Y-3552700D02*
X914484Y-3556817D01*
X-975839Y-4815146D02*
X-969870Y-4805287D01*
X-1652560Y-3361439D02*
X-1632210Y-3352218D01*
X1039506Y-3268329D02*
X1025783Y-3259695D01*
X1083191Y-3308651D02*
X1090991Y-3318481D01*
X-1584656Y-3338317D02*
X-1564895Y-3334431D01*
X67729Y-5167378D02*
X64383Y-5188987D01*
X998886Y-5785915D02*
X1015002Y-5796196D01*
X-968892Y-4570674D02*
X-976853Y-4540343D01*
X-1057225Y-4886147D02*
X-1031615Y-4867317D01*
X-1409252Y-5325190D02*
X-1409857Y-5307258D01*
X-1422669Y-3361796D02*
X-1414007Y-3357371D01*
X860728Y-3533160D02*
X872430Y-3540021D01*
D12*
X1719736Y-5261343D02*
X1721313Y-5262530D01*
X1904871Y-5419610D01*
X1906684Y-5421331D01*
X1908337Y-5426041D01*
X1907395Y-5430939D01*
X1905856Y-5432910D01*
X1904125Y-5434704D01*
X1899403Y-5436318D01*
X1894506Y-5435340D01*
X1892553Y-5433788D01*
X1711453Y-5273875D01*
X1710061Y-5272476D01*
X1708796Y-5268746D01*
X1709553Y-5264874D01*
X1712139Y-5261901D01*
X1715863Y-5260610D01*
X1719736Y-5261343D01*
G36*
X1719736Y-5261343D02*
G01*
X1721313Y-5262530D01*
X1904871Y-5419610D01*
X1906684Y-5421331D01*
X1908337Y-5426041D01*
X1907395Y-5430939D01*
X1905856Y-5432910D01*
X1904125Y-5434704D01*
X1899403Y-5436318D01*
X1894506Y-5435340D01*
X1892553Y-5433788D01*
X1711453Y-5273875D01*
X1710061Y-5272476D01*
X1708796Y-5268746D01*
X1709553Y-5264874D01*
X1712139Y-5261901D01*
X1715863Y-5260610D01*
X1719736Y-5261343D01*
G37*
D11*
X80932Y-5114863D02*
X74580Y-5135440D01*
X-688485Y-5123997D02*
X-306618Y-3744194D01*
X441110Y-5466898D02*
X452789Y-5457523D01*
X-1684569Y-3383900D02*
X-1665855Y-3368819D01*
X891577Y-3250303D02*
X667318Y-3258133D01*
X374837Y-5763903D02*
G75*
G03*
X461417Y-5449475I326349J79271D01*
G01*
X-1322047Y-5678147D02*
X-1321120Y-5660603D01*
X946577Y-3562528D02*
X960891Y-3563421D01*
X172380Y-5113602D02*
X181663Y-5091190D01*
X-1017241Y-4855982D02*
X-998214Y-4839874D01*
X-1735177Y-3527169D02*
X-1733842Y-3491296D01*
X-1031615Y-4867317D02*
X-1017241Y-4855982D01*
X-885709Y-4935296D02*
X-859934Y-4923700D01*
X411419Y-5486240D02*
X393274Y-5494870D01*
X-1429240Y-3363180D02*
X-1422669Y-3361796D01*
X1106616Y-3497132D02*
X1100269Y-3505587D01*
X189376Y-5077933D02*
X181663Y-5091190D01*
X144695Y-4753895D02*
X151850Y-4780504D01*
X923462Y-3558929D02*
X937177Y-3561505D01*
X-1220447Y-5008108D02*
X-1185687Y-4980063D01*
X121626Y-5019436D02*
X134176Y-4992511D01*
X153038Y-5244845D02*
X153395Y-5262997D01*
X1089216Y-3516993D02*
X1081316Y-3524068D01*
X-1025736Y-5002554D02*
X-996353Y-4987669D01*
X-1528086Y-3719831D02*
X-1556119Y-3718603D01*
X824501Y-3505076D02*
X834869Y-3514417D01*
X1068331Y-3533353D02*
X1059304Y-3538990D01*
X-959639Y-4779040D02*
X-956170Y-4761405D01*
X172380Y-5113602D02*
X167058Y-5129400D01*
X80932Y-5114863D02*
X91762Y-5084746D01*
X-1344234Y-5518217D02*
X-1349836Y-5503663D01*
D12*
X1564631Y-5321585D02*
X1566744Y-5324910D01*
X1566948Y-5326876D01*
X1577261Y-5568252D01*
X1577235Y-5570753D01*
X1574915Y-5575164D01*
X1570690Y-5577821D01*
X1568199Y-5578044D01*
X1565700Y-5577999D01*
X1561299Y-5575644D01*
X1558677Y-5571394D01*
X1558477Y-5568909D01*
X1551927Y-5327396D01*
X1552002Y-5325433D01*
X1553861Y-5321959D01*
X1557213Y-5319879D01*
X1561151Y-5319738D01*
X1564631Y-5321585D01*
G36*
X1564631Y-5321585D02*
G01*
X1566744Y-5324910D01*
X1566948Y-5326876D01*
X1577261Y-5568252D01*
X1577235Y-5570753D01*
X1574915Y-5575164D01*
X1570690Y-5577821D01*
X1568199Y-5578044D01*
X1565700Y-5577999D01*
X1561299Y-5575644D01*
X1558677Y-5571394D01*
X1558477Y-5568909D01*
X1551927Y-5327396D01*
X1552002Y-5325433D01*
X1553861Y-5321959D01*
X1557213Y-5319879D01*
X1561151Y-5319738D01*
X1564631Y-5321585D01*
G37*
D11*
X842056Y-3520136D02*
X853089Y-3528264D01*
X-1696313Y-3395881D02*
X-1684569Y-3383900D01*
X1129034Y-3420324D02*
X1129157Y-3431711D01*
X246664Y-5598298D02*
X258419Y-5606717D01*
X162096Y-4875441D02*
X161000Y-4896932D01*
X-1324425Y-5594014D02*
X-1327263Y-5578360D01*
X-1300775Y-5311721D02*
X-1299056Y-5281411D01*
X-1065998Y-3758068D02*
G75*
G03*
X-1228896Y-3821061I-5120J-228884D01*
G01*
X953051Y-3249514D02*
X948600Y-3252000D01*
X-1364964Y-5467361D02*
X-1374435Y-5445384D01*
X939003Y-3258832D02*
X934025Y-3262817D01*
X995417Y-3560917D02*
X985429Y-3562342D01*
X-1374268Y-3667885D02*
X-1384533Y-3675343D01*
X-713829Y-4551629D02*
X-783573Y-4554064D01*
X-956170Y-4761405D02*
X-954872Y-4748187D01*
X350083Y-5504988D02*
X362509Y-5503585D01*
X-964434Y-4590829D02*
X-968892Y-4570674D01*
X917755Y-3268643D02*
X914000Y-3267575D01*
X212751Y-5049856D02*
X229864Y-5037003D01*
X880515Y-3544050D02*
X872430Y-3540021D01*
X-1331200Y-3625836D02*
X-1338983Y-3634773D01*
X1045051Y-3546101D02*
X1059304Y-3538990D01*
X-1172276Y-5090656D02*
X-1144276Y-5070662D01*
X-977149Y-4978258D02*
X-948768Y-4964569D01*
X-1113000Y-3623260D02*
G75*
G03*
X-1277124Y-3690390I463J-235331D01*
G01*
X-1650250Y-3687003D02*
X-1666848Y-3674548D01*
X-1474382Y-3349916D02*
X-1464106Y-3354074D01*
X-1124852Y-5058225D02*
X-1095304Y-5040293D01*
X-1325352Y-5705859D02*
G75*
G03*
X-1090975Y-5478801I308575J-84027D01*
G01*
X946577Y-3562528D02*
X937177Y-3561505D01*
X94032Y-5382941D02*
X83605Y-5351857D01*
X-1445887Y-3706487D02*
X-1468172Y-3713064D01*
X-1251493Y-5167714D02*
X-1263830Y-5185105D01*
X162096Y-4875441D02*
X161538Y-4841876D01*
X188702Y-5407241D02*
X178770Y-5386638D01*
X-1720205Y-3437003D02*
X-1711410Y-3419225D01*
X1016812Y-3255238D02*
X1003678Y-3249751D01*
X-1414007Y-3357371D02*
X-1409583Y-3351675D01*
X-1409583Y-3351675D02*
X-1404180Y-3340608D01*
X-1124852Y-5058225D02*
X-1144276Y-5070662D01*
X-1341878Y-5129401D02*
X-1324698Y-5108648D01*
X-1394903Y-5391906D02*
X-1402010Y-5367765D01*
X264202Y-5090685D02*
X344688Y-5087880D01*
X1127149Y-3448207D02*
X1124942Y-3458907D01*
X-1327263Y-5578360D02*
X-1332450Y-5555311D01*
X-1131703Y-5486301D02*
X-1112991Y-5483357D01*
D12*
X1402556Y-5272719D02*
X1405342Y-5275508D01*
X1406371Y-5279299D01*
X1405370Y-5283120D01*
X1404073Y-5284608D01*
X1234575Y-5456767D01*
X1232732Y-5458449D01*
X1227920Y-5459767D01*
X1223092Y-5458490D01*
X1221239Y-5456821D01*
X1219565Y-5454964D01*
X1218288Y-5450138D01*
X1219608Y-5445323D01*
X1221288Y-5443480D01*
X1393448Y-5273976D01*
X1394940Y-5272689D01*
X1398752Y-5271683D01*
X1402556Y-5272719D01*
G36*
X1402556Y-5272719D02*
G01*
X1405342Y-5275508D01*
X1406371Y-5279299D01*
X1405370Y-5283120D01*
X1404073Y-5284608D01*
X1234575Y-5456767D01*
X1232732Y-5458449D01*
X1227920Y-5459767D01*
X1223092Y-5458490D01*
X1221239Y-5456821D01*
X1219565Y-5454964D01*
X1218288Y-5450138D01*
X1219608Y-5445323D01*
X1221288Y-5443480D01*
X1393448Y-5273976D01*
X1394940Y-5272689D01*
X1398752Y-5271683D01*
X1402556Y-5272719D01*
G37*
D11*
X319000Y-5504312D02*
X331413Y-5505583D01*
X189376Y-5077933D02*
X202396Y-5059806D01*
X-1077879Y-5801585D02*
X-1149910Y-5810631D01*
X-1218118Y-5826976D01*
X-1292384Y-5851801D01*
X-1328057Y-5865737D01*
X1119522Y-3474048D02*
X1124942Y-3458907D01*
X-1336865Y-5540361D02*
X-1344234Y-5518217D01*
X347623Y-5696925D02*
X354949Y-5710335D01*
X155906Y-4927137D02*
X151249Y-4946580D01*
X896662Y-3255659D02*
X891577Y-3250303D01*
X-1405530Y-5260656D02*
X-1398225Y-5231497D01*
X-1622988Y-3700975D02*
X-1650250Y-3687003D01*
X-1025736Y-5002554D02*
X-1045499Y-5012800D01*
X67729Y-5167378D02*
X74580Y-5135440D01*
X-1711410Y-3419225D02*
X-1696313Y-3395881D01*
X-1278625Y-5212759D02*
X-1286906Y-5231751D01*
X-1389585Y-5407638D02*
X-1394903Y-5391906D01*
X113816Y-5432395D02*
X122425Y-5451174D01*
X-1325289Y-5705423D02*
X-1322047Y-5678147D01*
X-1729489Y-3468652D02*
X-1720205Y-3437003D01*
X1062110Y-3286353D02*
X1048658Y-3274835D01*
X626426Y-5691870D02*
X554213Y-5702678D01*
X481792Y-5721848D01*
X409141Y-5748740D01*
X394582Y-5754990D01*
X144695Y-4753895D02*
X142555Y-4746585D01*
X-1075384Y-5029058D02*
X-1045499Y-5012800D01*
X173256Y-5371817D02*
X165976Y-5348688D01*
X824501Y-3505076D02*
X817761Y-3498551D01*
X-1632210Y-3352218D02*
X-1618503Y-3347560D01*
X922895Y-3268427D02*
X917755Y-3268643D01*
X807070Y-3486892D02*
X817761Y-3498551D01*
X-1618503Y-3347560D02*
X-1598039Y-3341499D01*
X-1296186Y-5360934D02*
X-1300372Y-5331802D01*
X259142Y-5483292D02*
X242549Y-5472290D01*
X-1441016Y-3361718D02*
X-1429240Y-3363180D01*
X-1431860Y-3701439D02*
X-1445887Y-3706487D01*
X1016812Y-3255238D02*
X1025783Y-3259695D01*
X-1484404Y-3716158D02*
X-1509926Y-3719418D01*
X-1296186Y-5360934D02*
X-1292096Y-5379703D01*
X1045051Y-3546101D02*
X1035339Y-3550291D01*
X326935Y-5666739D02*
X312897Y-5650860D01*
X-1408752Y-5279717D02*
X-1405530Y-5260656D01*
X-1509926Y-3719418D02*
X-1528086Y-3719831D01*
X-1404180Y-3340608D02*
X-1401947Y-3330393D01*
X-1384533Y-3675343D02*
X-1400823Y-3686011D01*
X161089Y-5154812D02*
X157868Y-5172263D01*
X-769206Y-5126819D02*
X-843564Y-4916494D01*
X1106616Y-3497132D02*
X1115107Y-3483729D01*
X-1238422Y-5468730D02*
X-1254096Y-5454510D01*
X-1218438Y-3323986D02*
X-1401947Y-3330393D01*
X77671Y-5330626D02*
X69926Y-5298454D01*
X-983700Y-4520082D02*
X-1310444Y-3595830D01*
X-1310444Y-3595830D02*
X-1316360Y-3605510D01*
X805596Y-3485192D02*
X807070Y-3486892D01*
X-1243303Y-5027352D02*
X-1220447Y-5008108D01*
X711659Y-3751935D02*
G75*
G03*
X545981Y-3696318I-157841J-195616D01*
G01*
X-962732Y-4790065D02*
X-959639Y-4779040D01*
X-1075384Y-5029058D02*
X-1095304Y-5040293D01*
X-1598039Y-3341499D02*
X-1584656Y-3338317D01*
X155506Y-5289675D02*
X153395Y-5262997D01*
X-1360191Y-3655973D02*
X-1374268Y-3667885D01*
X-1552028Y-3333314D02*
X-1533001Y-3333334D01*
X-1726093Y-3585165D02*
X-1733826Y-3551050D01*
X-1320560Y-3611631D02*
X-1331200Y-3625836D01*
X1127149Y-3448207D02*
X1129157Y-3431711D01*
X-1283092Y-5405545D02*
X-1292096Y-5379703D01*
X-954872Y-4748187D02*
X-953652Y-4726921D01*
X-969870Y-4805287D02*
X-962732Y-4790065D01*
X-1380631Y-5430436D02*
X-1389585Y-5407638D01*
D13*
G36*
X-990903Y-5471716D02*
G01*
X-965329Y-5474971D01*
X-940098Y-5480284D01*
X-915376Y-5487604D01*
X-891334Y-5496903D01*
X-868114Y-5508112D01*
X-845873Y-5521152D01*
X-824760Y-5535949D01*
X-804911Y-5552401D01*
X-786446Y-5570401D01*
X-769503Y-5589829D01*
X-754178Y-5610566D01*
X-740572Y-5632468D01*
X-728783Y-5655394D01*
X-723717Y-5667251D01*
X-732759Y-5674015D01*
X-742351Y-5680772D01*
X-751802Y-5686832D01*
X-771319Y-5696722D01*
X-792400Y-5705181D01*
X-802914Y-5709188D01*
X-813321Y-5712988D01*
X-833804Y-5719954D01*
X-859872Y-5726883D01*
X-870651Y-5729407D01*
X-881269Y-5731632D01*
X-897459Y-5734506D01*
X-920681Y-5736347D01*
X-932304Y-5736704D01*
X-953677Y-5736029D01*
X-973453Y-5732289D01*
X-984097Y-5729474D01*
X-1000918Y-5723415D01*
X-1016604Y-5713864D01*
X-1025550Y-5707266D01*
X-1037612Y-5696377D01*
X-1048683Y-5681428D01*
X-1054762Y-5671671D01*
X-1062557Y-5656394D01*
X-1068686Y-5637244D01*
X-1071510Y-5626078D01*
X-1075019Y-5606775D01*
X-1076007Y-5585039D01*
X-1075944Y-5573667D01*
X-1074539Y-5551619D01*
X-1070230Y-5528857D01*
X-1065048Y-5508383D01*
X-1055240Y-5472802D01*
X-1042425Y-5471438D01*
X-1016658Y-5470533D01*
X-990903Y-5471716D01*
G37*
D11*
X394582Y-5754990D02*
X374836Y-5763903D01*
D13*
G36*
X731791Y-5352603D02*
G01*
X758736Y-5356440D01*
X785288Y-5362432D01*
X811266Y-5370546D01*
X836507Y-5380727D01*
X860846Y-5392908D01*
X884127Y-5407013D01*
X906193Y-5422948D01*
X926906Y-5440609D01*
X946126Y-5459872D01*
X963732Y-5480638D01*
X979607Y-5502744D01*
X993652Y-5526063D01*
X1005767Y-5550428D01*
X1010945Y-5563014D01*
X1000542Y-5567965D01*
X989413Y-5573047D01*
X978304Y-5577821D01*
X967661Y-5582021D01*
X954832Y-5586563D01*
X929536Y-5594479D01*
X919014Y-5597616D01*
X908621Y-5600595D01*
X896912Y-5603802D01*
X882531Y-5607525D01*
X853633Y-5613399D01*
X841767Y-5615494D01*
X830152Y-5617311D01*
X812567Y-5619586D01*
X787844Y-5620698D01*
X776670Y-5620740D01*
X765832Y-5620421D01*
X753257Y-5619547D01*
X733113Y-5615567D01*
X722382Y-5612693D01*
X705637Y-5606656D01*
X690470Y-5597419D01*
X681311Y-5590553D01*
X670636Y-5580635D01*
X660665Y-5566334D01*
X655305Y-5556983D01*
X648608Y-5542308D01*
X643742Y-5523702D01*
X641614Y-5512786D01*
X639212Y-5493776D01*
X639183Y-5471909D01*
X639671Y-5460354D01*
X641751Y-5437699D01*
X646282Y-5413587D01*
X648748Y-5402454D01*
X651912Y-5389708D01*
X663856Y-5352726D01*
X677410Y-5351491D01*
X704623Y-5350951D01*
X731791Y-5352603D01*
G37*
D11*
X-843564Y-4916494D02*
X-859934Y-4923700D01*
X153038Y-5244845D02*
X153456Y-5217483D01*
X100034Y-5065565D02*
X91762Y-5084746D01*
D14*
X1621105Y-5125657D02*
G75*
G03*
X1483691Y-5125657I-68707J0D01*
G01*
X1483691Y-5125657D02*
G75*
G03*
X1621105Y-5125657I68707J0D01*
G01*
D11*
X-212969Y-3740918D02*
X142555Y-4746585D01*
X1062110Y-3286353D02*
X1070863Y-3294689D01*
X-1320835Y-5634861D02*
X-1321851Y-5618314D01*
X162219Y-5332358D02*
X165976Y-5348688D01*
X-1412795Y-3692466D02*
X-1431860Y-3701439D01*
X173256Y-5371817D02*
X178770Y-5386638D01*
X983645Y-3245086D02*
X976540Y-3244768D01*
X232197Y-5463483D02*
X217410Y-5448994D01*
X667318Y-3258133D02*
X319316Y-4515546D01*
X-1215310Y-5127003D02*
X-1190320Y-5104569D01*
X-1275917Y-5057335D02*
X-1243303Y-5027352D01*
X-1376085Y-5181091D02*
X-1363474Y-5160488D01*
X232197Y-5463483D02*
X242549Y-5472290D01*
X-1332450Y-5555311D02*
X-1336865Y-5540361D01*
X319316Y-4515546D02*
X249563Y-4517985D01*
D13*
G36*
X1510174Y-3260338D02*
G01*
X1522843Y-3261017D01*
X1537471Y-3262696D01*
X1548480Y-3265101D01*
X1557764Y-3271553D01*
X1574053Y-3738185D01*
X1555408Y-3747959D01*
X1543985Y-3750258D01*
X1547635Y-3847081D01*
X1552109Y-3847452D01*
X1554264Y-3847665D01*
X1556355Y-3847884D01*
X1558392Y-3848128D01*
X1560370Y-3848377D01*
X1562286Y-3848639D01*
X1564139Y-3848915D01*
X1565930Y-3849214D01*
X1567655Y-3849511D01*
X1569321Y-3849821D01*
X1570914Y-3850152D01*
X1572441Y-3850491D01*
X1573910Y-3850840D01*
X1575299Y-3851204D01*
X1576623Y-3851566D01*
X1577877Y-3851954D01*
X1579053Y-3852343D01*
X1580161Y-3852748D01*
X1581190Y-3853152D01*
X1582151Y-3853569D01*
X1583034Y-3854003D01*
X1583833Y-3854436D01*
X1584563Y-3854883D01*
X1585213Y-3855332D01*
X1585772Y-3855795D01*
X1586257Y-3856260D01*
X1586658Y-3856732D01*
X1586978Y-3857216D01*
X1587210Y-3857701D01*
X1587416Y-3858695D01*
X1608593Y-4464935D01*
X1608284Y-4466381D01*
X1608016Y-4466861D01*
X1607677Y-4467345D01*
X1607261Y-4467825D01*
X1606770Y-4468302D01*
X1606204Y-4468777D01*
X1605563Y-4469259D01*
X1604854Y-4469732D01*
X1604062Y-4470200D01*
X1603204Y-4470667D01*
X1602275Y-4471131D01*
X1601278Y-4471588D01*
X1600213Y-4472050D01*
X1599081Y-4472501D01*
X1597879Y-4472952D01*
X1596612Y-4473394D01*
X1595276Y-4473829D01*
X1593877Y-4474262D01*
X1592415Y-4474689D01*
X1590892Y-4475111D01*
X1589304Y-4475519D01*
X1587661Y-4475933D01*
X1585951Y-4476326D01*
X1584187Y-4476724D01*
X1582359Y-4477104D01*
X1580478Y-4477477D01*
X1578537Y-4477847D01*
X1576544Y-4478204D01*
X1574490Y-4478550D01*
X1572394Y-4478891D01*
X1577898Y-4635942D01*
X1582364Y-4636365D01*
X1584494Y-4636591D01*
X1586571Y-4636841D01*
X1588582Y-4637105D01*
X1590529Y-4637371D01*
X1592412Y-4637663D01*
X1594222Y-4637960D01*
X1595972Y-4638273D01*
X1597650Y-4638597D01*
X1599260Y-4638932D01*
X1600797Y-4639281D01*
X1602259Y-4639640D01*
X1603654Y-4640016D01*
X1604968Y-4640396D01*
X1606216Y-4640784D01*
X1607390Y-4641193D01*
X1608476Y-4641603D01*
X1609490Y-4642026D01*
X1610426Y-4642448D01*
X1611277Y-4642892D01*
X1612055Y-4643341D01*
X1612750Y-4643791D01*
X1613355Y-4644259D01*
X1613881Y-4644731D01*
X1614322Y-4645203D01*
X1614676Y-4645689D01*
X1614945Y-4646181D01*
X1615214Y-4647183D01*
X1615127Y-4648199D01*
X1616662Y-4663060D01*
X1621807Y-4692497D01*
X1629286Y-4721421D01*
X1639037Y-4749665D01*
X1651009Y-4777040D01*
X1665119Y-4803383D01*
X1681286Y-4828512D01*
X1690227Y-4840476D01*
X1690667Y-4853107D01*
X1687202Y-4861846D01*
X1678519Y-4878516D01*
X1667940Y-4894059D01*
X1655619Y-4908243D01*
X1641722Y-4920898D01*
X1626437Y-4931842D01*
X1609977Y-4940920D01*
X1592570Y-4948009D01*
X1574453Y-4953009D01*
X1555879Y-4955863D01*
X1537089Y-4956522D01*
X1518359Y-4954974D01*
X1499935Y-4951247D01*
X1482077Y-4945390D01*
X1465025Y-4937486D01*
X1449013Y-4927627D01*
X1434270Y-4915980D01*
X1420987Y-4902683D01*
X1409351Y-4887917D01*
X1399524Y-4871893D01*
X1395459Y-4863417D01*
X1395014Y-4850790D01*
X1403102Y-4838226D01*
X1417473Y-4812028D01*
X1429719Y-4784773D01*
X1439751Y-4756623D01*
X1447507Y-4727769D01*
X1452946Y-4698389D01*
X1456023Y-4668669D01*
X1456522Y-4653739D01*
X1456564Y-4651712D01*
X1456794Y-4651205D01*
X1457113Y-4650698D01*
X1457521Y-4650195D01*
X1458008Y-4649688D01*
X1458582Y-4649183D01*
X1459239Y-4648682D01*
X1459977Y-4648182D01*
X1460805Y-4647688D01*
X1461698Y-4647192D01*
X1462678Y-4646699D01*
X1463738Y-4646214D01*
X1464867Y-4645734D01*
X1466079Y-4645256D01*
X1467363Y-4644778D01*
X1468728Y-4644313D01*
X1470155Y-4643855D01*
X1471666Y-4643399D01*
X1473243Y-4642952D01*
X1474885Y-4642511D01*
X1476601Y-4642080D01*
X1478390Y-4641653D01*
X1480239Y-4641236D01*
X1482158Y-4640825D01*
X1484143Y-4640427D01*
X1486194Y-4640041D01*
X1488303Y-4639661D01*
X1490475Y-4639287D01*
X1492713Y-4638930D01*
X1487338Y-4481857D01*
X1470197Y-4479674D01*
X1459068Y-4476964D01*
X1450263Y-4470423D01*
X1429092Y-3864221D01*
X1429449Y-3862673D01*
X1429750Y-3862166D01*
X1430136Y-3861645D01*
X1430614Y-3861132D01*
X1431173Y-3860622D01*
X1431815Y-3860110D01*
X1432544Y-3859607D01*
X1433357Y-3859102D01*
X1434249Y-3858603D01*
X1435226Y-3858107D01*
X1436279Y-3857613D01*
X1437411Y-3857126D01*
X1438615Y-3856641D01*
X1439905Y-3856167D01*
X1441264Y-3855695D01*
X1442695Y-3855227D01*
X1444202Y-3854771D01*
X1445778Y-3854326D01*
X1447421Y-3853872D01*
X1449136Y-3853440D01*
X1450922Y-3853013D01*
X1452769Y-3852590D01*
X1454687Y-3852184D01*
X1456669Y-3851778D01*
X1458712Y-3851388D01*
X1460817Y-3851006D01*
X1462987Y-3850632D01*
X1465218Y-3850281D01*
X1467505Y-3849931D01*
X1469848Y-3849594D01*
X1466225Y-3752861D01*
X1443618Y-3749409D01*
X1434238Y-3743080D01*
X1417946Y-3276303D01*
X1430796Y-3267992D01*
X1441441Y-3265344D01*
X1452708Y-3263398D01*
X1476446Y-3260955D01*
X1487767Y-3260388D01*
X1499082Y-3260177D01*
X1510174Y-3260338D01*
G37*
D11*
X-954956Y-4668091D02*
X-957211Y-4640086D01*
X288402Y-5497008D02*
X300503Y-5500908D01*
X208481Y-5437972D02*
X195984Y-5420268D01*
X-1297137Y-3569040D02*
X-1310444Y-3595830D01*
X-1173604Y-5489352D02*
X-1195590Y-5487618D01*
X-1321120Y-5660603D02*
X-1320835Y-5634861D01*
X364483Y-5732547D02*
X354949Y-5710335D01*
X747928Y-3618318D02*
G75*
G03*
X583521Y-3559929I-160846J-192240D01*
G01*
X-1400823Y-3686011D02*
X-1412795Y-3692466D01*
X-1172276Y-5090656D02*
X-1190320Y-5104569D01*
X155506Y-5289675D02*
X157552Y-5307153D01*
X-306618Y-3744194D02*
X-212969Y-3740918D01*
X901431Y-3552700D02*
X892896Y-3549592D01*
X942529Y-3256044D02*
X939003Y-3258832D01*
X-1300775Y-5311721D02*
X-1300372Y-5331802D01*
X161165Y-5516551D02*
X171699Y-5530581D01*
X1101435Y-3334306D02*
X1090991Y-3318481D01*
X-1316360Y-3605510D02*
X-1320560Y-3611631D01*
X880515Y-3544050D02*
X892896Y-3549592D01*
X-783573Y-4554064D02*
X-1218438Y-3323986D01*
X903636Y-3261636D02*
X896662Y-3255659D01*
X-1208741Y-5484116D02*
X-1195590Y-5487618D01*
X161165Y-5516551D02*
X145876Y-5494011D01*
X350083Y-5504988D02*
X331413Y-5505583D01*
X934025Y-3262817D02*
X930883Y-3265003D01*
X1039506Y-3268329D02*
X1048658Y-3274835D01*
X-953532Y-4711138D02*
X-953944Y-4686109D01*
X-1173604Y-5489352D02*
X-1157960Y-5489242D01*
X1125121Y-3391305D02*
X1127539Y-3402988D01*
X158604Y-4817914D02*
X161538Y-4841876D01*
X249563Y-4517985D02*
X-185496Y-3562753D01*
X1129034Y-3420324D02*
X1127539Y-3402988D01*
X121626Y-5019436D02*
X112956Y-5037524D01*
X-1464106Y-3354074D02*
X-1449590Y-3359536D01*
X-769206Y-5126819D02*
X-688485Y-5123997D01*
X113816Y-5432395D02*
X101499Y-5403259D01*
X217122Y-5575807D02*
X199621Y-5560630D01*
X141539Y-4974366D02*
X134176Y-4992511D01*
X374808Y-5763916D02*
X368962Y-5744584D01*
X-1081742Y-5476742D02*
X-1112991Y-5483357D01*
D15*
X11670031Y-706054D02*
X12229518Y-75114D01*
X12229518Y-75114D02*
X11403364Y-244174D01*
X11962851Y386765D02*
X11270031Y-13234D01*
X11772375Y716679D02*
X11079555Y316679D01*
X11079555Y316679D02*
X11543804Y1112576D01*
X11543804Y1112576D02*
X10850984Y712576D01*
X10060166Y2553248D02*
X10065269Y2468217D01*
X10065269Y2468217D02*
X10122412Y2369243D01*
X10122412Y2369243D02*
X10212547Y2289316D01*
X10212547Y2289316D02*
X10316625Y2261428D01*
X10316625Y2261428D02*
X10401655Y2266532D01*
X10401655Y2266532D02*
X10552669Y2309731D01*
X10552669Y2309731D02*
X10651643Y2366874D01*
X10651643Y2366874D02*
X10764561Y2476056D01*
X10764561Y2476056D02*
X10811496Y2547143D01*
X10811496Y2547143D02*
X10839384Y2651221D01*
X10839384Y2651221D02*
X10815233Y2769243D01*
X10815233Y2769243D02*
X10777137Y2835226D01*
X10777137Y2835226D02*
X10687003Y2915152D01*
X10687003Y2915152D02*
X10634964Y2929096D01*
X10634964Y2929096D02*
X10404024Y2795763D01*
X10404024Y2795763D02*
X10480214Y2663797D01*
X9217650Y3957876D02*
X8970031Y4386764D01*
X8970031Y4386764D02*
X9367296Y4308205D01*
X9367296Y4308205D02*
X9310153Y4407180D01*
X9310153Y4407180D02*
X9305049Y4492210D01*
X9305049Y4492210D02*
X9318993Y4544249D01*
X9318993Y4544249D02*
X9365928Y4615336D01*
X9365928Y4615336D02*
X9530886Y4710574D01*
X9530886Y4710574D02*
X9615916Y4715678D01*
X9615916Y4715678D02*
X9667955Y4701734D01*
X9667955Y4701734D02*
X9739042Y4654799D01*
X9739042Y4654799D02*
X9853328Y4456850D01*
X9853328Y4456850D02*
X9858431Y4371820D01*
X9858431Y4371820D02*
X9844488Y4319780D01*
X9067638Y4751038D02*
X9434280Y5182662D01*
X9434280Y5182662D02*
X8877162Y5080953D01*
X8734622Y6639854D02*
X8710471Y6757876D01*
X8710471Y6757876D02*
X8615232Y6922833D01*
X8615232Y6922833D02*
X8544146Y6969768D01*
X8544146Y6969768D02*
X8492107Y6983712D01*
X8492107Y6983712D02*
X8407076Y6978608D01*
X8407076Y6978608D02*
X8341093Y6940513D01*
X8341093Y6940513D02*
X8294158Y6869426D01*
X8294158Y6869426D02*
X8280214Y6817387D01*
X8280214Y6817387D02*
X8285318Y6732357D01*
X8285318Y6732357D02*
X8328517Y6581343D01*
X8328517Y6581343D02*
X8333621Y6496313D01*
X8333621Y6496313D02*
X8319677Y6444274D01*
X8319677Y6444274D02*
X8272742Y6373187D01*
X8272742Y6373187D02*
X8206759Y6335092D01*
X8206759Y6335092D02*
X8121728Y6329988D01*
X8121728Y6329988D02*
X8069689Y6343932D01*
X8069689Y6343932D02*
X7998603Y6390867D01*
X7998603Y6390867D02*
X7903365Y6555824D01*
X7903365Y6555824D02*
X7879213Y6673846D01*
X7712888Y6885739D02*
X8310470Y7450696D01*
X8310470Y7450696D02*
X7739408Y7296948D01*
X7739408Y7296948D02*
X8158089Y7714628D01*
X8158089Y7714628D02*
X7370031Y7479585D01*
D10*
X14997881Y-1286532D02*
X13158881Y-1286532D01*
X13158881Y-8429268D02*
X14997881Y-8429268D01*
X11497881Y-14345446D02*
X12858881Y-14345446D01*
%LPC*%
D16*
%TO.C,J4*%
X6680056Y6221248D03*
%TD*%
%TO.C,J3*%
X10198580Y-537774D03*
%TD*%
%TO.C,J2*%
X9025739Y1715233D03*
%TD*%
D17*
%TO.C,L2*%
X500000Y-7180000D03*
X-500000Y-7180000D03*
X0Y3368000D03*
%TD*%
D18*
%TO.C,J1*%
X12007000Y-16390400D03*
X12507000Y-16390400D03*
D19*
X13007000Y-16390400D03*
D18*
X13511000Y-16390400D03*
X14007000Y-16390400D03*
X14507000Y-16390400D03*
%TD*%
%LPD*%
M02*
