M48
; DRILL file {KiCad 7.0.10} date Wed Nov 13 11:37:08 2024
; FORMAT={-:-/ absolute / inch / decimal}
; #@! TF.CreationDate,2024-11-13T11:37:08-08:00
; #@! TF.GenerationSoftware,Kicad,Pcbnew,7.0.10
; #@! TF.FileFunction,Plated,1,2,PTH
FMAT,2
INCH
; #@! TA.AperFunction,Plated,PTH,ComponentDrill
T1C0.0472
%
G90
G05
T1
X-0.3228Y0.1577
X-0.3082Y0.7494
X-0.2592Y0.6419
X-0.2542Y0.2538
X-0.0928Y-0.347
X0.0139Y1.2009
X0.0248Y-0.3584
X0.1315Y1.1896
X0.2929Y0.5887
X0.2979Y0.2007
X0.3469Y0.0932
X0.3615Y0.6849
X0.6418Y0.1577
X0.6564Y0.7494
X0.7054Y0.6419
X0.7104Y0.2538
X0.8718Y-0.347
X0.9785Y1.2009
X0.9894Y-0.3584
X1.0961Y1.1896
X1.2575Y0.5887
X1.2625Y0.2007
X1.3115Y0.0932
X1.3261Y0.6849
X1.6064Y0.1577
X1.621Y0.7494
X1.6699Y0.6419
X1.675Y0.2538
X1.8364Y-0.347
X1.943Y1.2009
X1.954Y-0.3584
X2.0606Y1.1896
X2.222Y0.5887
X2.2271Y0.2007
X2.2761Y0.0932
X2.2906Y0.6849
X2.5709Y0.1577
X2.5855Y0.7494
X2.6345Y0.6419
X2.6395Y0.2538
X2.8009Y-0.347
X2.9076Y1.2009
X2.9185Y-0.3584
X3.0252Y1.1896
X3.1866Y0.5887
X3.1916Y0.2007
X3.2406Y0.0932
X3.2552Y0.6849
M30
