M48
; DRILL file {KiCad 7.0.10} date Wed Nov 13 11:37:08 2024
; FORMAT={-:-/ absolute / inch / decimal}
; #@! TF.CreationDate,2024-11-13T11:37:08-08:00
; #@! TF.GenerationSoftware,Kicad,Pcbnew,7.0.10
; #@! TF.FileFunction,NonPlated,1,2,NPTH
FMAT,2
INCH
; #@! TA.AperFunction,NonPlated,NPTH,ComponentDrill
T1C0.0197
; #@! TA.AperFunction,NonPlated,NPTH,ComponentDrill
T2C0.0454
; #@! TA.AperFunction,NonPlated,NPTH,ComponentDrill
T3C0.0827
%
G90
G05
T1
X-0.411Y0.234
X-0.4013Y0.6625
X-0.394Y0.255
X-0.389Y0.636
X-0.377Y0.279
X-0.3767Y0.6095
X-0.363Y0.5835
X-0.359Y0.302
X-0.341Y0.325
X0.3814Y0.5177
X0.3979Y0.2667
X0.398Y0.542
X0.4104Y0.2404
X0.4156Y0.5653
X0.423Y0.214
X0.4332Y0.5886
X0.4369Y0.1881
X0.5536Y0.234
X0.5632Y0.6625
X0.5706Y0.255
X0.5756Y0.636
X0.5876Y0.279
X0.5879Y0.6095
X0.6016Y0.5835
X0.6056Y0.302
X0.6236Y0.325
X1.346Y0.5177
X1.3625Y0.2667
X1.3626Y0.542
X1.375Y0.2404
X1.3802Y0.5653
X1.3876Y0.214
X1.3978Y0.5886
X1.4015Y0.1881
X1.5181Y0.234
X1.5278Y0.6625
X1.5351Y0.255
X1.5401Y0.636
X1.5521Y0.279
X1.5525Y0.6095
X1.5661Y0.5835
X1.5701Y0.302
X1.5881Y0.325
X2.3106Y0.5177
X2.327Y0.2667
X2.3271Y0.542
X2.3396Y0.2404
X2.3447Y0.5653
X2.3521Y0.214
X2.3623Y0.5886
X2.366Y0.1881
X2.4827Y0.234
X2.4924Y0.6625
X2.4997Y0.255
X2.5047Y0.636
X2.5167Y0.279
X2.517Y0.6095
X2.5307Y0.5835
X2.5347Y0.302
X2.5527Y0.325
X3.2751Y0.5177
X3.2916Y0.2667
X3.2917Y0.542
X3.3041Y0.2404
X3.3093Y0.5653
X3.3167Y0.214
X3.3269Y0.5886
X3.3306Y0.1881
T2
X-0.349Y1.692
X3.234Y1.631
X3.263Y-0.821
T3
X-0.3432Y-0.1019
X-0.1186Y0.5195
X0.1573Y0.323
X0.3819Y0.9445
X0.6214Y-0.1019
X0.846Y0.5195
X1.1219Y0.323
X1.3465Y0.9445
X1.5859Y-0.1019
X1.8105Y0.5195
X2.0865Y0.323
X2.3111Y0.9445
X2.5505Y-0.1019
X2.7751Y0.5195
X3.051Y0.323
X3.2756Y0.9445
M30
