%TF.GenerationSoftware,KiCad,Pcbnew,7.0.10*%
%TF.CreationDate,2024-11-13T11:37:08-08:00*%
%TF.ProjectId,ballBearingBoardPanelization241112,62616c6c-4265-4617-9269-6e67426f6172,rev?*%
%TF.SameCoordinates,Original*%
%TF.FileFunction,Legend,Bot*%
%TF.FilePolarity,Positive*%
%FSLAX46Y46*%
G04 Gerber Fmt 4.6, Leading zero omitted, Abs format (unit mm)*
G04 Created by KiCad (PCBNEW 7.0.10) date 2024-11-13 11:37:08*
%MOMM*%
%LPD*%
G01*
G04 APERTURE LIST*
%ADD10C,2.250000*%
%ADD11C,0.500000*%
%ADD12C,2.100000*%
%ADD13C,2.300000*%
G04 APERTURE END LIST*
%LPC*%
D10*
%TO.C,J8*%
X16672164Y19033616D03*
%TD*%
D11*
%TO.C,31*%
X60003069Y14950981D03*
%TD*%
%TO.C,40*%
X83606560Y6775265D03*
%TD*%
D10*
%TO.C,J33*%
X74130483Y-9102334D03*
%TD*%
D11*
%TO.C,*%
X-9567638Y15481812D03*
%TD*%
D12*
%TO.C,REF\u002A\u002A*%
X3996360Y8204441D03*
%TD*%
D10*
%TO.C,J39*%
X67044016Y6447499D03*
%TD*%
D11*
%TO.C,10*%
X34188105Y13149757D03*
%TD*%
%TO.C,30*%
X39779486Y14820322D03*
%TD*%
D13*
%TO.C,*%
X82880200Y-20853400D03*
%TD*%
D11*
%TO.C,1*%
X35597086Y4777164D03*
%TD*%
%TO.C,*%
X10425380Y6105431D03*
%TD*%
%TO.C,*%
X11097086Y4777164D03*
%TD*%
%TO.C,7*%
X14924200Y7086600D03*
%TD*%
%TO.C,*%
X-10439400Y5943600D03*
%TD*%
%TO.C,*%
X10109200Y13766800D03*
%TD*%
%TO.C,*%
X10556135Y14358891D03*
%TD*%
%TO.C,36*%
X84244200Y5435600D03*
%TD*%
D12*
%TO.C,REF\u002A\u002A4*%
X34201460Y23989362D03*
%TD*%
D10*
%TO.C,J20*%
X41172164Y19033616D03*
%TD*%
%TO.C,J3*%
X-2356164Y-8814468D03*
%TD*%
D11*
%TO.C,16*%
X14619400Y16154400D03*
%TD*%
D10*
%TO.C,J14*%
X33681953Y17395756D03*
%TD*%
D12*
%TO.C,REF\u002A\u002A6*%
X52996360Y8204441D03*
%TD*%
D11*
%TO.C,48*%
X84503069Y14950981D03*
%TD*%
%TO.C,*%
X-9118600Y7670800D03*
%TD*%
%TO.C,14*%
X35503069Y14950981D03*
%TD*%
%TO.C,*%
X10106560Y6775265D03*
%TD*%
%TO.C,2*%
X35244200Y5435600D03*
%TD*%
%TO.C,32*%
X39432362Y15481812D03*
%TD*%
D10*
%TO.C,J23*%
X46643836Y-8814468D03*
%TD*%
%TO.C,J1*%
X8811695Y2367297D03*
%TD*%
D11*
%TO.C,24*%
X39424200Y7086600D03*
%TD*%
%TO.C,*%
X-10007600Y6477000D03*
%TD*%
D10*
%TO.C,J29*%
X56567611Y5097184D03*
%TD*%
D11*
%TO.C,41*%
X63924200Y7086600D03*
%TD*%
%TO.C,*%
X-9220514Y14820322D03*
%TD*%
%TO.C,20*%
X38560600Y5943600D03*
%TD*%
%TO.C,*%
X10744200Y5435600D03*
%TD*%
D10*
%TO.C,J42*%
X66916248Y16303729D03*
%TD*%
D11*
%TO.C,39*%
X63492400Y6477000D03*
%TD*%
D10*
%TO.C,J12*%
X27840024Y30215380D03*
%TD*%
D11*
%TO.C,13*%
X15279486Y14820322D03*
%TD*%
D12*
%TO.C,REF\u002A\u002A11*%
X70487499Y13196473D03*
%TD*%
D11*
%TO.C,26*%
X40338600Y8255000D03*
%TD*%
D10*
%TO.C,J6*%
X-6583752Y16303729D03*
%TD*%
D11*
%TO.C,38*%
X83925380Y6105431D03*
%TD*%
%TO.C,18*%
X60097086Y4777164D03*
%TD*%
%TO.C,44*%
X83188105Y13149757D03*
%TD*%
D10*
%TO.C,J28*%
X56439844Y14953413D03*
%TD*%
%TO.C,J36*%
X76840024Y30215380D03*
%TD*%
D12*
%TO.C,REF\u002A\u002A10*%
X77496360Y8204441D03*
%TD*%
D11*
%TO.C,47*%
X64279486Y14820322D03*
%TD*%
%TO.C,15*%
X14932362Y15481812D03*
%TD*%
%TO.C,8*%
X15381400Y7670800D03*
%TD*%
%TO.C,4*%
X34925380Y6105431D03*
%TD*%
D12*
%TO.C,REF\u002A\u002A2*%
X28496360Y8204441D03*
%TD*%
D11*
%TO.C,11*%
X34609200Y13766800D03*
%TD*%
D10*
%TO.C,J13*%
X16301907Y4005156D03*
%TD*%
%TO.C,J2*%
X630483Y-9102334D03*
%TD*%
D11*
%TO.C,*%
X-8661400Y8255000D03*
%TD*%
D10*
%TO.C,J18*%
X17916248Y16303729D03*
%TD*%
D11*
%TO.C,34*%
X38806438Y16826990D03*
%TD*%
D13*
%TO.C,*%
X-8864600Y42976800D03*
%TD*%
D11*
%TO.C,21*%
X59425380Y6105431D03*
%TD*%
%TO.C,*%
X-10193562Y16826990D03*
%TD*%
%TO.C,17*%
X14306438Y16826990D03*
%TD*%
%TO.C,12*%
X35056135Y14358891D03*
%TD*%
D10*
%TO.C,J35*%
X71143836Y-8814468D03*
%TD*%
%TO.C,J32*%
X65672164Y19033616D03*
%TD*%
%TO.C,J15*%
X18044016Y6447499D03*
%TD*%
D11*
%TO.C,3*%
X14060600Y5943600D03*
%TD*%
D10*
%TO.C,J5*%
X-6455984Y6447499D03*
%TD*%
%TO.C,J6*%
X7567611Y5097184D03*
%TD*%
D11*
%TO.C,28*%
X59109200Y13766800D03*
%TD*%
%TO.C,*%
X-9880600Y16154400D03*
%TD*%
D10*
%TO.C,J3*%
X3340024Y30215380D03*
%TD*%
%TO.C,J37*%
X65301907Y4005156D03*
%TD*%
%TO.C,J41*%
X81067611Y5097184D03*
%TD*%
%TO.C,J19*%
X57811695Y2367297D03*
%TD*%
%TO.C,J27*%
X42544016Y6447499D03*
%TD*%
%TO.C,J22*%
X49353377Y30503247D03*
%TD*%
%TO.C,J38*%
X82681953Y17395756D03*
%TD*%
D11*
%TO.C,37*%
X63060600Y5943600D03*
%TD*%
%TO.C,49*%
X63932362Y15481812D03*
%TD*%
D10*
%TO.C,J21*%
X49630483Y-9102334D03*
%TD*%
D11*
%TO.C,45*%
X83609200Y13766800D03*
%TD*%
D10*
%TO.C,J25*%
X40801907Y4005156D03*
%TD*%
%TO.C,J24*%
X52340024Y30215380D03*
%TD*%
%TO.C,J30*%
X42416248Y16303729D03*
%TD*%
D12*
%TO.C,REF\u002A\u002A5*%
X40282401Y-2588450D03*
%TD*%
%TO.C,REF\u002A\u002A1*%
X15782401Y-2588450D03*
%TD*%
D10*
%TO.C,J17*%
X32067611Y5097184D03*
%TD*%
%TO.C,J9*%
X25130483Y-9102334D03*
%TD*%
%TO.C,J4*%
X9181953Y17395756D03*
%TD*%
D12*
%TO.C,REF\u002A\u002A*%
X9701460Y23989362D03*
%TD*%
D11*
%TO.C,*%
X9688105Y13149757D03*
%TD*%
%TO.C,19*%
X59744200Y5435600D03*
%TD*%
D12*
%TO.C,REF\u002A\u002A8*%
X58701460Y23989362D03*
%TD*%
D10*
%TO.C,J7*%
X33311695Y2367297D03*
%TD*%
D11*
%TO.C,25*%
X39881400Y7670800D03*
%TD*%
%TO.C,27*%
X58688105Y13149757D03*
%TD*%
D12*
%TO.C,REF\u002A\u002A9*%
X64782401Y-2588450D03*
%TD*%
%TO.C,REF\u002A\u002A7*%
X45987499Y13196473D03*
%TD*%
D11*
%TO.C,22*%
X38992400Y6477000D03*
%TD*%
%TO.C,5*%
X14492400Y6477000D03*
%TD*%
D10*
%TO.C,J16*%
X31939844Y14953413D03*
%TD*%
D13*
%TO.C,*%
X82143600Y41427400D03*
%TD*%
D10*
%TO.C,J4*%
X-8198093Y4005156D03*
%TD*%
%TO.C,J11*%
X22143836Y-8814468D03*
%TD*%
%TO.C,J34*%
X73853377Y30503247D03*
%TD*%
D11*
%TO.C,9*%
X15838600Y8255000D03*
%TD*%
%TO.C,*%
X11003069Y14950981D03*
%TD*%
%TO.C,29*%
X59556135Y14358891D03*
%TD*%
%TO.C,43*%
X64838600Y8255000D03*
%TD*%
D10*
%TO.C,J26*%
X58181953Y17395756D03*
%TD*%
D11*
%TO.C,6*%
X34606560Y6775265D03*
%TD*%
%TO.C,35*%
X84597086Y4777164D03*
%TD*%
%TO.C,50*%
X63619400Y16154400D03*
%TD*%
%TO.C,*%
X-9575800Y7086600D03*
%TD*%
D12*
%TO.C,REF\u002A\u002A*%
X-8717599Y-2588450D03*
%TD*%
D11*
%TO.C,51*%
X63306438Y16826990D03*
%TD*%
D10*
%TO.C,J40*%
X80939844Y14953413D03*
%TD*%
D11*
%TO.C,33*%
X39119400Y16154400D03*
%TD*%
D10*
%TO.C,J2*%
X353377Y30503247D03*
%TD*%
%TO.C,J10*%
X24853377Y30503247D03*
%TD*%
D12*
%TO.C,REF\u002A\u002A3*%
X21487499Y13196473D03*
%TD*%
D11*
%TO.C,42*%
X64381400Y7670800D03*
%TD*%
%TO.C,23*%
X59106560Y6775265D03*
%TD*%
D12*
%TO.C,REF\u002A\u002A*%
X-3012501Y13196473D03*
%TD*%
%TO.C,REF\u002A\u002A12*%
X83201460Y23989362D03*
%TD*%
D11*
%TO.C,46*%
X84056135Y14358891D03*
%TD*%
D10*
%TO.C,J31*%
X82311695Y2367297D03*
%TD*%
%TO.C,J5*%
X7439844Y14953413D03*
%TD*%
%TO.C,J1*%
X-7827836Y19033616D03*
%TD*%
%LPD*%
M02*
