%TF.GenerationSoftware,KiCad,Pcbnew,7.0.10*%
%TF.CreationDate,2024-11-13T11:37:08-08:00*%
%TF.ProjectId,ballBearingBoardPanelization241112,62616c6c-4265-4617-9269-6e67426f6172,rev?*%
%TF.SameCoordinates,Original*%
%TF.FileFunction,Soldermask,Top*%
%TF.FilePolarity,Negative*%
%FSLAX46Y46*%
G04 Gerber Fmt 4.6, Leading zero omitted, Abs format (unit mm)*
G04 Created by KiCad (PCBNEW 7.0.10) date 2024-11-13 11:37:08*
%MOMM*%
%LPD*%
G01*
G04 APERTURE LIST*
G04 Aperture macros list*
%AMRoundRect*
0 Rectangle with rounded corners*
0 $1 Rounding radius*
0 $2 $3 $4 $5 $6 $7 $8 $9 X,Y pos of 4 corners*
0 Add a 4 corners polygon primitive as box body*
4,1,4,$2,$3,$4,$5,$6,$7,$8,$9,$2,$3,0*
0 Add four circle primitives for the rounded corners*
1,1,$1+$1,$2,$3*
1,1,$1+$1,$4,$5*
1,1,$1+$1,$6,$7*
1,1,$1+$1,$8,$9*
0 Add four rect primitives between the rounded corners*
20,1,$1+$1,$2,$3,$4,$5,0*
20,1,$1+$1,$4,$5,$6,$7,0*
20,1,$1+$1,$6,$7,$8,$9,0*
20,1,$1+$1,$8,$9,$2,$3,0*%
%AMRotRect*
0 Rectangle, with rotation*
0 The origin of the aperture is its center*
0 $1 length*
0 $2 width*
0 $3 Rotation angle, in degrees counterclockwise*
0 Add horizontal line*
21,1,$1,$2,0,0,$3*%
G04 Aperture macros list end*
%ADD10RoundRect,0.030000X-0.257898X0.291185X-0.379707X0.084394X0.257898X-0.291185X0.379707X-0.084394X0*%
%ADD11RoundRect,0.040000X-0.228980X0.320574X-0.391393X0.044853X0.228980X-0.320574X0.391393X-0.044853X0*%
%ADD12C,2.250000*%
%ADD13C,0.500000*%
%ADD14RotRect,0.584200X1.320800X129.500000*%
%ADD15C,2.100000*%
%ADD16RoundRect,0.140000X0.000106X-0.220227X0.216161X-0.042125X-0.000106X0.220227X-0.216161X0.042125X0*%
%ADD17C,2.000000*%
%ADD18C,2.300000*%
%ADD19RotRect,0.584200X1.320800X309.500000*%
%ADD20RotRect,0.889000X0.863600X292.500000*%
%ADD21RotRect,0.508000X0.863600X292.500000*%
%ADD22RoundRect,0.140000X-0.000106X0.220227X-0.216161X0.042125X0.000106X-0.220227X0.216161X-0.042125X0*%
%ADD23RoundRect,0.030000X0.257898X-0.291185X0.379707X-0.084394X-0.257898X0.291185X-0.379707X0.084394X0*%
%ADD24RoundRect,0.040000X0.228980X-0.320574X0.391393X-0.044853X-0.228980X0.320574X-0.391393X0.044853X0*%
%ADD25RoundRect,0.140000X0.206910X0.075422X-0.034347X0.217532X-0.206910X-0.075422X0.034347X-0.217532X0*%
%ADD26RoundRect,0.140000X-0.206910X-0.075422X0.034347X-0.217532X0.206910X0.075422X-0.034347X0.217532X0*%
%ADD27RotRect,0.889000X0.863600X112.500000*%
%ADD28RotRect,0.508000X0.863600X112.500000*%
G04 APERTURE END LIST*
D10*
%TO.C,FPC1*%
X-9521890Y26050097D03*
X-9268121Y26480911D03*
X-9014352Y26911726D03*
X-8760583Y27342540D03*
X-8506814Y27773355D03*
X-8253044Y28204169D03*
D11*
X-7866740Y23914546D03*
X-5582817Y27791877D03*
%TD*%
D12*
%TO.C,J8*%
X16672164Y19033616D03*
%TD*%
D13*
%TO.C,31*%
X60003069Y14950981D03*
%TD*%
%TO.C,40*%
X83606560Y6775265D03*
%TD*%
D12*
%TO.C,J33*%
X74130483Y-9102334D03*
%TD*%
D13*
%TO.C,*%
X-9567638Y15481812D03*
%TD*%
D14*
%TO.C,U4*%
X-6068103Y-6189200D03*
X-7276653Y-4723111D03*
X-8240320Y-6748666D03*
%TD*%
D15*
%TO.C,REF\u002A\u002A*%
X3996360Y8204441D03*
%TD*%
D12*
%TO.C,J39*%
X67044016Y6447499D03*
%TD*%
D14*
%TO.C,U8*%
X18431897Y-6189200D03*
X17223347Y-4723111D03*
X16259680Y-6748666D03*
%TD*%
D16*
%TO.C,C17*%
X43336025Y-7740647D03*
X44076785Y-7130011D03*
%TD*%
D13*
%TO.C,10*%
X34188105Y13149757D03*
%TD*%
D17*
%TO.C,REF\u002A\u002A*%
X-6273800Y35915600D03*
%TD*%
D13*
%TO.C,30*%
X39779486Y14820322D03*
%TD*%
D18*
%TO.C,*%
X82880200Y-20853400D03*
%TD*%
D17*
%TO.C,REF\u002A\u002A*%
X75514200Y35687000D03*
%TD*%
D13*
%TO.C,1*%
X35597086Y4777164D03*
%TD*%
%TO.C,*%
X10425380Y6105431D03*
%TD*%
%TO.C,*%
X11097086Y4777164D03*
%TD*%
%TO.C,7*%
X14924200Y7086600D03*
%TD*%
%TO.C,*%
X-10439400Y5943600D03*
%TD*%
%TO.C,*%
X10109200Y13766800D03*
%TD*%
%TO.C,*%
X10556135Y14358891D03*
%TD*%
%TO.C,36*%
X84244200Y5435600D03*
%TD*%
D15*
%TO.C,REF\u002A\u002A4*%
X34201460Y23989362D03*
%TD*%
D12*
%TO.C,J20*%
X41172164Y19033616D03*
%TD*%
%TO.C,J3*%
X-2356164Y-8814468D03*
%TD*%
D19*
%TO.C,U6*%
X31551962Y27590113D03*
X32760512Y26124024D03*
X33724179Y28149579D03*
%TD*%
D13*
%TO.C,16*%
X14619400Y16154400D03*
%TD*%
D16*
%TO.C,C23*%
X67836025Y-7740647D03*
X68576785Y-7130011D03*
%TD*%
D12*
%TO.C,J14*%
X33681953Y17395756D03*
%TD*%
D15*
%TO.C,REF\u002A\u002A6*%
X52996360Y8204441D03*
%TD*%
D20*
%TO.C,U15*%
X75862476Y-7986003D03*
D21*
X76516673Y-9565375D03*
X78731767Y-8647855D03*
X78004667Y-6892482D03*
%TD*%
D13*
%TO.C,48*%
X84503069Y14950981D03*
%TD*%
%TO.C,*%
X-9118600Y7670800D03*
%TD*%
%TO.C,14*%
X35503069Y14950981D03*
%TD*%
D22*
%TO.C,C3*%
X5952900Y29963617D03*
X5212140Y29352981D03*
%TD*%
D13*
%TO.C,*%
X10106560Y6775265D03*
%TD*%
D23*
%TO.C,FPC8*%
X84005749Y-4649185D03*
X83751980Y-5079999D03*
X83498211Y-5510814D03*
X83244442Y-5941628D03*
X82990673Y-6372443D03*
X82736903Y-6803257D03*
D24*
X82350599Y-2513634D03*
X80066676Y-6390965D03*
%TD*%
D13*
%TO.C,2*%
X35244200Y5435600D03*
%TD*%
%TO.C,32*%
X39432362Y15481812D03*
%TD*%
D12*
%TO.C,J23*%
X46643836Y-8814468D03*
%TD*%
%TO.C,J1*%
X8811695Y2367297D03*
%TD*%
D13*
%TO.C,24*%
X39424200Y7086600D03*
%TD*%
%TO.C,*%
X-10007600Y6477000D03*
%TD*%
D12*
%TO.C,J29*%
X56567611Y5097184D03*
%TD*%
D25*
%TO.C,C24*%
X81151635Y-8074121D03*
X80324471Y-7586885D03*
%TD*%
D13*
%TO.C,41*%
X63924200Y7086600D03*
%TD*%
%TO.C,*%
X-9220514Y14820322D03*
%TD*%
D25*
%TO.C,C6*%
X7651635Y-8074121D03*
X6824471Y-7586885D03*
%TD*%
D16*
%TO.C,C10*%
X19530961Y-8562703D03*
X20271721Y-7952067D03*
%TD*%
D13*
%TO.C,20*%
X38560600Y5943600D03*
%TD*%
D25*
%TO.C,C12*%
X32151635Y-8074121D03*
X31324471Y-7586885D03*
%TD*%
D13*
%TO.C,*%
X10744200Y5435600D03*
%TD*%
D12*
%TO.C,J42*%
X66916248Y16303729D03*
%TD*%
D20*
%TO.C,U3*%
X2362476Y-7986003D03*
D21*
X3016673Y-9565375D03*
X5231767Y-8647855D03*
X4504667Y-6892482D03*
%TD*%
D19*
%TO.C,U2*%
X7051962Y27590113D03*
X8260512Y26124024D03*
X9224179Y28149579D03*
%TD*%
D13*
%TO.C,39*%
X63492400Y6477000D03*
%TD*%
D12*
%TO.C,J12*%
X27840024Y30215380D03*
%TD*%
D13*
%TO.C,13*%
X15279486Y14820322D03*
%TD*%
D15*
%TO.C,REF\u002A\u002A11*%
X70487499Y13196473D03*
%TD*%
D13*
%TO.C,26*%
X40338600Y8255000D03*
%TD*%
D19*
%TO.C,U10*%
X56051962Y27590113D03*
X57260512Y26124024D03*
X58224179Y28149579D03*
%TD*%
D22*
%TO.C,C14*%
X55647835Y29141559D03*
X54907075Y28530923D03*
%TD*%
D12*
%TO.C,J6*%
X-6583752Y16303729D03*
%TD*%
D23*
%TO.C,FPC2*%
X10505749Y-4649185D03*
X10251980Y-5079999D03*
X9998211Y-5510814D03*
X9744442Y-5941628D03*
X9490673Y-6372443D03*
X9236903Y-6803257D03*
D24*
X8850599Y-2513634D03*
X6566676Y-6390965D03*
%TD*%
D13*
%TO.C,38*%
X83925380Y6105431D03*
%TD*%
%TO.C,18*%
X60097086Y4777164D03*
%TD*%
%TO.C,44*%
X83188105Y13149757D03*
%TD*%
D12*
%TO.C,J28*%
X56439844Y14953413D03*
%TD*%
%TO.C,J36*%
X76840024Y30215380D03*
%TD*%
D15*
%TO.C,REF\u002A\u002A10*%
X77496360Y8204441D03*
%TD*%
D13*
%TO.C,47*%
X64279486Y14820322D03*
%TD*%
%TO.C,15*%
X14932362Y15481812D03*
%TD*%
D26*
%TO.C,C7*%
X17832225Y29475032D03*
X18659389Y28987796D03*
%TD*%
D13*
%TO.C,8*%
X15381400Y7670800D03*
%TD*%
%TO.C,4*%
X34925380Y6105431D03*
%TD*%
D16*
%TO.C,C4*%
X-4969039Y-8562703D03*
X-4228279Y-7952067D03*
%TD*%
D15*
%TO.C,REF\u002A\u002A2*%
X28496360Y8204441D03*
%TD*%
D13*
%TO.C,11*%
X34609200Y13766800D03*
%TD*%
D10*
%TO.C,FPC7*%
X63978110Y26050097D03*
X64231879Y26480911D03*
X64485648Y26911726D03*
X64739417Y27342540D03*
X64993186Y27773355D03*
X65246956Y28204169D03*
D11*
X65633260Y23914546D03*
X67917183Y27791877D03*
%TD*%
D10*
%TO.C,FPC3*%
X14978110Y26050097D03*
X15231879Y26480911D03*
X15485648Y26911726D03*
X15739417Y27342540D03*
X15993186Y27773355D03*
X16246956Y28204169D03*
D11*
X16633260Y23914546D03*
X18917183Y27791877D03*
%TD*%
D12*
%TO.C,J13*%
X16301907Y4005156D03*
%TD*%
%TO.C,J2*%
X630483Y-9102334D03*
%TD*%
D13*
%TO.C,*%
X-8661400Y8255000D03*
%TD*%
D12*
%TO.C,J18*%
X17916248Y16303729D03*
%TD*%
D13*
%TO.C,34*%
X38806438Y16826990D03*
%TD*%
D18*
%TO.C,*%
X-8864600Y42976800D03*
%TD*%
D13*
%TO.C,21*%
X59425380Y6105431D03*
%TD*%
%TO.C,*%
X-10193562Y16826990D03*
%TD*%
%TO.C,17*%
X14306438Y16826990D03*
%TD*%
%TO.C,12*%
X35056135Y14358891D03*
%TD*%
D22*
%TO.C,C9*%
X30452900Y29963617D03*
X29712140Y29352981D03*
%TD*%
D12*
%TO.C,J35*%
X71143836Y-8814468D03*
%TD*%
%TO.C,J32*%
X65672164Y19033616D03*
%TD*%
%TO.C,J15*%
X18044016Y6447499D03*
%TD*%
D13*
%TO.C,3*%
X14060600Y5943600D03*
%TD*%
D12*
%TO.C,J5*%
X-6455984Y6447499D03*
%TD*%
D23*
%TO.C,FPC4*%
X35005749Y-4649185D03*
X34751980Y-5079999D03*
X34498211Y-5510814D03*
X34244442Y-5941628D03*
X33990673Y-6372443D03*
X33736903Y-6803257D03*
D24*
X33350599Y-2513634D03*
X31066676Y-6390965D03*
%TD*%
D27*
%TO.C,U1*%
X-1378616Y29386915D03*
D28*
X-2032813Y30966287D03*
X-4247907Y30048767D03*
X-3520807Y28293394D03*
%TD*%
D26*
%TO.C,C1*%
X-6667775Y29475032D03*
X-5840611Y28987796D03*
%TD*%
D12*
%TO.C,J6*%
X7567611Y5097184D03*
%TD*%
D13*
%TO.C,28*%
X59109200Y13766800D03*
%TD*%
%TO.C,*%
X-9880600Y16154400D03*
%TD*%
D22*
%TO.C,C21*%
X79452900Y29963617D03*
X78712140Y29352981D03*
%TD*%
D12*
%TO.C,J3*%
X3340024Y30215380D03*
%TD*%
D27*
%TO.C,U13*%
X72121384Y29386915D03*
D28*
X71467187Y30966287D03*
X69252093Y30048767D03*
X69979193Y28293394D03*
%TD*%
D12*
%TO.C,J37*%
X65301907Y4005156D03*
%TD*%
D22*
%TO.C,C20*%
X80147835Y29141559D03*
X79407075Y28530923D03*
%TD*%
D12*
%TO.C,J41*%
X81067611Y5097184D03*
%TD*%
%TO.C,J19*%
X57811695Y2367297D03*
%TD*%
D20*
%TO.C,U7*%
X26862476Y-7986003D03*
D21*
X27516673Y-9565375D03*
X29731767Y-8647855D03*
X29004667Y-6892482D03*
%TD*%
D12*
%TO.C,J27*%
X42544016Y6447499D03*
%TD*%
%TO.C,J22*%
X49353377Y30503247D03*
%TD*%
D26*
%TO.C,C19*%
X66832225Y29475032D03*
X67659389Y28987796D03*
%TD*%
D12*
%TO.C,J38*%
X82681953Y17395756D03*
%TD*%
D19*
%TO.C,U14*%
X80551962Y27590113D03*
X81760512Y26124024D03*
X82724179Y28149579D03*
%TD*%
D13*
%TO.C,37*%
X63060600Y5943600D03*
%TD*%
%TO.C,49*%
X63932362Y15481812D03*
%TD*%
D17*
%TO.C,REF\u002A\u002A*%
X81661000Y-15392400D03*
%TD*%
D12*
%TO.C,J21*%
X49630483Y-9102334D03*
%TD*%
D13*
%TO.C,45*%
X83609200Y13766800D03*
%TD*%
D12*
%TO.C,J25*%
X40801907Y4005156D03*
%TD*%
%TO.C,J24*%
X52340024Y30215380D03*
%TD*%
%TO.C,J30*%
X42416248Y16303729D03*
%TD*%
D10*
%TO.C,FPC5*%
X39478110Y26050097D03*
X39731879Y26480911D03*
X39985648Y26911726D03*
X40239417Y27342540D03*
X40493186Y27773355D03*
X40746956Y28204169D03*
D11*
X41133260Y23914546D03*
X43417183Y27791877D03*
%TD*%
D26*
%TO.C,C13*%
X42332225Y29475032D03*
X43159389Y28987796D03*
%TD*%
D15*
%TO.C,REF\u002A\u002A5*%
X40282401Y-2588450D03*
%TD*%
%TO.C,REF\u002A\u002A1*%
X15782401Y-2588450D03*
%TD*%
D17*
%TO.C,REF\u002A\u002A*%
X-8636000Y-15240000D03*
%TD*%
D27*
%TO.C,U9*%
X47621384Y29386915D03*
D28*
X46967187Y30966287D03*
X44752093Y30048767D03*
X45479193Y28293394D03*
%TD*%
D14*
%TO.C,U16*%
X67431897Y-6189200D03*
X66223347Y-4723111D03*
X65259680Y-6748666D03*
%TD*%
%TO.C,U12*%
X42931897Y-6189200D03*
X41723347Y-4723111D03*
X40759680Y-6748666D03*
%TD*%
D12*
%TO.C,J17*%
X32067611Y5097184D03*
%TD*%
%TO.C,J9*%
X25130483Y-9102334D03*
%TD*%
%TO.C,J4*%
X9181953Y17395756D03*
%TD*%
D15*
%TO.C,REF\u002A\u002A*%
X9701460Y23989362D03*
%TD*%
D16*
%TO.C,C5*%
X-5663975Y-7740647D03*
X-4923215Y-7130011D03*
%TD*%
D13*
%TO.C,*%
X9688105Y13149757D03*
%TD*%
D16*
%TO.C,C22*%
X68530961Y-8562703D03*
X69271721Y-7952067D03*
%TD*%
D13*
%TO.C,19*%
X59744200Y5435600D03*
%TD*%
D16*
%TO.C,C16*%
X44030961Y-8562703D03*
X44771721Y-7952067D03*
%TD*%
D15*
%TO.C,REF\u002A\u002A8*%
X58701460Y23989362D03*
%TD*%
D12*
%TO.C,J7*%
X33311695Y2367297D03*
%TD*%
D27*
%TO.C,U5*%
X23121384Y29386915D03*
D28*
X22467187Y30966287D03*
X20252093Y30048767D03*
X20979193Y28293394D03*
%TD*%
D13*
%TO.C,25*%
X39881400Y7670800D03*
%TD*%
D22*
%TO.C,C2*%
X6647835Y29141559D03*
X5907075Y28530923D03*
%TD*%
D16*
%TO.C,C11*%
X18836025Y-7740647D03*
X19576785Y-7130011D03*
%TD*%
D13*
%TO.C,27*%
X58688105Y13149757D03*
%TD*%
D15*
%TO.C,REF\u002A\u002A9*%
X64782401Y-2588450D03*
%TD*%
%TO.C,REF\u002A\u002A7*%
X45987499Y13196473D03*
%TD*%
D13*
%TO.C,22*%
X38992400Y6477000D03*
%TD*%
D22*
%TO.C,C15*%
X54952900Y29963617D03*
X54212140Y29352981D03*
%TD*%
D13*
%TO.C,5*%
X14492400Y6477000D03*
%TD*%
D12*
%TO.C,J16*%
X31939844Y14953413D03*
%TD*%
D18*
%TO.C,*%
X82143600Y41427400D03*
%TD*%
D12*
%TO.C,J4*%
X-8198093Y4005156D03*
%TD*%
%TO.C,J11*%
X22143836Y-8814468D03*
%TD*%
%TO.C,J34*%
X73853377Y30503247D03*
%TD*%
D13*
%TO.C,9*%
X15838600Y8255000D03*
%TD*%
%TO.C,*%
X11003069Y14950981D03*
%TD*%
%TO.C,29*%
X59556135Y14358891D03*
%TD*%
%TO.C,43*%
X64838600Y8255000D03*
%TD*%
D12*
%TO.C,J26*%
X58181953Y17395756D03*
%TD*%
D13*
%TO.C,6*%
X34606560Y6775265D03*
%TD*%
%TO.C,35*%
X84597086Y4777164D03*
%TD*%
%TO.C,50*%
X63619400Y16154400D03*
%TD*%
%TO.C,*%
X-9575800Y7086600D03*
%TD*%
D15*
%TO.C,REF\u002A\u002A*%
X-8717599Y-2588450D03*
%TD*%
D13*
%TO.C,51*%
X63306438Y16826990D03*
%TD*%
D12*
%TO.C,J40*%
X80939844Y14953413D03*
%TD*%
D13*
%TO.C,33*%
X39119400Y16154400D03*
%TD*%
D22*
%TO.C,C8*%
X31147835Y29141559D03*
X30407075Y28530923D03*
%TD*%
D12*
%TO.C,J2*%
X353377Y30503247D03*
%TD*%
%TO.C,J10*%
X24853377Y30503247D03*
%TD*%
D23*
%TO.C,FPC6*%
X59505749Y-4649185D03*
X59251980Y-5079999D03*
X58998211Y-5510814D03*
X58744442Y-5941628D03*
X58490673Y-6372443D03*
X58236903Y-6803257D03*
D24*
X57850599Y-2513634D03*
X55566676Y-6390965D03*
%TD*%
D15*
%TO.C,REF\u002A\u002A3*%
X21487499Y13196473D03*
%TD*%
D20*
%TO.C,U11*%
X51362476Y-7986003D03*
D21*
X52016673Y-9565375D03*
X54231767Y-8647855D03*
X53504667Y-6892482D03*
%TD*%
D25*
%TO.C,C18*%
X56651635Y-8074121D03*
X55824471Y-7586885D03*
%TD*%
D13*
%TO.C,42*%
X64381400Y7670800D03*
%TD*%
%TO.C,23*%
X59106560Y6775265D03*
%TD*%
D15*
%TO.C,REF\u002A\u002A*%
X-3012501Y13196473D03*
%TD*%
%TO.C,REF\u002A\u002A12*%
X83201460Y23989362D03*
%TD*%
D13*
%TO.C,46*%
X84056135Y14358891D03*
%TD*%
D12*
%TO.C,J31*%
X82311695Y2367297D03*
%TD*%
%TO.C,J5*%
X7439844Y14953413D03*
%TD*%
%TO.C,J1*%
X-7827836Y19033616D03*
%TD*%
M02*
