%TF.GenerationSoftware,KiCad,Pcbnew,7.0.10*%
%TF.CreationDate,2024-11-13T11:37:08-08:00*%
%TF.ProjectId,ballBearingBoardPanelization241112,62616c6c-4265-4617-9269-6e67426f6172,rev?*%
%TF.SameCoordinates,Original*%
%TF.FileFunction,Profile,NP*%
%FSLAX46Y46*%
G04 Gerber Fmt 4.6, Leading zero omitted, Abs format (unit mm)*
G04 Created by KiCad (PCBNEW 7.0.10) date 2024-11-13 11:37:08*
%MOMM*%
%LPD*%
G01*
G04 APERTURE LIST*
%ADD10C,0.150000*%
%TA.AperFunction,Profile*%
%ADD11C,0.100000*%
%TD*%
G04 APERTURE END LIST*
D10*
X94707322Y34397480D02*
X95040655Y33397480D01*
X95040655Y33397480D02*
X95373988Y34397480D01*
X95707322Y33778433D02*
X96469227Y33778433D01*
X97516845Y33492719D02*
X97469226Y33445100D01*
X97469226Y33445100D02*
X97326369Y33397480D01*
X97326369Y33397480D02*
X97231131Y33397480D01*
X97231131Y33397480D02*
X97088274Y33445100D01*
X97088274Y33445100D02*
X96993036Y33540338D01*
X96993036Y33540338D02*
X96945417Y33635576D01*
X96945417Y33635576D02*
X96897798Y33826052D01*
X96897798Y33826052D02*
X96897798Y33968909D01*
X96897798Y33968909D02*
X96945417Y34159385D01*
X96945417Y34159385D02*
X96993036Y34254623D01*
X96993036Y34254623D02*
X97088274Y34349861D01*
X97088274Y34349861D02*
X97231131Y34397480D01*
X97231131Y34397480D02*
X97326369Y34397480D01*
X97326369Y34397480D02*
X97469226Y34349861D01*
X97469226Y34349861D02*
X97516845Y34302242D01*
X97945417Y34397480D02*
X97945417Y33587957D01*
X97945417Y33587957D02*
X97993036Y33492719D01*
X97993036Y33492719D02*
X98040655Y33445100D01*
X98040655Y33445100D02*
X98135893Y33397480D01*
X98135893Y33397480D02*
X98326369Y33397480D01*
X98326369Y33397480D02*
X98421607Y33445100D01*
X98421607Y33445100D02*
X98469226Y33492719D01*
X98469226Y33492719D02*
X98516845Y33587957D01*
X98516845Y33587957D02*
X98516845Y34397480D01*
X98850179Y34397480D02*
X99421607Y34397480D01*
X99135893Y33397480D02*
X99135893Y34397480D01*
X94707322Y-10712024D02*
X95040655Y-11712024D01*
X95040655Y-11712024D02*
X95373988Y-10712024D01*
X95707322Y-11331071D02*
X96469227Y-11331071D01*
X97516845Y-11616785D02*
X97469226Y-11664405D01*
X97469226Y-11664405D02*
X97326369Y-11712024D01*
X97326369Y-11712024D02*
X97231131Y-11712024D01*
X97231131Y-11712024D02*
X97088274Y-11664405D01*
X97088274Y-11664405D02*
X96993036Y-11569166D01*
X96993036Y-11569166D02*
X96945417Y-11473928D01*
X96945417Y-11473928D02*
X96897798Y-11283452D01*
X96897798Y-11283452D02*
X96897798Y-11140595D01*
X96897798Y-11140595D02*
X96945417Y-10950119D01*
X96945417Y-10950119D02*
X96993036Y-10854881D01*
X96993036Y-10854881D02*
X97088274Y-10759643D01*
X97088274Y-10759643D02*
X97231131Y-10712024D01*
X97231131Y-10712024D02*
X97326369Y-10712024D01*
X97326369Y-10712024D02*
X97469226Y-10759643D01*
X97469226Y-10759643D02*
X97516845Y-10807262D01*
X97945417Y-10712024D02*
X97945417Y-11521547D01*
X97945417Y-11521547D02*
X97993036Y-11616785D01*
X97993036Y-11616785D02*
X98040655Y-11664405D01*
X98040655Y-11664405D02*
X98135893Y-11712024D01*
X98135893Y-11712024D02*
X98326369Y-11712024D01*
X98326369Y-11712024D02*
X98421607Y-11664405D01*
X98421607Y-11664405D02*
X98469226Y-11616785D01*
X98469226Y-11616785D02*
X98516845Y-11521547D01*
X98516845Y-11521547D02*
X98516845Y-10712024D01*
X98850179Y-10712024D02*
X99421607Y-10712024D01*
X99135893Y-11712024D02*
X99135893Y-10712024D01*
D11*
X86995000Y-11842205D02*
X94513400Y-11842205D01*
X86995000Y33267300D02*
X94513400Y33267300D01*
X67611260Y22688381D02*
G75*
G03*
X69711656Y26511319I6872600J-1287471D01*
G01*
X67134904Y9541487D02*
G75*
G03*
X66376474Y9826573I-1198404J-2036787D01*
G01*
X31576905Y33840096D02*
G75*
G03*
X31618320Y33220948I44295J-307996D01*
G01*
X40389372Y14028355D02*
G75*
G03*
X41625703Y12616490I3643928J1943645D01*
G01*
X85920600Y33243105D02*
X80618320Y33220948D01*
X66094364Y9697961D02*
X65352867Y8699322D01*
X80440786Y34646782D02*
X77875943Y34649012D01*
X18134886Y9541463D02*
G75*
G03*
X20516999Y9603528I1155914J1379837D01*
G01*
X80848958Y11859432D02*
G75*
G03*
X81607384Y11574340I1198342J2036568D01*
G01*
X81607384Y11574358D02*
G75*
G03*
X81889495Y11702951I-1684J377442D01*
G01*
X64889380Y14028359D02*
G75*
G03*
X66125703Y12616490I3643720J1943441D01*
G01*
X8358142Y8784406D02*
G75*
G03*
X7417180Y8913020I-558042J-576306D01*
G01*
X44097800Y34671000D02*
X46662643Y34673230D01*
X-6365100Y9541480D02*
G75*
G03*
X-7123526Y9826573I-1198461J-2036872D01*
G01*
X83126531Y7340554D02*
G75*
G03*
X83888600Y7696200I354469J234746D01*
G01*
X17125672Y12616458D02*
G75*
G03*
X18066679Y12487894I558028J576342D01*
G01*
X-5080368Y-10281670D02*
G75*
G03*
X-7779350Y-8428287I-1773146J309745D01*
G01*
X53804153Y10088612D02*
G75*
G03*
X52410024Y10168799I-807753J-1884312D01*
G01*
X69679717Y11312322D02*
G75*
G03*
X71073836Y11232112I807783J1884378D01*
G01*
X67406966Y-12439253D02*
G75*
G03*
X67543074Y-13245869I74934J-402147D01*
G01*
X59546141Y29539842D02*
X59881093Y29132077D01*
X42865540Y-11820036D02*
X30563594Y-11795818D01*
X66836356Y30116493D02*
G75*
G03*
X69449192Y31846673I817284J1603757D01*
G01*
X17836359Y30116497D02*
G75*
G03*
X16162318Y29808155I-635659J-1247397D01*
G01*
X62438866Y4392998D02*
G75*
G03*
X63370440Y3390213I1978934J904302D01*
G01*
X31848956Y11859430D02*
G75*
G03*
X29466861Y11797383I-1155916J-1379780D01*
G01*
X43043074Y-13245870D02*
X45607917Y-13248100D01*
X36482890Y16602295D02*
G75*
G03*
X36544976Y17007906I-381190J265905D01*
G01*
X-3114117Y33267323D02*
G75*
G03*
X-4050808Y31846673I459850J-1322321D01*
G01*
X56953608Y-1702077D02*
X54589497Y-5715292D01*
X59897168Y27421615D02*
G75*
G03*
X59768626Y25444157I1435432J-1086215D01*
G01*
X63341192Y20801026D02*
G75*
G03*
X63297054Y23922782I-920592J1548174D01*
G01*
X-6663646Y30116487D02*
G75*
G03*
X-4050808Y31846673I817283J1603761D01*
G01*
X-10999055Y4798635D02*
G75*
G03*
X-11061116Y4393006I381253J-265893D01*
G01*
X20331157Y-11842193D02*
X21387874Y-11848870D01*
X41876474Y9826580D02*
G75*
G03*
X41594364Y9697961I1726J-377480D01*
G01*
X44911364Y26811670D02*
G75*
G03*
X44394363Y27116205I-258464J152330D01*
G01*
X-5888738Y22688381D02*
G75*
G03*
X-3788345Y26511319I6872599J-1287467D01*
G01*
X-9562282Y-8138929D02*
X-9897233Y-7731165D01*
X34609158Y12039599D02*
G75*
G03*
X33388518Y12385866I-665958J-22999D01*
G01*
X43920267Y33245097D02*
G75*
G03*
X43961686Y33864349I-2867J311203D01*
G01*
X84853800Y15748000D02*
X85482916Y16602277D01*
X79564157Y31682594D02*
G75*
G03*
X82263210Y29829201I1773143J-309794D01*
G01*
X30564283Y31682572D02*
G75*
G03*
X29652703Y33243105I-1379083J240928D01*
G01*
X71442585Y33274061D02*
G75*
G03*
X71162643Y34673230I-173185J692939D01*
G01*
X54886048Y-13221730D02*
G75*
G03*
X55022174Y-12415002I61152J404530D01*
G01*
X64641604Y9029502D02*
G75*
G03*
X65352867Y8699322I506496J159898D01*
G01*
X6872609Y-1287469D02*
G75*
G03*
X7436628Y-1397555I290471J-11691D01*
G01*
X42336356Y30116493D02*
G75*
G03*
X44949192Y31846673I817284J1603757D01*
G01*
X56953567Y-1702053D02*
G75*
G03*
X56436628Y-1397555I-258467J152253D01*
G01*
X40662315Y29808156D02*
G75*
G03*
X38158942Y25614131I9250985J-8365956D01*
G01*
X-10158820Y20801046D02*
G75*
G03*
X-10202946Y23922782I-920601J1548167D01*
G01*
X17530251Y23102990D02*
X19894362Y27116205D01*
X-5079734Y33245167D02*
G75*
G03*
X-5038314Y33864348I-2867J311168D01*
G01*
X85482911Y16602280D02*
G75*
G03*
X85544975Y17007906I-381411J265920D01*
G01*
X-5079734Y33245166D02*
X-11826200Y33267323D01*
X79386060Y-13221652D02*
X76627199Y-13181754D01*
X36361800Y4699000D02*
X36911339Y5602163D01*
X85318130Y1646469D02*
G75*
G03*
X84812260Y3795837I-10638630J-1369669D01*
G01*
X83920600Y-23539300D02*
G75*
G03*
X85920600Y-21539297I0J2000000D01*
G01*
X29572467Y-5410747D02*
G75*
G03*
X29272205Y-5110409I-204167J96147D01*
G01*
X65162315Y29808156D02*
G75*
G03*
X62658942Y25614131I9250985J-8365956D01*
G01*
X55940786Y34646782D02*
X53375943Y34649012D01*
X15641672Y9029524D02*
G75*
G03*
X16352867Y8699322I506528J159976D01*
G01*
X7953567Y-1702053D02*
G75*
G03*
X7436628Y-1397555I-258467J152253D01*
G01*
X77875929Y34648920D02*
G75*
G03*
X77595986Y33249783I-106729J-706220D01*
G01*
X81858130Y8784395D02*
G75*
G03*
X80917180Y8913020I-558030J-576195D01*
G01*
X35046135Y29539837D02*
G75*
G03*
X33263210Y29829201I-1062835J-911237D01*
G01*
X15098574Y-1058758D02*
G75*
G03*
X14370440Y3390211I-2003324J1956198D01*
G01*
X67134888Y9541466D02*
G75*
G03*
X69516999Y9603528I1155912J1379934D01*
G01*
X57358130Y8784395D02*
G75*
G03*
X56417180Y8913020I-558030J-576195D01*
G01*
X44097800Y34670997D02*
G75*
G03*
X43961686Y33864350I-61100J-404497D01*
G01*
X84046119Y29539824D02*
G75*
G03*
X82263210Y29829201I-1062819J-911124D01*
G01*
X60982911Y16602280D02*
G75*
G03*
X61044975Y17007906I-381411J265920D01*
G01*
X77597977Y-11866410D02*
X76541260Y-11873087D01*
X31372626Y-1287470D02*
G75*
G03*
X31936627Y-1397555I290474J-11630D01*
G01*
X11353841Y15747985D02*
G75*
G03*
X11912600Y14960601I554459J-198485D01*
G01*
X36324961Y-4213234D02*
G75*
G03*
X35686806Y-2521871I-1319461J468234D01*
G01*
X18406966Y-12439253D02*
G75*
G03*
X18543074Y-13245869I74934J-402147D01*
G01*
X13550592Y16973136D02*
G75*
G03*
X14109392Y17760532I4338J588904D01*
G01*
X18611260Y22688381D02*
G75*
G03*
X20711656Y26511319I6872600J-1287471D01*
G01*
X85361796Y4699015D02*
G75*
G03*
X85911338Y5602163I-196096J738085D01*
G01*
X77597986Y-11866437D02*
G75*
G03*
X78534667Y-10445760I-459886J1322337D01*
G01*
X66376474Y9826573D02*
G75*
G03*
X66094364Y9697961I1626J-377273D01*
G01*
X66836359Y30116497D02*
G75*
G03*
X65162318Y29808155I-635659J-1247397D01*
G01*
X11353800Y15748000D02*
X11982916Y16602277D01*
X36544979Y17007907D02*
G75*
G03*
X35613420Y18010699I-1979079J-904407D01*
G01*
X20411335Y26811686D02*
G75*
G03*
X20711655Y26511320I204165J-96186D01*
G01*
X68597800Y34670997D02*
G75*
G03*
X68461686Y33864350I-61100J-404497D01*
G01*
X54886060Y-13221652D02*
X52127199Y-13181754D01*
X5886060Y-13221652D02*
X3127199Y-13181754D01*
X-8610633Y14028352D02*
G75*
G03*
X-7374297Y12616490I3643892J1943628D01*
G01*
X69411335Y26811686D02*
G75*
G03*
X69711655Y26511320I204165J-96186D01*
G01*
X-11826200Y33267323D02*
X-11826221Y44460699D01*
X-5888740Y22688381D02*
G75*
G03*
X-6452768Y22798468I-290477J11683D01*
G01*
X10546141Y29539842D02*
X10881093Y29132077D01*
X59385282Y22459674D02*
G75*
G03*
X59768625Y25444157I-1788662J1746606D01*
G01*
X31848952Y11859421D02*
G75*
G03*
X32607384Y11574339I1198348J2036679D01*
G01*
X-6663646Y30116488D02*
G75*
G03*
X-8337683Y29808155I-635669J-1247355D01*
G01*
X64098578Y-1058762D02*
G75*
G03*
X63715236Y-4043244I1788682J-1746608D01*
G01*
X23345311Y9499927D02*
G75*
G03*
X20516999Y9603528I-1465891J-1360577D01*
G01*
X62500944Y4798635D02*
X62772828Y5178358D01*
X10546135Y29539837D02*
G75*
G03*
X8763210Y29829201I-1062835J-911237D01*
G01*
X85324890Y-4213209D02*
G75*
G03*
X84686806Y-2521871I-1319290J468309D01*
G01*
X17376474Y9826580D02*
G75*
G03*
X17094364Y9697961I1726J-377480D01*
G01*
X14341183Y20801041D02*
G75*
G03*
X14297054Y23922782I-920603J1548169D01*
G01*
X68419616Y-10281667D02*
G75*
G03*
X69331157Y-11842193I1379084J-240933D01*
G01*
X5152703Y33243105D02*
X4095986Y33249782D01*
X67543074Y-13245870D02*
X70107917Y-13248100D01*
X71287498Y13196473D02*
G75*
G03*
X69687500Y13196473I-799999J0D01*
G01*
X69687500Y13196473D02*
G75*
G03*
X71287498Y13196473I799999J0D01*
G01*
X79563594Y-11795840D02*
G75*
G03*
X79522174Y-12415001I2906J-311160D01*
G01*
X-1154684Y9499932D02*
G75*
G03*
X3410024Y10168800I2052250J1904782D01*
G01*
X38000975Y4798614D02*
G75*
G03*
X37938885Y4393006I381225J-265914D01*
G01*
X60353800Y15748000D02*
X60982916Y16602277D01*
X10385283Y22459673D02*
G75*
G03*
X10768625Y25444157I-1788673J1746607D01*
G01*
X37938866Y4392998D02*
G75*
G03*
X38870440Y3390213I1978934J904302D01*
G01*
X-2057400Y33274001D02*
G75*
G03*
X-2337357Y34673229I-173202J692967D01*
G01*
X45885883Y33267323D02*
X46942600Y33274000D01*
X13500944Y4798635D02*
X13772828Y5178358D01*
X79386048Y-13221730D02*
G75*
G03*
X79522174Y-12415002I61152J404530D01*
G01*
X64641667Y9029522D02*
X63668685Y13682086D01*
X78572480Y-5410748D02*
G75*
G03*
X79089496Y-5715292I258520J-152252D01*
G01*
X56348922Y11859388D02*
G75*
G03*
X53966861Y11797384I-1155922J-1379788D01*
G01*
X32889496Y11702951D02*
X33388518Y12385866D01*
X35642679Y599867D02*
G75*
G03*
X35686806Y-2521870I920621J-1548167D01*
G01*
X6064220Y31682583D02*
G75*
G03*
X8763210Y29829201I1773150J-309743D01*
G01*
X-8337683Y29808155D02*
G75*
G03*
X-10841058Y25614131I9251023J-8365985D01*
G01*
X63341187Y20801031D02*
G75*
G03*
X62665730Y19754443I459213J-1037631D01*
G01*
X34885283Y22459673D02*
G75*
G03*
X35268625Y25444157I-1788673J1746607D01*
G01*
X-3392083Y-13248100D02*
G75*
G03*
X-3112126Y-11848870I106756J706262D01*
G01*
X35397144Y27421633D02*
G75*
G03*
X35268626Y25444157I1435416J-1086203D01*
G01*
X17836356Y30116493D02*
G75*
G03*
X20449192Y31846673I817284J1603757D01*
G01*
X54072588Y-5410803D02*
G75*
G03*
X53772205Y-5110408I-204188J96203D01*
G01*
X85920622Y14554202D02*
G75*
G03*
X85412600Y14960599I-440722J-30202D01*
G01*
X10109205Y12039600D02*
G75*
G03*
X8888519Y12385865I-665965J-22950D01*
G01*
X14937718Y-8138929D02*
X14602767Y-7731165D01*
X62550585Y16973170D02*
G75*
G03*
X61673800Y15936721I200115J-1058370D01*
G01*
X62550591Y16973054D02*
G75*
G03*
X63109392Y17760532I4309J588946D01*
G01*
X44911335Y26811686D02*
G75*
G03*
X45211655Y26511320I204165J-96186D01*
G01*
X68597800Y34671000D02*
X71162643Y34673230D01*
X-4168843Y-11842193D02*
X-3112126Y-11848870D01*
X66530251Y23102990D02*
X68894362Y27116205D01*
X59109158Y12039599D02*
G75*
G03*
X57888518Y12385866I-665958J-22999D01*
G01*
X7076905Y33840096D02*
G75*
G03*
X7118320Y33220948I44295J-307996D01*
G01*
X32453608Y-1702077D02*
X30089497Y-5715292D01*
X13658887Y25614150D02*
G75*
G03*
X14297054Y23922784I1319413J-468250D01*
G01*
X-3820280Y11312330D02*
G75*
G03*
X-2426164Y11232112I807782J1884170D01*
G01*
X82821537Y-8407238D02*
G75*
G03*
X85324919Y-4213219I-9250737J8365838D01*
G01*
X20679720Y11312330D02*
G75*
G03*
X18066679Y12487894I-1753620J-406030D01*
G01*
X17530216Y23103011D02*
G75*
G03*
X18047231Y22798468I258484J-152311D01*
G01*
X-6365100Y9541480D02*
G75*
G03*
X-3983001Y9603528I1155917J1379798D01*
G01*
X19419628Y-10281669D02*
G75*
G03*
X16720650Y-8428287I-1773128J309769D01*
G01*
X-9826221Y-23539297D02*
X83920600Y-23539297D01*
X-10727172Y5178358D02*
G75*
G03*
X-11276711Y6081521I-745650J165069D01*
G01*
X18406959Y-12439212D02*
G75*
G03*
X18365540Y-11820037I-44259J308012D01*
G01*
X28597977Y-11866410D02*
X27541260Y-11873087D01*
X22442585Y33274061D02*
G75*
G03*
X22162643Y34673230I-173185J692939D01*
G01*
X59897148Y27421631D02*
G75*
G03*
X59881093Y29132077I-1116368J844819D01*
G01*
X14341163Y20801086D02*
G75*
G03*
X13665730Y19754443I459337J-1037686D01*
G01*
X15641667Y9029522D02*
X14668685Y13682086D01*
X8107384Y11574358D02*
G75*
G03*
X8389495Y11702951I-1684J377442D01*
G01*
X84046141Y29539842D02*
X84381093Y29132077D01*
X40141667Y9029522D02*
X39168685Y13682086D01*
X9626600Y7340600D02*
G75*
G03*
X8358157Y8784421I-3751080J-2016350D01*
G01*
X-6093040Y-12439219D02*
G75*
G03*
X-6134460Y-11820036I-44287J308014D01*
G01*
X8389496Y11702951D02*
X8888518Y12385866D01*
X-9401426Y-1058758D02*
G75*
G03*
X-9784764Y-4043244I1788684J-1746607D01*
G01*
X44831157Y-11842193D02*
X45887874Y-11848870D01*
X75638505Y11900946D02*
G75*
G03*
X78466861Y11797384I1465895J1360654D01*
G01*
X39086701Y-6020710D02*
G75*
G03*
X39215234Y-4043244I-1435401J1086210D01*
G01*
X81453567Y-1702053D02*
G75*
G03*
X80936628Y-1397555I-258467J152253D01*
G01*
X57389496Y11702951D02*
X57888518Y12385866D01*
X5886060Y-13221651D02*
G75*
G03*
X6022174Y-12415003I61140J404491D01*
G01*
X38841192Y20801026D02*
G75*
G03*
X38797054Y23922782I-920592J1548174D01*
G01*
X27541260Y-11873088D02*
G75*
G03*
X27627199Y-13181753I161600J-646542D01*
G01*
X55872664Y-1287472D02*
G75*
G03*
X56436627Y-1397555I290436J-11728D01*
G01*
X56076905Y33840096D02*
G75*
G03*
X56118320Y33220948I44295J-307996D01*
G01*
X39437766Y-8138888D02*
G75*
G03*
X41220650Y-8428287I1062834J911188D01*
G01*
X30386060Y-13221652D02*
X27627199Y-13181754D01*
X7953608Y-1702077D02*
X5589497Y-5715292D01*
X85920600Y33243105D02*
X85920600Y44460703D01*
X-10158819Y20801045D02*
G75*
G03*
X-10834270Y19754443I459276J-1037666D01*
G01*
X66125672Y12616458D02*
G75*
G03*
X67066679Y12487894I558028J576342D01*
G01*
X-9913287Y-6020719D02*
G75*
G03*
X-9784765Y-4043244I-1435392J1086204D01*
G01*
X10897145Y27421633D02*
G75*
G03*
X10768627Y25444157I1435405J-1086203D01*
G01*
X-11061116Y4393006D02*
G75*
G03*
X-10129560Y3390212I1978937J904268D01*
G01*
X45885891Y33267300D02*
G75*
G03*
X44949192Y31846673I459809J-1322300D01*
G01*
X4097978Y-11866414D02*
G75*
G03*
X5034667Y-10445760I-459858J1322324D01*
G01*
X32858142Y8784406D02*
G75*
G03*
X31917180Y8913020I-558042J-576306D01*
G01*
X20411364Y26811670D02*
G75*
G03*
X19894363Y27116205I-258464J152330D01*
G01*
X23345322Y9499937D02*
G75*
G03*
X27910024Y10168800I2052248J1904783D01*
G01*
X18134894Y9541469D02*
G75*
G03*
X17376474Y9826573I-1198494J-2036869D01*
G01*
X47845292Y9499910D02*
G75*
G03*
X45016999Y9603528I-1465892J-1360610D01*
G01*
X53097977Y-11866410D02*
X52041260Y-11873087D01*
X80576905Y33840096D02*
G75*
G03*
X80618320Y33220948I44295J-307996D01*
G01*
X42906966Y-12439253D02*
G75*
G03*
X43043074Y-13245869I74934J-402147D01*
G01*
X11982890Y16602295D02*
G75*
G03*
X12044976Y17007906I-381190J265905D01*
G01*
X11142678Y599868D02*
G75*
G03*
X11818130Y1646469I-459268J1037662D01*
G01*
X21107916Y-13248105D02*
G75*
G03*
X21387874Y-11848871I106754J706265D01*
G01*
X63586676Y-6020691D02*
G75*
G03*
X63602768Y-7731165I1116424J-844809D01*
G01*
X28597986Y-11866437D02*
G75*
G03*
X29534667Y-10445760I-459886J1322337D01*
G01*
X15889372Y14028355D02*
G75*
G03*
X17125703Y12616490I3643928J1943645D01*
G01*
X36361804Y4698985D02*
G75*
G03*
X35812262Y3795837I196096J-738085D01*
G01*
X4097977Y-11866410D02*
X3041260Y-11873087D01*
X59388600Y7696200D02*
X59109200Y12039600D01*
X-1154684Y9499932D02*
G75*
G03*
X-3983001Y9603528I-1465891J-1360585D01*
G01*
X46942585Y33274061D02*
G75*
G03*
X46662643Y34673230I-173185J692939D01*
G01*
X-10949408Y16973133D02*
G75*
G03*
X-10390609Y17760532I4340J588903D01*
G01*
X38165741Y19754444D02*
G75*
G03*
X38609392Y17760532I11156559J1436056D01*
G01*
X-3114117Y33267323D02*
X-2057400Y33274000D01*
X54072480Y-5410748D02*
G75*
G03*
X54589496Y-5715292I258520J-152252D01*
G01*
X45179720Y11312330D02*
G75*
G03*
X46573836Y11232113I807780J1884170D01*
G01*
X34885286Y22459670D02*
G75*
G03*
X35613420Y18010700I2003314J-1956200D01*
G01*
X63937718Y-8138929D02*
X63602767Y-7731165D01*
X4796361Y8204441D02*
G75*
G03*
X3196359Y8204441I-800001J0D01*
G01*
X3196359Y8204441D02*
G75*
G03*
X4796361Y8204441I800001J0D01*
G01*
X-4088661Y26811684D02*
G75*
G03*
X-4605637Y27116205I-258477J152279D01*
G01*
X38841163Y20801086D02*
G75*
G03*
X38165730Y19754443I459337J-1037686D01*
G01*
X40141672Y9029524D02*
G75*
G03*
X40852867Y8699322I506528J159976D01*
G01*
X12411339Y5602163D02*
X13223289Y6081521D01*
X67406959Y-12439212D02*
G75*
G03*
X67365540Y-11820037I-44259J308012D01*
G01*
X38158887Y25614150D02*
G75*
G03*
X38797054Y23922784I1319413J-468250D01*
G01*
X32453567Y-1702053D02*
G75*
G03*
X31936628Y-1397555I-258467J152253D01*
G01*
X-6969749Y23102990D02*
X-4605638Y27116205D01*
X19419616Y-10281667D02*
G75*
G03*
X20331157Y-11842193I1379084J-240933D01*
G01*
X84397099Y27421668D02*
G75*
G03*
X84381092Y29132076I-1116299J844832D01*
G01*
X3041260Y-11873088D02*
G75*
G03*
X3127199Y-13181753I161600J-646542D01*
G01*
X30563594Y-11795840D02*
G75*
G03*
X30522174Y-12415001I2906J-311160D01*
G01*
X-8858333Y9029522D02*
X-9831315Y13682086D01*
X80372664Y-1287472D02*
G75*
G03*
X80936627Y-1397555I290436J-11728D01*
G01*
X84397168Y27421615D02*
G75*
G03*
X84268626Y25444157I1435432J-1086215D01*
G01*
X46787498Y13196473D02*
G75*
G03*
X45187500Y13196473I-799999J0D01*
G01*
X45187500Y13196473D02*
G75*
G03*
X46787498Y13196473I799999J0D01*
G01*
X10385286Y22459670D02*
G75*
G03*
X11113420Y18010700I2003314J-1956200D01*
G01*
X47845320Y9499936D02*
G75*
G03*
X52410023Y10168800I2052250J1904774D01*
G01*
X7348957Y11859430D02*
G75*
G03*
X4966861Y11797384I-1155917J-1379790D01*
G01*
X84642679Y599867D02*
G75*
G03*
X84686806Y-2521870I920621J-1548167D01*
G01*
X43919628Y-10281669D02*
G75*
G03*
X41220650Y-8428287I-1773128J309769D01*
G01*
X21385891Y33267300D02*
G75*
G03*
X20449192Y31846673I459809J-1322300D01*
G01*
X2138543Y11900981D02*
G75*
G03*
X4966861Y11797384I1465892J1360584D01*
G01*
X43111280Y22688380D02*
G75*
G03*
X42547232Y22798468I-290480J11720D01*
G01*
X6940786Y34646782D02*
X4375943Y34649012D01*
X35853752Y15748017D02*
G75*
G03*
X36412600Y14960600I554448J-198517D01*
G01*
X2138543Y11900981D02*
G75*
G03*
X-2426164Y11232112I-2052249J-1904785D01*
G01*
X40389278Y14028292D02*
G75*
G03*
X39168686Y13682086I-554678J-369192D01*
G01*
X18365540Y-11820036D02*
X6063594Y-11795818D01*
X60353752Y15748017D02*
G75*
G03*
X60912600Y14960600I554448J-198517D01*
G01*
X31440786Y34646782D02*
X28875943Y34649012D01*
X81453608Y-1702077D02*
X79089497Y-5715292D01*
X4804136Y10088581D02*
G75*
G03*
X7417180Y8913020I1753614J406019D01*
G01*
X11818133Y1646469D02*
G75*
G03*
X11312260Y3795837I-10637733J-1369469D01*
G01*
X30564306Y31682568D02*
G75*
G03*
X33263210Y29829201I1773094J-309768D01*
G01*
X45607916Y-13248105D02*
G75*
G03*
X45887874Y-11848871I106754J706265D01*
G01*
X55064306Y31682568D02*
G75*
G03*
X57763210Y29829201I1773094J-309768D01*
G01*
X80848922Y11859388D02*
G75*
G03*
X78466861Y11797384I-1155922J-1379788D01*
G01*
X79564301Y31682569D02*
G75*
G03*
X78652703Y33243105I-1378901J241031D01*
G01*
X60142667Y599892D02*
G75*
G03*
X60818130Y1646469I-459167J1037608D01*
G01*
X75638551Y11900988D02*
G75*
G03*
X71073837Y11232112I-2052251J-1904788D01*
G01*
X-2212502Y13196473D02*
G75*
G03*
X-3812500Y13196473I-799999J0D01*
G01*
X-3812500Y13196473D02*
G75*
G03*
X-2212502Y13196473I799999J0D01*
G01*
X-9401426Y-1058758D02*
G75*
G03*
X-10129560Y3390212I-2003320J1956199D01*
G01*
X85361804Y4698985D02*
G75*
G03*
X84812262Y3795837I196096J-738085D01*
G01*
X35046141Y29539842D02*
X35381093Y29132077D01*
X42336359Y30116497D02*
G75*
G03*
X40662318Y29808155I-635659J-1247397D01*
G01*
X19597800Y34671003D02*
G75*
G03*
X19461686Y33864351I-61140J-404493D01*
G01*
X72345292Y9499910D02*
G75*
G03*
X69516999Y9603528I-1465892J-1360610D01*
G01*
X18611280Y22688380D02*
G75*
G03*
X18047232Y22798468I-290480J11720D01*
G01*
X-8610633Y14028352D02*
G75*
G03*
X-9831315Y13682086I-554718J-369218D01*
G01*
X36911339Y5602163D02*
X37723289Y6081521D01*
X14937714Y-8138932D02*
G75*
G03*
X16720650Y-8428287I1062836J911252D01*
G01*
X11912600Y14960600D02*
X13550592Y16973132D01*
X13665731Y19754443D02*
G75*
G03*
X14109392Y17760532I11156769J1436157D01*
G01*
X-10841059Y25614131D02*
G75*
G03*
X-10202946Y23922783I1319372J-468274D01*
G01*
X20679718Y11312326D02*
G75*
G03*
X22073836Y11232113I807782J1884274D01*
G01*
X59546135Y29539837D02*
G75*
G03*
X57763210Y29829201I-1062835J-911237D01*
G01*
X32147502Y-8715582D02*
G75*
G03*
X29534668Y-10445760I-817282J-1603758D01*
G01*
X62659000Y25614110D02*
G75*
G03*
X63297054Y23922783I1319300J-468310D01*
G01*
X19420266Y33245166D02*
X7118320Y33220948D01*
X26638548Y11900986D02*
G75*
G03*
X29466860Y11797385I1465892J1360584D01*
G01*
X70107930Y-13248015D02*
G75*
G03*
X70387874Y-11848871I106770J706215D01*
G01*
X60142679Y599867D02*
G75*
G03*
X60186806Y-2521870I920621J-1548167D01*
G01*
X43919616Y-10281667D02*
G75*
G03*
X44831157Y-11842193I1379084J-240933D01*
G01*
X-4902200Y34671000D02*
X-2337357Y34673230D01*
X30386048Y-13221730D02*
G75*
G03*
X30522174Y-12415002I61152J404530D01*
G01*
X-10949408Y16973132D02*
G75*
G03*
X-11826200Y15936721I200064J-1058335D01*
G01*
X52041247Y-11873035D02*
G75*
G03*
X52127199Y-13181754I161653J-646565D01*
G01*
X60818132Y1646469D02*
G75*
G03*
X60312261Y3795837I-10637332J-1369369D01*
G01*
X41594364Y9697961D02*
X40852867Y8699322D01*
X11861804Y4698985D02*
G75*
G03*
X11312262Y3795837I196096J-738085D01*
G01*
X63586701Y-6020710D02*
G75*
G03*
X63715234Y-4043244I-1435401J1086210D01*
G01*
X19420267Y33245097D02*
G75*
G03*
X19461686Y33864349I-2867J311203D01*
G01*
X76541247Y-11873035D02*
G75*
G03*
X76627199Y-13181754I161653J-646565D01*
G01*
X83126599Y7340600D02*
G75*
G03*
X81858157Y8784422I-3750799J-2016100D01*
G01*
X36318125Y1646468D02*
G75*
G03*
X35812260Y3795837I-10638325J-1369568D01*
G01*
X13500946Y4798634D02*
G75*
G03*
X13438885Y4393006I381254J-265894D01*
G01*
X6063594Y-11795825D02*
G75*
G03*
X6022174Y-12415001I2866J-311165D01*
G01*
X36412600Y14960600D02*
X37173800Y15936721D01*
X26638551Y11900988D02*
G75*
G03*
X22073837Y11232112I-2052251J-1904788D01*
G01*
X60912600Y14960600D02*
X61673800Y15936721D01*
X69411364Y26811670D02*
G75*
G03*
X68894363Y27116205I-258464J152330D01*
G01*
X-11826221Y-21539293D02*
G75*
G03*
X-9826221Y-23539297I2000000J-4D01*
G01*
X85920600Y14554200D02*
X85911339Y5602163D01*
X-7405636Y9697961D02*
X-8147133Y8699322D01*
X51138505Y11900946D02*
G75*
G03*
X53966861Y11797384I1465895J1360654D01*
G01*
X80372600Y-1287469D02*
G75*
G03*
X78272205Y-5110408I-6872600J1287469D01*
G01*
X53804065Y10088565D02*
G75*
G03*
X56417180Y8913020I1753635J406035D01*
G01*
X39598574Y-1058758D02*
G75*
G03*
X38870440Y3390211I-2003324J1956198D01*
G01*
X42634894Y9541469D02*
G75*
G03*
X41876474Y9826573I-1198494J-2036869D01*
G01*
X14586709Y-6020716D02*
G75*
G03*
X14715235Y-4043244I-1435389J1086206D01*
G01*
X72345354Y9499967D02*
G75*
G03*
X76910023Y10168800I2052246J1904733D01*
G01*
X85920600Y-11866400D02*
X85920600Y-21539297D01*
X5072568Y-5410800D02*
G75*
G03*
X5589496Y-5715292I258432J-152300D01*
G01*
X29652703Y33243105D02*
X28595986Y33249782D01*
X70385883Y33267323D02*
X71442600Y33274000D01*
X78296361Y8204441D02*
G75*
G03*
X76696359Y8204441I-800001J0D01*
G01*
X76696359Y8204441D02*
G75*
G03*
X78296361Y8204441I800001J0D01*
G01*
X-6969749Y23102990D02*
G75*
G03*
X-6452769Y22798468I258489J-152262D01*
G01*
X9321542Y-8407242D02*
G75*
G03*
X11824919Y-4213219I-9250992J8365972D01*
G01*
X67611318Y22688379D02*
G75*
G03*
X67047232Y22798468I-290518J11621D01*
G01*
X56647502Y-8715582D02*
G75*
G03*
X54034668Y-10445760I-817282J-1603758D01*
G01*
X7647507Y-8715571D02*
G75*
G03*
X9321542Y-8407242I635673J1247341D01*
G01*
X42030251Y23102990D02*
X44394362Y27116205D01*
X12044977Y17007906D02*
G75*
G03*
X11113420Y18010700I-1978977J-904306D01*
G01*
X84853752Y15748017D02*
G75*
G03*
X85412600Y14960600I554448J-198517D01*
G01*
X9626602Y7340601D02*
G75*
G03*
X10388599Y7696200I354478J234629D01*
G01*
X-11826200Y15936721D02*
X-11826250Y6984684D01*
X62772805Y5178363D02*
G75*
G03*
X62223289Y6081521I-745705J165037D01*
G01*
X53375943Y34649013D02*
G75*
G03*
X53095986Y33249783I-106753J-706263D01*
G01*
X81889496Y11702951D02*
X82388518Y12385866D01*
X45179720Y11312330D02*
G75*
G03*
X42566679Y12487894I-1753620J-406030D01*
G01*
X11824890Y-4213209D02*
G75*
G03*
X11186806Y-2521871I-1319290J468309D01*
G01*
X-5956926Y-13245870D02*
X-3392083Y-13248100D01*
X29304142Y10088583D02*
G75*
G03*
X31917180Y8913020I1753608J406007D01*
G01*
X83885252Y22459703D02*
G75*
G03*
X84613420Y18010700I2003348J-1956203D01*
G01*
X34888600Y7696200D02*
X34609200Y12039600D01*
X32607384Y11574324D02*
G75*
G03*
X32889495Y11702951I-1684J377376D01*
G01*
X78652703Y33243105D02*
X77595986Y33249782D01*
X-11826221Y-21539293D02*
X-11826200Y-11866400D01*
X56647521Y-8715543D02*
G75*
G03*
X58321542Y-8407242I635679J1247343D01*
G01*
X-6093040Y-12439221D02*
G75*
G03*
X-5956926Y-13245869I74973J-402157D01*
G01*
X13438866Y4392998D02*
G75*
G03*
X14370440Y3390213I1978934J904302D01*
G01*
X78304065Y10088565D02*
G75*
G03*
X80917180Y8913020I1753635J406035D01*
G01*
X56348960Y11859435D02*
G75*
G03*
X57107384Y11574339I1198540J2037065D01*
G01*
X-7374296Y12616491D02*
G75*
G03*
X-6433321Y12487895I558035J576315D01*
G01*
X6872600Y-1287469D02*
G75*
G03*
X4772205Y-5110408I-6872601J1287469D01*
G01*
X80576895Y33840161D02*
G75*
G03*
X80440786Y34646781I-74995J402139D01*
G01*
X-9913287Y-6020719D02*
G75*
G03*
X-9897232Y-7731164I1116353J-844820D01*
G01*
X60861804Y4698985D02*
G75*
G03*
X60312262Y3795837I196096J-738085D01*
G01*
X38272875Y5178348D02*
G75*
G03*
X37723289Y6081521I-745675J165052D01*
G01*
X68420267Y33245097D02*
G75*
G03*
X68461686Y33864349I-2867J311203D01*
G01*
X29296361Y8204441D02*
G75*
G03*
X27696359Y8204441I-800001J0D01*
G01*
X27696359Y8204441D02*
G75*
G03*
X29296361Y8204441I800001J0D01*
G01*
X5072467Y-5410747D02*
G75*
G03*
X4772205Y-5110409I-204167J96147D01*
G01*
X4375943Y34649013D02*
G75*
G03*
X4095986Y33249783I-106753J-706263D01*
G01*
X53097986Y-11866437D02*
G75*
G03*
X54034667Y-10445760I-459886J1322337D01*
G01*
X83609158Y12039599D02*
G75*
G03*
X82388518Y12385866I-665958J-22999D01*
G01*
X55063594Y-11795840D02*
G75*
G03*
X55022174Y-12415001I2906J-311160D01*
G01*
X32147521Y-8715543D02*
G75*
G03*
X33821542Y-8407242I635679J1247343D01*
G01*
X33821542Y-8407242D02*
G75*
G03*
X36324919Y-4213219I-9250942J8365942D01*
G01*
X57107384Y11574324D02*
G75*
G03*
X57389495Y11702951I-1684J377376D01*
G01*
X10897148Y27421631D02*
G75*
G03*
X10881092Y29132077I-1116358J844819D01*
G01*
X43920266Y33245166D02*
X31618320Y33223200D01*
X13772875Y5178348D02*
G75*
G03*
X13223289Y6081521I-745675J165052D01*
G01*
X42030216Y23103011D02*
G75*
G03*
X42547231Y22798468I258484J-152311D01*
G01*
X17094364Y9697961D02*
X16352867Y8699322D01*
X31576895Y33840161D02*
G75*
G03*
X31440786Y34646781I-74995J402139D01*
G01*
X-5080366Y-10281670D02*
G75*
G03*
X-4168843Y-11842192I1379115J-240917D01*
G01*
X18543074Y-13245870D02*
X21107917Y-13248100D01*
X-11826250Y6984684D02*
G75*
G03*
X-11276711Y6081521I745650J-165069D01*
G01*
X34126680Y7340653D02*
G75*
G03*
X34888599Y7696200I354420J234647D01*
G01*
X15098578Y-1058762D02*
G75*
G03*
X14715236Y-4043244I1788682J-1746608D01*
G01*
X42906959Y-12439212D02*
G75*
G03*
X42865540Y-11820037I-44259J308012D01*
G01*
X-4088660Y26811684D02*
G75*
G03*
X-3788345Y26511320I204222J-96126D01*
G01*
X39086714Y-6020720D02*
G75*
G03*
X39102767Y-7731165I1116356J-844820D01*
G01*
X67365540Y-11820036D02*
X55063594Y-11795818D01*
X11142678Y599868D02*
G75*
G03*
X11186806Y-2521871I920602J-1548168D01*
G01*
X28875943Y34649013D02*
G75*
G03*
X28595986Y33249783I-106753J-706263D01*
G01*
X-9562282Y-8138929D02*
G75*
G03*
X-7779350Y-8428287I1062836J911250D01*
G01*
X22287498Y13196473D02*
G75*
G03*
X20687500Y13196473I-799999J0D01*
G01*
X20687500Y13196473D02*
G75*
G03*
X22287498Y13196473I799999J0D01*
G01*
X81147506Y-8715573D02*
G75*
G03*
X78534668Y-10445760I-817306J-1603727D01*
G01*
X-7123526Y9826574D02*
G75*
G03*
X-7405636Y9697961I1735J-377512D01*
G01*
X6064218Y31682583D02*
G75*
G03*
X5152703Y33243104I-1379118J240917D01*
G01*
X59385284Y22459672D02*
G75*
G03*
X60113420Y18010700I2003306J-1956202D01*
G01*
X35853800Y15748000D02*
X36482916Y16602277D01*
X39437718Y-8138929D02*
X39102767Y-7731165D01*
X85920603Y44460703D02*
G75*
G03*
X83920600Y46460703I-2000003J-3D01*
G01*
X60861800Y4699000D02*
X62223289Y6081521D01*
X62500953Y4798629D02*
G75*
G03*
X62438885Y4393006I381447J-265929D01*
G01*
X29304127Y10088552D02*
G75*
G03*
X27910024Y10168799I-807827J-1884352D01*
G01*
X78304127Y10088552D02*
G75*
G03*
X76910024Y10168799I-807827J-1884352D01*
G01*
X4804140Y10088582D02*
G75*
G03*
X3410024Y10168799I-807780J-1884172D01*
G01*
X10388600Y7696200D02*
X10109200Y12039600D01*
X55064283Y31682572D02*
G75*
G03*
X54152703Y33243105I-1379083J240928D01*
G01*
X66530216Y23103011D02*
G75*
G03*
X67047231Y22798468I258484J-152311D01*
G01*
X70385891Y33267300D02*
G75*
G03*
X69449192Y31846673I459809J-1322300D01*
G01*
X68419628Y-10281669D02*
G75*
G03*
X65720650Y-8428287I-1773128J309769D01*
G01*
X63937670Y-8138971D02*
G75*
G03*
X65720649Y-8428286I1062830J911271D01*
G01*
X-10834269Y19754443D02*
G75*
G03*
X-10390608Y17760532I11156769J1436157D01*
G01*
X15889367Y14028352D02*
G75*
G03*
X14668686Y13682086I-554717J-369222D01*
G01*
X61044974Y17007905D02*
G75*
G03*
X60113420Y18010700I-1978874J-904205D01*
G01*
X43111260Y22688381D02*
G75*
G03*
X45211656Y26511319I6872600J-1287471D01*
G01*
X19597800Y34671000D02*
X22162643Y34673230D01*
X81147511Y-8715563D02*
G75*
G03*
X82821542Y-8407242I635689J1247263D01*
G01*
X-9826221Y46460703D02*
G75*
G03*
X-11826221Y44460699I0J-2000000D01*
G01*
X35642678Y599868D02*
G75*
G03*
X36318129Y1646469I-459378J1037732D01*
G01*
X79563594Y-11795818D02*
X85920600Y-11866400D01*
X7348956Y11859428D02*
G75*
G03*
X8107384Y11574339I1198444J2036872D01*
G01*
X34126610Y7340606D02*
G75*
G03*
X32858157Y8784422I-3751110J-2016406D01*
G01*
X85544974Y17007905D02*
G75*
G03*
X84613420Y18010700I-1978874J-904205D01*
G01*
X64098572Y-1058756D02*
G75*
G03*
X63370440Y3390212I-2003332J1956196D01*
G01*
X35397148Y27421631D02*
G75*
G03*
X35381092Y29132076I-1116338J844819D01*
G01*
X62665741Y19754444D02*
G75*
G03*
X63109392Y17760532I11156559J1436056D01*
G01*
X58321532Y-8407233D02*
G75*
G03*
X60824918Y-4213219I-9251032J8366033D01*
G01*
X41625672Y12616458D02*
G75*
G03*
X42566679Y12487894I558028J576342D01*
G01*
X64889278Y14028292D02*
G75*
G03*
X63668686Y13682086I-554678J-369192D01*
G01*
X58626611Y7340607D02*
G75*
G03*
X59388599Y7696200I354489J234593D01*
G01*
X31372600Y-1287469D02*
G75*
G03*
X29272205Y-5110408I-6872600J1287469D01*
G01*
X83920600Y46460703D02*
X-9826221Y46460703D01*
X11861800Y4699000D02*
X12411339Y5602163D01*
X-4902200Y34670999D02*
G75*
G03*
X-5038314Y33864351I-61141J-404491D01*
G01*
X-10999056Y4798635D02*
X-10727172Y5178358D01*
X16162317Y29808155D02*
G75*
G03*
X13658942Y25614131I9251023J-8365985D01*
G01*
X51138551Y11900988D02*
G75*
G03*
X46573837Y11232112I-2052251J-1904788D01*
G01*
X83888600Y7696200D02*
X83609200Y12039600D01*
X7647505Y-8715574D02*
G75*
G03*
X5034667Y-10445760I-817283J-1603761D01*
G01*
X7076900Y33840131D02*
G75*
G03*
X6940786Y34646782I-74970J402159D01*
G01*
X58626599Y7340600D02*
G75*
G03*
X57358157Y8784422I-3750799J-2016100D01*
G01*
X29572480Y-5410748D02*
G75*
G03*
X30089496Y-5715292I258520J-152252D01*
G01*
X69679720Y11312330D02*
G75*
G03*
X67066679Y12487894I-1753620J-406030D01*
G01*
X42634886Y9541463D02*
G75*
G03*
X45016999Y9603528I1155914J1379837D01*
G01*
X56076895Y33840161D02*
G75*
G03*
X55940786Y34646781I-74995J402139D01*
G01*
X69331157Y-11842193D02*
X70387874Y-11848870D01*
X38050585Y16973170D02*
G75*
G03*
X37173800Y15936721I200115J-1058370D01*
G01*
X83885268Y22459688D02*
G75*
G03*
X84268626Y25444157I-1788668J1746612D01*
G01*
X55872600Y-1287469D02*
G75*
G03*
X53772205Y-5110408I-6872600J1287469D01*
G01*
X-6134460Y-11820036D02*
X-11826200Y-11866400D01*
X38000944Y4798635D02*
X38272828Y5178358D01*
X14586714Y-6020720D02*
G75*
G03*
X14602767Y-7731165I1116356J-844820D01*
G01*
X53796361Y8204441D02*
G75*
G03*
X52196359Y8204441I-800001J0D01*
G01*
X52196359Y8204441D02*
G75*
G03*
X53796361Y8204441I800001J0D01*
G01*
X68420266Y33245166D02*
X56118320Y33220948D01*
X39598578Y-1058762D02*
G75*
G03*
X39215236Y-4043244I1788682J-1746608D01*
G01*
X38050591Y16973054D02*
G75*
G03*
X38609392Y17760532I4309J588946D01*
G01*
X-8858333Y9029522D02*
G75*
G03*
X-8147133Y8699322I506517J159952D01*
G01*
X78572467Y-5410747D02*
G75*
G03*
X78272205Y-5110409I-204167J96147D01*
G01*
X60824919Y-4213219D02*
G75*
G03*
X60186806Y-2521871I-1319519J468219D01*
G01*
X84642678Y599868D02*
G75*
G03*
X85318129Y1646469I-459378J1037732D01*
G01*
X21385883Y33267323D02*
X22442600Y33274000D01*
X-3820280Y11312330D02*
G75*
G03*
X-6433321Y12487893I-1753610J-406008D01*
G01*
X54152703Y33243105D02*
X53095986Y33249782D01*
M02*
