%TF.GenerationSoftware,KiCad,Pcbnew,7.0.10*%
%TF.CreationDate,2024-11-13T11:37:07-08:00*%
%TF.ProjectId,ballBearingBoardPanelization241112,62616c6c-4265-4617-9269-6e67426f6172,rev?*%
%TF.SameCoordinates,Original*%
%TF.FileFunction,Copper,L1,Top*%
%TF.FilePolarity,Positive*%
%FSLAX46Y46*%
G04 Gerber Fmt 4.6, Leading zero omitted, Abs format (unit mm)*
G04 Created by KiCad (PCBNEW 7.0.10) date 2024-11-13 11:37:07*
%MOMM*%
%LPD*%
G01*
G04 APERTURE LIST*
G04 Aperture macros list*
%AMRoundRect*
0 Rectangle with rounded corners*
0 $1 Rounding radius*
0 $2 $3 $4 $5 $6 $7 $8 $9 X,Y pos of 4 corners*
0 Add a 4 corners polygon primitive as box body*
4,1,4,$2,$3,$4,$5,$6,$7,$8,$9,$2,$3,0*
0 Add four circle primitives for the rounded corners*
1,1,$1+$1,$2,$3*
1,1,$1+$1,$4,$5*
1,1,$1+$1,$6,$7*
1,1,$1+$1,$8,$9*
0 Add four rect primitives between the rounded corners*
20,1,$1+$1,$2,$3,$4,$5,0*
20,1,$1+$1,$4,$5,$6,$7,0*
20,1,$1+$1,$6,$7,$8,$9,0*
20,1,$1+$1,$8,$9,$2,$3,0*%
%AMRotRect*
0 Rectangle, with rotation*
0 The origin of the aperture is its center*
0 $1 length*
0 $2 width*
0 $3 Rotation angle, in degrees counterclockwise*
0 Add horizontal line*
21,1,$1,$2,0,0,$3*%
G04 Aperture macros list end*
%TA.AperFunction,SMDPad,CuDef*%
%ADD10RoundRect,0.030000X-0.257898X0.291185X-0.379707X0.084394X0.257898X-0.291185X0.379707X-0.084394X0*%
%TD*%
%TA.AperFunction,SMDPad,CuDef*%
%ADD11RoundRect,0.040000X-0.228980X0.320574X-0.391393X0.044853X0.228980X-0.320574X0.391393X-0.044853X0*%
%TD*%
%TA.AperFunction,ComponentPad*%
%ADD12C,2.250000*%
%TD*%
%TA.AperFunction,SMDPad,CuDef*%
%ADD13RotRect,0.584200X1.320800X129.500000*%
%TD*%
%TA.AperFunction,SMDPad,CuDef*%
%ADD14RoundRect,0.140000X0.000106X-0.220227X0.216161X-0.042125X-0.000106X0.220227X-0.216161X0.042125X0*%
%TD*%
%TA.AperFunction,SMDPad,CuDef*%
%ADD15C,1.000000*%
%TD*%
%TA.AperFunction,WasherPad*%
%ADD16C,1.300000*%
%TD*%
%TA.AperFunction,SMDPad,CuDef*%
%ADD17RotRect,0.584200X1.320800X309.500000*%
%TD*%
%TA.AperFunction,SMDPad,CuDef*%
%ADD18RotRect,0.889000X0.863600X292.500000*%
%TD*%
%TA.AperFunction,SMDPad,CuDef*%
%ADD19RotRect,0.508000X0.863600X292.500000*%
%TD*%
%TA.AperFunction,SMDPad,CuDef*%
%ADD20RoundRect,0.140000X-0.000106X0.220227X-0.216161X0.042125X0.000106X-0.220227X0.216161X-0.042125X0*%
%TD*%
%TA.AperFunction,SMDPad,CuDef*%
%ADD21RoundRect,0.030000X0.257898X-0.291185X0.379707X-0.084394X-0.257898X0.291185X-0.379707X0.084394X0*%
%TD*%
%TA.AperFunction,SMDPad,CuDef*%
%ADD22RoundRect,0.040000X0.228980X-0.320574X0.391393X-0.044853X-0.228980X0.320574X-0.391393X0.044853X0*%
%TD*%
%TA.AperFunction,SMDPad,CuDef*%
%ADD23RoundRect,0.140000X0.206910X0.075422X-0.034347X0.217532X-0.206910X-0.075422X0.034347X-0.217532X0*%
%TD*%
%TA.AperFunction,SMDPad,CuDef*%
%ADD24RoundRect,0.140000X-0.206910X-0.075422X0.034347X-0.217532X0.206910X0.075422X-0.034347X0.217532X0*%
%TD*%
%TA.AperFunction,SMDPad,CuDef*%
%ADD25RotRect,0.889000X0.863600X112.500000*%
%TD*%
%TA.AperFunction,SMDPad,CuDef*%
%ADD26RotRect,0.508000X0.863600X112.500000*%
%TD*%
%TA.AperFunction,Conductor*%
%ADD27C,0.200000*%
%TD*%
G04 APERTURE END LIST*
D10*
%TO.P,FPC1,1,1*%
%TO.N,Net-(J1-Pin_1)*%
X-9521890Y26050097D03*
%TO.P,FPC1,2,2*%
%TO.N,V_USB*%
X-9268121Y26480911D03*
%TO.P,FPC1,3,3*%
%TO.N,GND*%
X-9014352Y26911726D03*
%TO.P,FPC1,4,4*%
%TO.N,unconnected-(FPC1-Pad4)*%
X-8760583Y27342540D03*
%TO.P,FPC1,5,5*%
%TO.N,Net-(U1-+VS{slash}GND)*%
X-8506814Y27773355D03*
%TO.P,FPC1,6,6*%
%TO.N,Net-(U1-GND{slash}+VS)*%
X-8253044Y28204169D03*
D11*
%TO.P,FPC1,7,7*%
%TO.N,unconnected-(FPC1-Pad7)*%
X-7866740Y23914546D03*
%TO.P,FPC1,8,8*%
%TO.N,GND*%
X-5582817Y27791877D03*
%TD*%
D12*
%TO.P,J8,1,Pin_1*%
%TO.N,Net-(J1-Pin_1)*%
X16672164Y19033616D03*
%TD*%
%TO.P,J33,1,Pin_1*%
%TO.N,GND*%
X74130483Y-9102334D03*
%TD*%
D13*
%TO.P,U4,1,GND*%
%TO.N,GND*%
X-6068103Y-6189200D03*
%TO.P,U4,2,VOUT*%
%TO.N,V_USB*%
X-7276653Y-4723111D03*
%TO.P,U4,3,VIN*%
%TO.N,Net-(U1-+VS)*%
X-8240320Y-6748666D03*
%TD*%
D12*
%TO.P,J39,1,Pin_1*%
%TO.N,Net-(J5-Pin_1)*%
X67044016Y6447499D03*
%TD*%
D13*
%TO.P,U8,1,GND*%
%TO.N,GND*%
X18431897Y-6189200D03*
%TO.P,U8,2,VOUT*%
%TO.N,V_USB*%
X17223347Y-4723111D03*
%TO.P,U8,3,VIN*%
%TO.N,Net-(U1-+VS)*%
X16259680Y-6748666D03*
%TD*%
D14*
%TO.P,C17,1,1*%
%TO.N,Net-(U1-+VS)*%
X43336025Y-7740647D03*
%TO.P,C17,2,2*%
%TO.N,GND*%
X44076785Y-7130011D03*
%TD*%
D15*
%TO.P,REF\u002A\u002A,*%
%TO.N,*%
X-6273800Y35915600D03*
%TD*%
D16*
%TO.P,,*%
%TO.N,*%
X82880200Y-20853400D03*
%TD*%
D15*
%TO.P,REF\u002A\u002A,*%
%TO.N,*%
X75514200Y35687000D03*
%TD*%
D12*
%TO.P,J20,1,Pin_1*%
%TO.N,Net-(J1-Pin_1)*%
X41172164Y19033616D03*
%TD*%
%TO.P,J3,1,Pin_1*%
%TO.N,Net-(J3-Pin_1)*%
X-2356164Y-8814468D03*
%TD*%
D17*
%TO.P,U6,1,GND*%
%TO.N,GND*%
X31551962Y27590113D03*
%TO.P,U6,2,VOUT*%
%TO.N,V_USB*%
X32760512Y26124024D03*
%TO.P,U6,3,VIN*%
%TO.N,Net-(U1-+VS)*%
X33724179Y28149579D03*
%TD*%
D14*
%TO.P,C23,1,1*%
%TO.N,Net-(U1-+VS)*%
X67836025Y-7740647D03*
%TO.P,C23,2,2*%
%TO.N,GND*%
X68576785Y-7130011D03*
%TD*%
D12*
%TO.P,J14,1,Pin_1*%
%TO.N,Net-(J3-Pin_1)*%
X33681953Y17395756D03*
%TD*%
D18*
%TO.P,U15,1,GND*%
%TO.N,GND*%
X75862476Y-7986003D03*
D19*
%TO.P,U15,2,GND/+VS*%
%TO.N,Net-(U1-GND{slash}+VS)*%
X76516673Y-9565375D03*
%TO.P,U15,3,+VS/GND*%
%TO.N,Net-(U1-+VS{slash}GND)*%
X78731767Y-8647855D03*
%TO.P,U15,4,+VS*%
%TO.N,Net-(U1-+VS)*%
X78004667Y-6892482D03*
%TD*%
D20*
%TO.P,C3,1*%
%TO.N,Net-(U1-+VS)*%
X5952900Y29963617D03*
%TO.P,C3,2*%
%TO.N,GND*%
X5212140Y29352981D03*
%TD*%
D21*
%TO.P,FPC8,1,1*%
%TO.N,Net-(J1-Pin_1)*%
X84005749Y-4649185D03*
%TO.P,FPC8,2,2*%
%TO.N,V_USB*%
X83751980Y-5079999D03*
%TO.P,FPC8,3,3*%
%TO.N,GND*%
X83498211Y-5510814D03*
%TO.P,FPC8,4,4*%
%TO.N,unconnected-(FPC1-Pad4)*%
X83244442Y-5941628D03*
%TO.P,FPC8,5,5*%
%TO.N,Net-(U1-+VS{slash}GND)*%
X82990673Y-6372443D03*
%TO.P,FPC8,6,6*%
%TO.N,Net-(U1-GND{slash}+VS)*%
X82736903Y-6803257D03*
D22*
%TO.P,FPC8,7,7*%
%TO.N,unconnected-(FPC1-Pad7)*%
X82350599Y-2513634D03*
%TO.P,FPC8,8,8*%
%TO.N,GND*%
X80066676Y-6390965D03*
%TD*%
D12*
%TO.P,J23,1,Pin_1*%
%TO.N,Net-(J3-Pin_1)*%
X46643836Y-8814468D03*
%TD*%
%TO.P,J1,1,Pin_1*%
%TO.N,Net-(J1-Pin_1)*%
X8811695Y2367297D03*
%TD*%
%TO.P,J29,1,Pin_1*%
%TO.N,Net-(J5-Pin_1)*%
X56567611Y5097184D03*
%TD*%
D23*
%TO.P,C24,1,1*%
%TO.N,Net-(U1-+VS{slash}GND)*%
X81151635Y-8074121D03*
%TO.P,C24,2,2*%
%TO.N,Net-(U1-GND{slash}+VS)*%
X80324471Y-7586885D03*
%TD*%
%TO.P,C6,1,1*%
%TO.N,Net-(U1-+VS{slash}GND)*%
X7651635Y-8074121D03*
%TO.P,C6,2,2*%
%TO.N,Net-(U1-GND{slash}+VS)*%
X6824471Y-7586885D03*
%TD*%
D14*
%TO.P,C10,1*%
%TO.N,Net-(U1-+VS)*%
X19530961Y-8562703D03*
%TO.P,C10,2*%
%TO.N,GND*%
X20271721Y-7952067D03*
%TD*%
D23*
%TO.P,C12,1,1*%
%TO.N,Net-(U1-+VS{slash}GND)*%
X32151635Y-8074121D03*
%TO.P,C12,2,2*%
%TO.N,Net-(U1-GND{slash}+VS)*%
X31324471Y-7586885D03*
%TD*%
D12*
%TO.P,J42,1,Pin_1*%
%TO.N,Net-(J5-Pin_1)*%
X66916248Y16303729D03*
%TD*%
D18*
%TO.P,U3,1,GND*%
%TO.N,GND*%
X2362476Y-7986003D03*
D19*
%TO.P,U3,2,GND/+VS*%
%TO.N,Net-(U1-GND{slash}+VS)*%
X3016673Y-9565375D03*
%TO.P,U3,3,+VS/GND*%
%TO.N,Net-(U1-+VS{slash}GND)*%
X5231767Y-8647855D03*
%TO.P,U3,4,+VS*%
%TO.N,Net-(U1-+VS)*%
X4504667Y-6892482D03*
%TD*%
D17*
%TO.P,U2,1,GND*%
%TO.N,GND*%
X7051962Y27590113D03*
%TO.P,U2,2,VOUT*%
%TO.N,V_USB*%
X8260512Y26124024D03*
%TO.P,U2,3,VIN*%
%TO.N,Net-(U1-+VS)*%
X9224179Y28149579D03*
%TD*%
D12*
%TO.P,J12,1,Pin_1*%
%TO.N,Net-(J3-Pin_1)*%
X27840024Y30215380D03*
%TD*%
D17*
%TO.P,U10,1,GND*%
%TO.N,GND*%
X56051962Y27590113D03*
%TO.P,U10,2,VOUT*%
%TO.N,V_USB*%
X57260512Y26124024D03*
%TO.P,U10,3,VIN*%
%TO.N,Net-(U1-+VS)*%
X58224179Y28149579D03*
%TD*%
D20*
%TO.P,C14,1,1*%
%TO.N,Net-(U1-+VS)*%
X55647835Y29141559D03*
%TO.P,C14,2,2*%
%TO.N,GND*%
X54907075Y28530923D03*
%TD*%
D12*
%TO.P,J6,1,Pin_1*%
%TO.N,Net-(J5-Pin_1)*%
X-6583752Y16303729D03*
%TD*%
D21*
%TO.P,FPC2,1,1*%
%TO.N,Net-(J1-Pin_1)*%
X10505749Y-4649185D03*
%TO.P,FPC2,2,2*%
%TO.N,V_USB*%
X10251980Y-5079999D03*
%TO.P,FPC2,3,3*%
%TO.N,GND*%
X9998211Y-5510814D03*
%TO.P,FPC2,4,4*%
%TO.N,unconnected-(FPC1-Pad4)*%
X9744442Y-5941628D03*
%TO.P,FPC2,5,5*%
%TO.N,Net-(U1-+VS{slash}GND)*%
X9490673Y-6372443D03*
%TO.P,FPC2,6,6*%
%TO.N,Net-(U1-GND{slash}+VS)*%
X9236903Y-6803257D03*
D22*
%TO.P,FPC2,7,7*%
%TO.N,unconnected-(FPC1-Pad7)*%
X8850599Y-2513634D03*
%TO.P,FPC2,8,8*%
%TO.N,GND*%
X6566676Y-6390965D03*
%TD*%
D12*
%TO.P,J28,1,Pin_1*%
%TO.N,Net-(J5-Pin_1)*%
X56439844Y14953413D03*
%TD*%
%TO.P,J36,1,Pin_1*%
%TO.N,Net-(J3-Pin_1)*%
X76840024Y30215380D03*
%TD*%
D24*
%TO.P,C7,1,1*%
%TO.N,Net-(U1-+VS{slash}GND)*%
X17832225Y29475032D03*
%TO.P,C7,2,2*%
%TO.N,Net-(U1-GND{slash}+VS)*%
X18659389Y28987796D03*
%TD*%
D14*
%TO.P,C4,1*%
%TO.N,Net-(U1-+VS)*%
X-4969039Y-8562703D03*
%TO.P,C4,2*%
%TO.N,GND*%
X-4228279Y-7952067D03*
%TD*%
D10*
%TO.P,FPC7,1,1*%
%TO.N,Net-(J1-Pin_1)*%
X63978110Y26050097D03*
%TO.P,FPC7,2,2*%
%TO.N,V_USB*%
X64231879Y26480911D03*
%TO.P,FPC7,3,3*%
%TO.N,GND*%
X64485648Y26911726D03*
%TO.P,FPC7,4,4*%
%TO.N,unconnected-(FPC1-Pad4)*%
X64739417Y27342540D03*
%TO.P,FPC7,5,5*%
%TO.N,Net-(U1-+VS{slash}GND)*%
X64993186Y27773355D03*
%TO.P,FPC7,6,6*%
%TO.N,Net-(U1-GND{slash}+VS)*%
X65246956Y28204169D03*
D11*
%TO.P,FPC7,7,7*%
%TO.N,unconnected-(FPC1-Pad7)*%
X65633260Y23914546D03*
%TO.P,FPC7,8,8*%
%TO.N,GND*%
X67917183Y27791877D03*
%TD*%
D10*
%TO.P,FPC3,1,1*%
%TO.N,Net-(J1-Pin_1)*%
X14978110Y26050097D03*
%TO.P,FPC3,2,2*%
%TO.N,V_USB*%
X15231879Y26480911D03*
%TO.P,FPC3,3,3*%
%TO.N,GND*%
X15485648Y26911726D03*
%TO.P,FPC3,4,4*%
%TO.N,unconnected-(FPC1-Pad4)*%
X15739417Y27342540D03*
%TO.P,FPC3,5,5*%
%TO.N,Net-(U1-+VS{slash}GND)*%
X15993186Y27773355D03*
%TO.P,FPC3,6,6*%
%TO.N,Net-(U1-GND{slash}+VS)*%
X16246956Y28204169D03*
D11*
%TO.P,FPC3,7,7*%
%TO.N,unconnected-(FPC1-Pad7)*%
X16633260Y23914546D03*
%TO.P,FPC3,8,8*%
%TO.N,GND*%
X18917183Y27791877D03*
%TD*%
D12*
%TO.P,J13,1,Pin_1*%
%TO.N,Net-(J3-Pin_1)*%
X16301907Y4005156D03*
%TD*%
%TO.P,J2,1,Pin_1*%
%TO.N,GND*%
X630483Y-9102334D03*
%TD*%
%TO.P,J18,1,Pin_1*%
%TO.N,Net-(J5-Pin_1)*%
X17916248Y16303729D03*
%TD*%
D16*
%TO.P,,*%
%TO.N,*%
X-8864600Y42976800D03*
%TD*%
D20*
%TO.P,C9,1*%
%TO.N,Net-(U1-+VS)*%
X30452900Y29963617D03*
%TO.P,C9,2*%
%TO.N,GND*%
X29712140Y29352981D03*
%TD*%
D12*
%TO.P,J35,1,Pin_1*%
%TO.N,Net-(J3-Pin_1)*%
X71143836Y-8814468D03*
%TD*%
%TO.P,J32,1,Pin_1*%
%TO.N,Net-(J1-Pin_1)*%
X65672164Y19033616D03*
%TD*%
%TO.P,J15,1,Pin_1*%
%TO.N,Net-(J5-Pin_1)*%
X18044016Y6447499D03*
%TD*%
%TO.P,J5,1,Pin_1*%
%TO.N,Net-(J5-Pin_1)*%
X-6455984Y6447499D03*
%TD*%
D21*
%TO.P,FPC4,1,1*%
%TO.N,Net-(J1-Pin_1)*%
X35005749Y-4649185D03*
%TO.P,FPC4,2,2*%
%TO.N,V_USB*%
X34751980Y-5079999D03*
%TO.P,FPC4,3,3*%
%TO.N,GND*%
X34498211Y-5510814D03*
%TO.P,FPC4,4,4*%
%TO.N,unconnected-(FPC1-Pad4)*%
X34244442Y-5941628D03*
%TO.P,FPC4,5,5*%
%TO.N,Net-(U1-+VS{slash}GND)*%
X33990673Y-6372443D03*
%TO.P,FPC4,6,6*%
%TO.N,Net-(U1-GND{slash}+VS)*%
X33736903Y-6803257D03*
D22*
%TO.P,FPC4,7,7*%
%TO.N,unconnected-(FPC1-Pad7)*%
X33350599Y-2513634D03*
%TO.P,FPC4,8,8*%
%TO.N,GND*%
X31066676Y-6390965D03*
%TD*%
D25*
%TO.P,U1,1,GND*%
%TO.N,GND*%
X-1378616Y29386915D03*
D26*
%TO.P,U1,2,GND/+VS*%
%TO.N,Net-(U1-GND{slash}+VS)*%
X-2032813Y30966287D03*
%TO.P,U1,3,+VS/GND*%
%TO.N,Net-(U1-+VS{slash}GND)*%
X-4247907Y30048767D03*
%TO.P,U1,4,+VS*%
%TO.N,Net-(U1-+VS)*%
X-3520807Y28293394D03*
%TD*%
D24*
%TO.P,C1,1,1*%
%TO.N,Net-(U1-+VS{slash}GND)*%
X-6667775Y29475032D03*
%TO.P,C1,2,2*%
%TO.N,Net-(U1-GND{slash}+VS)*%
X-5840611Y28987796D03*
%TD*%
D12*
%TO.P,J6,1,Pin_1*%
%TO.N,Net-(J5-Pin_1)*%
X7567611Y5097184D03*
%TD*%
D20*
%TO.P,C21,1*%
%TO.N,Net-(U1-+VS)*%
X79452900Y29963617D03*
%TO.P,C21,2*%
%TO.N,GND*%
X78712140Y29352981D03*
%TD*%
D12*
%TO.P,J3,1,Pin_1*%
%TO.N,Net-(J3-Pin_1)*%
X3340024Y30215380D03*
%TD*%
D25*
%TO.P,U13,1,GND*%
%TO.N,GND*%
X72121384Y29386915D03*
D26*
%TO.P,U13,2,GND/+VS*%
%TO.N,Net-(U1-GND{slash}+VS)*%
X71467187Y30966287D03*
%TO.P,U13,3,+VS/GND*%
%TO.N,Net-(U1-+VS{slash}GND)*%
X69252093Y30048767D03*
%TO.P,U13,4,+VS*%
%TO.N,Net-(U1-+VS)*%
X69979193Y28293394D03*
%TD*%
D12*
%TO.P,J37,1,Pin_1*%
%TO.N,Net-(J3-Pin_1)*%
X65301907Y4005156D03*
%TD*%
D20*
%TO.P,C20,1,1*%
%TO.N,Net-(U1-+VS)*%
X80147835Y29141559D03*
%TO.P,C20,2,2*%
%TO.N,GND*%
X79407075Y28530923D03*
%TD*%
D12*
%TO.P,J41,1,Pin_1*%
%TO.N,Net-(J5-Pin_1)*%
X81067611Y5097184D03*
%TD*%
%TO.P,J19,1,Pin_1*%
%TO.N,Net-(J1-Pin_1)*%
X57811695Y2367297D03*
%TD*%
D18*
%TO.P,U7,1,GND*%
%TO.N,GND*%
X26862476Y-7986003D03*
D19*
%TO.P,U7,2,GND/+VS*%
%TO.N,Net-(U1-GND{slash}+VS)*%
X27516673Y-9565375D03*
%TO.P,U7,3,+VS/GND*%
%TO.N,Net-(U1-+VS{slash}GND)*%
X29731767Y-8647855D03*
%TO.P,U7,4,+VS*%
%TO.N,Net-(U1-+VS)*%
X29004667Y-6892482D03*
%TD*%
D12*
%TO.P,J27,1,Pin_1*%
%TO.N,Net-(J5-Pin_1)*%
X42544016Y6447499D03*
%TD*%
%TO.P,J22,1,Pin_1*%
%TO.N,GND*%
X49353377Y30503247D03*
%TD*%
D24*
%TO.P,C19,1,1*%
%TO.N,Net-(U1-+VS{slash}GND)*%
X66832225Y29475032D03*
%TO.P,C19,2,2*%
%TO.N,Net-(U1-GND{slash}+VS)*%
X67659389Y28987796D03*
%TD*%
D12*
%TO.P,J38,1,Pin_1*%
%TO.N,Net-(J3-Pin_1)*%
X82681953Y17395756D03*
%TD*%
D17*
%TO.P,U14,1,GND*%
%TO.N,GND*%
X80551962Y27590113D03*
%TO.P,U14,2,VOUT*%
%TO.N,V_USB*%
X81760512Y26124024D03*
%TO.P,U14,3,VIN*%
%TO.N,Net-(U1-+VS)*%
X82724179Y28149579D03*
%TD*%
D15*
%TO.P,REF\u002A\u002A,*%
%TO.N,*%
X81661000Y-15392400D03*
%TD*%
D12*
%TO.P,J21,1,Pin_1*%
%TO.N,GND*%
X49630483Y-9102334D03*
%TD*%
%TO.P,J25,1,Pin_1*%
%TO.N,Net-(J3-Pin_1)*%
X40801907Y4005156D03*
%TD*%
%TO.P,J24,1,Pin_1*%
%TO.N,Net-(J3-Pin_1)*%
X52340024Y30215380D03*
%TD*%
%TO.P,J30,1,Pin_1*%
%TO.N,Net-(J5-Pin_1)*%
X42416248Y16303729D03*
%TD*%
D10*
%TO.P,FPC5,1,1*%
%TO.N,Net-(J1-Pin_1)*%
X39478110Y26050097D03*
%TO.P,FPC5,2,2*%
%TO.N,V_USB*%
X39731879Y26480911D03*
%TO.P,FPC5,3,3*%
%TO.N,GND*%
X39985648Y26911726D03*
%TO.P,FPC5,4,4*%
%TO.N,unconnected-(FPC1-Pad4)*%
X40239417Y27342540D03*
%TO.P,FPC5,5,5*%
%TO.N,Net-(U1-+VS{slash}GND)*%
X40493186Y27773355D03*
%TO.P,FPC5,6,6*%
%TO.N,Net-(U1-GND{slash}+VS)*%
X40746956Y28204169D03*
D11*
%TO.P,FPC5,7,7*%
%TO.N,unconnected-(FPC1-Pad7)*%
X41133260Y23914546D03*
%TO.P,FPC5,8,8*%
%TO.N,GND*%
X43417183Y27791877D03*
%TD*%
D24*
%TO.P,C13,1,1*%
%TO.N,Net-(U1-+VS{slash}GND)*%
X42332225Y29475032D03*
%TO.P,C13,2,2*%
%TO.N,Net-(U1-GND{slash}+VS)*%
X43159389Y28987796D03*
%TD*%
D15*
%TO.P,REF\u002A\u002A,*%
%TO.N,*%
X-8636000Y-15240000D03*
%TD*%
D25*
%TO.P,U9,1,GND*%
%TO.N,GND*%
X47621384Y29386915D03*
D26*
%TO.P,U9,2,GND/+VS*%
%TO.N,Net-(U1-GND{slash}+VS)*%
X46967187Y30966287D03*
%TO.P,U9,3,+VS/GND*%
%TO.N,Net-(U1-+VS{slash}GND)*%
X44752093Y30048767D03*
%TO.P,U9,4,+VS*%
%TO.N,Net-(U1-+VS)*%
X45479193Y28293394D03*
%TD*%
D13*
%TO.P,U16,1,GND*%
%TO.N,GND*%
X67431897Y-6189200D03*
%TO.P,U16,2,VOUT*%
%TO.N,V_USB*%
X66223347Y-4723111D03*
%TO.P,U16,3,VIN*%
%TO.N,Net-(U1-+VS)*%
X65259680Y-6748666D03*
%TD*%
%TO.P,U12,1,GND*%
%TO.N,GND*%
X42931897Y-6189200D03*
%TO.P,U12,2,VOUT*%
%TO.N,V_USB*%
X41723347Y-4723111D03*
%TO.P,U12,3,VIN*%
%TO.N,Net-(U1-+VS)*%
X40759680Y-6748666D03*
%TD*%
D12*
%TO.P,J17,1,Pin_1*%
%TO.N,Net-(J5-Pin_1)*%
X32067611Y5097184D03*
%TD*%
%TO.P,J9,1,Pin_1*%
%TO.N,GND*%
X25130483Y-9102334D03*
%TD*%
%TO.P,J4,1,Pin_1*%
%TO.N,Net-(J3-Pin_1)*%
X9181953Y17395756D03*
%TD*%
D14*
%TO.P,C5,1,1*%
%TO.N,Net-(U1-+VS)*%
X-5663975Y-7740647D03*
%TO.P,C5,2,2*%
%TO.N,GND*%
X-4923215Y-7130011D03*
%TD*%
%TO.P,C22,1*%
%TO.N,Net-(U1-+VS)*%
X68530961Y-8562703D03*
%TO.P,C22,2*%
%TO.N,GND*%
X69271721Y-7952067D03*
%TD*%
%TO.P,C16,1*%
%TO.N,Net-(U1-+VS)*%
X44030961Y-8562703D03*
%TO.P,C16,2*%
%TO.N,GND*%
X44771721Y-7952067D03*
%TD*%
D12*
%TO.P,J7,1,Pin_1*%
%TO.N,Net-(J1-Pin_1)*%
X33311695Y2367297D03*
%TD*%
D25*
%TO.P,U5,1,GND*%
%TO.N,GND*%
X23121384Y29386915D03*
D26*
%TO.P,U5,2,GND/+VS*%
%TO.N,Net-(U1-GND{slash}+VS)*%
X22467187Y30966287D03*
%TO.P,U5,3,+VS/GND*%
%TO.N,Net-(U1-+VS{slash}GND)*%
X20252093Y30048767D03*
%TO.P,U5,4,+VS*%
%TO.N,Net-(U1-+VS)*%
X20979193Y28293394D03*
%TD*%
D20*
%TO.P,C2,1,1*%
%TO.N,Net-(U1-+VS)*%
X6647835Y29141559D03*
%TO.P,C2,2,2*%
%TO.N,GND*%
X5907075Y28530923D03*
%TD*%
D14*
%TO.P,C11,1,1*%
%TO.N,Net-(U1-+VS)*%
X18836025Y-7740647D03*
%TO.P,C11,2,2*%
%TO.N,GND*%
X19576785Y-7130011D03*
%TD*%
D20*
%TO.P,C15,1*%
%TO.N,Net-(U1-+VS)*%
X54952900Y29963617D03*
%TO.P,C15,2*%
%TO.N,GND*%
X54212140Y29352981D03*
%TD*%
D12*
%TO.P,J16,1,Pin_1*%
%TO.N,Net-(J5-Pin_1)*%
X31939844Y14953413D03*
%TD*%
D16*
%TO.P,,*%
%TO.N,*%
X82143600Y41427400D03*
%TD*%
D12*
%TO.P,J4,1,Pin_1*%
%TO.N,Net-(J3-Pin_1)*%
X-8198093Y4005156D03*
%TD*%
%TO.P,J11,1,Pin_1*%
%TO.N,Net-(J3-Pin_1)*%
X22143836Y-8814468D03*
%TD*%
%TO.P,J34,1,Pin_1*%
%TO.N,GND*%
X73853377Y30503247D03*
%TD*%
%TO.P,J26,1,Pin_1*%
%TO.N,Net-(J3-Pin_1)*%
X58181953Y17395756D03*
%TD*%
%TO.P,J40,1,Pin_1*%
%TO.N,Net-(J5-Pin_1)*%
X80939844Y14953413D03*
%TD*%
D20*
%TO.P,C8,1,1*%
%TO.N,Net-(U1-+VS)*%
X31147835Y29141559D03*
%TO.P,C8,2,2*%
%TO.N,GND*%
X30407075Y28530923D03*
%TD*%
D12*
%TO.P,J2,1,Pin_1*%
%TO.N,GND*%
X353377Y30503247D03*
%TD*%
%TO.P,J10,1,Pin_1*%
%TO.N,GND*%
X24853377Y30503247D03*
%TD*%
D21*
%TO.P,FPC6,1,1*%
%TO.N,Net-(J1-Pin_1)*%
X59505749Y-4649185D03*
%TO.P,FPC6,2,2*%
%TO.N,V_USB*%
X59251980Y-5079999D03*
%TO.P,FPC6,3,3*%
%TO.N,GND*%
X58998211Y-5510814D03*
%TO.P,FPC6,4,4*%
%TO.N,unconnected-(FPC1-Pad4)*%
X58744442Y-5941628D03*
%TO.P,FPC6,5,5*%
%TO.N,Net-(U1-+VS{slash}GND)*%
X58490673Y-6372443D03*
%TO.P,FPC6,6,6*%
%TO.N,Net-(U1-GND{slash}+VS)*%
X58236903Y-6803257D03*
D22*
%TO.P,FPC6,7,7*%
%TO.N,unconnected-(FPC1-Pad7)*%
X57850599Y-2513634D03*
%TO.P,FPC6,8,8*%
%TO.N,GND*%
X55566676Y-6390965D03*
%TD*%
D18*
%TO.P,U11,1,GND*%
%TO.N,GND*%
X51362476Y-7986003D03*
D19*
%TO.P,U11,2,GND/+VS*%
%TO.N,Net-(U1-GND{slash}+VS)*%
X52016673Y-9565375D03*
%TO.P,U11,3,+VS/GND*%
%TO.N,Net-(U1-+VS{slash}GND)*%
X54231767Y-8647855D03*
%TO.P,U11,4,+VS*%
%TO.N,Net-(U1-+VS)*%
X53504667Y-6892482D03*
%TD*%
D23*
%TO.P,C18,1,1*%
%TO.N,Net-(U1-+VS{slash}GND)*%
X56651635Y-8074121D03*
%TO.P,C18,2,2*%
%TO.N,Net-(U1-GND{slash}+VS)*%
X55824471Y-7586885D03*
%TD*%
D12*
%TO.P,J31,1,Pin_1*%
%TO.N,Net-(J1-Pin_1)*%
X82311695Y2367297D03*
%TD*%
%TO.P,J5,1,Pin_1*%
%TO.N,Net-(J5-Pin_1)*%
X7439844Y14953413D03*
%TD*%
%TO.P,J1,1,Pin_1*%
%TO.N,Net-(J1-Pin_1)*%
X-7827836Y19033616D03*
%TD*%
D27*
%TO.N,Net-(U1-+VS{slash}GND)*%
X56137322Y-8301797D02*
G75*
G03*
X54540287Y-8510747I-317822J-3778503D01*
G01*
X82881752Y-7946380D02*
G75*
G03*
X83584661Y-7001564I-2884952J2880180D01*
G01*
X18346537Y29702702D02*
G75*
G03*
X17842874Y29498240I-1737J-718302D01*
G01*
X15480148Y28089484D02*
G75*
G03*
X15981489Y27794938I2007452J2842916D01*
G01*
X10003715Y-6688569D02*
G75*
G03*
X9502371Y-6394026I-2007315J-2842731D01*
G01*
X40602101Y29347299D02*
G75*
G03*
X39899199Y28402475I2884899J-2880099D01*
G01*
X7675761Y-8088335D02*
G75*
G03*
X8448345Y-8278107I1032039J2534035D01*
G01*
X-9019853Y28089482D02*
G75*
G03*
X-8518511Y27794938I2007437J2842911D01*
G01*
X33881752Y-7946380D02*
G75*
G03*
X34584661Y-7001564I-2884952J2880180D01*
G01*
X39899185Y28402483D02*
G75*
G03*
X39980147Y28089482I200215J-115183D01*
G01*
X-8397897Y29347297D02*
G75*
G03*
X-9100801Y28402475I2884876J-2880088D01*
G01*
X8448345Y-8278108D02*
G75*
G03*
X9381757Y-7946385I208945J891158D01*
G01*
X34503715Y-6688569D02*
G75*
G03*
X34002371Y-6394026I-2007315J-2842731D01*
G01*
X7137322Y-8301765D02*
G75*
G03*
X7640985Y-8097328I1778J718265D01*
G01*
X-6691902Y29489246D02*
G75*
G03*
X-7464485Y29679019I-1032050J-2534056D01*
G01*
X10084701Y-7001587D02*
G75*
G03*
X10003714Y-6688570I-200201J115187D01*
G01*
X67346539Y29702726D02*
G75*
G03*
X68943572Y29911660I317861J3778474D01*
G01*
X-9100802Y28402475D02*
G75*
G03*
X-9019853Y28089482I200203J-115186D01*
G01*
X17035525Y29679063D02*
G75*
G03*
X16102103Y29347297I-208925J-891163D01*
G01*
X66035525Y29679063D02*
G75*
G03*
X65102103Y29347297I-208925J-891163D01*
G01*
X7137322Y-8301797D02*
G75*
G03*
X5540287Y-8510747I-317822J-3778503D01*
G01*
X42846539Y29702726D02*
G75*
G03*
X44443572Y29911660I317861J3778474D01*
G01*
X-7464485Y29679018D02*
G75*
G03*
X-8397897Y29347297I-208946J-891158D01*
G01*
X15399185Y28402483D02*
G75*
G03*
X15480147Y28089482I200215J-115183D01*
G01*
X17808092Y29489232D02*
G75*
G03*
X17035515Y29679018I-1032092J-2534032D01*
G01*
X56137322Y-8301765D02*
G75*
G03*
X56640985Y-8097328I1778J718265D01*
G01*
X80637322Y-8301797D02*
G75*
G03*
X79040287Y-8510747I-317822J-3778503D01*
G01*
X59003715Y-6688569D02*
G75*
G03*
X58502371Y-6394026I-2007315J-2842731D01*
G01*
X9381752Y-7946380D02*
G75*
G03*
X10084661Y-7001564I-2884952J2880180D01*
G01*
X83503715Y-6688569D02*
G75*
G03*
X83002371Y-6394026I-2007315J-2842731D01*
G01*
X42308092Y29489232D02*
G75*
G03*
X41535515Y29679018I-1032092J-2534032D01*
G01*
X18346539Y29702726D02*
G75*
G03*
X19943572Y29911660I317861J3778474D01*
G01*
X42846537Y29702702D02*
G75*
G03*
X42342874Y29498240I-1737J-718302D01*
G01*
X-6153463Y29702704D02*
G75*
G03*
X-4556428Y29911660I317814J3778473D01*
G01*
X31637322Y-8301765D02*
G75*
G03*
X32140985Y-8097328I1778J718265D01*
G01*
X58381752Y-7946380D02*
G75*
G03*
X59084661Y-7001564I-2884952J2880180D01*
G01*
X66808092Y29489232D02*
G75*
G03*
X66035515Y29679018I-1032092J-2534032D01*
G01*
X34584701Y-7001587D02*
G75*
G03*
X34503714Y-6688570I-200201J115187D01*
G01*
X56675761Y-8088335D02*
G75*
G03*
X57448345Y-8278107I1032039J2534035D01*
G01*
X81175761Y-8088335D02*
G75*
G03*
X81948345Y-8278107I1032039J2534035D01*
G01*
X31637322Y-8301797D02*
G75*
G03*
X30040287Y-8510747I-317822J-3778503D01*
G01*
X59084701Y-7001587D02*
G75*
G03*
X59003714Y-6688570I-200201J115187D01*
G01*
X16102101Y29347299D02*
G75*
G03*
X15399199Y28402475I2884899J-2880099D01*
G01*
X41535525Y29679063D02*
G75*
G03*
X40602103Y29347297I-208925J-891163D01*
G01*
X32175761Y-8088335D02*
G75*
G03*
X32948345Y-8278107I1032039J2534035D01*
G01*
X83584701Y-7001587D02*
G75*
G03*
X83503714Y-6688570I-200201J115187D01*
G01*
X39980148Y28089484D02*
G75*
G03*
X40481489Y27794938I2007452J2842916D01*
G01*
X81948351Y-8278079D02*
G75*
G03*
X82881756Y-7946385I208949J891179D01*
G01*
X64480148Y28089484D02*
G75*
G03*
X64981489Y27794938I2007452J2842916D01*
G01*
X65102101Y29347299D02*
G75*
G03*
X64399199Y28402475I2884899J-2880099D01*
G01*
X57448351Y-8278079D02*
G75*
G03*
X58381756Y-7946385I208949J891179D01*
G01*
X67346537Y29702702D02*
G75*
G03*
X66842874Y29498240I-1737J-718302D01*
G01*
X64399185Y28402483D02*
G75*
G03*
X64480147Y28089482I200215J-115183D01*
G01*
X-6153463Y29702704D02*
G75*
G03*
X-6657126Y29498240I-1739J-718293D01*
G01*
X80637322Y-8301765D02*
G75*
G03*
X81140985Y-8097328I1778J718265D01*
G01*
X32948351Y-8278079D02*
G75*
G03*
X33881756Y-7946385I208949J891179D01*
G01*
%TO.N,Net-(U1-GND{slash}+VS)*%
X43448835Y29023652D02*
G75*
G03*
X44341341Y29087508I324465J1734148D01*
G01*
X82379840Y-6607400D02*
G75*
G03*
X81653518Y-6775058I-260840J-527100D01*
G01*
X31434357Y-7445252D02*
G75*
G03*
X32653516Y-6775057I-1196057J3619752D01*
G01*
X41103986Y28008242D02*
G75*
G03*
X41830342Y28175971I260814J527158D01*
G01*
X18549505Y28846158D02*
G75*
G03*
X17330344Y28175969I1196095J-3619858D01*
G01*
X31035029Y-7622720D02*
G75*
G03*
X30142519Y-7686595I-324429J-1734180D01*
G01*
X18948835Y29023652D02*
G75*
G03*
X19841341Y29087508I324465J1734148D01*
G01*
X-4658659Y29087508D02*
G75*
G03*
X-2151425Y30941764I-1464400J4602297D01*
G01*
X30142523Y-7686607D02*
G75*
G03*
X27635285Y-9540851I1464377J-4602293D01*
G01*
X43049505Y28846158D02*
G75*
G03*
X41830344Y28175969I1196095J-3619858D01*
G01*
X6535029Y-7622720D02*
G75*
G03*
X5642519Y-7686595I-324429J-1734180D01*
G01*
X33379840Y-6607400D02*
G75*
G03*
X32653518Y-6775058I-260840J-527100D01*
G01*
X67549505Y28846158D02*
G75*
G03*
X66330344Y28175969I1196095J-3619858D01*
G01*
X16603986Y28008242D02*
G75*
G03*
X17330342Y28175971I260814J527158D01*
G01*
X80434357Y-7445252D02*
G75*
G03*
X81653516Y-6775057I-1196057J3619752D01*
G01*
X-5551165Y29023653D02*
G75*
G03*
X-4658659Y29087508I324468J1734128D01*
G01*
X5642520Y-7686597D02*
G75*
G03*
X3135284Y-9540851I1464400J-4602303D01*
G01*
X79142523Y-7686607D02*
G75*
G03*
X76635285Y-9540851I1464377J-4602293D01*
G01*
X65603986Y28008242D02*
G75*
G03*
X66330342Y28175971I260814J527158D01*
G01*
X80035029Y-7622720D02*
G75*
G03*
X79142519Y-7686595I-324429J-1734180D01*
G01*
X8879840Y-6607400D02*
G75*
G03*
X8153518Y-6775058I-260840J-527100D01*
G01*
X67948835Y29023652D02*
G75*
G03*
X68841341Y29087508I324465J1734148D01*
G01*
X68841348Y29087486D02*
G75*
G03*
X71348575Y30941764I-1464448J4602314D01*
G01*
X55934357Y-7445252D02*
G75*
G03*
X57153516Y-6775057I-1196057J3619752D01*
G01*
X44341348Y29087486D02*
G75*
G03*
X46848575Y30941764I-1464448J4602314D01*
G01*
X55535029Y-7622720D02*
G75*
G03*
X54642519Y-7686595I-324429J-1734180D01*
G01*
X-7895990Y28008292D02*
G75*
G03*
X-7169657Y28175970I260825J527151D01*
G01*
X19841340Y29087509D02*
G75*
G03*
X22348576Y30941764I-1464400J4602301D01*
G01*
X54642523Y-7686607D02*
G75*
G03*
X52135285Y-9540851I1464377J-4602293D01*
G01*
X6934357Y-7445252D02*
G75*
G03*
X8153516Y-6775057I-1196057J3619752D01*
G01*
X57879840Y-6607400D02*
G75*
G03*
X57153518Y-6775058I-260840J-527100D01*
G01*
X-5950500Y28846172D02*
G75*
G03*
X-7169657Y28175969I1196137J-3619853D01*
G01*
%TO.N,Net-(U1-+VS)*%
X51596591Y-8871378D02*
G75*
G03*
X52723542Y-8055236I-490391J1863278D01*
G01*
X-2739684Y29456148D02*
G75*
G03*
X-3324849Y28449229I4393274J-3226618D01*
G01*
X-8669944Y-6861503D02*
G75*
G03*
X-7628439Y-7445517I939891J455466D01*
G01*
X3723541Y-8055235D02*
G75*
G03*
X4308708Y-7048317I-4393416J3226709D01*
G01*
X51596586Y-8871376D02*
G75*
G03*
X51079087Y-9832557I379314J-824124D01*
G01*
X77140790Y32651482D02*
G75*
G03*
X73338932Y32782278I-2739690J-24314882D01*
G01*
X71887270Y30272297D02*
G75*
G03*
X72404774Y31233470I-379270J824103D01*
G01*
X52723540Y-8055235D02*
G75*
G03*
X53308709Y-7048317I-4393440J3226735D01*
G01*
X31161241Y29164321D02*
G75*
G03*
X33112298Y28846432I1414259J2533779D01*
G01*
X83153818Y28262423D02*
G75*
G03*
X82112298Y28846431I-939918J-455523D01*
G01*
X70760320Y29456146D02*
G75*
G03*
X70175151Y28449229I4393280J-3226646D01*
G01*
X76096591Y-8871378D02*
G75*
G03*
X77223542Y-8055236I-490391J1863278D01*
G01*
X15829994Y-6861532D02*
G75*
G03*
X16871561Y-7445518I939906J455532D01*
G01*
X48838933Y32782277D02*
G75*
G03*
X47904776Y31233470I418317J-1308427D01*
G01*
X77223540Y-8055235D02*
G75*
G03*
X77808709Y-7048317I-4393440J3226735D01*
G01*
X27096591Y-8871378D02*
G75*
G03*
X28223542Y-8055236I-490391J1863278D01*
G01*
X22887270Y30272297D02*
G75*
G03*
X23404774Y31233470I-379270J824103D01*
G01*
X76096586Y-8871376D02*
G75*
G03*
X75579087Y-9832557I379314J-824124D01*
G01*
X73338905Y32782363D02*
G75*
G03*
X72404776Y31233470I418395J-1308463D01*
G01*
X55661241Y29164321D02*
G75*
G03*
X57612298Y28846432I1414259J2533779D01*
G01*
X40329994Y-6861532D02*
G75*
G03*
X41371561Y-7445518I939906J455532D01*
G01*
X47387270Y30272297D02*
G75*
G03*
X47904774Y31233470I-379270J824103D01*
G01*
X-1612736Y30272308D02*
G75*
G03*
X-1095225Y31233470I-379262J824104D01*
G01*
X-161067Y32782277D02*
G75*
G03*
X-1095224Y31233470I418317J-1308427D01*
G01*
X19693585Y-8960414D02*
G75*
G03*
X18836024Y-7740648I-3558085J-1590186D01*
G01*
X79290245Y30361329D02*
G75*
G03*
X77140791Y32651487I-2450245J-145929D01*
G01*
X79290286Y30361333D02*
G75*
G03*
X80147835Y29141561I3558114J1590167D01*
G01*
X5790281Y30361331D02*
G75*
G03*
X3640791Y32651487I-2450251J-145941D01*
G01*
X58653818Y28262423D02*
G75*
G03*
X57612298Y28846431I-939918J-455523D01*
G01*
X80161241Y29164321D02*
G75*
G03*
X82112298Y28846432I1414259J2533779D01*
G01*
X68693573Y-8960417D02*
G75*
G03*
X70843069Y-11250576I2450227J145917D01*
G01*
X34153818Y28262423D02*
G75*
G03*
X33112298Y28846431I-939918J-455523D01*
G01*
X54790286Y30361333D02*
G75*
G03*
X55647835Y29141561I3558114J1590167D01*
G01*
X46260320Y29456146D02*
G75*
G03*
X45675151Y28449229I4393280J-3226646D01*
G01*
X43322633Y-7763383D02*
G75*
G03*
X41371561Y-7445519I-1414233J-2533817D01*
G01*
X50144917Y-11381332D02*
G75*
G03*
X51079086Y-9832557I-418317J1308432D01*
G01*
X5790286Y30361333D02*
G75*
G03*
X6647835Y29141561I3558114J1590167D01*
G01*
X47387253Y30272349D02*
G75*
G03*
X46260318Y29456148I490447J-1863249D01*
G01*
X21760320Y29456146D02*
G75*
G03*
X21175151Y28449229I4393280J-3226646D01*
G01*
X74644917Y-11381332D02*
G75*
G03*
X75579086Y-9832557I-418317J1308432D01*
G01*
X44193585Y-8960414D02*
G75*
G03*
X43336024Y-7740648I-3558085J-1590186D01*
G01*
X22887253Y30272349D02*
G75*
G03*
X21760318Y29456148I490447J-1863249D01*
G01*
X44193573Y-8960417D02*
G75*
G03*
X46343069Y-11250576I2450227J145917D01*
G01*
X28140790Y32651482D02*
G75*
G03*
X24338932Y32782278I-2739690J-24314882D01*
G01*
X30290286Y30361333D02*
G75*
G03*
X31147835Y29141561I3558114J1590167D01*
G01*
X67822633Y-7763383D02*
G75*
G03*
X65871561Y-7445519I-1414233J-2533817D01*
G01*
X27096586Y-8871376D02*
G75*
G03*
X26579087Y-9832557I379314J-824124D01*
G01*
X3640791Y32651488D02*
G75*
G03*
X-161068Y32782278I-2739651J-24314868D01*
G01*
X18822633Y-7763383D02*
G75*
G03*
X16871561Y-7445519I-1414233J-2533817D01*
G01*
X2596596Y-8871397D02*
G75*
G03*
X2079087Y-9832557I379264J-824103D01*
G01*
X21843069Y-11250577D02*
G75*
G03*
X25644928Y-11381365I2739631J24314877D01*
G01*
X52640790Y32651482D02*
G75*
G03*
X48838932Y32782278I-2739690J-24314882D01*
G01*
X68693585Y-8960414D02*
G75*
G03*
X67836024Y-7740648I-3558085J-1590186D01*
G01*
X71887253Y30272349D02*
G75*
G03*
X70760318Y29456148I490447J-1863249D01*
G01*
X1144928Y-11381365D02*
G75*
G03*
X2079086Y-9832557I-418322J1308430D01*
G01*
X19693581Y-8960417D02*
G75*
G03*
X21843069Y-11250575I2450259J145947D01*
G01*
X25644925Y-11381357D02*
G75*
G03*
X26579086Y-9832557I-418315J1308427D01*
G01*
X30290245Y30361329D02*
G75*
G03*
X28140791Y32651487I-2450245J-145929D01*
G01*
X-5677369Y-7763387D02*
G75*
G03*
X-7628439Y-7445519I-1414240J-2533831D01*
G01*
X9653818Y28262423D02*
G75*
G03*
X8612298Y28846431I-939918J-455523D01*
G01*
X64829994Y-6861532D02*
G75*
G03*
X65871561Y-7445518I939906J455532D01*
G01*
X-4806423Y-8960417D02*
G75*
G03*
X-2656931Y-11250575I2450260J145948D01*
G01*
X2596596Y-8871398D02*
G75*
G03*
X3723542Y-8055236I-490416J1863278D01*
G01*
X54790245Y30361329D02*
G75*
G03*
X52640791Y32651487I-2450245J-145929D01*
G01*
X-4806424Y-8960417D02*
G75*
G03*
X-5663976Y-7740649I-3558092J-1590167D01*
G01*
X46343069Y-11250577D02*
G75*
G03*
X50144928Y-11381365I2739631J24314877D01*
G01*
X70843069Y-11250577D02*
G75*
G03*
X74644928Y-11381365I2739631J24314877D01*
G01*
X28223540Y-8055235D02*
G75*
G03*
X28808709Y-7048317I-4393440J3226735D01*
G01*
X-2656931Y-11250575D02*
G75*
G03*
X1144928Y-11381364I2739641J24314855D01*
G01*
X-1612736Y30272308D02*
G75*
G03*
X-2739682Y29456148I490395J-1863251D01*
G01*
X24338933Y32782277D02*
G75*
G03*
X23404776Y31233470I418317J-1308427D01*
G01*
X6661231Y29164303D02*
G75*
G03*
X8612298Y28846432I1414239J2533807D01*
G01*
%TO.N,V_USB*%
X56262903Y334916D02*
G75*
G03*
X42372306Y-2994086I-7263933J-334966D01*
G01*
X-8450297Y25388198D02*
G75*
G03*
X-8589860Y24748567I4386574J-1292161D01*
G01*
X40410135Y24748568D02*
G75*
G03*
X40628092Y23116752I2052865J-556268D01*
G01*
X32592736Y25762383D02*
G75*
G03*
X32111555Y24394998I311644J-878023D01*
G01*
X80762876Y334913D02*
G75*
G03*
X81243540Y-316308I851224J125287D01*
G01*
X17391124Y-4361475D02*
G75*
G03*
X17872306Y-2994086I-311644J878025D01*
G01*
X34608744Y-4981702D02*
G75*
G03*
X34101836Y-4713619I-3601844J-6197298D01*
G01*
X16049708Y25388197D02*
G75*
G03*
X15910141Y24748567I4386592J-1292197D01*
G01*
X66391096Y-4361395D02*
G75*
G03*
X66872305Y-2994086I-311596J877995D01*
G01*
X-8589859Y24748567D02*
G75*
G03*
X-8371907Y23116752I2052825J-556279D01*
G01*
X7262897Y334916D02*
G75*
G03*
X-6627693Y-2994086I-7263930J-334965D01*
G01*
X16049690Y25388202D02*
G75*
G03*
X15882024Y26114532I-732190J213498D01*
G01*
X82934155Y-3987285D02*
G75*
G03*
X83073718Y-3347654I-4385755J1291985D01*
G01*
X64910135Y24748568D02*
G75*
G03*
X65128092Y23116752I2052865J-556268D01*
G01*
X9434155Y-3987285D02*
G75*
G03*
X9573718Y-3347654I-4385755J1291985D01*
G01*
X58573737Y-3347659D02*
G75*
G03*
X58355767Y-1715841I-2052837J556259D01*
G01*
X-7108876Y-4361474D02*
G75*
G03*
X-6627694Y-2994086I-311643J878024D01*
G01*
X58434155Y-3987285D02*
G75*
G03*
X58573718Y-3347654I-4385755J1291985D01*
G01*
X56262876Y334913D02*
G75*
G03*
X56743540Y-316308I851224J125287D01*
G01*
X15375114Y26382611D02*
G75*
G03*
X15882024Y26114533I3601286J6196389D01*
G01*
X67220955Y21065998D02*
G75*
G03*
X81111555Y24394998I7263935J334962D01*
G01*
X18220941Y21065995D02*
G75*
G03*
X17740319Y21717221I-851141J-125195D01*
G01*
X10108744Y-4981702D02*
G75*
G03*
X9601836Y-4713619I-3601844J-6197298D01*
G01*
X33934155Y-3987285D02*
G75*
G03*
X34073718Y-3347654I-4385755J1291985D01*
G01*
X18220962Y21065998D02*
G75*
G03*
X32111555Y24394998I7263931J334965D01*
G01*
X58355786Y-1715830D02*
G75*
G03*
X56743540Y-316309I-2839486J-1642670D01*
G01*
X65049690Y25388202D02*
G75*
G03*
X64882024Y26114532I-732190J213498D01*
G01*
X39875114Y26382611D02*
G75*
G03*
X40382024Y26114533I3601286J6196389D01*
G01*
X67220941Y21065995D02*
G75*
G03*
X66740319Y21717221I-851141J-125195D01*
G01*
X15910135Y24748568D02*
G75*
G03*
X16128092Y23116752I2052865J-556268D01*
G01*
X16128097Y23116755D02*
G75*
G03*
X17740319Y21717222I2839503J1642645D01*
G01*
X31762897Y334916D02*
G75*
G03*
X17872307Y-2994086I-7263930J-334965D01*
G01*
X-9124886Y26382612D02*
G75*
G03*
X-8617976Y26114533I3601289J6196371D01*
G01*
X-8450297Y25388198D02*
G75*
G03*
X-8617976Y26114532I-732245J213478D01*
G01*
X83608744Y-4981702D02*
G75*
G03*
X83101836Y-4713619I-3601844J-6197298D01*
G01*
X8092736Y25762383D02*
G75*
G03*
X7611555Y24394998I311644J-878023D01*
G01*
X57092713Y25762448D02*
G75*
G03*
X56611555Y24394998I311687J-878048D01*
G01*
X83073737Y-3347659D02*
G75*
G03*
X82855767Y-1715841I-2052837J556259D01*
G01*
X33934191Y-3987295D02*
G75*
G03*
X34101837Y-4713618I732209J-213505D01*
G01*
X33855786Y-1715830D02*
G75*
G03*
X32243540Y-316309I-2839486J-1642670D01*
G01*
X34073737Y-3347659D02*
G75*
G03*
X33855767Y-1715841I-2052837J556259D01*
G01*
X42720941Y21065995D02*
G75*
G03*
X42240319Y21717221I-851141J-125195D01*
G01*
X7262876Y334913D02*
G75*
G03*
X7743540Y-316308I851224J125287D01*
G01*
X65049708Y25388197D02*
G75*
G03*
X64910141Y24748567I4386592J-1292197D01*
G01*
X9355764Y-1715843D02*
G75*
G03*
X7743540Y-316310I-2839514J-1642657D01*
G01*
X58434191Y-3987295D02*
G75*
G03*
X58601837Y-4713618I732209J-213505D01*
G01*
X80762903Y334916D02*
G75*
G03*
X66872306Y-2994086I-7263933J-334966D01*
G01*
X-8371908Y23116752D02*
G75*
G03*
X-6759681Y21717222I2839517J1642670D01*
G01*
X40549690Y25388202D02*
G75*
G03*
X40382024Y26114532I-732190J213498D01*
G01*
X81592713Y25762448D02*
G75*
G03*
X81111555Y24394998I311687J-878048D01*
G01*
X82855786Y-1715830D02*
G75*
G03*
X81243540Y-316309I-2839486J-1642670D01*
G01*
X9573737Y-3347659D02*
G75*
G03*
X9355767Y-1715841I-2052837J556259D01*
G01*
X31762876Y334913D02*
G75*
G03*
X32243540Y-316308I851224J125287D01*
G01*
X9434191Y-3987295D02*
G75*
G03*
X9601837Y-4713618I732209J-213505D01*
G01*
X65128097Y23116755D02*
G75*
G03*
X66740319Y21717222I2839503J1642645D01*
G01*
X64375114Y26382611D02*
G75*
G03*
X64882024Y26114533I3601286J6196389D01*
G01*
X40549708Y25388197D02*
G75*
G03*
X40410141Y24748567I4386592J-1292197D01*
G01*
X-6279038Y21065998D02*
G75*
G03*
X7611555Y24394998I7263931J334965D01*
G01*
X59108744Y-4981702D02*
G75*
G03*
X58601836Y-4713619I-3601844J-6197298D01*
G01*
X42720955Y21065998D02*
G75*
G03*
X56611555Y24394998I7263935J334962D01*
G01*
X40628097Y23116755D02*
G75*
G03*
X42240319Y21717222I2839503J1642645D01*
G01*
X82934191Y-3987295D02*
G75*
G03*
X83101837Y-4713618I732209J-213505D01*
G01*
X-6279038Y21065998D02*
G75*
G03*
X-6759681Y21717222I-851182J-125240D01*
G01*
X41891124Y-4361475D02*
G75*
G03*
X42372306Y-2994086I-311644J878025D01*
G01*
%TO.N,GND*%
X72099277Y29445262D02*
X72138522Y29458606D01*
X23099277Y29445262D02*
X23138522Y29458606D01*
X26139584Y-8276590D02*
X25747121Y-8942860D01*
X50639584Y-8276590D02*
X50247121Y-8942860D01*
X26884582Y-8044349D02*
X26845336Y-8057693D01*
X-263262Y30343772D02*
X353377Y30503247D01*
X75139584Y-8276590D02*
X74747121Y-8942860D01*
X51384582Y-8044349D02*
X51345336Y-8057693D01*
X73236738Y30343772D02*
X73853377Y30503247D01*
X75139584Y-8276590D02*
X75179445Y-8265274D01*
X2384582Y-8044349D02*
X2345336Y-8057693D01*
X1639584Y-8276590D02*
X1247121Y-8942860D01*
X75884582Y-8044349D02*
X75845336Y-8057693D01*
X48344276Y29677504D02*
X48736738Y30343772D01*
X26139584Y-8276590D02*
X26179445Y-8265274D01*
X1639584Y-8276590D02*
X1679445Y-8265274D01*
X47599277Y29445262D02*
X47638522Y29458606D01*
X23844276Y29677504D02*
X24236738Y30343772D01*
X48736738Y30343772D02*
X49353377Y30503247D01*
X-1400723Y29445262D02*
X-1361478Y29458606D01*
X1247121Y-8942860D02*
X630483Y-9102334D01*
X25747121Y-8942860D02*
X25130483Y-9102334D01*
X72844276Y29677504D02*
X73236738Y30343772D01*
X48344276Y29677504D02*
X48304415Y29666185D01*
X50247121Y-8942860D02*
X49630483Y-9102334D01*
X-655724Y29677504D02*
X-263262Y30343772D01*
X50639584Y-8276590D02*
X50679445Y-8265274D01*
X24236738Y30343772D02*
X24853377Y30503247D01*
X-655724Y29677504D02*
X-695585Y29666185D01*
X72844276Y29677504D02*
X72804415Y29666185D01*
X23844276Y29677504D02*
X23804415Y29666185D01*
X74747121Y-8942860D02*
X74130483Y-9102334D01*
X-8320948Y26528886D02*
G75*
G03*
X-7604389Y26734364I232872J540070D01*
G01*
X45077037Y27533926D02*
G75*
G03*
X45795668Y27552829I345063J551274D01*
G01*
X-1040015Y-10536519D02*
G75*
G03*
X554603Y-9317793I35134J1606616D01*
G01*
X52727914Y31774863D02*
G75*
G03*
X51023875Y31937431I-1563014J-7371363D01*
G01*
X47959985Y-10536536D02*
G75*
G03*
X49554604Y-9317793I35115J1606636D01*
G01*
X5796872Y28470788D02*
G75*
G03*
X7166486Y27434219I1730778J863752D01*
G01*
X19686969Y-7069884D02*
G75*
G03*
X18317373Y-6033305I-1730769J-863716D01*
G01*
X23804416Y29666182D02*
G75*
G03*
X23138522Y29458605I3719684J-13104382D01*
G01*
X55403115Y-6395363D02*
G75*
G03*
X57588246Y-5333449I-119015J3024063D01*
G01*
X72804416Y29666182D02*
G75*
G03*
X72138522Y29458605I3719684J-13104382D01*
G01*
X-3922954Y27533941D02*
G75*
G03*
X-3204332Y27552828I345070J551287D01*
G01*
X68080748Y27796229D02*
G75*
G03*
X65895613Y26734363I118952J-3024029D01*
G01*
X-3922954Y27533940D02*
G75*
G03*
X-5296938Y27753697I-970761J-1664328D01*
G01*
X69577037Y27533926D02*
G75*
G03*
X70295668Y27552829I345063J551274D01*
G01*
X44186969Y-7069884D02*
G75*
G03*
X42817373Y-6033305I-1730769J-863716D01*
G01*
X-3962786Y-8779338D02*
G75*
G03*
X-2744056Y-10373957I1606622J-35129D01*
G01*
X2023875Y31937432D02*
G75*
G03*
X429256Y30718706I-35135J-1606616D01*
G01*
X40679047Y26528873D02*
G75*
G03*
X41395612Y26734364I232853J540127D01*
G01*
X77227914Y31774863D02*
G75*
G03*
X75523875Y31937431I-1563014J-7371363D01*
G01*
X77688200Y-6151934D02*
G75*
G03*
X75975730Y-7707871I1609500J-3491766D01*
G01*
X9304796Y-5127998D02*
G75*
G03*
X8588248Y-5333451I-232896J-540002D01*
G01*
X-3962787Y-8779338D02*
G75*
G03*
X-4228279Y-7952068I-871167J176656D01*
G01*
X58304796Y-5127998D02*
G75*
G03*
X57588248Y-5333451I-232896J-540002D01*
G01*
X50679445Y-8265275D02*
G75*
G03*
X51345336Y-8057693I-3720645J13107075D01*
G01*
X6403115Y-6395356D02*
G75*
G03*
X8588247Y-5333450I-118995J3024036D01*
G01*
X83319043Y-5400630D02*
G75*
G03*
X82804807Y-5127972I-3663943J-6288970D01*
G01*
X82804796Y-5127998D02*
G75*
G03*
X82088248Y-5333451I-232896J-540002D01*
G01*
X53946609Y30180252D02*
G75*
G03*
X52727916Y31774870I-1606609J35148D01*
G01*
X53906822Y-6133012D02*
G75*
G03*
X55280797Y-6352785I970778J1664312D01*
G01*
X78446609Y30180252D02*
G75*
G03*
X77227916Y31774870I-1606609J35148D01*
G01*
X69577052Y27533951D02*
G75*
G03*
X68203062Y27753697I-970752J-1664351D01*
G01*
X29406822Y-6133012D02*
G75*
G03*
X30780797Y-6352785I970778J1664312D01*
G01*
X75179445Y-8265275D02*
G75*
G03*
X75845336Y-8057693I-3720645J13107075D01*
G01*
X-4813015Y-7069877D02*
G75*
G03*
X-6182627Y-6033306I-1730775J-863744D01*
G01*
X19080746Y27796269D02*
G75*
G03*
X16895613Y26734363I118994J-3024039D01*
G01*
X48304416Y29666182D02*
G75*
G03*
X47638522Y29458605I3719684J-13104382D01*
G01*
X23459985Y-10536536D02*
G75*
G03*
X25054604Y-9317793I35115J1606636D01*
G01*
X45077052Y27533951D02*
G75*
G03*
X43703062Y27753697I-970752J-1664351D01*
G01*
X69537220Y-8779338D02*
G75*
G03*
X70755944Y-10373956I1606580J-35162D01*
G01*
X46255943Y-10373962D02*
G75*
G03*
X47959985Y-10536519I1562957J7371262D01*
G01*
X26523874Y31937381D02*
G75*
G03*
X24929255Y30718706I-35174J-1606581D01*
G01*
X53946637Y30180253D02*
G75*
G03*
X54212138Y29352981I871163J-176653D01*
G01*
X33804796Y-5127998D02*
G75*
G03*
X33088248Y-5333451I-232896J-540002D01*
G01*
X30903115Y-6395363D02*
G75*
G03*
X33088246Y-5333449I-119015J3024063D01*
G01*
X-5419254Y27796270D02*
G75*
G03*
X-7604387Y26734363I118996J-3024042D01*
G01*
X28688200Y-6151934D02*
G75*
G03*
X26975730Y-7707871I1609500J-3491766D01*
G01*
X26179445Y-8265275D02*
G75*
G03*
X26845336Y-8057693I-3720645J13107075D01*
G01*
X-695584Y29666182D02*
G75*
G03*
X-1361478Y29458605I3719684J-13104382D01*
G01*
X1679445Y-8265274D02*
G75*
G03*
X2345336Y-8057693I-3720617J13107055D01*
G01*
X65179047Y26528873D02*
G75*
G03*
X65895612Y26734364I232853J540127D01*
G01*
X20577052Y27533951D02*
G75*
G03*
X19203062Y27753697I-970752J-1664351D01*
G01*
X3727916Y31774870D02*
G75*
G03*
X2023875Y31937432I-1562986J-7371360D01*
G01*
X53188200Y-6151934D02*
G75*
G03*
X51475730Y-7707871I1609500J-3491766D01*
G01*
X20577037Y27533926D02*
G75*
G03*
X21295668Y27552829I345063J551274D01*
G01*
X4188191Y-6151913D02*
G75*
G03*
X2475729Y-7707871I1609559J-3491787D01*
G01*
X-8835183Y26801546D02*
G75*
G03*
X-8320948Y26528886I3663727J6288512D01*
G01*
X70295673Y27552818D02*
G75*
G03*
X72008130Y29108784I-1609573J3491782D01*
G01*
X45037220Y-8779338D02*
G75*
G03*
X46255944Y-10373956I1606580J-35162D01*
G01*
X40164815Y26801541D02*
G75*
G03*
X40679052Y26528886I3663685J6288559D01*
G01*
X54796923Y28470814D02*
G75*
G03*
X56166486Y27434219I1730777J863686D01*
G01*
X45795673Y27552818D02*
G75*
G03*
X47508130Y29108784I-1609573J3491782D01*
G01*
X43580748Y27796229D02*
G75*
G03*
X41395613Y26734363I118952J-3024029D01*
G01*
X29446637Y30180253D02*
G75*
G03*
X29712138Y29352981I871163J-176653D01*
G01*
X4946637Y30180253D02*
G75*
G03*
X5212138Y29352981I871163J-176653D01*
G01*
X34319043Y-5400630D02*
G75*
G03*
X33804807Y-5127972I-3663943J-6288970D01*
G01*
X78446637Y30180253D02*
G75*
G03*
X78712138Y29352981I871163J-176653D01*
G01*
X30296923Y28470814D02*
G75*
G03*
X31666486Y27434219I1730777J863686D01*
G01*
X20537220Y-8779338D02*
G75*
G03*
X21755944Y-10373956I1606580J-35162D01*
G01*
X-2744056Y-10373956D02*
G75*
G03*
X-1040015Y-10536519I1562977J7371208D01*
G01*
X70755943Y-10373962D02*
G75*
G03*
X72459985Y-10536519I1562957J7371262D01*
G01*
X21295673Y27552818D02*
G75*
G03*
X23008130Y29108784I-1609573J3491782D01*
G01*
X51023874Y31937381D02*
G75*
G03*
X49429255Y30718706I-35174J-1606581D01*
G01*
X29406788Y-6133067D02*
G75*
G03*
X28688191Y-6151914I-345088J-551233D01*
G01*
X16179047Y26528873D02*
G75*
G03*
X16895612Y26734364I232853J540127D01*
G01*
X15664815Y26801541D02*
G75*
G03*
X16179052Y26528886I3663685J6288559D01*
G01*
X64664815Y26801541D02*
G75*
G03*
X65179052Y26528886I3663685J6288559D01*
G01*
X-3204332Y27552829D02*
G75*
G03*
X-1491871Y29108784I-1609540J3491768D01*
G01*
X28227914Y31774863D02*
G75*
G03*
X26523875Y31937431I-1563014J-7371363D01*
G01*
X4906813Y-6133029D02*
G75*
G03*
X6280797Y-6352784I970757J1664319D01*
G01*
X45037217Y-8779339D02*
G75*
G03*
X44771721Y-7952068I-871217J176639D01*
G01*
X72459985Y-10536536D02*
G75*
G03*
X74054604Y-9317793I35115J1606636D01*
G01*
X20537217Y-8779339D02*
G75*
G03*
X20271721Y-7952068I-871217J176639D01*
G01*
X4906811Y-6133031D02*
G75*
G03*
X4188191Y-6151915I-345071J-551289D01*
G01*
X78406788Y-6133067D02*
G75*
G03*
X77688191Y-6151914I-345088J-551233D01*
G01*
X75523874Y31937381D02*
G75*
G03*
X73929255Y30718706I-35174J-1606581D01*
G01*
X21755943Y-10373962D02*
G75*
G03*
X23459985Y-10536519I1562957J7371262D01*
G01*
X78406822Y-6133012D02*
G75*
G03*
X79780797Y-6352785I970778J1664312D01*
G01*
X58819043Y-5400630D02*
G75*
G03*
X58304807Y-5127972I-3663943J-6288970D01*
G01*
X68686969Y-7069884D02*
G75*
G03*
X67317373Y-6033305I-1730769J-863716D01*
G01*
X69537217Y-8779339D02*
G75*
G03*
X69271721Y-7952068I-871217J176639D01*
G01*
X9819043Y-5400630D02*
G75*
G03*
X9304807Y-5127972I-3663943J-6288970D01*
G01*
X4946651Y30180251D02*
G75*
G03*
X3727916Y31774870I-1606621J35129D01*
G01*
X53906788Y-6133067D02*
G75*
G03*
X53188191Y-6151914I-345088J-551233D01*
G01*
X79296923Y28470814D02*
G75*
G03*
X80666486Y27434219I1730777J863686D01*
G01*
X79903115Y-6395363D02*
G75*
G03*
X82088246Y-5333449I-119015J3024063D01*
G01*
X29446609Y30180252D02*
G75*
G03*
X28227916Y31774870I-1606609J35148D01*
G01*
%TO.N,Net-(J1-Pin_1)*%
X15437550Y21511271D02*
G75*
G03*
X15201916Y23713601I-2350730J862259D01*
G01*
X-9062448Y21511270D02*
G75*
G03*
X-9298085Y23713600I-2350735J862256D01*
G01*
X15437509Y21511285D02*
G75*
G03*
X16036550Y19625523I1590491J-532785D01*
G01*
X63773229Y26088619D02*
G75*
G03*
X64201916Y23713601I3663071J-565019D01*
G01*
X34546302Y-110354D02*
G75*
G03*
X34781944Y-2312688I2350798J-862246D01*
G01*
X39937573Y21511263D02*
G75*
G03*
X39701916Y23713601I-2350773J862237D01*
G01*
X34546272Y-110344D02*
G75*
G03*
X33947310Y1775390I-1590372J532844D01*
G01*
X83546272Y-110344D02*
G75*
G03*
X82947310Y1775390I-1590372J532844D01*
G01*
X64437573Y21511263D02*
G75*
G03*
X64201916Y23713601I-2350773J862237D01*
G01*
X59046302Y-110354D02*
G75*
G03*
X59281944Y-2312688I2350798J-862246D01*
G01*
X10710632Y-4687705D02*
G75*
G03*
X10281943Y-2312688I-3663132J565005D01*
G01*
X10046302Y-110354D02*
G75*
G03*
X10281944Y-2312688I2350798J-862246D01*
G01*
X59710632Y-4687705D02*
G75*
G03*
X59281943Y-2312688I-3663132J565005D01*
G01*
X10046272Y-110344D02*
G75*
G03*
X9447310Y1775390I-1590372J532844D01*
G01*
X84210632Y-4687705D02*
G75*
G03*
X83781943Y-2312688I-3663132J565005D01*
G01*
X-9062447Y21511270D02*
G75*
G03*
X-8463450Y19625522I1590448J-532811D01*
G01*
X64437509Y21511285D02*
G75*
G03*
X65036550Y19625523I1590491J-532785D01*
G01*
X-9726790Y26088622D02*
G75*
G03*
X-9298083Y23713601I3663138J-564982D01*
G01*
X39937509Y21511285D02*
G75*
G03*
X40536550Y19625523I1590491J-532785D01*
G01*
X83546302Y-110354D02*
G75*
G03*
X83781944Y-2312688I2350798J-862246D01*
G01*
X14773229Y26088619D02*
G75*
G03*
X15201916Y23713601I3663071J-565019D01*
G01*
X59046272Y-110344D02*
G75*
G03*
X58447310Y1775390I-1590372J532844D01*
G01*
X39273229Y26088619D02*
G75*
G03*
X39701916Y23713601I3663071J-565019D01*
G01*
X35210632Y-4687705D02*
G75*
G03*
X34781943Y-2312688I-3663132J565005D01*
G01*
%TO.N,Net-(J3-Pin_1)*%
X32845767Y24640533D02*
X32898572Y24789159D01*
X-7361906Y-3239620D02*
X-7414712Y-3388246D01*
X41817916Y-2934345D02*
X41638094Y-3239620D01*
X17138094Y-3239620D02*
X17085288Y-3388246D01*
X33229554Y22928911D02*
X32993723Y23067825D01*
X65846358Y1924660D02*
X66163596Y2759083D01*
X57729554Y22928911D02*
X57493723Y23067825D01*
X57637502Y19476254D02*
X57320263Y18641830D01*
X8165943Y24335258D02*
X8345767Y24640533D01*
X57493723Y23067825D02*
X57165943Y24335258D01*
X41638094Y-3239620D02*
X41585288Y-3388246D01*
X81665943Y24335258D02*
X81845767Y24640533D01*
X57345767Y24640533D02*
X57398572Y24789159D01*
X16846358Y1924660D02*
X17163596Y2759083D01*
X17317916Y-2934345D02*
X17138094Y-3239620D01*
X41254305Y-1527998D02*
X41490137Y-1666912D01*
X57165943Y24335258D02*
X57345767Y24640533D01*
X41346358Y1924660D02*
X41663596Y2759083D01*
X41490137Y-1666912D02*
X41817916Y-2934345D01*
X8729554Y22928911D02*
X8493723Y23067825D01*
X16754305Y-1527998D02*
X16990137Y-1666912D01*
X82137502Y19476254D02*
X81820263Y18641830D01*
X16990137Y-1666912D02*
X17317916Y-2934345D01*
X-7745695Y-1527998D02*
X-7509863Y-1666912D01*
X32993723Y23067825D02*
X32665943Y24335258D01*
X8493723Y23067825D02*
X8165943Y24335258D01*
X-7182084Y-2934345D02*
X-7361906Y-3239620D01*
X-7653642Y1924660D02*
X-7336404Y2759083D01*
X65990137Y-1666912D02*
X66317916Y-2934345D01*
X82229554Y22928911D02*
X81993723Y23067825D01*
X32665943Y24335258D02*
X32845767Y24640533D01*
X8637502Y19476254D02*
X8320263Y18641830D01*
X-7509863Y-1666912D02*
X-7182084Y-2934345D01*
X65754305Y-1527998D02*
X65990137Y-1666912D01*
X81845767Y24640533D02*
X81898572Y24789159D01*
X33137502Y19476254D02*
X32820263Y18641830D01*
X66138094Y-3239620D02*
X66085288Y-3388246D01*
X81993723Y23067825D02*
X81665943Y24335258D01*
X66317916Y-2934345D02*
X66138094Y-3239620D01*
X8345767Y24640533D02*
X8398572Y24789159D01*
X19227097Y-5148156D02*
G75*
G03*
X21048379Y-6810552I15338703J14975856D01*
G01*
X65345334Y-4334996D02*
G75*
G03*
X66426496Y-5502511I547766J-577104D01*
G01*
X81820297Y18641818D02*
G75*
G03*
X82075990Y17724739I766703J-280418D01*
G01*
X65846358Y1924660D02*
G75*
G03*
X65754305Y-1527998I4886622J-1857840D01*
G01*
X33137497Y19476256D02*
G75*
G03*
X33229554Y22928911I-4886597J1857844D01*
G01*
X8057364Y26903422D02*
G75*
G03*
X7320454Y26453127I8836336J-15288822D01*
G01*
X6256759Y26549066D02*
G75*
G03*
X4435481Y28211464I-15338701J-14975793D01*
G01*
X79756759Y26549066D02*
G75*
G03*
X77935480Y28211463I-15338659J-14975766D01*
G01*
X8320266Y18641829D02*
G75*
G03*
X8575990Y17724739I766774J-280389D01*
G01*
X16846358Y1924660D02*
G75*
G03*
X16754305Y-1527998I4886622J-1857840D01*
G01*
X55256731Y26549047D02*
G75*
G03*
X56320454Y26453127I571169J387953D01*
G01*
X-7653642Y1924660D02*
G75*
G03*
X-7745695Y-1527998I4886622J-1857841D01*
G01*
X16345334Y-4334996D02*
G75*
G03*
X17426496Y-5502511I547766J-577104D01*
G01*
X46217211Y-8177346D02*
G75*
G03*
X45548379Y-6810552I-2464311J-358854D01*
G01*
X28266612Y29578253D02*
G75*
G03*
X28935481Y28211464I2464388J358947D01*
G01*
X68227097Y-5148156D02*
G75*
G03*
X70048379Y-6810552I15338703J14975856D01*
G01*
X33638382Y25736060D02*
G75*
G03*
X32557363Y26903424I-547682J577040D01*
G01*
X-5272901Y-5148153D02*
G75*
G03*
X-6336594Y-5052215I-571163J-387942D01*
G01*
X43727097Y-5148156D02*
G75*
G03*
X45548379Y-6810552I15338703J14975856D01*
G01*
X66426498Y-5502513D02*
G75*
G03*
X67163406Y-5052215I-8838798J15292713D01*
G01*
X70717211Y-8177346D02*
G75*
G03*
X70048379Y-6810552I-2464311J-358854D01*
G01*
X41663558Y2759097D02*
G75*
G03*
X41407870Y3676172I-766758J280403D01*
G01*
X57057364Y26903422D02*
G75*
G03*
X56320454Y26453127I8836336J-15288822D01*
G01*
X32820297Y18641818D02*
G75*
G03*
X33075990Y17724739I766703J-280418D01*
G01*
X3766631Y29578256D02*
G75*
G03*
X4435481Y28211464I2464379J358914D01*
G01*
X-7073503Y-5502512D02*
G75*
G03*
X-6336594Y-5052215I-8838759J15292712D01*
G01*
X82638382Y25736060D02*
G75*
G03*
X81557363Y26903424I-547682J577040D01*
G01*
X82638452Y25735984D02*
G75*
G03*
X81888338Y24762850I1493748J-1927084D01*
G01*
X82137497Y19476256D02*
G75*
G03*
X82229554Y22928911I-4886597J1857844D01*
G01*
X16345422Y-4335090D02*
G75*
G03*
X17095521Y-3361938I-1493822J1927090D01*
G01*
X6256755Y26549063D02*
G75*
G03*
X7320454Y26453127I571165J387947D01*
G01*
X30756731Y26549047D02*
G75*
G03*
X31820454Y26453127I571169J387953D01*
G01*
X81557364Y26903422D02*
G75*
G03*
X80820454Y26453127I8836336J-15288822D01*
G01*
X40845422Y-4335090D02*
G75*
G03*
X41595521Y-3361938I-1493822J1927090D01*
G01*
X57637497Y19476256D02*
G75*
G03*
X57729554Y22928911I-4886597J1857844D01*
G01*
X17426498Y-5502513D02*
G75*
G03*
X18163406Y-5052215I-8838798J15292713D01*
G01*
X55256759Y26549066D02*
G75*
G03*
X53435480Y28211463I-15338659J-14975766D01*
G01*
X41926498Y-5502513D02*
G75*
G03*
X42663406Y-5052215I-8838798J15292713D01*
G01*
X40845334Y-4334996D02*
G75*
G03*
X41926496Y-5502511I547766J-577104D01*
G01*
X79756731Y26549047D02*
G75*
G03*
X80820454Y26453127I571169J387953D01*
G01*
X66163558Y2759097D02*
G75*
G03*
X65907870Y3676172I-766758J280403D01*
G01*
X21717211Y-8177346D02*
G75*
G03*
X21048379Y-6810552I-2464311J-358854D01*
G01*
X32557364Y26903422D02*
G75*
G03*
X31820454Y26453127I8836336J-15288822D01*
G01*
X57320297Y18641818D02*
G75*
G03*
X57575990Y17724739I766703J-280418D01*
G01*
X9138452Y25735984D02*
G75*
G03*
X8388338Y24762850I1493748J-1927084D01*
G01*
X43727053Y-5148184D02*
G75*
G03*
X42663406Y-5052215I-571153J-387916D01*
G01*
X-7336405Y2759083D02*
G75*
G03*
X-7592131Y3676171I-766771J280388D01*
G01*
X33638452Y25735984D02*
G75*
G03*
X32888338Y24762850I1493748J-1927084D01*
G01*
X58138452Y25735984D02*
G75*
G03*
X57388338Y24762850I1493748J-1927084D01*
G01*
X52766612Y29578253D02*
G75*
G03*
X53435481Y28211464I2464388J358947D01*
G01*
X17163595Y2759083D02*
G75*
G03*
X16907870Y3676172I-766775J280387D01*
G01*
X19227053Y-5148184D02*
G75*
G03*
X18163406Y-5052215I-571153J-387916D01*
G01*
X-8154580Y-4335087D02*
G75*
G03*
X-7073503Y-5502512I547723J-577059D01*
G01*
X41346358Y1924660D02*
G75*
G03*
X41254305Y-1527998I4886622J-1857840D01*
G01*
X58138382Y25736060D02*
G75*
G03*
X57057363Y26903424I-547682J577040D01*
G01*
X-8154580Y-4335087D02*
G75*
G03*
X-7404478Y-3361938I-1493803J1927085D01*
G01*
X68227053Y-5148184D02*
G75*
G03*
X67163406Y-5052215I-571153J-387916D01*
G01*
X30756759Y26549066D02*
G75*
G03*
X28935480Y28211463I-15338659J-14975766D01*
G01*
X65345422Y-4335090D02*
G75*
G03*
X66095521Y-3361938I-1493822J1927090D01*
G01*
X9138382Y25736060D02*
G75*
G03*
X8057363Y26903424I-547682J577040D01*
G01*
X-2782772Y-8177343D02*
G75*
G03*
X-3451622Y-6810553I-2464352J-358902D01*
G01*
X-5272903Y-5148156D02*
G75*
G03*
X-3451621Y-6810552I15338703J14975856D01*
G01*
X77266612Y29578253D02*
G75*
G03*
X77935481Y28211464I2464388J358947D01*
G01*
X8637503Y19476254D02*
G75*
G03*
X8729553Y22928911I-4886633J1857836D01*
G01*
%TO.N,Net-(J5-Pin_1)*%
X19907521Y16076129D02*
G75*
G03*
X30181494Y15319932I5562929J5408921D01*
G01*
X55645668Y15353081D02*
G75*
G03*
X54796505Y15362804I-430268J-491781D01*
G01*
X18939824Y6073270D02*
G75*
G03*
X19788956Y6063507I430276J491730D01*
G01*
X19907483Y16076097D02*
G75*
G03*
X18663771Y16385457I-837283J-711397D01*
G01*
X68895500Y16093576D02*
G75*
G03*
X67651781Y16402930I-837300J-711476D01*
G01*
X67965224Y6073270D02*
G75*
G03*
X68814356Y6063507I430276J491730D01*
G01*
X30062928Y5307310D02*
G75*
G03*
X19788956Y6063506I-5562928J-5408910D01*
G01*
X44522500Y16118976D02*
G75*
G03*
X43278781Y16428330I-837300J-711476D01*
G01*
X44522530Y16119001D02*
G75*
G03*
X54796504Y15362805I5562930J5408929D01*
G01*
X-4541679Y16076129D02*
G75*
G03*
X-5785429Y16385457I-837286J-711462D01*
G01*
X-5534796Y6098647D02*
G75*
G03*
X-4685645Y6088908I430271J491724D01*
G01*
X5588328Y5332710D02*
G75*
G03*
X-4685644Y6088906I-5562928J-5408920D01*
G01*
X68895530Y16093601D02*
G75*
G03*
X79169504Y15337405I5562930J5408929D01*
G01*
X-4541679Y16076129D02*
G75*
G03*
X5732294Y15319932I5562930J5408925D01*
G01*
X6581441Y15310189D02*
G75*
G03*
X5732294Y15319932I-430271J-491719D01*
G01*
X79113728Y5307310D02*
G75*
G03*
X68839756Y6063506I-5562928J-5408910D01*
G01*
X30062910Y5307295D02*
G75*
G03*
X31306679Y4997983I837290J711505D01*
G01*
X31030667Y15310218D02*
G75*
G03*
X30181494Y15319932I-430267J-491718D01*
G01*
X54537510Y5332695D02*
G75*
G03*
X55781279Y5023383I837290J711505D01*
G01*
X79113710Y5307295D02*
G75*
G03*
X80357479Y4997983I837290J711505D01*
G01*
X54537528Y5332710D02*
G75*
G03*
X44263556Y6088906I-5562928J-5408910D01*
G01*
X43414424Y6098670D02*
G75*
G03*
X44263556Y6088907I430276J491730D01*
G01*
X5588332Y5332713D02*
G75*
G03*
X6832079Y5023383I837288J711467D01*
G01*
X80018668Y15327681D02*
G75*
G03*
X79169505Y15337404I-430268J-491781D01*
G01*
%TD*%
M02*
