%TF.GenerationSoftware,KiCad,Pcbnew,7.0.10*%
%TF.CreationDate,2024-11-13T08:35:10-08:00*%
%TF.ProjectId,ballBearingBoard241112,62616c6c-4265-4617-9269-6e67426f6172,rev?*%
%TF.SameCoordinates,Original*%
%TF.FileFunction,Profile,NP*%
%FSLAX46Y46*%
G04 Gerber Fmt 4.6, Leading zero omitted, Abs format (unit mm)*
G04 Created by KiCad (PCBNEW 7.0.10) date 2024-11-13 08:35:10*
%MOMM*%
%LPD*%
G01*
G04 APERTURE LIST*
%TA.AperFunction,Profile*%
%ADD10C,0.100000*%
%TD*%
G04 APERTURE END LIST*
D10*
X11049005Y-4800604D02*
G75*
G03*
X11810999Y-2743200I-3414705J2434504D01*
G01*
X9144000Y-7696200D02*
X11049000Y-4800600D01*
X-12319426Y-2418371D02*
X-8144565Y-9553595D01*
X7416800Y-9347200D02*
G75*
G03*
X9144000Y-7696200I-7162575J9222114D01*
G01*
X-1447800Y11912600D02*
G75*
G03*
X-1828800Y11760200I-35600J-463450D01*
G01*
X4851400Y11125200D02*
G75*
G03*
X4597400Y11303000I-324400J-193100D01*
G01*
X-1828799Y11760200D02*
G75*
G03*
X-2220033Y10448585I1783553J-1246163D01*
G01*
X4990685Y10327023D02*
G75*
G03*
X4851400Y11125200I-2363364J-1175D01*
G01*
X4597400Y11303000D02*
X-1447800Y11912600D01*
X2378787Y-6575073D02*
G75*
G03*
X-1981200Y-6705600I-2378787J6575073D01*
G01*
X7599372Y5816491D02*
G75*
G03*
X10492454Y2222879I2682830J-801516D01*
G01*
X11130901Y980957D02*
G75*
G03*
X11444220Y-1867160I1239860J-1304896D01*
G01*
X11130902Y980955D02*
G75*
G03*
X10492454Y2222879I-2033410J-260267D01*
G01*
X-2512885Y-12298710D02*
G75*
G03*
X2371369Y-12327066I2513135J12216944D01*
G01*
X9897491Y720689D02*
G75*
G03*
X8297491Y720689I-800000J0D01*
G01*
X8297491Y720689D02*
G75*
G03*
X9897491Y720689I800000J0D01*
G01*
X6172200Y-9296400D02*
G75*
G03*
X7416800Y-9347199I660982J922325D01*
G01*
X11810998Y-2743200D02*
G75*
G03*
X11444220Y-1867161I-779691J188361D01*
G01*
X6172200Y-9296401D02*
G75*
G03*
X3504816Y-10918826I-866707J-1578969D01*
G01*
X2371369Y-12327066D02*
G75*
G03*
X3504816Y-10918826I-266143J1374467D01*
G01*
X-3628198Y-11012801D02*
G75*
G03*
X-2512885Y-12298709I1397394J85380D01*
G01*
X-3628191Y-11012801D02*
G75*
G03*
X-6445083Y-9639640I-1796649J-109775D01*
G01*
X-8144563Y-9553592D02*
G75*
G03*
X-6445084Y-9639639I905959J1067347D01*
G01*
X4990683Y10327023D02*
G75*
G03*
X6253154Y8306029I1775550J-295669D01*
G01*
X-5683842Y7563184D02*
G75*
G03*
X-2220034Y10448585I668760J2718962D01*
G01*
X-2087579Y-7116796D02*
G75*
G03*
X-2087578Y-7716804I-17J-300004D01*
G01*
X-11437469Y-840952D02*
G75*
G03*
X-12319426Y-2418371I492372J-1310559D01*
G01*
X-11437472Y-840944D02*
G75*
G03*
X-11210376Y2425236I-633045J1685000D01*
G01*
X-2087579Y-7116803D02*
G75*
G03*
X-1981200Y-6705600I-20834J224751D01*
G01*
X-11865966Y4108322D02*
G75*
G03*
X-11210376Y2425236I1324599J-453271D01*
G01*
X-11865963Y4108321D02*
X-11684622Y4603881D01*
X-10218999Y5485838D02*
G75*
G03*
X-11684622Y4603881I-161319J-1390676D01*
G01*
X-10218998Y5485844D02*
G75*
G03*
X-8449922Y6378738I207413J1788023D01*
G01*
X-5683843Y7563180D02*
G75*
G03*
X-8449922Y6378738I-597107J-2427642D01*
G01*
X2570202Y-7716929D02*
X-2087578Y-7716804D01*
X7599370Y5816491D02*
G75*
G03*
X6253154Y8306028I-1916307J572509D01*
G01*
X2378788Y-6575074D02*
G75*
G03*
X2570200Y-7116929I137352J-256216D01*
G01*
X2570202Y-7716926D02*
G75*
G03*
X2570200Y-7116930I0J299998D01*
G01*
M02*
