%TF.GenerationSoftware,KiCad,Pcbnew,7.0.10*%
%TF.CreationDate,2024-11-13T08:35:09-08:00*%
%TF.ProjectId,ballBearingBoard241112,62616c6c-4265-4617-9269-6e67426f6172,rev?*%
%TF.SameCoordinates,Original*%
%TF.FileFunction,Legend,Top*%
%TF.FilePolarity,Positive*%
%FSLAX46Y46*%
G04 Gerber Fmt 4.6, Leading zero omitted, Abs format (unit mm)*
G04 Created by KiCad (PCBNEW 7.0.10) date 2024-11-13 08:35:09*
%MOMM*%
%LPD*%
G01*
G04 APERTURE LIST*
G04 Aperture macros list*
%AMRoundRect*
0 Rectangle with rounded corners*
0 $1 Rounding radius*
0 $2 $3 $4 $5 $6 $7 $8 $9 X,Y pos of 4 corners*
0 Add a 4 corners polygon primitive as box body*
4,1,4,$2,$3,$4,$5,$6,$7,$8,$9,$2,$3,0*
0 Add four circle primitives for the rounded corners*
1,1,$1+$1,$2,$3*
1,1,$1+$1,$4,$5*
1,1,$1+$1,$6,$7*
1,1,$1+$1,$8,$9*
0 Add four rect primitives between the rounded corners*
20,1,$1+$1,$2,$3,$4,$5,0*
20,1,$1+$1,$4,$5,$6,$7,0*
20,1,$1+$1,$6,$7,$8,$9,0*
20,1,$1+$1,$8,$9,$2,$3,0*%
%AMRotRect*
0 Rectangle, with rotation*
0 The origin of the aperture is its center*
0 $1 length*
0 $2 width*
0 $3 Rotation angle, in degrees counterclockwise*
0 Add horizontal line*
21,1,$1,$2,0,0,$3*%
G04 Aperture macros list end*
%ADD10C,0.150000*%
%ADD11C,0.070000*%
%ADD12C,0.050000*%
%ADD13C,0.128298*%
%ADD14C,0.000000*%
%ADD15C,0.100000*%
%ADD16C,0.152400*%
%ADD17C,0.304000*%
%ADD18C,0.120000*%
%ADD19RotRect,0.508000X0.863600X233.000000*%
%ADD20RotRect,0.889000X0.863600X233.000000*%
%ADD21RoundRect,0.030000X-0.120000X-0.370000X0.120000X-0.370000X0.120000X0.370000X-0.120000X0.370000X0*%
%ADD22RoundRect,0.040000X-0.160000X-0.360000X0.160000X-0.360000X0.160000X0.360000X-0.160000X0.360000X0*%
%ADD23RotRect,0.584200X1.320800X70.000000*%
%ADD24C,2.100000*%
%ADD25C,2.250000*%
%ADD26RoundRect,0.140000X0.170000X-0.140000X0.170000X0.140000X-0.170000X0.140000X-0.170000X-0.140000X0*%
%ADD27RoundRect,0.140000X-0.189700X-0.111865X0.073414X-0.207631X0.189700X0.111865X-0.073414X0.207631X0*%
G04 APERTURE END LIST*
D10*
X-11303000Y-3860800D02*
X-9144000Y-7543800D01*
X-355600Y11557000D02*
X3352800Y11201400D01*
X8788400Y-7645400D02*
X10820400Y-4622800D01*
D11*
X7074795Y5828859D02*
X7059387Y5819458D01*
X4157890Y6321950D02*
X4156869Y6332386D01*
X5838502Y4868467D02*
X5845388Y4869258D01*
X4192102Y6457602D02*
X4198850Y6466464D01*
X4218615Y6244253D02*
X4222080Y6243375D01*
X7078480Y6122961D02*
X7090721Y6106408D01*
X6249766Y6995232D02*
X6257722Y7012799D01*
X6007278Y4827380D02*
X6019399Y4817834D01*
X6511726Y5986447D02*
X6528086Y5978993D01*
X6195710Y7065351D02*
X6190891Y7045701D01*
X4236395Y6222111D02*
X4236457Y6213540D01*
X5910041Y6734209D02*
X5927335Y6740137D01*
X4232687Y6236355D02*
X4234233Y6233058D01*
X4166445Y6405998D02*
X4161691Y6388948D01*
X6848704Y5871628D02*
X6817584Y5875491D01*
X6280059Y7080140D02*
X6283492Y7096156D01*
X6196609Y7128810D02*
X6199021Y7110376D01*
X6700426Y5808026D02*
X6661657Y5816596D01*
X6284346Y7288938D02*
X6286902Y7302082D01*
X4230952Y6493887D02*
X4218097Y6485195D01*
X6170669Y7000006D02*
X6158828Y6980710D01*
X4230952Y6493887D02*
X4239844Y6498884D01*
X7031209Y5924550D02*
X7045108Y5937133D01*
X6307721Y7355705D02*
X6297903Y7335387D01*
X7034368Y5806749D02*
X7015519Y5799966D01*
X6123658Y6937187D02*
X6134722Y6949329D01*
X6132996Y7224273D02*
X6122610Y7230412D01*
X6188352Y7157822D02*
X6183686Y7168738D01*
X6060394Y6881333D02*
X6074047Y6891524D01*
X5716744Y4647305D02*
X5705634Y4644331D01*
X4222080Y6243375D02*
X4226811Y6241659D01*
X4699455Y6387158D02*
G75*
G03*
X4761758Y6236357I234655J8676D01*
G01*
X6500286Y5849564D02*
X6482274Y5849346D01*
X6170669Y7000006D02*
X6177735Y7012970D01*
X4210151Y6478134D02*
X4198850Y6466464D01*
X6744827Y5893237D02*
X6765489Y5887169D01*
X6123658Y6937187D02*
X6106154Y6919357D01*
X7203323Y6020409D02*
X7196507Y6007549D01*
X5958838Y4853782D02*
X5976843Y4845846D01*
X5919611Y6830628D02*
X5932969Y6829428D01*
X6025215Y6858514D02*
X6039483Y6866934D01*
X6149629Y6968055D02*
X6158828Y6980710D01*
X7214418Y6039165D02*
X7203323Y6020409D01*
X6285288Y7190454D02*
X6284024Y7203894D01*
X6093585Y6907990D02*
X6074047Y6891524D01*
X4407889Y6454090D02*
X4398182Y6463935D01*
X4229386Y6239847D02*
X4232687Y6236355D01*
X7163767Y5940998D02*
X7153191Y5920722D01*
X6075139Y4567299D02*
X6055835Y4540957D01*
X4453969Y6289964D02*
X4454269Y6292046D01*
X6347506Y5755240D02*
X6335280Y5741545D01*
X6279175Y5663072D02*
X5828054Y4866713D01*
X4157890Y6321950D02*
X4160212Y6306998D01*
X5317732Y5664910D02*
X5258063Y5728890D01*
X7103644Y6064660D02*
X7103228Y6044903D01*
X5801029Y4859673D02*
X5828054Y4866713D01*
X6199155Y7097686D02*
X6198006Y7078391D01*
X6317225Y5719978D02*
X6305751Y5704493D01*
X7222251Y6051438D02*
X7214418Y6039165D01*
X7094875Y5844956D02*
X7074795Y5828859D01*
X4210151Y6478134D02*
X4218097Y6485195D01*
X4162568Y6297944D02*
X4160212Y6306998D01*
X5789349Y6650404D02*
X5804432Y6667146D01*
X4456401Y6315467D02*
X4456636Y6328494D01*
X7063071Y5957927D02*
X7045108Y5937133D01*
X4350217Y6496002D02*
X4336477Y6501689D01*
X5995122Y4493539D02*
X5967130Y4480692D01*
X5751833Y4610353D02*
X5746789Y4623926D01*
D12*
X5298812Y7688442D02*
X5300362Y7687440D01*
X5481556Y7553091D01*
X5483368Y7551589D01*
X5485208Y7547257D01*
X5484590Y7542586D01*
X5483250Y7540654D01*
X5481724Y7538928D01*
X5477464Y7537190D01*
X5472909Y7537803D01*
X5470997Y7539086D01*
X5291917Y7676230D01*
X5290525Y7677442D01*
X5289106Y7680838D01*
X5289565Y7684488D01*
X5291774Y7687424D01*
X5295158Y7688872D01*
X5298812Y7688442D01*
G36*
X5298812Y7688442D02*
G01*
X5300362Y7687440D01*
X5481556Y7553091D01*
X5483368Y7551589D01*
X5485208Y7547257D01*
X5484590Y7542586D01*
X5483250Y7540654D01*
X5481724Y7538928D01*
X5477464Y7537190D01*
X5472909Y7537803D01*
X5470997Y7539086D01*
X5291917Y7676230D01*
X5290525Y7677442D01*
X5289106Y7680838D01*
X5289565Y7684488D01*
X5291774Y7687424D01*
X5295158Y7688872D01*
X5298812Y7688442D01*
G37*
D11*
X5949217Y4476003D02*
X5923522Y4472342D01*
X6280059Y7080140D02*
X6273541Y7055561D01*
X5953994Y6747781D02*
X5972053Y6752752D01*
X6199155Y7097686D02*
X6199021Y7110376D01*
X6644890Y5928978D02*
X6664217Y5921328D01*
X5999726Y6760824D02*
X5972053Y6752752D01*
X5752759Y6601389D02*
X5748917Y6595407D01*
X6395324Y5801358D02*
X6377938Y5785734D01*
X6292941Y7322007D02*
X6297903Y7335387D01*
X7063071Y5957927D02*
X7073793Y5972307D01*
X4159544Y6377429D02*
X4161691Y6388948D01*
X7323633Y6148430D02*
X7302427Y6134006D01*
X5867964Y6715406D02*
X5884514Y6724030D01*
X6471670Y5847514D02*
X6456570Y5843219D01*
X6174753Y7183859D02*
X6168048Y7193379D01*
X7260147Y6097495D02*
X7244602Y6080799D01*
X6039839Y4525375D02*
X6013744Y4504343D01*
X7239844Y6381663D02*
X7295853Y6332127D01*
X7356721Y6290122D01*
X7422152Y6253000D01*
X7438292Y6244678D01*
X6188352Y7157822D02*
X6194145Y7140790D01*
X4454005Y6358195D02*
X4455233Y6349813D01*
X4378679Y6053453D02*
X5477851Y6578435D01*
X5218247Y5529142D02*
X6136100Y5872550D01*
X4391061Y6470105D02*
X4379824Y6478918D01*
X7271183Y6108346D02*
X7260147Y6097495D01*
X6553589Y5967606D02*
X6528086Y5978993D01*
X5477851Y6578435D02*
X5522290Y6530779D01*
X6186165Y7032591D02*
X6190891Y7045701D01*
X7050662Y6150619D02*
X7037122Y6161998D01*
X6037327Y4801848D02*
X6048741Y4789307D01*
X6019399Y4817834D02*
X6037327Y4801848D01*
D13*
X5216607Y7821007D02*
G75*
G03*
X5088309Y7821007I-64149J0D01*
G01*
X5088309Y7821007D02*
G75*
G03*
X5216607Y7821007I64149J0D01*
G01*
D11*
X6065049Y4768800D02*
X6074622Y4753353D01*
X4442838Y6398845D02*
X4445878Y6390925D01*
X6249766Y6995232D02*
X6236779Y6968701D01*
X5723469Y4647675D02*
X5716744Y4647305D01*
X6598008Y5948331D02*
X6616402Y5940567D01*
X5967130Y4480692D02*
X5949217Y4476003D01*
X5872452Y4482075D02*
X5853489Y4490764D01*
D14*
G36*
X6938565Y6546705D02*
G01*
X6949199Y6544082D01*
X6959259Y6541135D01*
X6978184Y6533441D01*
X6997059Y6523763D01*
X7006320Y6518813D01*
X7015374Y6513805D01*
X7032826Y6503644D01*
X7053679Y6489522D01*
X7062056Y6483472D01*
X7070128Y6477350D01*
X7082071Y6467701D01*
X7097587Y6452465D01*
X7104961Y6444496D01*
X7117579Y6429023D01*
X7127056Y6412798D01*
X7131593Y6403571D01*
X7137628Y6388009D01*
X7140503Y6371105D01*
X7141334Y6360759D01*
X7141052Y6345591D01*
X7137299Y6328635D01*
X7134147Y6318374D01*
X7128157Y6303527D01*
X7118418Y6287476D01*
X7112280Y6278642D01*
X7100828Y6264351D01*
X7086116Y6250345D01*
X7078065Y6243418D01*
X7061666Y6230905D01*
X7042990Y6219994D01*
X7025390Y6211111D01*
X6994310Y6196223D01*
X6985498Y6204416D01*
X6969081Y6222026D01*
X6954138Y6240897D01*
X6940767Y6260910D01*
X6929057Y6281944D01*
X6919072Y6303847D01*
X6910902Y6326485D01*
X6904571Y6349708D01*
X6900138Y6373369D01*
X6897633Y6397309D01*
X6897068Y6421369D01*
X6898439Y6445408D01*
X6901753Y6469246D01*
X6906973Y6492747D01*
X6914076Y6515753D01*
X6923008Y6538099D01*
X6928260Y6548931D01*
X6938565Y6546705D01*
G37*
D11*
X6227032Y6950997D02*
X6211519Y6924610D01*
X7323982Y6148649D02*
G75*
G03*
X7020424Y6174721I-129802J268915D01*
G01*
X6406515Y5810940D02*
X6395324Y5801358D01*
X6744827Y5893237D02*
X6714092Y5903071D01*
X6287536Y7155863D02*
X6286982Y7169969D01*
X5755194Y4600567D02*
X5751833Y4610353D01*
X6093588Y4710886D02*
X6100442Y4683117D01*
X6074622Y4753353D02*
X6087363Y4728715D01*
X4175725Y6268354D02*
X4179857Y6263151D01*
X7059387Y5819458D02*
X7034368Y5806749D01*
X6100442Y4683117D02*
X6101828Y4663796D01*
X6796729Y5879686D02*
X6765489Y5887169D01*
X4433733Y6418185D02*
X4437746Y6410565D01*
X4449559Y6378808D02*
X4451668Y6370643D01*
X6156190Y7206174D02*
X6147591Y7214073D01*
X6602917Y5830593D02*
X6582149Y5835486D01*
X6693978Y5910230D02*
X6664217Y5921328D01*
X4212755Y6245316D02*
X4218615Y6244253D01*
X7180196Y5974655D02*
X7170507Y5954519D01*
X5953717Y6831355D02*
X5932969Y6829428D01*
X4197590Y6249504D02*
X4202068Y6247894D01*
X7031209Y5924550D02*
X7008795Y5907194D01*
X7244602Y6080799D02*
X7235312Y6069209D01*
X5789349Y6650404D02*
X5767125Y6622729D01*
X5827743Y6688102D02*
X5843557Y6700492D01*
X5988993Y4839053D02*
X6007278Y4827380D01*
X5923522Y4472342D02*
X5907886Y4473279D01*
X4456263Y6337062D02*
X4455233Y6349813D01*
X6598008Y5948331D02*
X6570977Y5959941D01*
X6046163Y6777558D02*
X6018309Y6766745D01*
X6446908Y5838646D02*
X6432358Y5830285D01*
X5726429Y5022622D02*
G75*
G03*
X5874277Y4948110I165581J144612D01*
G01*
X5916868Y6891889D02*
X5865592Y6946881D01*
X6927917Y5783912D02*
X6902767Y5783302D01*
X4302655Y6509291D02*
X4312484Y6508060D01*
X5953994Y6747781D02*
X5927335Y6740137D01*
X5919611Y6830628D02*
X5900073Y6834812D01*
X5795973Y4857961D02*
X5801029Y4859673D01*
X4433733Y6418185D02*
X4427149Y6429424D01*
X5953717Y6831355D02*
X5967782Y6834039D01*
X4162568Y6297944D02*
X4166746Y6285328D01*
X5743074Y4631302D02*
X5736891Y4640502D01*
X6105417Y7237909D02*
X6122610Y7230412D01*
X4234233Y6233058D02*
X4235947Y6227153D01*
X5976843Y4845846D02*
X5988993Y4839053D01*
X7153191Y5920722D02*
X7145361Y5907339D01*
X6091253Y6800424D02*
X6064552Y6785686D01*
X4208638Y6246101D02*
X4212755Y6245316D01*
X6149629Y6968055D02*
X6134722Y6949329D01*
X4422113Y6436674D02*
X4427149Y6429424D01*
X6091253Y6800424D02*
X6108530Y6811302D01*
X4236457Y6213540D02*
X4235799Y6206679D01*
X6511726Y5986447D02*
X6487771Y5997506D01*
X6048741Y4789307D02*
X6065049Y4768800D01*
X6693978Y5910230D02*
X6714092Y5903071D01*
X6553200Y5842000D02*
X6536408Y5845186D01*
X5752759Y6601389D02*
X5767125Y6622729D01*
X5258063Y5728890D02*
X5748917Y6595407D01*
X6536408Y5845186D02*
X6513403Y5848725D01*
X5917926Y4865871D02*
X5929471Y4863209D01*
X4449559Y6378808D02*
X4445878Y6390925D01*
X5580153Y4765028D02*
X5697071Y4639649D01*
X6118611Y7515365D02*
X6175979Y7466955D01*
X6234424Y7428140D01*
X6298407Y7393858D01*
X6305094Y7390664D01*
X6795628Y5790865D02*
X6768067Y5795177D01*
X4583093Y6330873D02*
G75*
G03*
X4642663Y6179262I233817J4361D01*
G01*
X6575317Y6185847D02*
X6523885Y6240999D01*
D12*
X5459865Y8110866D02*
X5461546Y8109242D01*
X5463045Y8107455D01*
X5464083Y8102913D01*
X5462694Y8098457D01*
X5461064Y8096794D01*
X5294903Y7944250D01*
X5293470Y7943096D01*
X5289886Y7942280D01*
X5286363Y7943366D01*
X5283856Y7946056D01*
X5283025Y7949642D01*
X5284078Y7953166D01*
X5285333Y7954515D01*
X5449097Y8109627D01*
X5450874Y8111141D01*
X5455407Y8112210D01*
X5459865Y8110866D01*
G36*
X5459865Y8110866D02*
G01*
X5461546Y8109242D01*
X5463045Y8107455D01*
X5464083Y8102913D01*
X5462694Y8098457D01*
X5461064Y8096794D01*
X5294903Y7944250D01*
X5293470Y7943096D01*
X5289886Y7942280D01*
X5286363Y7943366D01*
X5283856Y7946056D01*
X5283025Y7949642D01*
X5284078Y7953166D01*
X5285333Y7954515D01*
X5449097Y8109627D01*
X5450874Y8111141D01*
X5455407Y8112210D01*
X5459865Y8110866D01*
G37*
D11*
X6985291Y5791473D02*
X6963046Y5787737D01*
X6513403Y5848725D02*
X6500286Y5849564D01*
X6992303Y5897630D02*
X7008795Y5907194D01*
X5999726Y6760824D02*
X6018309Y6766745D01*
X5907886Y4473279D02*
X5885798Y4477226D01*
X6287536Y7155863D02*
X6287561Y7134235D01*
X6947908Y5879542D02*
X6966362Y5885338D01*
X4253834Y6504340D02*
X4239844Y6498884D01*
X6073600Y7246982D02*
X6059837Y7249470D01*
X6136100Y5872550D02*
X6180538Y5824894D01*
X6169098Y6866440D02*
X6148131Y6843827D01*
X5705634Y4644331D02*
X5697071Y4639649D01*
D12*
X5154787Y8258147D02*
X5158816Y8255810D01*
X5161124Y8251756D01*
X5161225Y8249428D01*
X5159475Y8023875D01*
X5159339Y8022032D01*
X5157488Y8018859D01*
X5154296Y8017023D01*
X5150614Y8017018D01*
X5147428Y8018855D01*
X5145569Y8022033D01*
X5145440Y8023871D01*
X5143689Y8249429D01*
X5143790Y8251756D01*
X5146100Y8255808D01*
X5150125Y8258146D01*
X5152458Y8258265D01*
X5154787Y8258147D01*
G36*
X5154787Y8258147D02*
G01*
X5158816Y8255810D01*
X5161124Y8251756D01*
X5161225Y8249428D01*
X5159475Y8023875D01*
X5159339Y8022032D01*
X5157488Y8018859D01*
X5154296Y8017023D01*
X5150614Y8017018D01*
X5147428Y8018855D01*
X5145569Y8022033D01*
X5145440Y8023871D01*
X5143689Y8249429D01*
X5143790Y8251756D01*
X5146100Y8255808D01*
X5150125Y8258146D01*
X5152458Y8258265D01*
X5154787Y8258147D01*
G37*
X5580446Y7799875D02*
X5582759Y7799607D01*
X5586636Y7797024D01*
X5588693Y7792842D01*
X5588651Y7790511D01*
X5588371Y7788198D01*
X5585751Y7784341D01*
X5581550Y7782320D01*
X5579219Y7782377D01*
X5354335Y7799859D01*
X5352510Y7800124D01*
X5349465Y7802193D01*
X5347867Y7805506D01*
X5348127Y7809177D01*
X5350169Y7812227D01*
X5353470Y7813858D01*
X5355318Y7813858D01*
X5580446Y7799875D01*
G36*
X5580446Y7799875D02*
G01*
X5582759Y7799607D01*
X5586636Y7797024D01*
X5588693Y7792842D01*
X5588651Y7790511D01*
X5588371Y7788198D01*
X5585751Y7784341D01*
X5581550Y7782320D01*
X5579219Y7782377D01*
X5354335Y7799859D01*
X5352510Y7800124D01*
X5349465Y7802193D01*
X5347867Y7805506D01*
X5348127Y7809177D01*
X5350169Y7812227D01*
X5353470Y7813858D01*
X5355318Y7813858D01*
X5580446Y7799875D01*
G37*
D14*
G36*
X4953467Y7758534D02*
G01*
X4970541Y7754465D01*
X4987020Y7748424D01*
X5002677Y7740502D01*
X5017301Y7730803D01*
X5030687Y7719457D01*
X5042659Y7706622D01*
X5053041Y7692477D01*
X5061700Y7677212D01*
X5068511Y7661041D01*
X5073387Y7644181D01*
X5076249Y7626865D01*
X5077072Y7609344D01*
X5075835Y7591838D01*
X5072558Y7574593D01*
X5067288Y7557852D01*
X5063808Y7549801D01*
X5055182Y7541748D01*
X5041373Y7539754D01*
X5014113Y7533834D01*
X4987406Y7525769D01*
X4961427Y7515594D01*
X4936343Y7503383D01*
X4912312Y7489224D01*
X4889483Y7473184D01*
X4878655Y7464393D01*
X4877206Y7463177D01*
X4876708Y7463031D01*
X4876154Y7462943D01*
X4875552Y7462924D01*
X4874890Y7462953D01*
X4874182Y7463055D01*
X4873429Y7463207D01*
X4872623Y7463420D01*
X4871774Y7463699D01*
X4870871Y7464025D01*
X4869925Y7464416D01*
X4868935Y7464865D01*
X4867902Y7465368D01*
X4866826Y7465933D01*
X4865701Y7466543D01*
X4864539Y7467218D01*
X4863340Y7467941D01*
X4862096Y7468730D01*
X4860813Y7469562D01*
X4859497Y7470449D01*
X4858143Y7471399D01*
X4856747Y7472396D01*
X4855320Y7473442D01*
X4853854Y7474544D01*
X4852356Y7475699D01*
X4850830Y7476909D01*
X4849270Y7478160D01*
X4847679Y7479466D01*
X4846055Y7480821D01*
X4738666Y7380824D01*
X4747627Y7367405D01*
X4752536Y7357906D01*
X4753318Y7347690D01*
X4339144Y6961461D01*
X4337832Y6960765D01*
X4337292Y6960664D01*
X4336689Y6960621D01*
X4336036Y6960640D01*
X4335329Y6960726D01*
X4334577Y6960867D01*
X4333774Y6961067D01*
X4332922Y6961332D01*
X4332024Y6961655D01*
X4331076Y6962039D01*
X4330082Y6962480D01*
X4329044Y6962979D01*
X4327966Y6963532D01*
X4326845Y6964145D01*
X4325679Y6964819D01*
X4324471Y6965539D01*
X4323225Y6966319D01*
X4321946Y6967154D01*
X4320622Y6968036D01*
X4319268Y6968982D01*
X4317874Y6969979D01*
X4316446Y6971021D01*
X4314982Y6972123D01*
X4313480Y6973271D01*
X4311957Y6974471D01*
X4310398Y6975722D01*
X4308803Y6977027D01*
X4307187Y6978381D01*
X4305537Y6979775D01*
X4303873Y6981221D01*
X4237928Y6919413D01*
X4249344Y6901374D01*
X4250628Y6890885D01*
X3931702Y6593494D01*
X3917975Y6597460D01*
X3909594Y6603337D01*
X3901319Y6610083D01*
X3885058Y6625314D01*
X3877725Y6632946D01*
X3870648Y6640790D01*
X3863964Y6648701D01*
X3856682Y6658043D01*
X3848904Y6669380D01*
X3843858Y6678611D01*
X3842714Y6689106D01*
X4161540Y6986405D01*
X4179851Y6979255D01*
X4188464Y6972615D01*
X4254455Y7034495D01*
X4251976Y7037870D01*
X4250803Y7039519D01*
X4249679Y7041128D01*
X4248597Y7042714D01*
X4247567Y7044261D01*
X4246576Y7045771D01*
X4245639Y7047244D01*
X4244751Y7048688D01*
X4243904Y7050088D01*
X4243102Y7051455D01*
X4242352Y7052777D01*
X4241659Y7054058D01*
X4241007Y7055309D01*
X4240413Y7056513D01*
X4239860Y7057666D01*
X4239363Y7058784D01*
X4238916Y7059852D01*
X4238523Y7060881D01*
X4238179Y7061854D01*
X4237883Y7062790D01*
X4237651Y7063673D01*
X4237464Y7064503D01*
X4237334Y7065292D01*
X4237252Y7066023D01*
X4237235Y7066704D01*
X4237266Y7067327D01*
X4237351Y7067900D01*
X4237498Y7068422D01*
X4237697Y7068883D01*
X4238269Y7069638D01*
X4652470Y7455893D01*
X4653679Y7456561D01*
X4654184Y7456666D01*
X4654731Y7456724D01*
X4655325Y7456727D01*
X4655963Y7456673D01*
X4656645Y7456564D01*
X4657374Y7456410D01*
X4658143Y7456199D01*
X4658956Y7455927D01*
X4659812Y7455607D01*
X4660707Y7455241D01*
X4661642Y7454816D01*
X4662620Y7454349D01*
X4663633Y7453827D01*
X4664685Y7453259D01*
X4665772Y7452636D01*
X4666898Y7451962D01*
X4668059Y7451240D01*
X4669251Y7450471D01*
X4670486Y7449658D01*
X4671746Y7448786D01*
X4673045Y7447883D01*
X4674366Y7446923D01*
X4675726Y7445918D01*
X4677115Y7444869D01*
X4678531Y7443771D01*
X4679980Y7442625D01*
X4681452Y7441441D01*
X4682958Y7440207D01*
X4684478Y7438934D01*
X4791771Y7539017D01*
X4789331Y7542418D01*
X4788188Y7544058D01*
X4787093Y7545674D01*
X4786042Y7547254D01*
X4785038Y7548788D01*
X4784099Y7550297D01*
X4783192Y7551751D01*
X4782344Y7553178D01*
X4781544Y7554555D01*
X4780795Y7555898D01*
X4780096Y7557192D01*
X4779456Y7558446D01*
X4778864Y7559655D01*
X4778328Y7560818D01*
X4777837Y7561934D01*
X4777407Y7563008D01*
X4777028Y7564030D01*
X4776711Y7565003D01*
X4776432Y7565917D01*
X4776224Y7566792D01*
X4776064Y7567612D01*
X4775953Y7568380D01*
X4775917Y7569098D01*
X4775923Y7569753D01*
X4775987Y7570351D01*
X4776113Y7570902D01*
X4776292Y7571389D01*
X4776833Y7572195D01*
X4777604Y7572756D01*
X4787137Y7582939D01*
X4804724Y7604598D01*
X4820526Y7627580D01*
X4834454Y7651754D01*
X4846413Y7676961D01*
X4856331Y7703036D01*
X4864135Y7729818D01*
X4867090Y7743447D01*
X4875720Y7751495D01*
X4884002Y7754410D01*
X4901065Y7758501D01*
X4918493Y7760562D01*
X4936039Y7760572D01*
X4953467Y7758534D01*
G37*
D11*
X4454005Y6358195D02*
X4451668Y6370643D01*
X6037646Y7251497D02*
X6059837Y7249470D01*
X5946959Y4858264D02*
X5958838Y4853782D01*
X6073600Y7246982D02*
X6093314Y7242221D01*
D14*
G36*
X5802146Y7703081D02*
G01*
X5812546Y7698357D01*
X5822714Y7693451D01*
X5832192Y7688517D01*
X5843250Y7682268D01*
X5864322Y7669290D01*
X5872979Y7663795D01*
X5881446Y7658301D01*
X5890874Y7652009D01*
X5902306Y7644159D01*
X5924148Y7627394D01*
X5932892Y7620317D01*
X5941283Y7613247D01*
X5953662Y7602246D01*
X5969588Y7585507D01*
X5976459Y7577663D01*
X5982871Y7569827D01*
X5989960Y7560429D01*
X5999498Y7543803D01*
X6004043Y7534475D01*
X6010047Y7518985D01*
X6012827Y7502638D01*
X6013600Y7491977D01*
X6013151Y7478383D01*
X6009183Y7462593D01*
X6005872Y7453086D01*
X5999637Y7439389D01*
X5989503Y7424556D01*
X5983120Y7416371D01*
X5971197Y7403034D01*
X5955806Y7389620D01*
X5947359Y7382885D01*
X5930126Y7370471D01*
X5910359Y7358899D01*
X5901004Y7353820D01*
X5890086Y7348242D01*
X5856713Y7334005D01*
X5847540Y7342800D01*
X5830490Y7361644D01*
X5815013Y7381798D01*
X5801213Y7403134D01*
X5789172Y7425510D01*
X5778976Y7448787D01*
X5770689Y7472810D01*
X5764364Y7497422D01*
X5760044Y7522465D01*
X5757752Y7547774D01*
X5757509Y7573186D01*
X5759312Y7598528D01*
X5763159Y7623652D01*
X5769016Y7648383D01*
X5776843Y7672557D01*
X5786588Y7696020D01*
X5792287Y7707381D01*
X5802146Y7703081D01*
G37*
D11*
X6060394Y6881333D02*
X6039483Y6866934D01*
X5853489Y4490764D02*
X5841815Y4497569D01*
X5731893Y4644282D02*
X5723469Y4647675D01*
X7107142Y5856361D02*
X7094875Y5844956D01*
X5956736Y7835413D02*
X5954109Y7853066D01*
X4326975Y6504593D02*
X4336477Y6501689D01*
X4442838Y6398845D02*
X4437746Y6410565D01*
X5989261Y6841225D02*
X5967782Y6834039D01*
X6305094Y7390664D02*
X6323470Y7382207D01*
X6281255Y7256296D02*
X6281423Y7236771D01*
X4156743Y6348920D02*
X4157253Y6360191D01*
X5861913Y4870463D02*
X5872979Y4870458D01*
X7302427Y6134006D02*
X7289498Y6123914D01*
X5736891Y4640502D02*
X5731893Y4644282D01*
X4156743Y6348920D02*
X4156869Y6332386D01*
X5885798Y4477226D02*
X5872452Y4482075D01*
X4456263Y6337062D02*
X4456636Y6328494D01*
X6335280Y5741545D02*
X6317225Y5719978D01*
X4235799Y6206679D02*
X4378679Y6053453D01*
X6644890Y5928978D02*
X6616402Y5940567D01*
X4190798Y6253311D02*
X4197590Y6249504D01*
X4166746Y6285328D02*
X4170155Y6278083D01*
X6101828Y4663796D02*
X6100716Y4634410D01*
X6105417Y7237909D02*
X6093314Y7242221D01*
X6046163Y6777558D02*
X6064552Y6785686D01*
X7086485Y5994481D02*
X7073793Y5972307D01*
X4177390Y6433174D02*
X4182731Y6443439D01*
X5746789Y4623926D02*
X5743074Y4631302D01*
X4177390Y6433174D02*
X4170230Y6417169D01*
X7050662Y6150619D02*
X7068813Y6133914D01*
X7132707Y5887546D02*
X7123015Y5874827D01*
X4422113Y6436674D02*
X4413973Y6447309D01*
X7096308Y6094997D02*
X7090721Y6106408D01*
X5828054Y4866713D02*
X5838502Y4868467D01*
X6096190Y4614789D02*
X6085866Y4585745D01*
X6055835Y4540957D02*
X6039839Y4525375D01*
X4371743Y6484263D02*
X4379824Y6478918D01*
X6285288Y7190454D02*
X6286982Y7169969D01*
X6200196Y6907422D02*
X6182269Y6882257D01*
X5799724Y4527299D02*
X5791056Y4535684D01*
X6553589Y5967606D02*
X6570977Y5959941D01*
X5900907Y4868497D02*
X5917926Y4865871D01*
X6169098Y6866440D02*
X6182269Y6882257D01*
X6100716Y4634410D02*
X6096190Y4614789D01*
X7013319Y6179967D02*
X7037122Y6161998D01*
X6093585Y6907990D02*
X6106154Y6919357D01*
X6282301Y7223679D02*
X6281423Y7236771D01*
X7289498Y6123914D02*
X7271183Y6108346D01*
X6727017Y5802495D02*
X6700426Y5808026D01*
X7186612Y5987971D02*
X7180196Y5974655D01*
X5929471Y4863209D02*
X5946959Y4858264D01*
X6174753Y7183859D02*
X6183686Y7168738D01*
X7196507Y6007549D02*
X7186612Y5987971D01*
X5910041Y6734209D02*
X5884514Y6724030D01*
X6156190Y7206174D02*
X6168048Y7193379D01*
X4253834Y6504340D02*
X4263356Y6507161D01*
X6947908Y5879542D02*
X6919358Y5873026D01*
X7235312Y6069209D02*
X7222251Y6051438D01*
X5814568Y4515755D02*
X5799724Y4527299D01*
X6523885Y6240999D02*
X5317732Y5664910D01*
X4226811Y6241659D02*
X4229386Y6239847D01*
X4454269Y6292046D02*
X4455936Y6306722D01*
X5989261Y6841225D02*
X6003649Y6847153D01*
X4302655Y6509291D02*
X4287848Y6510089D01*
X4179857Y6263151D02*
X4186314Y6256512D01*
X6472666Y6004631D02*
X6487771Y5997506D01*
X5760861Y4584882D02*
X5755194Y4600567D01*
X6180538Y5824894D02*
X5580153Y4765028D01*
X6661657Y5816596D02*
X6637440Y5822313D01*
X5522290Y6530779D02*
X5115697Y5639119D01*
X4186314Y6256512D02*
X4190798Y6253311D01*
X5956736Y7835413D02*
X5973437Y7765763D01*
X6000416Y7689628D01*
X6035996Y7619578D01*
X6080736Y7556209D01*
X6118611Y7515365D01*
X4192102Y6457602D02*
X4182731Y6443439D01*
X5889662Y4869749D02*
X5900907Y4868497D01*
X7123015Y5874827D02*
X7107142Y5856361D01*
X6307721Y7355705D02*
X6313457Y7366240D01*
X4391061Y6470105D02*
X4398182Y6463935D01*
X5887651Y6840317D02*
X5916868Y6891889D01*
X6292941Y7322007D02*
X6286902Y7302082D01*
X7086485Y5994481D02*
X7093519Y6009270D01*
X7078480Y6122961D02*
X7068813Y6133914D01*
X5791056Y4535684D02*
X5779416Y4549103D01*
X6899548Y5871068D02*
X6919358Y5873026D01*
D12*
X5145237Y7526489D02*
X5154617Y7517084D01*
X5163725Y7507604D01*
X5172568Y7498058D01*
X5181139Y7488429D01*
X5189441Y7478738D01*
X5197478Y7468972D01*
X5207141Y7456661D01*
X5238857Y7402153D01*
X5244130Y7391821D01*
X5249139Y7381454D01*
X5253877Y7371052D01*
X5258342Y7360601D01*
X5262547Y7350126D01*
X5266478Y7339624D01*
X5273538Y7318511D01*
X5282414Y7262345D01*
X5283427Y7251873D01*
X5284170Y7241432D01*
X5284646Y7231019D01*
X5284863Y7220642D01*
X5284824Y7210302D01*
X5284518Y7200003D01*
X5283131Y7179539D01*
X5270037Y7127927D01*
X5266167Y7116158D01*
X5261921Y7104557D01*
X5257296Y7093123D01*
X5252303Y7081862D01*
X5246936Y7070784D01*
X5238798Y7055581D01*
X5206054Y7014647D01*
X5197728Y7005572D01*
X5189096Y6996743D01*
X5180166Y6988161D01*
X5170936Y6979836D01*
X5161423Y6971773D01*
X5147629Y6960904D01*
X5100550Y6933880D01*
X5091454Y6929216D01*
X5082246Y6924713D01*
X5072940Y6920367D01*
X5063537Y6916185D01*
X5054045Y6912152D01*
X5044460Y6908277D01*
X5025047Y6901004D01*
X4971738Y6886886D01*
X4961695Y6884573D01*
X4951639Y6882388D01*
X4941564Y6880336D01*
X4931478Y6878413D01*
X4921386Y6876618D01*
X4911294Y6874941D01*
X4891101Y6871987D01*
X4837950Y6868453D01*
X4825594Y6867994D01*
X4813276Y6867705D01*
X4801016Y6867594D01*
X4788799Y6867644D01*
X4776645Y6867872D01*
X4759727Y6868467D01*
X4709879Y6873945D01*
X4698366Y6875546D01*
X4686930Y6877299D01*
X4675581Y6879197D01*
X4664310Y6881242D01*
X4653127Y6883435D01*
X4637608Y6886754D01*
X4592404Y6900150D01*
X4581996Y6903578D01*
X4571675Y6907146D01*
X4561445Y6910852D01*
X4551305Y6914693D01*
X4541246Y6918667D01*
X4527329Y6924465D01*
X4486996Y6945277D01*
X4485575Y6946941D01*
X4484455Y6951162D01*
X4485525Y6955401D01*
X4488515Y6958583D01*
X4492673Y6959915D01*
X4494840Y6959621D01*
X4514783Y6949214D01*
X4524947Y6944284D01*
X4535227Y6939543D01*
X4545642Y6934988D01*
X4556173Y6930616D01*
X4566842Y6926433D01*
X4577629Y6922438D01*
X4611742Y6911276D01*
X4629281Y6906364D01*
X4647120Y6901914D01*
X4665255Y6897929D01*
X4683670Y6894421D01*
X4702346Y6891405D01*
X4721275Y6888895D01*
X4740444Y6886886D01*
X4759840Y6885391D01*
X4779450Y6884442D01*
X4799260Y6884023D01*
X4819252Y6884157D01*
X4829314Y6884434D01*
X4839424Y6884853D01*
X4849570Y6885411D01*
X4859754Y6886117D01*
X4869978Y6886971D01*
X4880229Y6887966D01*
X4918581Y6893024D01*
X4937813Y6896374D01*
X4957005Y6900301D01*
X4976107Y6904802D01*
X4995057Y6909894D01*
X5013807Y6915599D01*
X5032285Y6921911D01*
X5050447Y6928854D01*
X5068235Y6936433D01*
X5085595Y6944678D01*
X5102463Y6953577D01*
X5118788Y6963157D01*
X5134507Y6973429D01*
X5149569Y6984397D01*
X5163923Y6996079D01*
X5187481Y7018685D01*
X5198238Y7030811D01*
X5208298Y7043463D01*
X5217625Y7056606D01*
X5226221Y7070207D01*
X5234065Y7084268D01*
X5241141Y7098742D01*
X5247430Y7113609D01*
X5252919Y7128860D01*
X5257596Y7144448D01*
X5261439Y7160365D01*
X5264418Y7176576D01*
X5266542Y7193062D01*
X5267787Y7209802D01*
X5268129Y7226766D01*
X5267232Y7248991D01*
X5266207Y7260176D01*
X5264811Y7271412D01*
X5263032Y7282678D01*
X5260873Y7293969D01*
X5258322Y7305281D01*
X5255394Y7316603D01*
X5252071Y7327931D01*
X5248364Y7339242D01*
X5244257Y7350543D01*
X5239759Y7361827D01*
X5234873Y7373083D01*
X5229590Y7384296D01*
X5223908Y7395470D01*
X5217822Y7406578D01*
X5222655Y7392519D01*
X5226975Y7378681D01*
X5230800Y7365073D01*
X5234128Y7351685D01*
X5236975Y7338515D01*
X5239339Y7325574D01*
X5241230Y7312861D01*
X5242660Y7300370D01*
X5243635Y7288105D01*
X5244157Y7276071D01*
X5244240Y7264258D01*
X5243889Y7252677D01*
X5243112Y7241323D01*
X5241909Y7230190D01*
X5238282Y7208615D01*
X5234029Y7191237D01*
X5228747Y7174545D01*
X5222486Y7158540D01*
X5215299Y7143215D01*
X5207235Y7128565D01*
X5198332Y7114592D01*
X5188649Y7101293D01*
X5178231Y7088657D01*
X5167125Y7076687D01*
X5155383Y7065381D01*
X5143051Y7054734D01*
X5130181Y7044745D01*
X5116805Y7035396D01*
X5103000Y7026706D01*
X5074246Y7011254D01*
X5057812Y7003800D01*
X5041023Y6997089D01*
X5023885Y6991113D01*
X5006416Y6985864D01*
X4988612Y6981339D01*
X4970494Y6977521D01*
X4952071Y6974422D01*
X4933347Y6972017D01*
X4914331Y6970305D01*
X4895042Y6969282D01*
X4875489Y6968938D01*
X4855673Y6969265D01*
X4835608Y6970264D01*
X4825491Y6971001D01*
X4815311Y6971917D01*
X4805073Y6972988D01*
X4794783Y6974216D01*
X4774027Y6977171D01*
X4760498Y6979417D01*
X4746857Y6981929D01*
X4733102Y6984719D01*
X4719235Y6987780D01*
X4705254Y6991098D01*
X4691160Y6994693D01*
X4676943Y6998552D01*
X4662625Y7002679D01*
X4648167Y7007078D01*
X4633599Y7011739D01*
X4618898Y7016669D01*
X4604081Y7021870D01*
X4589136Y7027336D01*
X4574062Y7033062D01*
X4543525Y7045325D01*
X4541620Y7046296D01*
X4539062Y7049706D01*
X4538531Y7053939D01*
X4540170Y7057876D01*
X4543541Y7060483D01*
X4547763Y7061078D01*
X4549793Y7060416D01*
X4600418Y7040133D01*
X4616488Y7034533D01*
X4627885Y7030697D01*
X4639220Y7026998D01*
X4650482Y7023439D01*
X4661682Y7020016D01*
X4672820Y7016732D01*
X4719727Y7003934D01*
X4734621Y7000801D01*
X4745192Y6998717D01*
X4755701Y6996773D01*
X4766154Y6994969D01*
X4776544Y6993301D01*
X4786874Y6991772D01*
X4830422Y6986478D01*
X4846238Y6985729D01*
X4858009Y6985401D01*
X4869689Y6985275D01*
X4881298Y6985359D01*
X4892816Y6985638D01*
X4933250Y6987962D01*
X4947880Y6990107D01*
X4958754Y6991966D01*
X4969530Y6994025D01*
X4980207Y6996301D01*
X4990790Y6998788D01*
X5027776Y7009015D01*
X5040975Y7014180D01*
X5050727Y7018319D01*
X5060346Y7022673D01*
X5069827Y7027246D01*
X5079171Y7032047D01*
X5111448Y7050560D01*
X5122538Y7058907D01*
X5130625Y7065440D01*
X5138496Y7072200D01*
X5146155Y7079186D01*
X5153597Y7086407D01*
X5178585Y7113594D01*
X5186376Y7125248D01*
X5191862Y7134271D01*
X5197046Y7143529D01*
X5201914Y7153028D01*
X5206448Y7162772D01*
X5220438Y7198984D01*
X5224061Y7217930D01*
X5225677Y7229634D01*
X5226874Y7241588D01*
X5227537Y7251739D01*
X5227906Y7262066D01*
X5226743Y7307704D01*
X5224314Y7321691D01*
X5221893Y7333547D01*
X5219122Y7345578D01*
X5216641Y7355334D01*
X5213934Y7365211D01*
X5210993Y7375207D01*
X5207822Y7385315D01*
X5187768Y7440800D01*
X5176839Y7463255D01*
X5171003Y7474666D01*
X5164909Y7486194D01*
X5158564Y7497839D01*
X5153639Y7506650D01*
X5148577Y7515533D01*
X5143372Y7524478D01*
X5138027Y7533499D01*
X5145237Y7526489D01*
G36*
X5145237Y7526489D02*
G01*
X5154617Y7517084D01*
X5163725Y7507604D01*
X5172568Y7498058D01*
X5181139Y7488429D01*
X5189441Y7478738D01*
X5197478Y7468972D01*
X5207141Y7456661D01*
X5238857Y7402153D01*
X5244130Y7391821D01*
X5249139Y7381454D01*
X5253877Y7371052D01*
X5258342Y7360601D01*
X5262547Y7350126D01*
X5266478Y7339624D01*
X5273538Y7318511D01*
X5282414Y7262345D01*
X5283427Y7251873D01*
X5284170Y7241432D01*
X5284646Y7231019D01*
X5284863Y7220642D01*
X5284824Y7210302D01*
X5284518Y7200003D01*
X5283131Y7179539D01*
X5270037Y7127927D01*
X5266167Y7116158D01*
X5261921Y7104557D01*
X5257296Y7093123D01*
X5252303Y7081862D01*
X5246936Y7070784D01*
X5238798Y7055581D01*
X5206054Y7014647D01*
X5197728Y7005572D01*
X5189096Y6996743D01*
X5180166Y6988161D01*
X5170936Y6979836D01*
X5161423Y6971773D01*
X5147629Y6960904D01*
X5100550Y6933880D01*
X5091454Y6929216D01*
X5082246Y6924713D01*
X5072940Y6920367D01*
X5063537Y6916185D01*
X5054045Y6912152D01*
X5044460Y6908277D01*
X5025047Y6901004D01*
X4971738Y6886886D01*
X4961695Y6884573D01*
X4951639Y6882388D01*
X4941564Y6880336D01*
X4931478Y6878413D01*
X4921386Y6876618D01*
X4911294Y6874941D01*
X4891101Y6871987D01*
X4837950Y6868453D01*
X4825594Y6867994D01*
X4813276Y6867705D01*
X4801016Y6867594D01*
X4788799Y6867644D01*
X4776645Y6867872D01*
X4759727Y6868467D01*
X4709879Y6873945D01*
X4698366Y6875546D01*
X4686930Y6877299D01*
X4675581Y6879197D01*
X4664310Y6881242D01*
X4653127Y6883435D01*
X4637608Y6886754D01*
X4592404Y6900150D01*
X4581996Y6903578D01*
X4571675Y6907146D01*
X4561445Y6910852D01*
X4551305Y6914693D01*
X4541246Y6918667D01*
X4527329Y6924465D01*
X4486996Y6945277D01*
X4485575Y6946941D01*
X4484455Y6951162D01*
X4485525Y6955401D01*
X4488515Y6958583D01*
X4492673Y6959915D01*
X4494840Y6959621D01*
X4514783Y6949214D01*
X4524947Y6944284D01*
X4535227Y6939543D01*
X4545642Y6934988D01*
X4556173Y6930616D01*
X4566842Y6926433D01*
X4577629Y6922438D01*
X4611742Y6911276D01*
X4629281Y6906364D01*
X4647120Y6901914D01*
X4665255Y6897929D01*
X4683670Y6894421D01*
X4702346Y6891405D01*
X4721275Y6888895D01*
X4740444Y6886886D01*
X4759840Y6885391D01*
X4779450Y6884442D01*
X4799260Y6884023D01*
X4819252Y6884157D01*
X4829314Y6884434D01*
X4839424Y6884853D01*
X4849570Y6885411D01*
X4859754Y6886117D01*
X4869978Y6886971D01*
X4880229Y6887966D01*
X4918581Y6893024D01*
X4937813Y6896374D01*
X4957005Y6900301D01*
X4976107Y6904802D01*
X4995057Y6909894D01*
X5013807Y6915599D01*
X5032285Y6921911D01*
X5050447Y6928854D01*
X5068235Y6936433D01*
X5085595Y6944678D01*
X5102463Y6953577D01*
X5118788Y6963157D01*
X5134507Y6973429D01*
X5149569Y6984397D01*
X5163923Y6996079D01*
X5187481Y7018685D01*
X5198238Y7030811D01*
X5208298Y7043463D01*
X5217625Y7056606D01*
X5226221Y7070207D01*
X5234065Y7084268D01*
X5241141Y7098742D01*
X5247430Y7113609D01*
X5252919Y7128860D01*
X5257596Y7144448D01*
X5261439Y7160365D01*
X5264418Y7176576D01*
X5266542Y7193062D01*
X5267787Y7209802D01*
X5268129Y7226766D01*
X5267232Y7248991D01*
X5266207Y7260176D01*
X5264811Y7271412D01*
X5263032Y7282678D01*
X5260873Y7293969D01*
X5258322Y7305281D01*
X5255394Y7316603D01*
X5252071Y7327931D01*
X5248364Y7339242D01*
X5244257Y7350543D01*
X5239759Y7361827D01*
X5234873Y7373083D01*
X5229590Y7384296D01*
X5223908Y7395470D01*
X5217822Y7406578D01*
X5222655Y7392519D01*
X5226975Y7378681D01*
X5230800Y7365073D01*
X5234128Y7351685D01*
X5236975Y7338515D01*
X5239339Y7325574D01*
X5241230Y7312861D01*
X5242660Y7300370D01*
X5243635Y7288105D01*
X5244157Y7276071D01*
X5244240Y7264258D01*
X5243889Y7252677D01*
X5243112Y7241323D01*
X5241909Y7230190D01*
X5238282Y7208615D01*
X5234029Y7191237D01*
X5228747Y7174545D01*
X5222486Y7158540D01*
X5215299Y7143215D01*
X5207235Y7128565D01*
X5198332Y7114592D01*
X5188649Y7101293D01*
X5178231Y7088657D01*
X5167125Y7076687D01*
X5155383Y7065381D01*
X5143051Y7054734D01*
X5130181Y7044745D01*
X5116805Y7035396D01*
X5103000Y7026706D01*
X5074246Y7011254D01*
X5057812Y7003800D01*
X5041023Y6997089D01*
X5023885Y6991113D01*
X5006416Y6985864D01*
X4988612Y6981339D01*
X4970494Y6977521D01*
X4952071Y6974422D01*
X4933347Y6972017D01*
X4914331Y6970305D01*
X4895042Y6969282D01*
X4875489Y6968938D01*
X4855673Y6969265D01*
X4835608Y6970264D01*
X4825491Y6971001D01*
X4815311Y6971917D01*
X4805073Y6972988D01*
X4794783Y6974216D01*
X4774027Y6977171D01*
X4760498Y6979417D01*
X4746857Y6981929D01*
X4733102Y6984719D01*
X4719235Y6987780D01*
X4705254Y6991098D01*
X4691160Y6994693D01*
X4676943Y6998552D01*
X4662625Y7002679D01*
X4648167Y7007078D01*
X4633599Y7011739D01*
X4618898Y7016669D01*
X4604081Y7021870D01*
X4589136Y7027336D01*
X4574062Y7033062D01*
X4543525Y7045325D01*
X4541620Y7046296D01*
X4539062Y7049706D01*
X4538531Y7053939D01*
X4540170Y7057876D01*
X4543541Y7060483D01*
X4547763Y7061078D01*
X4549793Y7060416D01*
X4600418Y7040133D01*
X4616488Y7034533D01*
X4627885Y7030697D01*
X4639220Y7026998D01*
X4650482Y7023439D01*
X4661682Y7020016D01*
X4672820Y7016732D01*
X4719727Y7003934D01*
X4734621Y7000801D01*
X4745192Y6998717D01*
X4755701Y6996773D01*
X4766154Y6994969D01*
X4776544Y6993301D01*
X4786874Y6991772D01*
X4830422Y6986478D01*
X4846238Y6985729D01*
X4858009Y6985401D01*
X4869689Y6985275D01*
X4881298Y6985359D01*
X4892816Y6985638D01*
X4933250Y6987962D01*
X4947880Y6990107D01*
X4958754Y6991966D01*
X4969530Y6994025D01*
X4980207Y6996301D01*
X4990790Y6998788D01*
X5027776Y7009015D01*
X5040975Y7014180D01*
X5050727Y7018319D01*
X5060346Y7022673D01*
X5069827Y7027246D01*
X5079171Y7032047D01*
X5111448Y7050560D01*
X5122538Y7058907D01*
X5130625Y7065440D01*
X5138496Y7072200D01*
X5146155Y7079186D01*
X5153597Y7086407D01*
X5178585Y7113594D01*
X5186376Y7125248D01*
X5191862Y7134271D01*
X5197046Y7143529D01*
X5201914Y7153028D01*
X5206448Y7162772D01*
X5220438Y7198984D01*
X5224061Y7217930D01*
X5225677Y7229634D01*
X5226874Y7241588D01*
X5227537Y7251739D01*
X5227906Y7262066D01*
X5226743Y7307704D01*
X5224314Y7321691D01*
X5221893Y7333547D01*
X5219122Y7345578D01*
X5216641Y7355334D01*
X5213934Y7365211D01*
X5210993Y7375207D01*
X5207822Y7385315D01*
X5187768Y7440800D01*
X5176839Y7463255D01*
X5171003Y7474666D01*
X5164909Y7486194D01*
X5158564Y7497839D01*
X5153639Y7506650D01*
X5148577Y7515533D01*
X5143372Y7524478D01*
X5138027Y7533499D01*
X5145237Y7526489D01*
G37*
D11*
X6282301Y7223679D02*
X6284024Y7203894D01*
X6289254Y5680304D02*
X6279175Y5663072D01*
X6132756Y6830224D02*
X6148131Y6843827D01*
X6963046Y5787737D02*
X6927917Y5783912D01*
X6281255Y7256296D02*
X6281754Y7269323D01*
X7082818Y6693062D02*
X7102377Y6621917D01*
X7130254Y6546876D01*
X7164378Y6479821D01*
X7205595Y6420131D01*
X7239844Y6381663D01*
X5845388Y4869258D02*
X5861913Y4870463D01*
X6582149Y5835486D02*
X6553200Y5842000D01*
X6132996Y7224273D02*
X6147591Y7214073D01*
X6200196Y6907422D02*
X6211519Y6924610D01*
X5760195Y4841312D02*
X5777060Y4850278D01*
X6432358Y5830285D02*
X6422246Y5823103D01*
X6323498Y7382197D02*
X6313457Y7366240D01*
X6025215Y6858514D02*
X6003649Y6847153D01*
X5779416Y4549103D02*
X5773192Y4558956D01*
X6902767Y5783302D02*
X6863775Y5784056D01*
X6087363Y4728715D02*
X6093588Y4710886D01*
X5887651Y6840317D02*
X5900073Y6834812D01*
X4235947Y6227153D02*
X4236395Y6222111D01*
X6768067Y5795177D02*
X6727017Y5802495D01*
X4170155Y6278083D02*
X4175725Y6268354D01*
X6836733Y5786246D02*
X6795628Y5790865D01*
X6013744Y4504343D02*
X5995122Y4493539D01*
X7145361Y5907339D02*
X7132707Y5887546D01*
X6305751Y5704493D02*
X6289254Y5680304D01*
X6132756Y6830224D02*
X6108530Y6811302D01*
X6848704Y5871628D02*
X6869290Y5870154D01*
X4326975Y6504593D02*
X4312484Y6508060D01*
X5827743Y6688102D02*
X5804432Y6667146D01*
X6286426Y7119230D02*
X6283492Y7096156D01*
X6992303Y5897630D02*
X6966362Y5885338D01*
X4371743Y6484263D02*
X4359121Y6491724D01*
X4278002Y6509383D02*
X4287848Y6510089D01*
X7100280Y6030890D02*
X7093519Y6009270D01*
X5115697Y5639119D02*
X5218247Y5529142D01*
X6284346Y7288938D02*
X6281754Y7269323D01*
X4166445Y6405998D02*
X4170230Y6417169D01*
X5865592Y6946881D02*
X4468207Y6279448D01*
X7015519Y5799966D02*
X6985291Y5791473D01*
X4453925Y6289971D02*
G75*
G03*
X4468207Y6279448I9885J-1537D01*
G01*
X6365858Y5773984D02*
X6347506Y5755240D01*
X6323472Y7382205D02*
G75*
G03*
X6048882Y7250619I-255742J181379D01*
G01*
X4202068Y6247894D02*
X4208638Y6246101D01*
X6482274Y5849346D02*
X6471670Y5847514D01*
X5867964Y6715406D02*
X5843557Y6700492D01*
X7100280Y6030890D02*
X7103228Y6044903D01*
X4407889Y6454090D02*
X4413973Y6447309D01*
X4159544Y6377429D02*
X4157253Y6360191D01*
X4350217Y6496002D02*
X4359121Y6491724D01*
X6195710Y7065351D02*
X6198006Y7078391D01*
X7170507Y5954519D02*
X7163767Y5940998D01*
X5825012Y4508277D02*
X5814568Y4515755D01*
X6196609Y7128810D02*
X6194145Y7140790D01*
X6267719Y7038618D02*
X6273541Y7055561D01*
X6227032Y6950997D02*
X6236779Y6968701D01*
X6456570Y5843219D02*
X6446908Y5838646D01*
X4456401Y6315467D02*
X4455936Y6306722D01*
X6863775Y5784056D02*
X6836733Y5786246D01*
X6422246Y5823103D02*
X6406515Y5810940D01*
X7103644Y6064660D02*
X7102315Y6077290D01*
X6575317Y6185847D02*
X6472666Y6004631D01*
X4278002Y6509383D02*
X4263356Y6507161D01*
X6899548Y5871068D02*
X6869290Y5870154D01*
X6377938Y5785734D02*
X6365858Y5773984D01*
X5841815Y4497569D02*
X5825012Y4508277D01*
X6637440Y5822313D02*
X6602917Y5830593D01*
X7096308Y6094997D02*
X7102315Y6077290D01*
X5872979Y4870458D02*
X5889662Y4869749D01*
X6267719Y7038618D02*
X6257722Y7012799D01*
X5777060Y4850278D02*
X5788451Y4855076D01*
X5788451Y4855076D02*
X5795973Y4857961D01*
X6796729Y5879686D02*
X6817584Y5875491D01*
X5792663Y5138340D02*
G75*
G03*
X5936812Y5062126I164547J136794D01*
G01*
X5765105Y4574330D02*
X5760861Y4584882D01*
X6286426Y7119230D02*
X6287561Y7134235D01*
D12*
X4906774Y8169916D02*
X4908148Y8167999D01*
X5029527Y7977873D01*
X5030416Y7976262D01*
X5030589Y7972587D01*
X5028912Y7969313D01*
X5025828Y7967308D01*
X5022152Y7967111D01*
X5018865Y7968756D01*
X5017754Y7970232D01*
X4893439Y8158443D01*
X4892292Y8160436D01*
X4892002Y8165027D01*
X4894034Y8169147D01*
X4895854Y8170556D01*
X4897883Y8171762D01*
X4902580Y8172049D01*
X4906774Y8169916D01*
G36*
X4906774Y8169916D02*
G01*
X4908148Y8167999D01*
X5029527Y7977873D01*
X5030416Y7976262D01*
X5030589Y7972587D01*
X5028912Y7969313D01*
X5025828Y7967308D01*
X5022152Y7967111D01*
X5018865Y7968756D01*
X5017754Y7970232D01*
X4893439Y8158443D01*
X4892292Y8160436D01*
X4892002Y8165027D01*
X4894034Y8169147D01*
X4895854Y8170556D01*
X4897883Y8171762D01*
X4902580Y8172049D01*
X4906774Y8169916D01*
G37*
D11*
X6186165Y7032591D02*
X6177735Y7012970D01*
X6085866Y4585745D02*
X6075139Y4567299D01*
X5773192Y4558956D02*
X5765105Y4574330D01*
D15*
X-269864Y10947603D02*
X-186966Y10911670D01*
X-186966Y10911670D02*
X-160993Y10880717D01*
X-160993Y10880717D02*
X-137511Y10821301D01*
X-137511Y10821301D02*
X-144981Y10735913D01*
X-144981Y10735913D02*
X-178424Y10681478D01*
X-178424Y10681478D02*
X-209377Y10655505D01*
X-209377Y10655505D02*
X-268793Y10632023D01*
X-268793Y10632023D02*
X-496494Y10651944D01*
X-496494Y10651944D02*
X-444201Y11249661D01*
X-444201Y11249661D02*
X-244962Y11232230D01*
X-244962Y11232230D02*
X-190527Y11198787D01*
X-190527Y11198787D02*
X-164554Y11167834D01*
X-164554Y11167834D02*
X-141072Y11108418D01*
X-141072Y11108418D02*
X-146052Y11051493D01*
X-146052Y11051493D02*
X-179495Y10997058D01*
X-179495Y10997058D02*
X-210448Y10971085D01*
X-210448Y10971085D02*
X-269864Y10947603D01*
X-269864Y10947603D02*
X-469103Y10965034D01*
X267366Y11187407D02*
X324291Y11182427D01*
X324291Y11182427D02*
X378726Y11148984D01*
X378726Y11148984D02*
X404699Y11118031D01*
X404699Y11118031D02*
X428181Y11058615D01*
X428181Y11058615D02*
X446683Y10942274D01*
X446683Y10942274D02*
X434233Y10799961D01*
X434233Y10799961D02*
X395809Y10688600D01*
X395809Y10688600D02*
X362366Y10634165D01*
X362366Y10634165D02*
X331413Y10608192D01*
X331413Y10608192D02*
X271998Y10584710D01*
X271998Y10584710D02*
X215072Y10589690D01*
X215072Y10589690D02*
X160637Y10623133D01*
X160637Y10623133D02*
X134664Y10654086D01*
X134664Y10654086D02*
X111182Y10713502D01*
X111182Y10713502D02*
X92680Y10829843D01*
X92680Y10829843D02*
X105131Y10972156D01*
X105131Y10972156D02*
X143554Y11083517D01*
X143554Y11083517D02*
X176997Y11137952D01*
X176997Y11137952D02*
X207950Y11163924D01*
X207950Y11163924D02*
X267366Y11187407D01*
X689326Y11093129D02*
X720279Y11119102D01*
X720279Y11119102D02*
X779695Y11142584D01*
X779695Y11142584D02*
X922008Y11130133D01*
X922008Y11130133D02*
X976444Y11096690D01*
X976444Y11096690D02*
X1002416Y11065737D01*
X1002416Y11065737D02*
X1025899Y11006322D01*
X1025899Y11006322D02*
X1020918Y10949396D01*
X1020918Y10949396D02*
X984985Y10866498D01*
X984985Y10866498D02*
X613551Y10554828D01*
X613551Y10554828D02*
X983566Y10522456D01*
X1092437Y10455569D02*
X1547840Y10415727D01*
X1662039Y11065389D02*
X1808985Y10450241D01*
X1808985Y10450241D02*
X2060517Y11030526D01*
X2373607Y11003135D02*
X2430533Y10998154D01*
X2430533Y10998154D02*
X2484968Y10964711D01*
X2484968Y10964711D02*
X2510940Y10933758D01*
X2510940Y10933758D02*
X2534423Y10874343D01*
X2534423Y10874343D02*
X2552925Y10758002D01*
X2552925Y10758002D02*
X2540474Y10615688D01*
X2540474Y10615688D02*
X2502051Y10504328D01*
X2502051Y10504328D02*
X2468608Y10449892D01*
X2468608Y10449892D02*
X2437655Y10423920D01*
X2437655Y10423920D02*
X2378239Y10400437D01*
X2378239Y10400437D02*
X2321314Y10405418D01*
X2321314Y10405418D02*
X2266879Y10438861D01*
X2266879Y10438861D02*
X2240906Y10469814D01*
X2240906Y10469814D02*
X2217424Y10529229D01*
X2217424Y10529229D02*
X2198922Y10645570D01*
X2198922Y10645570D02*
X2211372Y10787884D01*
X2211372Y10787884D02*
X2249796Y10899244D01*
X2249796Y10899244D02*
X2283239Y10953680D01*
X2283239Y10953680D02*
X2314192Y10979652D01*
X2314192Y10979652D02*
X2373607Y11003135D01*
X2781698Y10422501D02*
X2807670Y10391548D01*
X2807670Y10391548D02*
X2776717Y10365575D01*
X2776717Y10365575D02*
X2750745Y10396528D01*
X2750745Y10396528D02*
X2781698Y10422501D01*
X2781698Y10422501D02*
X2776717Y10365575D01*
X3398265Y10913489D02*
X3113638Y10938390D01*
X3113638Y10938390D02*
X3060273Y10656253D01*
X3060273Y10656253D02*
X3091226Y10682226D01*
X3091226Y10682226D02*
X3150642Y10705708D01*
X3150642Y10705708D02*
X3292955Y10693258D01*
X3292955Y10693258D02*
X3347391Y10659815D01*
X3347391Y10659815D02*
X3373363Y10628862D01*
X3373363Y10628862D02*
X3396845Y10569446D01*
X3396845Y10569446D02*
X3384395Y10427133D01*
X3384395Y10427133D02*
X3350952Y10372697D01*
X3350952Y10372697D02*
X3319999Y10346725D01*
X3319999Y10346725D02*
X3260583Y10323242D01*
X3260583Y10323242D02*
X3118270Y10335693D01*
X3118270Y10335693D02*
X3063834Y10369136D01*
X3063834Y10369136D02*
X3037862Y10400089D01*
X7964283Y-7930878D02*
X7949439Y-7993017D01*
X7949439Y-7993017D02*
X7875978Y-8080565D01*
X7875978Y-8080565D02*
X7817360Y-8105973D01*
X7817360Y-8105973D02*
X7777108Y-8109495D01*
X7777108Y-8109495D02*
X7714968Y-8094651D01*
X7714968Y-8094651D02*
X7583646Y-7984459D01*
X7583646Y-7984459D02*
X7558238Y-7925841D01*
X7558238Y-7925841D02*
X7554716Y-7885589D01*
X7554716Y-7885589D02*
X7569560Y-7823450D01*
X7569560Y-7823450D02*
X7643021Y-7735902D01*
X7643021Y-7735902D02*
X7701639Y-7710493D01*
X8316747Y-7555277D02*
X8075990Y-7353258D01*
X8075990Y-7353258D02*
X8013850Y-7338414D01*
X8013850Y-7338414D02*
X7955233Y-7363823D01*
X7955233Y-7363823D02*
X7881771Y-7451371D01*
X7881771Y-7451371D02*
X7866928Y-7513510D01*
X8294860Y-7536912D02*
X8280016Y-7599051D01*
X8280016Y-7599051D02*
X8188189Y-7708486D01*
X8188189Y-7708486D02*
X8129571Y-7733895D01*
X8129571Y-7733895D02*
X8067432Y-7719051D01*
X8067432Y-7719051D02*
X8023658Y-7682320D01*
X8023658Y-7682320D02*
X7998249Y-7623702D01*
X7998249Y-7623702D02*
X8013093Y-7561563D01*
X8013093Y-7561563D02*
X8104920Y-7452128D01*
X8104920Y-7452128D02*
X8119764Y-7389989D01*
X10771940Y-3636988D02*
X10721896Y-3676703D01*
X10721896Y-3676703D02*
X10683926Y-3690522D01*
X10683926Y-3690522D02*
X10620063Y-3692267D01*
X10620063Y-3692267D02*
X10464696Y-3619818D01*
X10464696Y-3619818D02*
X10424981Y-3569774D01*
X10424981Y-3569774D02*
X10411162Y-3531805D01*
X10411162Y-3531805D02*
X10409417Y-3467941D01*
X10409417Y-3467941D02*
X10445641Y-3390258D01*
X10445641Y-3390258D02*
X10495685Y-3350543D01*
X10495685Y-3350543D02*
X10533655Y-3336724D01*
X10533655Y-3336724D02*
X10597518Y-3334979D01*
X10597518Y-3334979D02*
X10752886Y-3407428D01*
X10752886Y-3407428D02*
X10792600Y-3457472D01*
X10792600Y-3457472D02*
X10806419Y-3495441D01*
X10806419Y-3495441D02*
X10808164Y-3559305D01*
X10808164Y-3559305D02*
X10771940Y-3636988D01*
X10965137Y-3222676D02*
X10421352Y-2969106D01*
X10628508Y-3065704D02*
X10626763Y-3001840D01*
X10626763Y-3001840D02*
X10675062Y-2898262D01*
X10675062Y-2898262D02*
X10725107Y-2858548D01*
X10725107Y-2858548D02*
X10763076Y-2844728D01*
X10763076Y-2844728D02*
X10826940Y-2842983D01*
X10826940Y-2842983D02*
X10982307Y-2915432D01*
X10982307Y-2915432D02*
X11022021Y-2965476D01*
X11022021Y-2965476D02*
X11035841Y-3003446D01*
X11035841Y-3003446D02*
X11037586Y-3067309D01*
X11037586Y-3067309D02*
X10989286Y-3170887D01*
X10989286Y-3170887D02*
X10939242Y-3210602D01*
X10293983Y-4605394D02*
X9769211Y-4314508D01*
X9769211Y-4314508D02*
X9880025Y-4114595D01*
X9880025Y-4114595D02*
X9932717Y-4078468D01*
X9932717Y-4078468D02*
X9971558Y-4067331D01*
X9971558Y-4067331D02*
X10035388Y-4070045D01*
X10035388Y-4070045D02*
X10110356Y-4111600D01*
X10110356Y-4111600D02*
X10146482Y-4164293D01*
X10146482Y-4164293D02*
X10157620Y-4203134D01*
X10157620Y-4203134D02*
X10154905Y-4266963D01*
X10154905Y-4266963D02*
X10044092Y-4466877D01*
X10584869Y-4080622D02*
X10235021Y-3886698D01*
X10334977Y-3942105D02*
X10298851Y-3889412D01*
X10298851Y-3889412D02*
X10287713Y-3850571D01*
X10287713Y-3850571D02*
X10290428Y-3786741D01*
X10290428Y-3786741D02*
X10318131Y-3736763D01*
X-10652253Y-3037840D02*
X-11023406Y-3252125D01*
X-11023406Y-3252125D02*
X-11111923Y-3270239D01*
X-11111923Y-3270239D02*
X-11189981Y-3249323D01*
X-11189981Y-3249323D02*
X-11257582Y-3189378D01*
X-11257582Y-3189378D02*
X-11286154Y-3139891D01*
X-10886153Y-3832711D02*
X-11029011Y-3585276D01*
X-11029011Y-3585276D02*
X-10509395Y-3285276D01*
X-10565238Y-4274268D02*
X-10604267Y-4263810D01*
X-10604267Y-4263810D02*
X-10671868Y-4203865D01*
X-10671868Y-4203865D02*
X-10700439Y-4154378D01*
X-10700439Y-4154378D02*
X-10718553Y-4065861D01*
X-10718553Y-4065861D02*
X-10697637Y-3987803D01*
X-10697637Y-3987803D02*
X-10662436Y-3934488D01*
X-10662436Y-3934488D02*
X-10577747Y-3852601D01*
X-10577747Y-3852601D02*
X-10503516Y-3809744D01*
X-10503516Y-3809744D02*
X-10390256Y-3777345D01*
X-10390256Y-3777345D02*
X-10326483Y-3773517D01*
X-10326483Y-3773517D02*
X-10248425Y-3794433D01*
X-10248425Y-3794433D02*
X-10180824Y-3854378D01*
X-10180824Y-3854378D02*
X-10152253Y-3903865D01*
X-10152253Y-3903865D02*
X-10134139Y-3992381D01*
X-10134139Y-3992381D02*
X-10144597Y-4031411D01*
X-9880824Y-4373993D02*
X-10251978Y-4588279D01*
X-10251978Y-4588279D02*
X-10340494Y-4606392D01*
X-10340494Y-4606392D02*
X-10418553Y-4585476D01*
X-10418553Y-4585476D02*
X-10486154Y-4525531D01*
X-10486154Y-4525531D02*
X-10514725Y-4476044D01*
X-10114725Y-5168865D02*
X-10257582Y-4921429D01*
X-10257582Y-4921429D02*
X-9737967Y-4621429D01*
X-9793809Y-5610421D02*
X-9832839Y-5599963D01*
X-9832839Y-5599963D02*
X-9900439Y-5540018D01*
X-9900439Y-5540018D02*
X-9929011Y-5490531D01*
X-9929011Y-5490531D02*
X-9947124Y-5402015D01*
X-9947124Y-5402015D02*
X-9926209Y-5323956D01*
X-9926209Y-5323956D02*
X-9891007Y-5270641D01*
X-9891007Y-5270641D02*
X-9806319Y-5188755D01*
X-9806319Y-5188755D02*
X-9732088Y-5145897D01*
X-9732088Y-5145897D02*
X-9618828Y-5113498D01*
X-9618828Y-5113498D02*
X-9555055Y-5109670D01*
X-9555055Y-5109670D02*
X-9476996Y-5130586D01*
X-9476996Y-5130586D02*
X-9409396Y-5190531D01*
X-9409396Y-5190531D02*
X-9380824Y-5240018D01*
X-9380824Y-5240018D02*
X-9362711Y-5328535D01*
X-9362711Y-5328535D02*
X-9373168Y-5367564D01*
X-9109396Y-5710146D02*
X-9480549Y-5924432D01*
X-9480549Y-5924432D02*
X-9569066Y-5942546D01*
X-9569066Y-5942546D02*
X-9647124Y-5921630D01*
X-9647124Y-5921630D02*
X-9714725Y-5861685D01*
X-9714725Y-5861685D02*
X-9743297Y-5812198D01*
X-9343296Y-6505018D02*
X-9486154Y-6257582D01*
X-9486154Y-6257582D02*
X-8966538Y-5957582D01*
X-9022381Y-6946574D02*
X-9061410Y-6936117D01*
X-9061410Y-6936117D02*
X-9129011Y-6876172D01*
X-9129011Y-6876172D02*
X-9157582Y-6826684D01*
X-9157582Y-6826684D02*
X-9175696Y-6738168D01*
X-9175696Y-6738168D02*
X-9154780Y-6660109D01*
X-9154780Y-6660109D02*
X-9119579Y-6606794D01*
X-9119579Y-6606794D02*
X-9034890Y-6524908D01*
X-9034890Y-6524908D02*
X-8960659Y-6482051D01*
X-8960659Y-6482051D02*
X-8847399Y-6449651D01*
X-8847399Y-6449651D02*
X-8783626Y-6445824D01*
X-8783626Y-6445824D02*
X-8705568Y-6466739D01*
X-8705568Y-6466739D02*
X-8637967Y-6526684D01*
X-8637967Y-6526684D02*
X-8609396Y-6576172D01*
X-8609396Y-6576172D02*
X-8591282Y-6664688D01*
X-8591282Y-6664688D02*
X-8601740Y-6703717D01*
X-8337967Y-7046300D02*
X-8709121Y-7260585D01*
X-8709121Y-7260585D02*
X-8797637Y-7278699D01*
X-8797637Y-7278699D02*
X-8875696Y-7257783D01*
X-8875696Y-7257783D02*
X-8943297Y-7197838D01*
X-8943297Y-7197838D02*
X-8971868Y-7148351D01*
X-8571868Y-7841171D02*
X-8714725Y-7593736D01*
X-8714725Y-7593736D02*
X-8195110Y-7293736D01*
X-8250952Y-8282728D02*
X-8289982Y-8272270D01*
X-8289982Y-8272270D02*
X-8357582Y-8212325D01*
X-8357582Y-8212325D02*
X-8386154Y-8162838D01*
X-8386154Y-8162838D02*
X-8404267Y-8074321D01*
X-8404267Y-8074321D02*
X-8383352Y-7996263D01*
X-8383352Y-7996263D02*
X-8348150Y-7942948D01*
X-8348150Y-7942948D02*
X-8263462Y-7861061D01*
X-8263462Y-7861061D02*
X-8189231Y-7818204D01*
X-8189231Y-7818204D02*
X-8075971Y-7785805D01*
X-8075971Y-7785805D02*
X-8012198Y-7781977D01*
X-8012198Y-7781977D02*
X-7934139Y-7802893D01*
X-7934139Y-7802893D02*
X-7866539Y-7862838D01*
X-7866539Y-7862838D02*
X-7837967Y-7912325D01*
X-7837967Y-7912325D02*
X-7819854Y-8000841D01*
X-7819854Y-8000841D02*
X-7830311Y-8039871D01*
X9406702Y-6143724D02*
X9415103Y-6183247D01*
X9415103Y-6183247D02*
X9392382Y-6270694D01*
X9392382Y-6270694D02*
X9361260Y-6318618D01*
X9361260Y-6318618D02*
X9290614Y-6374943D01*
X9290614Y-6374943D02*
X9211568Y-6391745D01*
X9211568Y-6391745D02*
X9148083Y-6384584D01*
X9148083Y-6384584D02*
X9036674Y-6346302D01*
X9036674Y-6346302D02*
X8964788Y-6299619D01*
X8964788Y-6299619D02*
X8884501Y-6213412D01*
X8884501Y-6213412D02*
X8852138Y-6158328D01*
X8852138Y-6158328D02*
X8835336Y-6079282D01*
X8835336Y-6079282D02*
X8858057Y-5991834D01*
X8858057Y-5991834D02*
X8889179Y-5943910D01*
X8889179Y-5943910D02*
X8959825Y-5887585D01*
X8959825Y-5887585D02*
X8999348Y-5879185D01*
X9594676Y-5959188D02*
X9091474Y-5632404D01*
X9091474Y-5632404D02*
X9781410Y-5671643D01*
X9781410Y-5671643D02*
X9278207Y-5344860D01*
X10075830Y-5113357D02*
X10084231Y-5152880D01*
X10084231Y-5152880D02*
X10061510Y-5240327D01*
X10061510Y-5240327D02*
X10030387Y-5288251D01*
X10030387Y-5288251D02*
X9959742Y-5344576D01*
X9959742Y-5344576D02*
X9880696Y-5361378D01*
X9880696Y-5361378D02*
X9817211Y-5354218D01*
X9817211Y-5354218D02*
X9705801Y-5315936D01*
X9705801Y-5315936D02*
X9633915Y-5269252D01*
X9633915Y-5269252D02*
X9553628Y-5183046D01*
X9553628Y-5183046D02*
X9521265Y-5127962D01*
X9521265Y-5127962D02*
X9504464Y-5048915D01*
X9504464Y-5048915D02*
X9527185Y-4961468D01*
X9527185Y-4961468D02*
X9558307Y-4913544D01*
X9558307Y-4913544D02*
X9628953Y-4857219D01*
X9628953Y-4857219D02*
X9668476Y-4848818D01*
X11207204Y-2449005D02*
X11213400Y-2512591D01*
X11213400Y-2512591D02*
X11172444Y-2619286D01*
X11172444Y-2619286D02*
X11125292Y-2662395D01*
X11125292Y-2662395D02*
X11061705Y-2668590D01*
X11061705Y-2668590D02*
X10848315Y-2586677D01*
X10848315Y-2586677D02*
X10805207Y-2539525D01*
X10805207Y-2539525D02*
X10799011Y-2475939D01*
X10799011Y-2475939D02*
X10839968Y-2369244D01*
X10839968Y-2369244D02*
X10887120Y-2326136D01*
X10887120Y-2326136D02*
X10950706Y-2319940D01*
X10950706Y-2319940D02*
X11004054Y-2340418D01*
X11004054Y-2340418D02*
X10955010Y-2627634D01*
X7022577Y-8939292D02*
X6590973Y-8522497D01*
X6796498Y-8720971D02*
X7034667Y-8474340D01*
X7260745Y-8692661D02*
X6829141Y-8275866D01*
X7597445Y-8302868D02*
X7578303Y-8363820D01*
X7578303Y-8363820D02*
X7498913Y-8446031D01*
X7498913Y-8446031D02*
X7438666Y-8467289D01*
X7438666Y-8467289D02*
X7377714Y-8448146D01*
X7377714Y-8448146D02*
X7213293Y-8289367D01*
X7213293Y-8289367D02*
X7192035Y-8229120D01*
X7192035Y-8229120D02*
X7211178Y-8168167D01*
X7211178Y-8168167D02*
X7290567Y-8085957D01*
X7290567Y-8085957D02*
X7350814Y-8064699D01*
X7350814Y-8064699D02*
X7411767Y-8083842D01*
X7411767Y-8083842D02*
X7452872Y-8123536D01*
X7452872Y-8123536D02*
X7295503Y-8368757D01*
X8168638Y-7163015D02*
X8302989Y-6978097D01*
X8057217Y-6976113D02*
X8473282Y-7278403D01*
X8473282Y-7278403D02*
X8536306Y-7288876D01*
X8536306Y-7288876D02*
X8593008Y-7259440D01*
X8593008Y-7259440D02*
X8626596Y-7213211D01*
X8855389Y-6849695D02*
X8844916Y-6912719D01*
X8844916Y-6912719D02*
X8777741Y-7005178D01*
X8777741Y-7005178D02*
X8721038Y-7034614D01*
X8721038Y-7034614D02*
X8658015Y-7024141D01*
X8658015Y-7024141D02*
X8473097Y-6889790D01*
X8473097Y-6889790D02*
X8443661Y-6833087D01*
X8443661Y-6833087D02*
X8454134Y-6770064D01*
X8454134Y-6770064D02*
X8521309Y-6677605D01*
X8521309Y-6677605D02*
X8578012Y-6648169D01*
X8578012Y-6648169D02*
X8641035Y-6658642D01*
X8641035Y-6658642D02*
X8687265Y-6692230D01*
X8687265Y-6692230D02*
X8565556Y-6956965D01*
D10*
X-4287673Y-7136413D02*
X-4934187Y-6649230D01*
X-4934187Y-6649230D02*
X-5038906Y-6629944D01*
X-5038906Y-6629944D02*
X-5105594Y-6639317D01*
X-5105594Y-6639317D02*
X-5200940Y-6686719D01*
X-5200940Y-6686719D02*
X-5315571Y-6838840D01*
X-5315571Y-6838840D02*
X-5334857Y-6943559D01*
X-5334857Y-6943559D02*
X-5325484Y-7010247D01*
X-5325484Y-7010247D02*
X-5278082Y-7105593D01*
X-5278082Y-7105593D02*
X-4631567Y-7592777D01*
X-6032018Y-7789597D02*
X-5688123Y-7333234D01*
X-5860071Y-7561415D02*
X-5061435Y-8163230D01*
X-5061435Y-8163230D02*
X-5118210Y-8001196D01*
X-5118210Y-8001196D02*
X-5136955Y-7867820D01*
X-5136955Y-7867820D02*
X-5117669Y-7763102D01*
D15*
X-1130133Y-9841309D02*
X-1463466Y-9841309D01*
X-1463466Y-10365119D02*
X-1463466Y-9365119D01*
X-1463466Y-9365119D02*
X-987276Y-9365119D01*
X-606323Y-10365119D02*
X-606323Y-9365119D01*
X-606323Y-9365119D02*
X-225371Y-9365119D01*
X-225371Y-9365119D02*
X-130133Y-9412738D01*
X-130133Y-9412738D02*
X-82514Y-9460357D01*
X-82514Y-9460357D02*
X-34895Y-9555595D01*
X-34895Y-9555595D02*
X-34895Y-9698452D01*
X-34895Y-9698452D02*
X-82514Y-9793690D01*
X-82514Y-9793690D02*
X-130133Y-9841309D01*
X-130133Y-9841309D02*
X-225371Y-9888928D01*
X-225371Y-9888928D02*
X-606323Y-9888928D01*
X965104Y-10269880D02*
X917485Y-10317500D01*
X917485Y-10317500D02*
X774628Y-10365119D01*
X774628Y-10365119D02*
X679390Y-10365119D01*
X679390Y-10365119D02*
X536533Y-10317500D01*
X536533Y-10317500D02*
X441295Y-10222261D01*
X441295Y-10222261D02*
X393676Y-10127023D01*
X393676Y-10127023D02*
X346057Y-9936547D01*
X346057Y-9936547D02*
X346057Y-9793690D01*
X346057Y-9793690D02*
X393676Y-9603214D01*
X393676Y-9603214D02*
X441295Y-9507976D01*
X441295Y-9507976D02*
X536533Y-9412738D01*
X536533Y-9412738D02*
X679390Y-9365119D01*
X679390Y-9365119D02*
X774628Y-9365119D01*
X774628Y-9365119D02*
X917485Y-9412738D01*
X917485Y-9412738D02*
X965104Y-9460357D01*
X1917485Y-10365119D02*
X1346057Y-10365119D01*
X1631771Y-10365119D02*
X1631771Y-9365119D01*
X1631771Y-9365119D02*
X1536533Y-9507976D01*
X1536533Y-9507976D02*
X1441295Y-9603214D01*
X1441295Y-9603214D02*
X1346057Y-9650833D01*
D16*
%TO.C,U1*%
X-5278125Y-5181087D02*
G75*
G03*
X-5532123Y-5181087I-126999J0D01*
G01*
X-5532123Y-5181087D02*
G75*
G03*
X-5278125Y-5181087I126999J0D01*
G01*
X-5594463Y-8982136D02*
X-6572498Y-8245134D01*
X-5962351Y-7292236D02*
X-5745834Y-7004908D01*
X-4400848Y-7541363D02*
X-4846658Y-8132973D01*
X-4768738Y-5851463D02*
X-3790704Y-6588465D01*
D15*
%TO.C,FPC1*%
X-2423800Y-11251700D02*
X-2423800Y-9461700D01*
X-1880800Y-11961700D02*
X2033200Y-11961700D01*
X-1554800Y-11251700D02*
X-2423800Y-11251700D01*
X1707200Y-11251700D02*
X2576200Y-11251700D01*
X2576200Y-8256700D02*
X-2423800Y-8256700D01*
X2576200Y-11251700D02*
X2576200Y-9461700D01*
D17*
X-1676800Y-11685700D02*
G75*
G03*
X-1980800Y-11685700I-152000J0D01*
G01*
X-1980800Y-11685700D02*
G75*
G03*
X-1676800Y-11685700I152000J0D01*
G01*
D16*
%TO.C,U2*%
X-10382792Y2058305D02*
X-8831359Y1493630D01*
X-10031824Y3022580D02*
X-10382792Y2058305D01*
X-8377895Y2739511D02*
X-8155472Y3350614D01*
X-9253441Y5161170D02*
X-9604408Y4196895D01*
X-7702008Y4596495D02*
X-9253441Y5161170D01*
X-8091420Y1135388D02*
G75*
G03*
X-8345420Y1135388I-127000J0D01*
G01*
X-8345420Y1135388D02*
G75*
G03*
X-8091420Y1135388I127000J0D01*
G01*
D18*
%TO.C,C1*%
X-3433400Y-10318636D02*
X-3433400Y-10102964D01*
X-2713400Y-10318636D02*
X-2713400Y-10102964D01*
%TO.C,C3*%
X-9427005Y146571D02*
X-9224340Y72807D01*
X-9673260Y-530007D02*
X-9470595Y-603771D01*
%TO.C,C2*%
X-9071405Y1162571D02*
X-8868740Y1088807D01*
X-9317660Y485993D02*
X-9114995Y412229D01*
%TD*%
%LPC*%
D19*
%TO.C,U1*%
X-3652472Y-7379551D03*
X-4795921Y-8896960D03*
X-6710729Y-7454048D03*
D20*
X-5681926Y-6088780D03*
%TD*%
D21*
%TO.C,FPC1*%
X1326200Y-11411700D03*
X826200Y-11411700D03*
X326200Y-11411700D03*
X-173800Y-11411700D03*
X-673800Y-11411700D03*
X-1173800Y-11411700D03*
D22*
X2326200Y-8901700D03*
X-2173800Y-8901700D03*
%TD*%
D23*
%TO.C,U2*%
X-8412592Y2087199D03*
X-7762753Y3872616D03*
X-9997128Y3674892D03*
%TD*%
D24*
%TO.C,REF\u002A\u002A*%
X9097491Y720689D03*
%TD*%
D25*
%TO.C,J3*%
X-8790648Y-2443541D03*
%TD*%
%TO.C,J1*%
X6512006Y-6390918D03*
%TD*%
D26*
%TO.C,C1*%
X-3073400Y-10690800D03*
X-3073400Y-9730800D03*
%TD*%
D27*
%TO.C,C3*%
X-9899852Y-64430D03*
X-8997748Y-392770D03*
%TD*%
D25*
%TO.C,J2*%
X-7522843Y-5163025D03*
%TD*%
%TO.C,J5*%
X2278693Y8835019D03*
%TD*%
%TO.C,J6*%
X8232736Y-3933460D03*
%TD*%
D27*
%TO.C,C2*%
X-9544252Y951570D03*
X-8642148Y623230D03*
%TD*%
D25*
%TO.C,J4*%
X-709888Y9096485D03*
%TD*%
D24*
%TO.C,REF\u002A\u002A*%
X-6654800Y6197600D03*
%TD*%
%LPD*%
M02*
